<?xml version="1.0" encoding="UTF-8" standalone="no"?>
<svg
   version="1.1"
   width="76.41185mm"
   height="76.431847mm"
   viewBox="0 0 76.411851 76.431846"
   id="svg1946"
   sodipodi:docname="debug.svg"
   inkscape:version="1.3.2 (091e20e, 2023-11-25, custom)"
   xmlns:inkscape="http://www.inkscape.org/namespaces/inkscape"
   xmlns:sodipodi="http://sodipodi.sourceforge.net/DTD/sodipodi-0.dtd"
   xmlns="http://www.w3.org/2000/svg"
   xmlns:svg="http://www.w3.org/2000/svg"
   xmlns:rdf="http://www.w3.org/1999/02/22-rdf-syntax-ns#"
   xmlns:cc="http://creativecommons.org/ns#"
   xmlns:dc="http://purl.org/dc/elements/1.1/">
  <defs
     id="defs1946">
    <inkscape:path-effect
       effect="fillet_chamfer"
       id="path-effect3"
       is_visible="true"
       lpeversion="1"
       nodesatellites_param="F,0,0,1,0,3,0,1 @ F,0,0,1,0,3,0,1 @ F,0,0,1,0,3,0,1 @ F,0,0,1,0,3,0,1"
       radius="3"
       unit="mm"
       method="auto"
       mode="F"
       chamfer_steps="1"
       flexible="false"
       use_knot_distance="true"
       apply_no_radius="true"
       apply_with_radius="true"
       only_selected="false"
       hide_knots="false" />
    <inkscape:path-effect
       effect="fillet_chamfer"
       id="path-effect2"
       is_visible="true"
       lpeversion="1"
       nodesatellites_param="F,0,0,1,0,0,0,1 @ F,0,0,1,0,0,0,1 @ F,0,0,1,0,0,0,1 @ F,0,0,1,0,0,0,1 | F,0,0,1,0,0,0,1 @ F,0,0,1,0,0,0,1 @ F,0,0,1,0,0,0,1 @ F,0,0,1,0,0,0,1 | F,0,0,1,0,0,0,1 @ F,0,0,1,0,0,0,1 @ F,0,0,1,0,0,0,1 @ F,0,0,1,0,0,0,1 | F,0,0,1,0,0,0,1 @ F,0,0,1,0,0,0,1 @ F,0,0,1,0,0,0,1 @ F,0,0,1,0,0,0,1 | F,0,0,1,0,0,0,1 @ F,0,0,1,0,0,0,1 @ F,0,0,1,0,0,0,1 @ F,0,0,1,0,0,0,1 | F,0,0,1,0,0,0,1 @ F,0,0,1,0,0,0,1 @ F,0,0,1,0,0,0,1 @ F,0,0,1,0,0,0,1 | F,0,0,1,0,0,0,1 @ F,0,0,1,0,0,0,1 @ F,0,0,1,0,0,0,1 @ F,0,0,1,0,0,0,1 | F,0,0,1,0,0,0,1 @ F,0,0,1,0,0,0,1 @ F,0,0,1,0,0,0,1 @ F,0,0,1,0,0,0,1 | F,0,0,1,0,0,0,1 @ F,0,0,1,0,0,0,1 @ F,0,0,1,0,0,0,1 @ F,0,1,1,0,1,0,1 @ F,0,1,1,0,1,0,1 @ F,0,0,1,0,0,0,1 @ F,0,0,1,0,0,0,1 @ F,0,0,1,0,0,0,1 @ F,0,1,1,0,1,0,1 @ F,0,1,1,0,1,0,1 @ F,0,1,1,0,1,0,1 @ F,0,0,1,0,0,0,1 @ F,0,0,1,0,0,0,1 @ F,0,0,1,0,0,0,1 @ F,0,1,1,0,1,0,1 @ F,0,1,1,0,1,0,1 @ F,0,0,1,0,0,0,1 @ F,0,0,1,0,0,0,1 @ F,0,0,1,0,0,0,1 @ F,0,1,1,0,1,0,1 @ F,0,1,1,0,1,0,1 @ F,0,1,1,0,1,0,1 @ F,0,0,1,0,0,0,1 @ F,0,0,1,0,0,0,1 @ F,0,0,1,0,0,0,1 @ F,0,1,1,0,1,0,1 @ F,0,1,1,0,1,0,1 @ F,0,0,1,0,0,0,1 @ F,0,0,1,0,0,0,1 @ F,0,0,1,0,0,0,1 @ F,0,1,1,0,1,0,1 @ F,0,1,1,0,1,0,1 @ F,0,1,1,0,1,0,1 @ F,0,0,1,0,0,0,1 @ F,0,0,1,0,0,0,1 @ F,0,0,1,0,0,0,1 @ F,0,1,1,0,1,0,1 @ F,0,1,1,0,1,0,1 @ F,0,0,1,0,0,0,1 @ F,0,0,1,0,0,0,1 @ F,0,0,1,0,0,0,1 @ F,0,1,1,0,1,0,1 @ F,0,1,1,0,1,0,1 @ F,0,1,1,0,1,0,1"
       radius="1"
       unit="mm"
       method="auto"
       mode="F"
       chamfer_steps="1"
       flexible="false"
       use_knot_distance="true"
       apply_no_radius="true"
       apply_with_radius="true"
       only_selected="true"
       hide_knots="false" />
    <inkscape:path-effect
       effect="fillet_chamfer"
       id="path-effect1"
       is_visible="true"
       lpeversion="1"
       nodesatellites_param="F,0,0,1,0,0,0,1 @ F,0,0,1,0,0,0,1 @ F,0,0,1,0,0,0,1 @ F,0,0,1,0,0,0,1 | F,0,1,1,0,1,0,1 @ F,0,0,1,0,0,0,1 @ F,0,0,1,0,0,0,1 @ F,0,0,1,0,0,0,1 @ F,0,1,1,0,1,0,1 @ F,0,1,1,0,1,0,1 @ F,0,1,1,0,1,0,1 @ F,0,0,1,0,0,0,1 @ F,0,0,1,0,0,0,1 @ F,0,0,1,0,0,0,1 @ F,0,1,1,0,1,0,1 @ F,0,1,1,0,1,0,1 @ F,0,0,1,0,0,0,1 @ F,0,0,1,0,0,0,1 @ F,0,0,1,0,0,0,1 @ F,0,1,1,0,1,0,1 @ F,0,1,1,0,1,0,1 @ F,0,1,1,0,1,0,1 @ F,0,0,1,0,0,0,1 @ F,0,0,1,0,0,0,1 @ F,0,0,1,0,0,0,1 @ F,0,1,1,0,1,0,1 @ F,0,1,1,0,1,0,1 @ F,0,0,1,0,0,0,1 @ F,0,0,1,0,0,0,1 @ F,0,0,1,0,0,0,1 @ F,0,1,1,0,1,0,1 @ F,0,1,1,0,1,0,1 @ F,0,1,1,0,1,0,1 @ F,0,0,1,0,0,0,1 @ F,0,0,1,0,0,0,1 @ F,0,0,1,0,0,0,1 @ F,0,1,1,0,1,0,1 @ F,0,1,1,0,1,0,1 @ F,0,0,1,0,0,0,1 @ F,0,0,1,0,0,0,1 @ F,0,0,1,0,0,0,1 @ F,0,1,1,0,1,0,1 @ F,0,1,1,0,1,0,1 @ F,0,1,1,0,1,0,1 @ F,0,0,1,0,0,0,1 @ F,0,0,1,0,0,0,1 @ F,0,0,1,0,0,0,1 @ F,0,1,1,0,1,0,1 | F,0,0,1,0,0,0,1 @ F,0,0,1,0,0,0,1 @ F,0,0,1,0,0,0,1 @ F,0,0,1,0,0,0,1 | F,0,0,1,0,0,0,1 @ F,0,0,1,0,0,0,1 @ F,0,0,1,0,0,0,1 @ F,0,0,1,0,0,0,1 | F,0,0,1,0,0,0,1 @ F,0,0,1,0,0,0,1 @ F,0,0,1,0,0,0,1 @ F,0,0,1,0,0,0,1 | F,0,0,1,0,0,0,1 @ F,0,0,1,0,0,0,1 @ F,0,0,1,0,0,0,1 @ F,0,0,1,0,0,0,1 | F,0,0,1,0,0,0,1 @ F,0,0,1,0,0,0,1 @ F,0,0,1,0,0,0,1 @ F,0,0,1,0,0,0,1 | F,0,0,1,0,0,0,1 @ F,0,0,1,0,0,0,1 @ F,0,0,1,0,0,0,1 @ F,0,0,1,0,0,0,1 | F,0,0,1,0,0,0,1 @ F,0,0,1,0,0,0,1 @ F,0,0,1,0,0,0,1 @ F,0,0,1,0,0,0,1"
       radius="1"
       unit="mm"
       method="auto"
       mode="F"
       chamfer_steps="1"
       flexible="false"
       use_knot_distance="true"
       apply_no_radius="true"
       apply_with_radius="true"
       only_selected="true"
       hide_knots="false" />
  </defs>
  <sodipodi:namedview
     id="namedview1946"
     pagecolor="#ffffff"
     bordercolor="#000000"
     borderopacity="0.25"
     inkscape:showpageshadow="2"
     inkscape:pageopacity="0.0"
     inkscape:pagecheckerboard="0"
     inkscape:deskcolor="#d1d1d1"
     inkscape:document-units="mm"
     inkscape:zoom="4"
     inkscape:cx="150.375"
     inkscape:cy="152.125"
     inkscape:window-width="2560"
     inkscape:window-height="1417"
     inkscape:window-x="2552"
     inkscape:window-y="-8"
     inkscape:window-maximized="1"
     inkscape:current-layer="svg1946" />
  <title
     id="title1">SVG Image created as typing-check-board-brd.svg date 2024/10/14 12:34:41 </title>
  <desc
     id="desc1">Image generated by PCBNEW </desc>
  <path
     id="path1944"
     style="display:inline;fill:none;stroke:#d0d2cd;stroke-width:0.1;stroke-linecap:round;stroke-linejoin:round;stroke-opacity:1"
     d="m 66.76573,65.992225 -0.058,0.188 m -56.0679,0.616 -0.196,-0.02 m -0.7285,-0.599 -0.0563,-0.186 m 57.0507,-55.7419 0.056,0.186 m -56.833,56.0679 -0.1249,-0.153 m 0.636,0.426 -0.1881,-0.057 m 56.452,-0.539 -0.091,0.171 m 0,0 -0.125,0.152 m -56.8325,-56.0687 0.0573,-0.1881 m 0.3685,-0.4479 0.1735,-0.0924 m 56.5262,56.0901 -0.019,0.196 m -0.274,0.511 -0.152,0.125 m -56.6232,-56.3818 0.0917,-0.1713 m 56.8085,6e-4 0.093,0.1736 m -0.7296,56.5269 -0.1953,0.02 m -42.2107,-57.1657 h 42.2107 m -55.9766,0.4446 0.1245,-0.1517 m 0.5119,-0.2736 0.1952,-0.0193 m -1,56.1657 v -55.1657 m 56.7009,-0.8315 0.151,0.1244 m -55.8519,-0.2929 h 7.5632 m 48.1367,56.9977 -0.174,0.092 m 0.326,-56.7968 0.125,0.1523 m -56.8089,56.2745 -0.0925,-0.173 m 0.2174,-56.2538 0.1523,-0.1249 m 56.0807,56.9217 -0.1856,0.056 m 7e-4,-57.1263 0.1879,0.0573 m 0,0 0.172,0.0918 m 0.444,0.8315 v 55.1657 m -56.7003,0.831 -0.1517,-0.124 m 55.8521,-56.8727 0.196,0.0194 m -55.7223,0.0562 0.1861,-0.0563 m -0.7856,56.3414 -0.0192,-0.195 m 0,-55.1657 0.0194,-0.196 m 56.1256,56.3617 h -55.145 m 56.1259,-56.3609 0.019,0.1952 m -56.529,56.0887 -0.1713,-0.092 m 37.6535,0.1609 h -19.05 m 19.05,-19.05 v 19.35928 m -2.525,-2.83428 v -2 m 0,-10 v -2 m 0,0 h -2 m 0,14 h 2 m -12,0 h -2 m 2,-14 h -2 m 0,14 v -2 m 0,-12 v 2 m -2.525,14.83428 v -19.35928 m 0,0 h 19.05 m 19.33947,-0.005 H 47.72293 m 19.05,-19.05 v 19.05 m -2.525,-2.525 v -2 m 0,-12 v 2 m -2,12 h 2 m -2,-14 h 2 m -12,0 h -2 m 0,14 h 2 m -2,-2 v 2 m 0,-14 v 2 m -2.525,14.525 v -19.05 m 0,0 H 67.0774 m -0.29447,0.01 h -19.05 m 19.05,-19.05 v 19.05 m -2.525,-2.5252 v -2 m 0,-12 v 2 m -2,12 h 2 m -2,-14 h 2 m -12,0 h -2 m 0,14 h 2 m -2,-2 v 2 m 0,-14 v 2 m -2.525,14.525 V 9.333452 m 0,0.309473 h 19.05 m -0.005,57.1552 h -19.05 m 19.05,-19.05 v 19.05 m -2.525,-2.525 v -2 m 0,-10 v -2 m 0,0 h -2 m 0,14 h 2 m -12,0 h -2 m 2,-14 h -2 m 0,14 v -2 m 0,-12 v 2 m -2.525,14.525 v -19.05 m 0,0 h 19.05 m -38.095,-0.005 H 9.33345 m 19.34948,-19.0502 v 19.05 m -2.525,-2.525 v -2 m 0,-12 v 2 m -2,12 h 2 m -2,-14 h 2 m -12,0 h -2 m 0,14 h 2 m -2,-2 v 2 m 0,-14 v 2 m -2.525,14.525 v -19.05 m -0.29948,0 h 19.34948 m 19.05,19.04 h -19.05 m 19.05,-19.05 v 19.05 m -2.525,-2.525 v -2 m 0,-12 v 2 m -2,12 h 2 m -2,-14 h 2 m -12,0 h -2 m 0,14 h 2 m -2,-2 v 2 m 0,-14 v 2 m -2.525,14.525 v -19.05 m 0,0 h 19.05 m -19.05,0 h -19.05 m 19.05,-19.349473 v 19.349473 m -2.525,-2.525 v -2 m 0,-12 v 2 m -2,12 h 2 m -2,-14 h 2 m -12,0 h -2 m 0,14 h 2 m -2,-2 v 2 m 0,-14 v 2 m -2.525,14.525 v -19.05 m 0,0 h 19.05 m 19.05,19.05 h -19.05 m 19.05,-19.05 v 19.05 m -2.525,-2.525 v -2 m 0,-12 v 2 m -2,12 h 2 m -2,-14 h 2 m -12,0 h -2 m 0,14 h 2 m -2,-2 v 2 m 0,-14 v 2 m -2.525,14.525 v -19.05 m 0,0 h 19.05 m -19.055,57.15 h -19.05 m 19.05,-19.05 v 19.05 m -2.525,-2.525 v -2 m 0,-10 v -2 m 0,0 h -2 m 0,14 h 2 m -12,0 h -2 m 2,-14 h -2 m 0,14 v -2 m 0,-12 v 2 m -2.525,14.525 v -19.05 m 0,0 h 19.05"
     inkscape:label="drawing" />
  <path
     id="path1948-7-7-9-6-6"
     style="display:inline;fill:none;fill-rule:evenodd;stroke:#000000;stroke-width:0.1;stroke-dasharray:none;stroke-opacity:1"
     d="m 26.68793,70.497405 c 0,-0.60752 -0.49249,-1.1 -1.1,-1.1 -0.60751,0 -1.1,0.49248 -1.1,1.1 0,0.60751 0.49249,1.1 1.1,1.1 0.60751,0 1.1,-0.49249 1.1,-1.1 z m 21.24999,-2.399 v 2.39901 c 0,1.60162 1.29837,2.89999 2.9,2.89999 1.60163,0 2.9,-1.2941 2.9,-2.89572 v -2.40328 a 1.000075,1.000075 0 0 1 1,-1.00007 l 11.33948,-8.6e-4 a 1.0001499,1.0001499 0 0 0 1.00007,-1.00007 l 8.6e-4,-11.34928 a 1.0000749,1.0000749 0 0 1 1.00007,-1 h 2.39902 c 1.60162,0 2.89999,-1.29837 2.89999,-2.9 0,-1.60163 -1.2941,-2.9 -2.89572,-2.9 H 68.0784 a 1,1 0 0 1 -1,-1 V 29.492928 a 1,1 0 0 1 1,-1 h 2.39902 c 1.60162,0 2.89999,-1.29837 2.89999,-2.9 0,-1.60163 -1.2941,-2.9 -2.89572,-2.9 H 68.0784 a 1.0000749,1.0000749 0 0 1 -1.00007,-1 L 67.07747,10.333452 A 1.0000769,1.0000769 0 0 0 66.0774,9.33345 l -11.34447,-2.3e-5 a 1.000002,1.000002 0 0 1 -1,-1.000002 V 5.930143 c 0,-1.601626 -1.29837,-2.895727 -2.9,-2.895727 -1.60163,0 -2.9,1.298374 -2.9,2.899999 v 2.39901 a 1.0000014,1.0000014 0 0 1 -1,1.000001 l -17.45,2.5e-5 a 0.99999861,0.99999861 0 0 1 -1,-0.999999 V 5.93017 c 0,-1.601626 -1.29837,-2.895727 -2.9,-2.895727 -1.60163,0 -2.9,1.298374 -2.9,2.899999 v 2.39901 a 1,1 0 0 1 -1,1 H 10.33345 a 1.0000015,1.0000015 0 0 0 -1,1 l -2e-5,11.349474 a 1.0000015,1.0000015 0 0 1 -1,1 H 5.93015 c -1.60162,0 -2.89572,1.29837 -2.89572,2.9 0,1.60163 1.29837,2.9 2.89999,2.9 l 2.39902,7e-6 a 1.0012885,1.0012885 0 0 1 1.00128,1.000002 l 0.0224,17.46 a 0.9987132,0.9987132 0 0 1 -0.99872,1 l -2.40328,-10e-6 c -1.60162,0 -2.89572,1.29837 -2.89572,2.9 0,1.60163 1.29837,2.9 2.89999,2.9 l 2.39901,1e-5 a 0.99813266,0.99813266 0 0 1 0.99813,1 l -0.0213,11.35449 a 0.99820447,0.99820447 0 0 0 0.99813,1.00007 l 11.35448,8.6e-4 a 1.0000749,1.0000749 0 0 1 1,1.00007 v 2.39901 c 0,1.60162 1.29837,2.89999 2.9,2.89999 1.60163,0 2.9,-1.2941 2.9,-2.89572 v -2.40328 a 1.000001,1.000001 0 0 1 1,-1 l 17.45,-2e-5 a 0.99999897,0.99999897 0 0 1 1,1 z m 4,2.39898 c 0,-0.60752 -0.49249,-1.1 -1.1,-1.1 -0.60751,0 -1.1,0.49248 -1.1,1.1 0,0.60751 0.49249,1.1 1.1,1.1 0.60751,0 1.1,-0.49249 1.1,-1.1 z M 70.4774,49.748125 c -0.60752,0 -1.1,0.49249 -1.1,1.1 0,0.60751 0.49248,1.1 1.1,1.1 0.60751,0 1.1,-0.49249 1.1,-1.1 0,-0.60751 -0.49249,-1.1 -1.1,-1.1 z m 0,-25.255197 c -0.60752,0 -1.1,0.49249 -1.1,1.1 0,0.60751 0.49248,1.1 1.1,1.1 0.60751,0 1.1,-0.49249 1.1,-1.1 0,-0.60751 -0.49249,-1.1 -1.1,-1.1 z m -64.54295,-0.01 c 0.60752,0 1.1,0.49249 1.1,1.1 0,0.60751 -0.49248,1.1 -1.1,1.1 -0.60751,0 -1.1,-0.49249 -1.1,-1.1 0,-0.60751 0.49249,-1.1 1.1,-1.1 z M 51.93293,5.934443 c 0,0.607513 -0.49249,1.1 -1.1,1.1 -0.60751,0 -1.1,-0.492487 -1.1,-1.1 0,-0.607513 0.49249,-1.1 1.1,-1.1 0.60751,0 1.1,0.492487 1.1,1.1 z m -25.25,2.7e-5 c 0,0.607513 -0.49249,1.1 -1.1,1.1 -0.60751,0 -1.1,-0.492487 -1.1,-1.1 0,-0.607513 0.49249,-1.1 1.1,-1.1 0.60751,0 1.1,0.492487 1.1,1.1 z M 5.95947,49.742925 c 0.60752,0 1.1,0.49249 1.1,1.1 0,0.60751 -0.49248,1.1 -1.1,1.1 -0.60751,0 -1.1,-0.49249 -1.1,-1.1 0,-0.60751 0.49249,-1.1 1.1,-1.1 z m 39.24846,14.525 h -14 v -14 h 14 z m 19.05,0 h -14 v -14 h 14 z m 0,-19.05 h -14 v -14 h 14 z m -19.05,0 h -14 v -14 h 14 z m -19.05,-19.05 h -14 v -14 h 14 z m 38.1,0 h -14 v -14 h 14 z m -19.05,0 h -14 v -14 h 14 z m -19.05,19.05 h -14 v -14 h 14 z m 0,19.05 h -14 v -14 h 14 z"
     inkscape:label="plate" />
  <path
     id="path1951-4-5-5"
     style="display:inline;fill:none;fill-rule:evenodd;stroke:#000000;stroke-width:0.1"
     d="m 52.43293,5.934443 c 0,0.883656 -0.71634,1.6 -1.6,1.6 -0.88366,0 -1.6,-0.716344 -1.6,-1.6 0,-0.883656 0.71634,-1.6 1.6,-1.6 0.88366,0 1.6,0.716344 1.6,1.6 z m -25.245,64.562982 c 0,-0.88365 -0.71634,-1.6 -1.6,-1.6 -0.88366,0 -1.6,0.71635 -1.6,1.6 0,0.88366 0.71634,1.6 1.6,1.6 0.88366,0 1.6,-0.71634 1.6,-1.6 z m 25.24999,-2e-5 c 0,-0.88365 -0.71634,-1.6 -1.6,-1.6 -0.88366,0 -1.6,0.71635 -1.6,1.6 0,0.88366 0.71634,1.6 1.6,1.6 0.88366,0 1.6,-0.71634 1.6,-1.6 z m 18.0395,-21.24928 c -0.88365,0 -1.6,0.71634 -1.6,1.6 0,0.88366 0.71635,1.6 1.6,1.6 0.88366,0 1.6,-0.71634 1.6,-1.6 0,-0.88366 -0.71634,-1.6 -1.6,-1.6 z m 0,-25.255197 c -0.88365,0 -1.6,0.71634 -1.6,1.6 0,0.88366 0.71635,1.6 1.6,1.6 0.88366,0 1.6,-0.71634 1.6,-1.6 0,-0.88366 -0.71634,-1.6 -1.6,-1.6 z M 5.95945,49.242925 c 0.88365,0 1.6,0.71634 1.6,1.6 0,0.88366 -0.71635,1.6 -1.6,1.6 -0.88366,0 -1.6,-0.71634 -1.6,-1.6 0,-0.88366 0.71634,-1.6 1.6,-1.6 z m -0.025,-25.259999 c 0.88365,0 1.6,0.71634 1.6,1.6 0,0.88366 -0.71635,1.6 -1.6,1.6 -0.88366,0 -1.6,-0.71634 -1.6,-1.6 0,-0.88366 0.71634,-1.6 1.6,-1.6 z M 27.18293,5.934443 c 0,0.883656 -0.71634,1.6 -1.6,1.6 -0.88366,0 -1.6,-0.716344 -1.6,-1.6 0,-0.883656 0.71634,-1.6 1.6,-1.6 0.88366,0 1.6,0.716344 1.6,1.6 z"
     sodipodi:nodetypes="ssssssssssssssssssssssssssssssssssssssss"
     inkscape:label="insert-hole" />
  <path
     id="path1951-4-5-5-0"
     style="display:inline;fill:none;fill-rule:evenodd;stroke:#000000;stroke-width:0.1"
     d="m 9.03445,66.397405 c 0,0.55228 0.44772,1 1,1 h 56.34296 c 0.55228,0 1,-0.44772 1,-1 V 10.034444 c 0,-0.552285 -0.44772,-1 -1,-1 H 10.03445 c -0.55228,10e-7 -1,0.447716 -1,1 z"
     sodipodi:nodetypes="sssssssss"
     inkscape:label="inner-hole" />
  <path
     id="path1951-4-5-5-0-5"
     style="display:inline;fill:none;fill-rule:evenodd;stroke:#000000;stroke-width:0.1"
     d="m 73.41192,71.882385 c 0,0.85604 -0.69396,1.55 -1.55,1.55 -0.85604,0 -1.55,-0.69396 -1.55,-1.55 0,-0.85604 0.69396,-1.55 1.55,-1.55 0.85604,0 1.55,0.69396 1.55,1.55 z m 0,-33.66901 c 0,0.85604 -0.69396,1.55 -1.55,1.55 -0.85604,0 -1.55,-0.69396 -1.55,-1.55 0,-0.85604 0.69396,-1.55 1.55,-1.55 0.85604,0 1.55,0.69396 1.55,1.55 z m -33.72,33.66901 c 0,0.85604 -0.69396,1.55 -1.55,1.55 -0.85604,0 -1.55,-0.69396 -1.55,-1.55 0,-0.85604 0.69396,-1.55 1.55,-1.55 0.85604,0 1.55,0.69396 1.55,1.55 z m 0,-67.348005 c 0,0.856041 -0.69396,1.55 -1.55,1.55 -0.85604,0 -1.55,-0.693959 -1.55,-1.55 0,-0.856041 0.69396,-1.55 1.55,-1.55 0.85604,0 1.55,0.693959 1.55,1.55 z m 33.72,0 c 0,0.856041 -0.69396,1.55 -1.55,1.55 -0.85604,0 -1.55,-0.693959 -1.55,-1.55 0,-0.856041 0.69396,-1.55 1.55,-1.55 0.85604,0 1.55,0.693959 1.55,1.55 z M 6.08393,71.881925 c 0,0.85604 -0.69396,1.55 -1.55,1.55 -0.85604,0 -1.55,-0.69396 -1.55,-1.55 0,-0.85604 0.69396,-1.55 1.55,-1.55 0.85604,0 1.55,0.69396 1.55,1.55 z m 0,-33.669 c 0,0.85604 -0.69396,1.55 -1.55,1.55 -0.85604,0 -1.55,-0.69396 -1.55,-1.55 0,-0.85604 0.69396,-1.55 1.55,-1.55 0.85604,0 1.55,0.69396 1.55,1.55 z m 0,-33.679003 c 0,0.856041 -0.69396,1.55 -1.55,1.55 -0.85604,0 -1.55,-0.693959 -1.55,-1.55 0,-0.856041 0.69396,-1.55 1.55,-1.55 0.85604,0 1.55,0.693959 1.55,1.55 z"
     sodipodi:nodetypes="ssssssssssssssssssssssssssssssssssssssss"
     inkscape:label="magnet-hole"
     sodipodi:insensitive="true" />
  <path
     id="path1951-4-5-5-0-5-3"
     style="display:inline;fill:none;fill-rule:evenodd;stroke:#000000;stroke-width:0.1"
     d="m 5.93442,22.482926 c -1.71208,0 -3.09999,1.38792 -3.09999,3.1 0,1.71208 1.38791,3.1 3.09999,3.1 h 2.10001 c 0.55228,1e-6 1,0.447715 1,1 l 2e-5,17.059999 c 0,0.55228 -0.44772,1 -1,1 H 5.95944 c -1.71208,0 -3.09999,1.38792 -3.09999,3.1 0,1.71208 1.38791,3.1 3.09999,3.1 h 2.07501 c 0.55228,0 1,0.44772 1,1 v 11.45448 c 0,0.55228 0.44772,1 1,1 l 11.45348,2e-5 c 0.55228,0 1,0.44772 1,1 v 2.10001 c 0,1.71208 1.38792,3.09999 3.1,3.09999 1.71208,0 3.1,-1.38791 3.1,-3.09999 v -2.10001 c 0,-0.55228 0.44772,-1 1,-1 l 17.04999,-2e-5 c 0.55228,0 1,0.44772 1,1 v 2.10001 c 0,1.71208 1.38792,3.09999 3.1,3.09999 1.71208,0 3.1,-1.38791 3.1,-3.09999 v -2.10001 c 0,-0.55228 0.44772,-1 1,-1 h 11.43949 c 0.55228,0 1,-0.44772 1,-1 l 1e-5,-11.44928 c 0,-0.55228 0.44772,-1 1,-1 h 2.10001 c 1.71208,0 3.09999,-1.38792 3.09999,-3.1 0,-1.71208 -1.38791,-3.1 -3.09999,-3.1 h -2.10001 c -0.55228,0 -1,-0.44772 -1,-1 V 29.692928 c 0,-0.552285 0.44772,-1 1,-1 h 2.10001 c 1.71208,0 3.09999,-1.38792 3.09999,-3.1 0,-1.71208 -1.38791,-3.1 -3.09999,-3.1 h -2.10001 c -0.55228,0 -1,-0.447715 -1,-1 l -1e-5,-11.458484 c 0,-0.552285 -0.44772,-1 -1,-1 l -11.44448,-1e-6 c -0.55228,0 -1,-0.447715 -1,-1 V 5.934442 c 0,-1.712082 -1.38792,-3.099999 -3.1,-3.099999 -1.71208,0 -3.1,1.387917 -3.1,3.099999 v 2.100001 c 0,0.552285 -0.44772,1 -1,1 h -17.05 c -0.55228,0 -1,-0.447715 -1,-1 V 5.934442 c 0,-1.712082 -1.38792,-3.099999 -3.1,-3.099999 -1.71208,0 -3.1,1.387917 -3.1,3.099999 v 2.100001 c 0,0.552285 -0.44772,1 -1,1 l -11.44848,1e-6 c -0.55228,10e-7 -1,0.447716 -1,1 l -2e-5,11.448482 c 0,0.552284 -0.44772,0.999999 -1,1 z"
     sodipodi:nodetypes="sssssssssssssssssssssssssssssssssssssssssssssssssssssssssssssssss"
     inkscape:label="plate-hole" />
  <path
     id="path1951-4-5-5-0-5-3-4"
     style="display:inline;fill:none;fill-rule:evenodd;stroke:#000000;stroke-width:0.1"
     d="m 3.05,0.05 h 70.31185 c 1.65685,0 3,1.343146 3,3 v 70.331845 c 0,1.65685 -1.34315,3 -3,3 H 3.05 c -1.65685,0 -3,-1.34315 -3,-3 V 3.05 c 0,-1.656854 1.34315,-3 3,-3 z"
     sodipodi:nodetypes="sssssssss"
     inkscape:label="outline" />
  <metadata
     id="metadata3">
    <rdf:RDF>
      <cc:Work
         rdf:about="">
        <dc:title>SVG Image created as typing-check-board-brd.svg date 2024/10/14 12:34:41 </dc:title>
      </cc:Work>
    </rdf:RDF>
  </metadata>
</svg>
