<?xml version="1.0" encoding="UTF-8" standalone="no"?>
<svg
   version="1.1"
   width="76.41185mm"
   height="76.431847mm"
   viewBox="0 0 76.411851 76.431846"
   id="svg1946"
   xmlns="http://www.w3.org/2000/svg"
   xmlns:svg="http://www.w3.org/2000/svg"
   xmlns:rdf="http://www.w3.org/1999/02/22-rdf-syntax-ns#"
   xmlns:cc="http://creativecommons.org/ns#"
   xmlns:dc="http://purl.org/dc/elements/1.1/">
  <defs
     id="defs1946" />
  <title
     id="title1">SVG Image created as typing-check-board-brd.svg date 2024/10/14 12:34:41 </title>
  <desc
     id="desc1">Image generated by PCBNEW </desc>
  <path
     id="path1951-4-5-5-0-5-3"
     style="display:inline;fill:none;fill-rule:evenodd;stroke:#000000;stroke-width:0.1"
     d="m 5.93442,22.482926 c -1.71208,0 -3.09999,1.38792 -3.09999,3.1 0,1.71208 1.38791,3.1 3.09999,3.1 h 2.10001 c 0.55228,1e-6 1,0.447715 1,1 l 2e-5,17.059999 c 0,0.55228 -0.44772,1 -1,1 H 5.95944 c -1.71208,0 -3.09999,1.38792 -3.09999,3.1 0,1.71208 1.38791,3.1 3.09999,3.1 h 2.07501 c 0.55228,0 1,0.44772 1,1 v 11.45448 c 0,0.55228 0.44772,1 1,1 l 11.45348,2e-5 c 0.55228,0 1,0.44772 1,1 v 2.10001 c 0,1.71208 1.38792,3.09999 3.1,3.09999 1.71208,0 3.1,-1.38791 3.1,-3.09999 v -2.10001 c 0,-0.55228 0.44772,-1 1,-1 l 17.04999,-2e-5 c 0.55228,0 1,0.44772 1,1 v 2.10001 c 0,1.71208 1.38792,3.09999 3.1,3.09999 1.71208,0 3.1,-1.38791 3.1,-3.09999 v -2.10001 c 0,-0.55228 0.44772,-1 1,-1 h 11.43949 c 0.55228,0 1,-0.44772 1,-1 l 1e-5,-11.44928 c 0,-0.55228 0.44772,-1 1,-1 h 2.10001 c 1.71208,0 3.09999,-1.38792 3.09999,-3.1 0,-1.71208 -1.38791,-3.1 -3.09999,-3.1 h -2.10001 c -0.55228,0 -1,-0.44772 -1,-1 V 29.692928 c 0,-0.552285 0.44772,-1 1,-1 h 2.10001 c 1.71208,0 3.09999,-1.38792 3.09999,-3.1 0,-1.71208 -1.38791,-3.1 -3.09999,-3.1 h -2.10001 c -0.55228,0 -1,-0.447715 -1,-1 l -1e-5,-11.458484 c 0,-0.552285 -0.44772,-1 -1,-1 l -11.44448,-1e-6 c -0.55228,0 -1,-0.447715 -1,-1 V 5.934442 c 0,-1.712082 -1.38792,-3.099999 -3.1,-3.099999 -1.71208,0 -3.1,1.387917 -3.1,3.099999 v 2.100001 c 0,0.552285 -0.44772,1 -1,1 h -17.05 c -0.55228,0 -1,-0.447715 -1,-1 V 5.934442 c 0,-1.712082 -1.38792,-3.099999 -3.1,-3.099999 -1.71208,0 -3.1,1.387917 -3.1,3.099999 v 2.100001 c 0,0.552285 -0.44772,1 -1,1 l -11.44848,1e-6 c -0.55228,10e-7 -1,0.447716 -1,1 l -2e-5,11.448482 c 0,0.552284 -0.44772,0.999999 -1,1 z" />
  <metadata
     id="metadata3">
    <rdf:RDF>
      <cc:Work
         rdf:about="">
        <dc:title>SVG Image created as typing-check-board-brd.svg date 2024/10/14 12:34:41 </dc:title>
      </cc:Work>
    </rdf:RDF>
  </metadata>
</svg>
