%TF.GenerationSoftware,KiCad,Pcbnew,8.0.2*%
%TF.CreationDate,2024-10-14T14:12:18+09:00*%
%TF.ProjectId,plate,706c6174-652e-46b6-9963-61645f706362,rev?*%
%TF.SameCoordinates,Original*%
%TF.FileFunction,Copper,L2,Bot*%
%TF.FilePolarity,Positive*%
%FSLAX46Y46*%
G04 Gerber Fmt 4.6, Leading zero omitted, Abs format (unit mm)*
G04 Created by KiCad (PCBNEW 8.0.2) date 2024-10-14 14:12:18*
%MOMM*%
%LPD*%
G01*
G04 APERTURE LIST*
G04 APERTURE END LIST*
%TA.AperFunction,NonConductor*%
G36*
X158757914Y-71033642D02*
G01*
X158769875Y-71034802D01*
X158989780Y-71066951D01*
X159001722Y-71069302D01*
X159218523Y-71123159D01*
X159230249Y-71126695D01*
X159372316Y-71177326D01*
X159440596Y-71201660D01*
X159451903Y-71206330D01*
X159552864Y-71253990D01*
X159567038Y-71260681D01*
X159653826Y-71301650D01*
X159664615Y-71307410D01*
X159674486Y-71313324D01*
X159856027Y-71422077D01*
X159866116Y-71428813D01*
X160045691Y-71561846D01*
X160055084Y-71569544D01*
X160220711Y-71719488D01*
X160229241Y-71728003D01*
X160277339Y-71780931D01*
X160379312Y-71893144D01*
X160387015Y-71902500D01*
X160520072Y-72081264D01*
X160526843Y-72091360D01*
X160641429Y-72281771D01*
X160647209Y-72292547D01*
X160742926Y-72494287D01*
X160747629Y-72505614D01*
X160822685Y-72715091D01*
X160826237Y-72726795D01*
X160880141Y-72942194D01*
X160882523Y-72954201D01*
X160915055Y-73174907D01*
X160916235Y-73186992D01*
X160916490Y-73192263D01*
X160927602Y-73421760D01*
X160927825Y-73426355D01*
X160927970Y-73432352D01*
X160927970Y-75779414D01*
X160926900Y-75795669D01*
X160923651Y-75820240D01*
X160923651Y-75820241D01*
X160926918Y-75845163D01*
X160927970Y-75861280D01*
X160927970Y-75886422D01*
X160934383Y-75910357D01*
X160937555Y-75926333D01*
X160956614Y-76071746D01*
X160956709Y-76073173D01*
X160966236Y-76145156D01*
X160966256Y-76145310D01*
X160974776Y-76210321D01*
X160974860Y-76210632D01*
X160974936Y-76210917D01*
X160974942Y-76210933D01*
X160974943Y-76210934D01*
X161000007Y-76271326D01*
X161023680Y-76328571D01*
X161027907Y-76338791D01*
X161028538Y-76340072D01*
X161039632Y-76366802D01*
X161060529Y-76417154D01*
X161071838Y-76444401D01*
X161071882Y-76444530D01*
X161074956Y-76451936D01*
X161074957Y-76451937D01*
X161100411Y-76513251D01*
X161101955Y-76516968D01*
X161101957Y-76516981D01*
X161101960Y-76516981D01*
X161125335Y-76573303D01*
X161125471Y-76573629D01*
X161165658Y-76625915D01*
X161165657Y-76625915D01*
X161165663Y-76625921D01*
X161205756Y-76678098D01*
X161210987Y-76684905D01*
X161211073Y-76685003D01*
X161324297Y-76832315D01*
X161324356Y-76832468D01*
X161324393Y-76832440D01*
X161364244Y-76884427D01*
X161364689Y-76884872D01*
X161416913Y-76924878D01*
X161416918Y-76924882D01*
X161566504Y-77039778D01*
X161566537Y-77039806D01*
X161571351Y-77043503D01*
X161571353Y-77043505D01*
X161611282Y-77074171D01*
X161611285Y-77074175D01*
X161611286Y-77074174D01*
X161675850Y-77123765D01*
X161675885Y-77123785D01*
X161676257Y-77123936D01*
X161724594Y-77143983D01*
X161797581Y-77174256D01*
X161797584Y-77174256D01*
X161806451Y-77177934D01*
X161806492Y-77177947D01*
X161909532Y-77220681D01*
X161910912Y-77221362D01*
X161934528Y-77231118D01*
X161978174Y-77249149D01*
X161978276Y-77249191D01*
X161978330Y-77249214D01*
X162038539Y-77274184D01*
X162038701Y-77274251D01*
X162038705Y-77274251D01*
X162039362Y-77274426D01*
X162039367Y-77274429D01*
X162104112Y-77282891D01*
X162104272Y-77282961D01*
X162104279Y-77282913D01*
X162111847Y-77283912D01*
X162169350Y-77291509D01*
X162169353Y-77291508D01*
X162176565Y-77292461D01*
X162178084Y-77292559D01*
X162322734Y-77311466D01*
X162338750Y-77314645D01*
X162362578Y-77321030D01*
X162387828Y-77321030D01*
X162403898Y-77322076D01*
X162406510Y-77322417D01*
X162428939Y-77325349D01*
X162446682Y-77322996D01*
X162453398Y-77322106D01*
X162469696Y-77321030D01*
X162660378Y-77321030D01*
X162959978Y-77321030D01*
X163258178Y-77321030D01*
X163556978Y-77321030D01*
X163854578Y-77321030D01*
X164152578Y-77321030D01*
X164450578Y-77321030D01*
X164748478Y-77321030D01*
X165047378Y-77321030D01*
X165345578Y-77321030D01*
X165644878Y-77321030D01*
X165943378Y-77321030D01*
X166302986Y-77321030D01*
X166302995Y-77321030D01*
X166530371Y-77321036D01*
X166530406Y-77321040D01*
X166610619Y-77321040D01*
X166672145Y-77321042D01*
X166672148Y-77321040D01*
X166680768Y-77321041D01*
X166680797Y-77321040D01*
X166839378Y-77321040D01*
X167137378Y-77321040D01*
X167436278Y-77321040D01*
X167733978Y-77321040D01*
X168032878Y-77321040D01*
X168331578Y-77321040D01*
X168630778Y-77321040D01*
X168929278Y-77321040D01*
X169228078Y-77321040D01*
X169525878Y-77321040D01*
X169824078Y-77321040D01*
X170122678Y-77321040D01*
X170420478Y-77321040D01*
X170719978Y-77321040D01*
X171079786Y-77321040D01*
X171079795Y-77321040D01*
X171306571Y-77321046D01*
X171306606Y-77321050D01*
X171386919Y-77321050D01*
X171448345Y-77321052D01*
X171448348Y-77321050D01*
X171456968Y-77321051D01*
X171456997Y-77321050D01*
X171615178Y-77321050D01*
X171913978Y-77321050D01*
X172213178Y-77321050D01*
X172512678Y-77321050D01*
X172811378Y-77321050D01*
X173110278Y-77321050D01*
X173409478Y-77321050D01*
X173732237Y-77321050D01*
X173748342Y-77322099D01*
X173885433Y-77340058D01*
X173916854Y-77348478D01*
X173967074Y-77369318D01*
X174005526Y-77385275D01*
X174033572Y-77401496D01*
X174110250Y-77460442D01*
X174132999Y-77483194D01*
X174192135Y-77560149D01*
X174208359Y-77588219D01*
X174245217Y-77677129D01*
X174253620Y-77708515D01*
X174271520Y-77845208D01*
X174272570Y-77861308D01*
X174272570Y-78643370D01*
X174272545Y-78643756D01*
X174272570Y-78717418D01*
X174272570Y-78791099D01*
X174272594Y-78791474D01*
X174272670Y-79016713D01*
X174272670Y-79837371D01*
X174272645Y-79837757D01*
X174272670Y-79911283D01*
X174272670Y-79985099D01*
X174272694Y-79985474D01*
X174272770Y-80209952D01*
X174272770Y-81332171D01*
X174272745Y-81332557D01*
X174272770Y-81406098D01*
X174272770Y-81479899D01*
X174272794Y-81480274D01*
X174272870Y-81704837D01*
X174272870Y-82527770D01*
X174272845Y-82528156D01*
X174272870Y-82601818D01*
X174272870Y-82675499D01*
X174272894Y-82675874D01*
X174272970Y-82901113D01*
X174272970Y-84023070D01*
X174272945Y-84023456D01*
X174272970Y-84097072D01*
X174272970Y-84170799D01*
X174272994Y-84171174D01*
X174273070Y-84396159D01*
X174273070Y-85217970D01*
X174273045Y-85218356D01*
X174273070Y-85291988D01*
X174273070Y-85365699D01*
X174273094Y-85366074D01*
X174273170Y-85591143D01*
X174273170Y-86712470D01*
X174273145Y-86712856D01*
X174273170Y-86786472D01*
X174273170Y-86860199D01*
X174273194Y-86860574D01*
X174273270Y-87085559D01*
X174273270Y-87910070D01*
X174273245Y-87910456D01*
X174273270Y-87984103D01*
X174273270Y-88057799D01*
X174273294Y-88058174D01*
X174273370Y-88282414D01*
X174273370Y-89138871D01*
X174272299Y-89155132D01*
X174269051Y-89179687D01*
X174271001Y-89194571D01*
X174272319Y-89204626D01*
X174273370Y-89220737D01*
X174273370Y-89245893D01*
X174279780Y-89269818D01*
X174282953Y-89285798D01*
X174302014Y-89431279D01*
X174302144Y-89433237D01*
X174311714Y-89505303D01*
X174311742Y-89505516D01*
X174320172Y-89569863D01*
X174320266Y-89570209D01*
X174320342Y-89570492D01*
X174320395Y-89570693D01*
X174320399Y-89570702D01*
X174345401Y-89630873D01*
X174345444Y-89631087D01*
X174345483Y-89631071D01*
X174373166Y-89698021D01*
X174374033Y-89699780D01*
X174441441Y-89862001D01*
X174444684Y-89869804D01*
X174444694Y-89869830D01*
X174471011Y-89933204D01*
X174471061Y-89933290D01*
X174471066Y-89933297D01*
X174471067Y-89933298D01*
X174503214Y-89975097D01*
X174510750Y-89984895D01*
X174510747Y-89984896D01*
X174510766Y-89984916D01*
X174669588Y-90191515D01*
X174669667Y-90191718D01*
X174669716Y-90191681D01*
X174709626Y-90243778D01*
X174709766Y-90243918D01*
X174709922Y-90244073D01*
X174710223Y-90244374D01*
X174710225Y-90244376D01*
X174710228Y-90244379D01*
X174762216Y-90284197D01*
X174800742Y-90313808D01*
X174910172Y-90397916D01*
X174910582Y-90398276D01*
X174968622Y-90442841D01*
X174968612Y-90442852D01*
X174968667Y-90442875D01*
X175021111Y-90483184D01*
X175021112Y-90483184D01*
X175021113Y-90483185D01*
X175021316Y-90483302D01*
X175021319Y-90483304D01*
X175081576Y-90508286D01*
X175081630Y-90508309D01*
X175150027Y-90536704D01*
X175150545Y-90536880D01*
X175255066Y-90580213D01*
X175256493Y-90580917D01*
X175263132Y-90583658D01*
X175263133Y-90583659D01*
X175299100Y-90598511D01*
X175324041Y-90608810D01*
X175324032Y-90608830D01*
X175324203Y-90608877D01*
X175348931Y-90619129D01*
X175384256Y-90633776D01*
X175384940Y-90633959D01*
X175396027Y-90635406D01*
X175449880Y-90642435D01*
X175450050Y-90642510D01*
X175450057Y-90642459D01*
X175514906Y-90651019D01*
X175514906Y-90651018D01*
X175522044Y-90651961D01*
X175523612Y-90652062D01*
X175668261Y-90670946D01*
X175684289Y-90674126D01*
X175708078Y-90680500D01*
X175733378Y-90680500D01*
X175749430Y-90681543D01*
X175774516Y-90684818D01*
X175797072Y-90681823D01*
X175798924Y-90681578D01*
X175815240Y-90680500D01*
X175974778Y-90680500D01*
X176241778Y-90680500D01*
X176508478Y-90680500D01*
X176775478Y-90680500D01*
X177043478Y-90680500D01*
X177310878Y-90680500D01*
X177578278Y-90680500D01*
X177844978Y-90680500D01*
X178162195Y-90680500D01*
X178168175Y-90680643D01*
X178406455Y-90692150D01*
X178418440Y-90693316D01*
X178637937Y-90725512D01*
X178649941Y-90727884D01*
X178866415Y-90781925D01*
X178878109Y-90785466D01*
X179088029Y-90860527D01*
X179099385Y-90865235D01*
X179300796Y-90960737D01*
X179311555Y-90966504D01*
X179502662Y-91081418D01*
X179512762Y-91088188D01*
X179672090Y-91206708D01*
X179692012Y-91221527D01*
X179701373Y-91229229D01*
X179767533Y-91289326D01*
X179866675Y-91379383D01*
X179875257Y-91387983D01*
X179945090Y-91465179D01*
X180024851Y-91553351D01*
X180032509Y-91562694D01*
X180150246Y-91721556D01*
X180165371Y-91741964D01*
X180172104Y-91752045D01*
X180286517Y-91942918D01*
X180292252Y-91953645D01*
X180387897Y-92155834D01*
X180392590Y-92167175D01*
X180467405Y-92376828D01*
X180470947Y-92388553D01*
X180524690Y-92604469D01*
X180527043Y-92616390D01*
X180559556Y-92837616D01*
X180560729Y-92849648D01*
X180566632Y-92971553D01*
X180571421Y-93070456D01*
X180571595Y-93074032D01*
X180571596Y-93086009D01*
X180560818Y-93309287D01*
X180559650Y-93321298D01*
X180527432Y-93541017D01*
X180525067Y-93552999D01*
X180471106Y-93769628D01*
X180467544Y-93781403D01*
X180392347Y-93991719D01*
X180387678Y-94002995D01*
X180292161Y-94204920D01*
X180286376Y-94215729D01*
X180171444Y-94407102D01*
X180164703Y-94417175D01*
X180031339Y-94596770D01*
X180023610Y-94606176D01*
X179873251Y-94771854D01*
X179864732Y-94780370D01*
X179699094Y-94930599D01*
X179689756Y-94938273D01*
X179510632Y-95071400D01*
X179500527Y-95078168D01*
X179309696Y-95192823D01*
X179298930Y-95198589D01*
X179096745Y-95294390D01*
X179085440Y-95299078D01*
X178875629Y-95374184D01*
X178863923Y-95377734D01*
X178648292Y-95431662D01*
X178636280Y-95434043D01*
X178415386Y-95466585D01*
X178403308Y-95467764D01*
X178163861Y-95479355D01*
X178157866Y-95479500D01*
X175814983Y-95479500D01*
X175798767Y-95478435D01*
X175774098Y-95475181D01*
X175774097Y-95475180D01*
X175752537Y-95478014D01*
X175749271Y-95478443D01*
X175733118Y-95479500D01*
X175708073Y-95479500D01*
X175684039Y-95485940D01*
X175668104Y-95489107D01*
X175450208Y-95517738D01*
X175450168Y-95517743D01*
X175385583Y-95526207D01*
X175385455Y-95526241D01*
X175349799Y-95541000D01*
X175324163Y-95551611D01*
X175150670Y-95623355D01*
X175149667Y-95623697D01*
X175082133Y-95651699D01*
X175082026Y-95651743D01*
X175021508Y-95676769D01*
X175021488Y-95676781D01*
X175021121Y-95676991D01*
X174969376Y-95716725D01*
X174969289Y-95716792D01*
X174969288Y-95716793D01*
X174916915Y-95756933D01*
X174916914Y-95756934D01*
X174911030Y-95761444D01*
X174910244Y-95762132D01*
X174762011Y-95875959D01*
X174761941Y-95876013D01*
X174710029Y-95915815D01*
X174709925Y-95915921D01*
X174709785Y-95916060D01*
X174669288Y-95968875D01*
X174669234Y-95968946D01*
X174555621Y-96116892D01*
X174555546Y-96116979D01*
X174524484Y-96157439D01*
X174514563Y-96170361D01*
X174495886Y-96194683D01*
X174471263Y-96226746D01*
X174449146Y-96280102D01*
X174449141Y-96280114D01*
X174417787Y-96355725D01*
X174417745Y-96355848D01*
X174373848Y-96461741D01*
X174373651Y-96462144D01*
X174345469Y-96530203D01*
X174345452Y-96530245D01*
X174320371Y-96590750D01*
X174320341Y-96590861D01*
X174311689Y-96656640D01*
X174311683Y-96656686D01*
X174302123Y-96729152D01*
X174302093Y-96729596D01*
X174283085Y-96874114D01*
X174279919Y-96890035D01*
X174273471Y-96914100D01*
X174273470Y-96914109D01*
X174273470Y-96939105D01*
X174272411Y-96955275D01*
X174269150Y-96980060D01*
X174269150Y-96980062D01*
X174272407Y-97004769D01*
X174273470Y-97020970D01*
X174273470Y-114394172D01*
X174272404Y-114410397D01*
X174269150Y-114435045D01*
X174272414Y-114459890D01*
X174273470Y-114476037D01*
X174273470Y-114501094D01*
X174279906Y-114525115D01*
X174283074Y-114541057D01*
X174311436Y-114756987D01*
X174311437Y-114757003D01*
X174311438Y-114757003D01*
X174320200Y-114823780D01*
X174345287Y-114884396D01*
X174345290Y-114884414D01*
X174345294Y-114884413D01*
X174417358Y-115058608D01*
X174417642Y-115059441D01*
X174445476Y-115126569D01*
X174445495Y-115126668D01*
X174445513Y-115126661D01*
X174470774Y-115187722D01*
X174470966Y-115188056D01*
X174481027Y-115201157D01*
X174506138Y-115233858D01*
X174510618Y-115239691D01*
X174510655Y-115239788D01*
X174510678Y-115239771D01*
X174555579Y-115298339D01*
X174556166Y-115299008D01*
X174669915Y-115447140D01*
X174669963Y-115447264D01*
X174669993Y-115447242D01*
X174709666Y-115499017D01*
X174710032Y-115499383D01*
X174710036Y-115499388D01*
X174762581Y-115539677D01*
X174762684Y-115539756D01*
X174909662Y-115652696D01*
X174910314Y-115653268D01*
X174968781Y-115698125D01*
X174968856Y-115698182D01*
X175020561Y-115737913D01*
X175020827Y-115738066D01*
X175020891Y-115738103D01*
X175020895Y-115738106D01*
X175070019Y-115758449D01*
X175081380Y-115763154D01*
X175081375Y-115763164D01*
X175081464Y-115763188D01*
X175142281Y-115788429D01*
X175149380Y-115791375D01*
X175150193Y-115791650D01*
X175256851Y-115835820D01*
X175256893Y-115835841D01*
X175263113Y-115838416D01*
X175263114Y-115838417D01*
X175329026Y-115865709D01*
X175329029Y-115865711D01*
X175329030Y-115865711D01*
X175348606Y-115873817D01*
X175384852Y-115888828D01*
X175384854Y-115888828D01*
X175384878Y-115888838D01*
X175384920Y-115888849D01*
X175385825Y-115888959D01*
X175456889Y-115898306D01*
X175515510Y-115906019D01*
X175515511Y-115906018D01*
X175525591Y-115907345D01*
X175525639Y-115907348D01*
X175540279Y-115909273D01*
X175668090Y-115926084D01*
X175684002Y-115929248D01*
X175708078Y-115935700D01*
X175733075Y-115935700D01*
X175749244Y-115936758D01*
X175774031Y-115940019D01*
X175798741Y-115936762D01*
X175814940Y-115935700D01*
X175974778Y-115935700D01*
X176241778Y-115935700D01*
X176508478Y-115935700D01*
X176775478Y-115935700D01*
X177043478Y-115935700D01*
X177310878Y-115935700D01*
X177578278Y-115935700D01*
X177844978Y-115935700D01*
X178162195Y-115935700D01*
X178168175Y-115935843D01*
X178406455Y-115947350D01*
X178418440Y-115948516D01*
X178637937Y-115980712D01*
X178649941Y-115983084D01*
X178866415Y-116037125D01*
X178878109Y-116040666D01*
X179088029Y-116115727D01*
X179099385Y-116120435D01*
X179300796Y-116215937D01*
X179311555Y-116221704D01*
X179502662Y-116336618D01*
X179512762Y-116343388D01*
X179688239Y-116473921D01*
X179692012Y-116476727D01*
X179701373Y-116484429D01*
X179767533Y-116544526D01*
X179866675Y-116634583D01*
X179875257Y-116643183D01*
X179954136Y-116730379D01*
X180024851Y-116808551D01*
X180032509Y-116817894D01*
X180163565Y-116994727D01*
X180165371Y-116997164D01*
X180172104Y-117007245D01*
X180286517Y-117198118D01*
X180292252Y-117208845D01*
X180387897Y-117411034D01*
X180392590Y-117422376D01*
X180467408Y-117632038D01*
X180470949Y-117643762D01*
X180524694Y-117859680D01*
X180527047Y-117871595D01*
X180559555Y-118092720D01*
X180560729Y-118104761D01*
X180571595Y-118329234D01*
X180571596Y-118341208D01*
X180560818Y-118564487D01*
X180559650Y-118576498D01*
X180527432Y-118796217D01*
X180525067Y-118808199D01*
X180471106Y-119024828D01*
X180467544Y-119036603D01*
X180392362Y-119246877D01*
X180387685Y-119258169D01*
X180292154Y-119460047D01*
X180286383Y-119470832D01*
X180171427Y-119662319D01*
X180164668Y-119672421D01*
X180031340Y-119851969D01*
X180023610Y-119861376D01*
X179873251Y-120027054D01*
X179864732Y-120035570D01*
X179699094Y-120185799D01*
X179689756Y-120193473D01*
X179510632Y-120326600D01*
X179500527Y-120333368D01*
X179309696Y-120448023D01*
X179298930Y-120453789D01*
X179096745Y-120549590D01*
X179085440Y-120554278D01*
X178875629Y-120629384D01*
X178863923Y-120632934D01*
X178648292Y-120686862D01*
X178636280Y-120689243D01*
X178415386Y-120721785D01*
X178403308Y-120722964D01*
X178163861Y-120734555D01*
X178157866Y-120734700D01*
X175815083Y-120734700D01*
X175798829Y-120733630D01*
X175792019Y-120732729D01*
X175774258Y-120730381D01*
X175774256Y-120730381D01*
X175761680Y-120732029D01*
X175749331Y-120733648D01*
X175733217Y-120734700D01*
X175708075Y-120734700D01*
X175684139Y-120741114D01*
X175668161Y-120744287D01*
X175522805Y-120763339D01*
X175521466Y-120763427D01*
X175449110Y-120772998D01*
X175448966Y-120773017D01*
X175384182Y-120781508D01*
X175383835Y-120781602D01*
X175383626Y-120781658D01*
X175383619Y-120781659D01*
X175322985Y-120806819D01*
X175322850Y-120806875D01*
X175255705Y-120834642D01*
X175254502Y-120835235D01*
X175149870Y-120878651D01*
X175149569Y-120878754D01*
X175081533Y-120907007D01*
X175081503Y-120907019D01*
X175020851Y-120932186D01*
X175020803Y-120932213D01*
X174969041Y-120972006D01*
X174969014Y-120972026D01*
X174910404Y-121017056D01*
X174910152Y-121017275D01*
X174762376Y-121130879D01*
X174716054Y-121166382D01*
X174710097Y-121170948D01*
X174710018Y-121171028D01*
X174709805Y-121171242D01*
X174709598Y-121171447D01*
X174679903Y-121210217D01*
X174669964Y-121223195D01*
X174610322Y-121300831D01*
X174555092Y-121372723D01*
X174555009Y-121372820D01*
X174519970Y-121418439D01*
X174514556Y-121425490D01*
X174510485Y-121430790D01*
X174510477Y-121430800D01*
X174470711Y-121482562D01*
X174447335Y-121538925D01*
X174447330Y-121538936D01*
X174417464Y-121610922D01*
X174417427Y-121611029D01*
X174373768Y-121716290D01*
X174373184Y-121717478D01*
X174359083Y-121751589D01*
X174345448Y-121784572D01*
X174330099Y-121821579D01*
X174320210Y-121845422D01*
X174320121Y-121845756D01*
X174320061Y-121845976D01*
X174311594Y-121910641D01*
X174311576Y-121910782D01*
X174302005Y-121983223D01*
X174301917Y-121984548D01*
X174282949Y-122129411D01*
X174279774Y-122145399D01*
X174273371Y-122169298D01*
X174273370Y-122169309D01*
X174273370Y-122194487D01*
X174272320Y-122210588D01*
X174269051Y-122235551D01*
X174269051Y-122235552D01*
X174272298Y-122260085D01*
X174273370Y-122276355D01*
X174273370Y-123130981D01*
X174273294Y-123356017D01*
X174273270Y-123356397D01*
X174273270Y-123430068D01*
X174273245Y-123503741D01*
X174273270Y-123504120D01*
X174273270Y-124323743D01*
X174273194Y-124548017D01*
X174273170Y-124548397D01*
X174273170Y-124622204D01*
X174273145Y-124695740D01*
X174273170Y-124696119D01*
X174273170Y-125817258D01*
X174273094Y-126041617D01*
X174273070Y-126041997D01*
X174273070Y-126115789D01*
X174273045Y-126189340D01*
X174273070Y-126189719D01*
X174273070Y-127011881D01*
X174272994Y-127236917D01*
X174272970Y-127237297D01*
X174272970Y-127310968D01*
X174272945Y-127384641D01*
X174272970Y-127385020D01*
X174272970Y-128505835D01*
X174272894Y-128730617D01*
X174272870Y-128730997D01*
X174272870Y-128804712D01*
X174272845Y-128878340D01*
X174272870Y-128878719D01*
X174272870Y-129699650D01*
X174272794Y-129924517D01*
X174272770Y-129924897D01*
X174272770Y-129998597D01*
X174272745Y-130072240D01*
X174272770Y-130072619D01*
X174272770Y-131192750D01*
X174272694Y-131417617D01*
X174272670Y-131417997D01*
X174272670Y-131491697D01*
X174272645Y-131565340D01*
X174272670Y-131565719D01*
X174272670Y-132389366D01*
X174272594Y-132614317D01*
X174272570Y-132614697D01*
X174272570Y-132688382D01*
X174272545Y-132762040D01*
X174272570Y-132762419D01*
X174272570Y-133543747D01*
X174271518Y-133559863D01*
X174253562Y-133696850D01*
X174245129Y-133728298D01*
X174208282Y-133817011D01*
X174192075Y-133845022D01*
X174133047Y-133921806D01*
X174110304Y-133944546D01*
X174033376Y-134003673D01*
X174005301Y-134019904D01*
X173916434Y-134056748D01*
X173885044Y-134065152D01*
X173748361Y-134083050D01*
X173732261Y-134084100D01*
X172951790Y-134084100D01*
X172951409Y-134084075D01*
X172877796Y-134084099D01*
X172877726Y-134084100D01*
X172804067Y-134084100D01*
X172803687Y-134084124D01*
X172578778Y-134084200D01*
X171759990Y-134084200D01*
X171759609Y-134084175D01*
X171686063Y-134084200D01*
X171612267Y-134084200D01*
X171611887Y-134084224D01*
X171387741Y-134084300D01*
X170267790Y-134084300D01*
X170267409Y-134084275D01*
X170193848Y-134084300D01*
X170120067Y-134084300D01*
X170119687Y-134084324D01*
X169895456Y-134084400D01*
X169074290Y-134084400D01*
X169073909Y-134084375D01*
X169000296Y-134084399D01*
X169000226Y-134084400D01*
X168926567Y-134084400D01*
X168926187Y-134084424D01*
X168701278Y-134084500D01*
X167880691Y-134084500D01*
X167880310Y-134084475D01*
X167806635Y-134084499D01*
X167806565Y-134084500D01*
X167732967Y-134084500D01*
X167732587Y-134084524D01*
X167507447Y-134084599D01*
X167507341Y-134084600D01*
X166388790Y-134084600D01*
X166388409Y-134084575D01*
X166314827Y-134084599D01*
X166314756Y-134084600D01*
X166241067Y-134084600D01*
X166240687Y-134084624D01*
X166015948Y-134084700D01*
X165194990Y-134084700D01*
X165194609Y-134084675D01*
X165121017Y-134084700D01*
X165047267Y-134084700D01*
X165046887Y-134084724D01*
X164822487Y-134084800D01*
X163701390Y-134084800D01*
X163701009Y-134084775D01*
X163627412Y-134084799D01*
X163627341Y-134084800D01*
X163553667Y-134084800D01*
X163553287Y-134084824D01*
X163328463Y-134084900D01*
X162474583Y-134084900D01*
X162458329Y-134083830D01*
X162451519Y-134082929D01*
X162433758Y-134080581D01*
X162433756Y-134080581D01*
X162421180Y-134082229D01*
X162408831Y-134083848D01*
X162392717Y-134084900D01*
X162367575Y-134084900D01*
X162343639Y-134091314D01*
X162327661Y-134094487D01*
X162182330Y-134113536D01*
X162180613Y-134113649D01*
X162173583Y-134114581D01*
X162173580Y-134114581D01*
X162108671Y-134123190D01*
X162108641Y-134123194D01*
X162043683Y-134131708D01*
X162043383Y-134131789D01*
X162042961Y-134131901D01*
X161982735Y-134156915D01*
X161982563Y-134156986D01*
X161915408Y-134184759D01*
X161913849Y-134185527D01*
X161749717Y-134253700D01*
X161749710Y-134253703D01*
X161680252Y-134282547D01*
X161626359Y-134323983D01*
X161626353Y-134323988D01*
X161421789Y-134481245D01*
X161421625Y-134481370D01*
X161369682Y-134521162D01*
X161369519Y-134521327D01*
X161369245Y-134521602D01*
X161369099Y-134521747D01*
X161369091Y-134521758D01*
X161329272Y-134573746D01*
X161311699Y-134596610D01*
X161215443Y-134721844D01*
X161214812Y-134722565D01*
X161170316Y-134780557D01*
X161170255Y-134780637D01*
X161130278Y-134832650D01*
X161130080Y-134832993D01*
X161105332Y-134892748D01*
X161105292Y-134892843D01*
X161076862Y-134961324D01*
X161076558Y-134962219D01*
X161033232Y-135066824D01*
X161032891Y-135067519D01*
X161004667Y-135135790D01*
X161004638Y-135135862D01*
X160979742Y-135195973D01*
X160979662Y-135196274D01*
X160971129Y-135261438D01*
X160971119Y-135261519D01*
X160961558Y-135334154D01*
X160961509Y-135334906D01*
X160942548Y-135479711D01*
X160939374Y-135495699D01*
X160932971Y-135519598D01*
X160932970Y-135519609D01*
X160932970Y-135544787D01*
X160931920Y-135560888D01*
X160928651Y-135585851D01*
X160928651Y-135585852D01*
X160931898Y-135610385D01*
X160932970Y-135626655D01*
X160932970Y-137973724D01*
X160932826Y-137979705D01*
X160932608Y-137984220D01*
X160921319Y-138217970D01*
X160920150Y-138229984D01*
X160887942Y-138449557D01*
X160885573Y-138461554D01*
X160831642Y-138677903D01*
X160828070Y-138689698D01*
X160752944Y-138899582D01*
X160748258Y-138910884D01*
X160652799Y-139112373D01*
X160647007Y-139123183D01*
X160532158Y-139314180D01*
X160525382Y-139324289D01*
X160392090Y-139503475D01*
X160384363Y-139512864D01*
X160234127Y-139678172D01*
X160225547Y-139686732D01*
X160060068Y-139836424D01*
X160050737Y-139844073D01*
X159871622Y-139976879D01*
X159861501Y-139983640D01*
X159670578Y-140098037D01*
X159659870Y-140103760D01*
X159457636Y-140199427D01*
X159446286Y-140204123D01*
X159236609Y-140278946D01*
X159224895Y-140282485D01*
X159009090Y-140336220D01*
X158997159Y-140338576D01*
X158775955Y-140371086D01*
X158763920Y-140372259D01*
X158539429Y-140383125D01*
X158527455Y-140383126D01*
X158304198Y-140372349D01*
X158292181Y-140371180D01*
X158072532Y-140338961D01*
X158060566Y-140336600D01*
X157843822Y-140282629D01*
X157832037Y-140279064D01*
X157621888Y-140203927D01*
X157610560Y-140199233D01*
X157408670Y-140103617D01*
X157397922Y-140097864D01*
X157206328Y-139982845D01*
X157196243Y-139976097D01*
X157016729Y-139842815D01*
X157007342Y-139835104D01*
X156841586Y-139684746D01*
X156833064Y-139676225D01*
X156682923Y-139510685D01*
X156675235Y-139501326D01*
X156542188Y-139322202D01*
X156535443Y-139312126D01*
X156483066Y-139224952D01*
X156420695Y-139121142D01*
X156414948Y-139110419D01*
X156319053Y-138908199D01*
X156314357Y-138896877D01*
X156239312Y-138687237D01*
X156235762Y-138675521D01*
X156181910Y-138459879D01*
X156179541Y-138447917D01*
X156173276Y-138405393D01*
X156146967Y-138226808D01*
X156145791Y-138214777D01*
X156137735Y-138049548D01*
X156134540Y-137983996D01*
X156928649Y-137983996D01*
X156928650Y-137984168D01*
X156928650Y-137984446D01*
X156928649Y-137984795D01*
X156937214Y-138049548D01*
X156937227Y-138049749D01*
X156937241Y-138049748D01*
X156964815Y-138260854D01*
X156964916Y-138262394D01*
X156974469Y-138334766D01*
X156974463Y-138334803D01*
X156974490Y-138334930D01*
X156982920Y-138399469D01*
X156983096Y-138400124D01*
X157008229Y-138460741D01*
X157008192Y-138460755D01*
X157008293Y-138460895D01*
X157035976Y-138527920D01*
X157036654Y-138529296D01*
X157059690Y-138584853D01*
X157090052Y-138658081D01*
X157090214Y-138658554D01*
X157118701Y-138727176D01*
X157118721Y-138727224D01*
X157143580Y-138787179D01*
X157143673Y-138787340D01*
X157161124Y-138810046D01*
X157184102Y-138839944D01*
X157184122Y-138839995D01*
X157184135Y-138839986D01*
X157228596Y-138897888D01*
X157228914Y-138898250D01*
X157238355Y-138910534D01*
X157358276Y-139066568D01*
X157358352Y-139066764D01*
X157358399Y-139066729D01*
X157393361Y-139112373D01*
X157398403Y-139118955D01*
X157398407Y-139118958D01*
X157398986Y-139119538D01*
X157450833Y-139159258D01*
X157450801Y-139159298D01*
X157450991Y-139159378D01*
X157619268Y-139288730D01*
X157619488Y-139288923D01*
X157678957Y-139334614D01*
X157678952Y-139334619D01*
X157678980Y-139334631D01*
X157730292Y-139374074D01*
X157730382Y-139374125D01*
X157730387Y-139374127D01*
X157730391Y-139374130D01*
X157790483Y-139399064D01*
X157790508Y-139399084D01*
X157790512Y-139399076D01*
X157859499Y-139427722D01*
X157859761Y-139427810D01*
X157988062Y-139481047D01*
X157989250Y-139481633D01*
X157996000Y-139484424D01*
X157996002Y-139484426D01*
X158056680Y-139509520D01*
X158056797Y-139509614D01*
X158056813Y-139509576D01*
X158105993Y-139529982D01*
X158117212Y-139534637D01*
X158117215Y-139534637D01*
X158117770Y-139534786D01*
X158117777Y-139534787D01*
X158117783Y-139534790D01*
X158135412Y-139537101D01*
X158182821Y-139543316D01*
X158182882Y-139543324D01*
X158247858Y-139551919D01*
X158247860Y-139551918D01*
X158255158Y-139552884D01*
X158256475Y-139552970D01*
X158467681Y-139580657D01*
X158467863Y-139580738D01*
X158467871Y-139580683D01*
X158476007Y-139581762D01*
X158532957Y-139589319D01*
X158532960Y-139589318D01*
X158532964Y-139589319D01*
X158533745Y-139589319D01*
X158533746Y-139589318D01*
X158533749Y-139589319D01*
X158598289Y-139580784D01*
X158598489Y-139580815D01*
X158598482Y-139580760D01*
X158809740Y-139553165D01*
X158811271Y-139553066D01*
X158818445Y-139552118D01*
X158818447Y-139552119D01*
X158883567Y-139543522D01*
X158883742Y-139543549D01*
X158883736Y-139543500D01*
X158948430Y-139535050D01*
X158948634Y-139534995D01*
X158949089Y-139534873D01*
X158949098Y-139534872D01*
X159009710Y-139509740D01*
X159009717Y-139509759D01*
X159009861Y-139509677D01*
X159070235Y-139484743D01*
X159070236Y-139484741D01*
X159076955Y-139481967D01*
X159078336Y-139481285D01*
X159206806Y-139428018D01*
X159207256Y-139427866D01*
X159214600Y-139424817D01*
X159214603Y-139424817D01*
X159256287Y-139407512D01*
X159276902Y-139398955D01*
X159276903Y-139398959D01*
X159276941Y-139398938D01*
X159336132Y-139374397D01*
X159336137Y-139374392D01*
X159336144Y-139374390D01*
X159336308Y-139374294D01*
X159336317Y-139374291D01*
X159373084Y-139346033D01*
X159388957Y-139333834D01*
X159388965Y-139333845D01*
X159388998Y-139333801D01*
X159440656Y-139294136D01*
X159440658Y-139294132D01*
X159447004Y-139289260D01*
X159447359Y-139288948D01*
X159615537Y-139159694D01*
X159615699Y-139159569D01*
X159665858Y-139121150D01*
X159667925Y-139119567D01*
X159667931Y-139119558D01*
X159668497Y-139118991D01*
X159668506Y-139118985D01*
X159708227Y-139067136D01*
X159708249Y-139067153D01*
X159708343Y-139066985D01*
X159837472Y-138898998D01*
X159837644Y-138898805D01*
X159842808Y-138892083D01*
X159842810Y-138892082D01*
X159883583Y-138839012D01*
X159883585Y-138839013D01*
X159883593Y-138838997D01*
X159923039Y-138787684D01*
X159923041Y-138787677D01*
X159923046Y-138787672D01*
X159923096Y-138787586D01*
X159923097Y-138787582D01*
X159923100Y-138787579D01*
X159948628Y-138726055D01*
X159948646Y-138726033D01*
X159948639Y-138726031D01*
X159954336Y-138712311D01*
X159973576Y-138665975D01*
X159973576Y-138665972D01*
X159976714Y-138658416D01*
X159976800Y-138658158D01*
X160029998Y-138529952D01*
X160030576Y-138528784D01*
X160033393Y-138521971D01*
X160033396Y-138521968D01*
X160058546Y-138461154D01*
X160058546Y-138461153D01*
X160058547Y-138461153D01*
X160058566Y-138461104D01*
X160083607Y-138400758D01*
X160083608Y-138400749D01*
X160083759Y-138400189D01*
X160083758Y-138400189D01*
X160083760Y-138400187D01*
X160092286Y-138335147D01*
X160100889Y-138270112D01*
X160100888Y-138270109D01*
X160101852Y-138262827D01*
X160101939Y-138261506D01*
X160101945Y-138261465D01*
X160129699Y-138049748D01*
X160138288Y-137985013D01*
X160138287Y-137985010D01*
X160138288Y-137985008D01*
X160138288Y-137984228D01*
X160138289Y-137984221D01*
X160131249Y-137930973D01*
X160129688Y-137919164D01*
X160129663Y-137918973D01*
X160102135Y-137708228D01*
X160102036Y-137706694D01*
X160092529Y-137634680D01*
X160092506Y-137634511D01*
X160092506Y-137634510D01*
X160084020Y-137569539D01*
X160084018Y-137569536D01*
X160084018Y-137569529D01*
X160083844Y-137568879D01*
X160059029Y-137509029D01*
X160058964Y-137508872D01*
X160030977Y-137441111D01*
X160030288Y-137439712D01*
X159976976Y-137311134D01*
X159976821Y-137310676D01*
X159948091Y-137241468D01*
X159948071Y-137241419D01*
X159923367Y-137181838D01*
X159923367Y-137181837D01*
X159923364Y-137181834D01*
X159923258Y-137181648D01*
X159883235Y-137129572D01*
X159883204Y-137129533D01*
X159843106Y-137077314D01*
X159843103Y-137077311D01*
X159838370Y-137071148D01*
X159838057Y-137070790D01*
X159708390Y-136902076D01*
X159708267Y-136901915D01*
X159668532Y-136850040D01*
X159668223Y-136849731D01*
X159667963Y-136849470D01*
X159615854Y-136809548D01*
X159615696Y-136809427D01*
X159447322Y-136680000D01*
X159447224Y-136679914D01*
X159384951Y-136632056D01*
X159358859Y-136611999D01*
X159336648Y-136594926D01*
X159336614Y-136594906D01*
X159277798Y-136570492D01*
X159277786Y-136570487D01*
X159207535Y-136541317D01*
X159207410Y-136541274D01*
X159079026Y-136487982D01*
X159077668Y-136487313D01*
X159070805Y-136484475D01*
X159010244Y-136459431D01*
X159010111Y-136459324D01*
X159010093Y-136459369D01*
X158949881Y-136434376D01*
X158949638Y-136434311D01*
X158949486Y-136434271D01*
X158949239Y-136434204D01*
X158883978Y-136425652D01*
X158883979Y-136425640D01*
X158883814Y-136425630D01*
X158812160Y-136416142D01*
X158810650Y-136416042D01*
X158598741Y-136388273D01*
X158598544Y-136388247D01*
X158533965Y-136379679D01*
X158533624Y-136379680D01*
X158533189Y-136379680D01*
X158533177Y-136379679D01*
X158467887Y-136388314D01*
X158467691Y-136388340D01*
X158257114Y-136415845D01*
X158255575Y-136415945D01*
X158183480Y-136425463D01*
X158183315Y-136425484D01*
X158118493Y-136433952D01*
X158118435Y-136433968D01*
X158118043Y-136434073D01*
X158117859Y-136434121D01*
X158071016Y-136453543D01*
X158057841Y-136459006D01*
X157990142Y-136486967D01*
X157988735Y-136487659D01*
X157859848Y-136541098D01*
X157859388Y-136541256D01*
X157852337Y-136544183D01*
X157790437Y-136569878D01*
X157762273Y-136581555D01*
X157730789Y-136594610D01*
X157730633Y-136594701D01*
X157678543Y-136634734D01*
X157678504Y-136634763D01*
X157620267Y-136679483D01*
X157619894Y-136679808D01*
X157451206Y-136809456D01*
X157451047Y-136809578D01*
X157399000Y-136849445D01*
X157398858Y-136849588D01*
X157398592Y-136849854D01*
X157398446Y-136849998D01*
X157358640Y-136901956D01*
X157358519Y-136902114D01*
X157228472Y-137071293D01*
X157228380Y-137071400D01*
X157181033Y-137133009D01*
X157181025Y-137133019D01*
X157143884Y-137181336D01*
X157119467Y-137240159D01*
X157119462Y-137240171D01*
X157090340Y-137310304D01*
X157090297Y-137310432D01*
X157036933Y-137438990D01*
X157036263Y-137440350D01*
X157008339Y-137507876D01*
X157008276Y-137508026D01*
X156983346Y-137568087D01*
X156983243Y-137568475D01*
X156983177Y-137568723D01*
X156983175Y-137568729D01*
X156974622Y-137633992D01*
X156974600Y-137634155D01*
X156965110Y-137705822D01*
X156965010Y-137707333D01*
X156938697Y-137908137D01*
X156937286Y-137918910D01*
X156937284Y-137918922D01*
X156928649Y-137983996D01*
X156134540Y-137983996D01*
X156134117Y-137975328D01*
X156133970Y-137969290D01*
X156133970Y-135625877D01*
X156135041Y-135609613D01*
X156138185Y-135585854D01*
X156138189Y-135585820D01*
X156135021Y-135561638D01*
X156133970Y-135545530D01*
X156133970Y-135519610D01*
X156133970Y-135519609D01*
X156133970Y-135519608D01*
X156127361Y-135494945D01*
X156124191Y-135478978D01*
X156105454Y-135335960D01*
X156105415Y-135335343D01*
X156104388Y-135327542D01*
X156104389Y-135327540D01*
X156095758Y-135261949D01*
X156095769Y-135261878D01*
X156095750Y-135261881D01*
X156090459Y-135221502D01*
X156087270Y-135197152D01*
X156087267Y-135197145D01*
X156087249Y-135197075D01*
X156087198Y-135196888D01*
X156087198Y-135196882D01*
X156061968Y-135135958D01*
X156036916Y-135075368D01*
X156036914Y-135075366D01*
X156033943Y-135068179D01*
X156033674Y-135067635D01*
X155990163Y-134962569D01*
X155990095Y-134962363D01*
X155986872Y-134954584D01*
X155961244Y-134892735D01*
X155961242Y-134892711D01*
X155961236Y-134892714D01*
X155936476Y-134832925D01*
X155936474Y-134832923D01*
X155936473Y-134832919D01*
X155936429Y-134832842D01*
X155897013Y-134781488D01*
X155856259Y-134728367D01*
X155856258Y-134728366D01*
X155851328Y-134721940D01*
X155851181Y-134721774D01*
X155738008Y-134574320D01*
X155727114Y-134560112D01*
X155697564Y-134521572D01*
X155697394Y-134521402D01*
X155697388Y-134521397D01*
X155697387Y-134521396D01*
X155644975Y-134481188D01*
X155644939Y-134481139D01*
X155644929Y-134481153D01*
X155442829Y-134325955D01*
X155442826Y-134325952D01*
X155386655Y-134282813D01*
X155314976Y-134253090D01*
X155314976Y-134253089D01*
X155314972Y-134253089D01*
X155152066Y-134185531D01*
X155151461Y-134185232D01*
X155083096Y-134156929D01*
X155083101Y-134156916D01*
X155083028Y-134156901D01*
X155022836Y-134131939D01*
X155022829Y-134131936D01*
X155022546Y-134131860D01*
X154957649Y-134123328D01*
X154957649Y-134123322D01*
X154957575Y-134123318D01*
X154884670Y-134113688D01*
X154883999Y-134113644D01*
X154739246Y-134094612D01*
X154723320Y-134091446D01*
X154712462Y-134088536D01*
X154699262Y-134085000D01*
X154699261Y-134085000D01*
X154674249Y-134085000D01*
X154658086Y-134083942D01*
X154633281Y-134080680D01*
X154633280Y-134080680D01*
X154610670Y-134083662D01*
X154608591Y-134083936D01*
X154592384Y-134085000D01*
X137224483Y-134085000D01*
X137208229Y-134083930D01*
X137201419Y-134083029D01*
X137183658Y-134080681D01*
X137183656Y-134080681D01*
X137171080Y-134082329D01*
X137158731Y-134083948D01*
X137142617Y-134085000D01*
X137117475Y-134085000D01*
X137093539Y-134091414D01*
X137077561Y-134094587D01*
X136932221Y-134113637D01*
X136930723Y-134113735D01*
X136858607Y-134123286D01*
X136858445Y-134123307D01*
X136801755Y-134130737D01*
X136795622Y-134131542D01*
X136793577Y-134131810D01*
X136793426Y-134131851D01*
X136793098Y-134131939D01*
X136792958Y-134131976D01*
X136792941Y-134131982D01*
X136792940Y-134131983D01*
X136732506Y-134157069D01*
X136665191Y-134184907D01*
X136663839Y-134185573D01*
X136599785Y-134212162D01*
X136488714Y-134258269D01*
X136430344Y-134282492D01*
X136370361Y-134328592D01*
X136370351Y-134328600D01*
X136172208Y-134480848D01*
X136172118Y-134480917D01*
X136119400Y-134521347D01*
X136119241Y-134521506D01*
X136119082Y-134521664D01*
X136079153Y-134573770D01*
X136079085Y-134573858D01*
X135922889Y-134777306D01*
X135922875Y-134777325D01*
X135880188Y-134832903D01*
X135880162Y-134832948D01*
X135874174Y-134847394D01*
X135857474Y-134887684D01*
X135856693Y-134889567D01*
X135856682Y-134889592D01*
X135783267Y-135066591D01*
X135782686Y-135067772D01*
X135766409Y-135107148D01*
X135754948Y-135134872D01*
X135745777Y-135156984D01*
X135729710Y-135195722D01*
X135729621Y-135196056D01*
X135729561Y-135196276D01*
X135721094Y-135260941D01*
X135721076Y-135261082D01*
X135711505Y-135333523D01*
X135711417Y-135334844D01*
X135710996Y-135338067D01*
X135692449Y-135479711D01*
X135689274Y-135495699D01*
X135682871Y-135519598D01*
X135682870Y-135519609D01*
X135682870Y-135544787D01*
X135681820Y-135560888D01*
X135678551Y-135585851D01*
X135678551Y-135585852D01*
X135681798Y-135610385D01*
X135682870Y-135626655D01*
X135682870Y-137973724D01*
X135682726Y-137979705D01*
X135682508Y-137984220D01*
X135671219Y-138217970D01*
X135670050Y-138229984D01*
X135637842Y-138449557D01*
X135635473Y-138461553D01*
X135581510Y-138678032D01*
X135577957Y-138689776D01*
X135502936Y-138899664D01*
X135498214Y-138911054D01*
X135402757Y-139112373D01*
X135396970Y-139123166D01*
X135282076Y-139314160D01*
X135275315Y-139324245D01*
X135156161Y-139484426D01*
X135141940Y-139503544D01*
X135134234Y-139512908D01*
X134984091Y-139678199D01*
X134975490Y-139686783D01*
X134810119Y-139836378D01*
X134800767Y-139844042D01*
X134621479Y-139976918D01*
X134611412Y-139983644D01*
X134420513Y-140098106D01*
X134409736Y-140103866D01*
X134207597Y-140199409D01*
X134196283Y-140204088D01*
X133986509Y-140278946D01*
X133974795Y-140282485D01*
X133758990Y-140336220D01*
X133747059Y-140338576D01*
X133525855Y-140371086D01*
X133513819Y-140372259D01*
X133289331Y-140383124D01*
X133277356Y-140383125D01*
X133054183Y-140372348D01*
X133042174Y-140371180D01*
X132822425Y-140338958D01*
X132810453Y-140336596D01*
X132593722Y-140282629D01*
X132581937Y-140279064D01*
X132371695Y-140203893D01*
X132360402Y-140199216D01*
X132158570Y-140103706D01*
X132147774Y-140097928D01*
X131956357Y-139982969D01*
X131946301Y-139976239D01*
X131851350Y-139905731D01*
X131766640Y-139842827D01*
X131757254Y-139835116D01*
X131591548Y-139684803D01*
X131582989Y-139676241D01*
X131537980Y-139626590D01*
X131432894Y-139510665D01*
X131425247Y-139501357D01*
X131292066Y-139322158D01*
X131285300Y-139312054D01*
X131170595Y-139121142D01*
X131164848Y-139110419D01*
X131068953Y-138908199D01*
X131064257Y-138896877D01*
X130989212Y-138687237D01*
X130985662Y-138675521D01*
X130931810Y-138459879D01*
X130929441Y-138447917D01*
X130923176Y-138405393D01*
X130896867Y-138226808D01*
X130895691Y-138214777D01*
X130887635Y-138049548D01*
X130884440Y-137983996D01*
X131678649Y-137983996D01*
X131678650Y-137984168D01*
X131678650Y-137984446D01*
X131678649Y-137984795D01*
X131687214Y-138049548D01*
X131687227Y-138049749D01*
X131687241Y-138049748D01*
X131714815Y-138260854D01*
X131714916Y-138262394D01*
X131724469Y-138334766D01*
X131724463Y-138334803D01*
X131724490Y-138334930D01*
X131732920Y-138399469D01*
X131733096Y-138400124D01*
X131758229Y-138460741D01*
X131758192Y-138460755D01*
X131758293Y-138460895D01*
X131785976Y-138527920D01*
X131786654Y-138529296D01*
X131809690Y-138584853D01*
X131840052Y-138658081D01*
X131840214Y-138658554D01*
X131868701Y-138727176D01*
X131868721Y-138727224D01*
X131893580Y-138787179D01*
X131893673Y-138787340D01*
X131911124Y-138810046D01*
X131934102Y-138839944D01*
X131934122Y-138839995D01*
X131934135Y-138839986D01*
X131978596Y-138897888D01*
X131978914Y-138898250D01*
X131988355Y-138910534D01*
X132108276Y-139066568D01*
X132108352Y-139066764D01*
X132108399Y-139066729D01*
X132143361Y-139112373D01*
X132148403Y-139118955D01*
X132148407Y-139118958D01*
X132148986Y-139119538D01*
X132200833Y-139159258D01*
X132200801Y-139159298D01*
X132200991Y-139159378D01*
X132369268Y-139288730D01*
X132369488Y-139288923D01*
X132428957Y-139334614D01*
X132428952Y-139334619D01*
X132428980Y-139334631D01*
X132480292Y-139374074D01*
X132480382Y-139374125D01*
X132480387Y-139374127D01*
X132480391Y-139374130D01*
X132540483Y-139399064D01*
X132540508Y-139399084D01*
X132540512Y-139399076D01*
X132609499Y-139427722D01*
X132609761Y-139427810D01*
X132738062Y-139481047D01*
X132739250Y-139481633D01*
X132746000Y-139484424D01*
X132746002Y-139484426D01*
X132806680Y-139509520D01*
X132806797Y-139509614D01*
X132806813Y-139509576D01*
X132855993Y-139529982D01*
X132867212Y-139534637D01*
X132867215Y-139534637D01*
X132867770Y-139534786D01*
X132867777Y-139534787D01*
X132867783Y-139534790D01*
X132885412Y-139537101D01*
X132932821Y-139543316D01*
X132932882Y-139543324D01*
X132997858Y-139551919D01*
X132997860Y-139551918D01*
X133005158Y-139552884D01*
X133006475Y-139552970D01*
X133217681Y-139580657D01*
X133217863Y-139580738D01*
X133217871Y-139580683D01*
X133226007Y-139581762D01*
X133282957Y-139589319D01*
X133282960Y-139589318D01*
X133282964Y-139589319D01*
X133283745Y-139589319D01*
X133283746Y-139589318D01*
X133283749Y-139589319D01*
X133348289Y-139580784D01*
X133348489Y-139580815D01*
X133348482Y-139580760D01*
X133559740Y-139553165D01*
X133561271Y-139553066D01*
X133568445Y-139552118D01*
X133568447Y-139552119D01*
X133633567Y-139543522D01*
X133633742Y-139543549D01*
X133633736Y-139543500D01*
X133698430Y-139535050D01*
X133698634Y-139534995D01*
X133699089Y-139534873D01*
X133699098Y-139534872D01*
X133759710Y-139509740D01*
X133759717Y-139509759D01*
X133759861Y-139509677D01*
X133820235Y-139484743D01*
X133820236Y-139484741D01*
X133826955Y-139481967D01*
X133828336Y-139481285D01*
X133956631Y-139428090D01*
X133956865Y-139428012D01*
X133964497Y-139424845D01*
X133964500Y-139424845D01*
X134027614Y-139398659D01*
X134027639Y-139398656D01*
X134027637Y-139398650D01*
X134032888Y-139396472D01*
X134086132Y-139374397D01*
X134086136Y-139374393D01*
X134086164Y-139374382D01*
X134086193Y-139374365D01*
X134086216Y-139374347D01*
X134086224Y-139374344D01*
X134137689Y-139334807D01*
X134190656Y-139294136D01*
X134190656Y-139294134D01*
X134197512Y-139288871D01*
X134197687Y-139288714D01*
X134365827Y-139159548D01*
X134365851Y-139159579D01*
X134365937Y-139159463D01*
X134418124Y-139119468D01*
X134418130Y-139119459D01*
X134418522Y-139119067D01*
X134418531Y-139119061D01*
X134458335Y-139067124D01*
X134458453Y-139067038D01*
X134458421Y-139067013D01*
X134632307Y-138840673D01*
X134632313Y-138840677D01*
X134632339Y-138840630D01*
X134672985Y-138787778D01*
X134672989Y-138787767D01*
X134673102Y-138787570D01*
X134673109Y-138787563D01*
X134698622Y-138726069D01*
X134698639Y-138726032D01*
X134780002Y-138530197D01*
X134780999Y-138528176D01*
X134783591Y-138521900D01*
X134783594Y-138521897D01*
X134808543Y-138461501D01*
X134808688Y-138461154D01*
X134818224Y-138438200D01*
X134833647Y-138401080D01*
X134833648Y-138401076D01*
X134833908Y-138400105D01*
X134833908Y-138400100D01*
X134833910Y-138400097D01*
X134842318Y-138335756D01*
X134842422Y-138335521D01*
X134842351Y-138335512D01*
X134843105Y-138329830D01*
X134850989Y-138270441D01*
X134850988Y-138270435D01*
X134851879Y-138263725D01*
X134852028Y-138261465D01*
X134853158Y-138252824D01*
X134868061Y-138138793D01*
X134879670Y-138049971D01*
X134879701Y-138049731D01*
X134888289Y-137985005D01*
X134888289Y-137984024D01*
X134879653Y-137918910D01*
X134852133Y-137708216D01*
X134852034Y-137706681D01*
X134842529Y-137634680D01*
X134842506Y-137634511D01*
X134842506Y-137634510D01*
X134834020Y-137569539D01*
X134834018Y-137569536D01*
X134834018Y-137569529D01*
X134833844Y-137568879D01*
X134809029Y-137509029D01*
X134808964Y-137508872D01*
X134780977Y-137441111D01*
X134780288Y-137439712D01*
X134726976Y-137311134D01*
X134726821Y-137310676D01*
X134698091Y-137241468D01*
X134698071Y-137241419D01*
X134673367Y-137181838D01*
X134673367Y-137181837D01*
X134673364Y-137181834D01*
X134673258Y-137181648D01*
X134633235Y-137129572D01*
X134633204Y-137129533D01*
X134593106Y-137077314D01*
X134593103Y-137077311D01*
X134588370Y-137071148D01*
X134588057Y-137070790D01*
X134458390Y-136902076D01*
X134458267Y-136901915D01*
X134418532Y-136850040D01*
X134418223Y-136849731D01*
X134417963Y-136849470D01*
X134365854Y-136809548D01*
X134365696Y-136809427D01*
X134197322Y-136680000D01*
X134197224Y-136679914D01*
X134134951Y-136632056D01*
X134108859Y-136611999D01*
X134086648Y-136594926D01*
X134086614Y-136594906D01*
X134027798Y-136570492D01*
X134027786Y-136570487D01*
X133957535Y-136541317D01*
X133957410Y-136541274D01*
X133829026Y-136487982D01*
X133827668Y-136487313D01*
X133820805Y-136484475D01*
X133760244Y-136459431D01*
X133760111Y-136459324D01*
X133760093Y-136459369D01*
X133699881Y-136434376D01*
X133699638Y-136434311D01*
X133699486Y-136434271D01*
X133699239Y-136434204D01*
X133633978Y-136425652D01*
X133633979Y-136425640D01*
X133633814Y-136425630D01*
X133562161Y-136416142D01*
X133560649Y-136416042D01*
X133349283Y-136388344D01*
X133349093Y-136388319D01*
X133283951Y-136379679D01*
X133283897Y-136379680D01*
X133283447Y-136379680D01*
X133283182Y-136379679D01*
X133218222Y-136388269D01*
X133218033Y-136388294D01*
X133007240Y-136415838D01*
X133005763Y-136415935D01*
X132998594Y-136416881D01*
X132998592Y-136416881D01*
X132933590Y-136425462D01*
X132868587Y-136433956D01*
X132868586Y-136433956D01*
X132868580Y-136433957D01*
X132867955Y-136434123D01*
X132807888Y-136459028D01*
X132807836Y-136459049D01*
X132807739Y-136459090D01*
X132767308Y-136475791D01*
X132740144Y-136487012D01*
X132738823Y-136487662D01*
X132609605Y-136541239D01*
X132609393Y-136541312D01*
X132541323Y-136569552D01*
X132541302Y-136569561D01*
X132480860Y-136594621D01*
X132480852Y-136594627D01*
X132428599Y-136634768D01*
X132428580Y-136634783D01*
X132370337Y-136679507D01*
X132370165Y-136679657D01*
X132200959Y-136809645D01*
X132200821Y-136809751D01*
X132148996Y-136849448D01*
X132148873Y-136849572D01*
X132148522Y-136849922D01*
X132148509Y-136849939D01*
X132108520Y-136902114D01*
X132108518Y-136902116D01*
X132108412Y-136902254D01*
X131978472Y-137071293D01*
X131978380Y-137071400D01*
X131931033Y-137133009D01*
X131931025Y-137133019D01*
X131893884Y-137181336D01*
X131869467Y-137240159D01*
X131869462Y-137240171D01*
X131840340Y-137310304D01*
X131840297Y-137310432D01*
X131786933Y-137438990D01*
X131786263Y-137440350D01*
X131758339Y-137507876D01*
X131758276Y-137508026D01*
X131733346Y-137568087D01*
X131733243Y-137568475D01*
X131733177Y-137568723D01*
X131733175Y-137568729D01*
X131724622Y-137633992D01*
X131724600Y-137634155D01*
X131715110Y-137705822D01*
X131715010Y-137707333D01*
X131688697Y-137908137D01*
X131687286Y-137918910D01*
X131687284Y-137918922D01*
X131678649Y-137983996D01*
X130884440Y-137983996D01*
X130884017Y-137975328D01*
X130883870Y-137969290D01*
X130883870Y-135626734D01*
X130884946Y-135610433D01*
X130885278Y-135607926D01*
X130888189Y-135585980D01*
X130884915Y-135560926D01*
X130883870Y-135544859D01*
X130883870Y-135519609D01*
X130877485Y-135495781D01*
X130874306Y-135479756D01*
X130855329Y-135334547D01*
X130855189Y-135332395D01*
X130845697Y-135260838D01*
X130845666Y-135260601D01*
X130837374Y-135197156D01*
X130837211Y-135195907D01*
X130837210Y-135195904D01*
X130837154Y-135195693D01*
X130837107Y-135195520D01*
X130836960Y-135194971D01*
X130811959Y-135134778D01*
X130811867Y-135134556D01*
X130784298Y-135067816D01*
X130783335Y-135065863D01*
X130771882Y-135038290D01*
X130711807Y-134893653D01*
X130711417Y-134892714D01*
X130686632Y-134832976D01*
X130686407Y-134832433D01*
X130686404Y-134832429D01*
X130686311Y-134832267D01*
X130666956Y-134807094D01*
X130645507Y-134779196D01*
X130606432Y-134728335D01*
X130487720Y-134573814D01*
X130487632Y-134573700D01*
X130447759Y-134521675D01*
X130447733Y-134521641D01*
X130447732Y-134521640D01*
X130447729Y-134521636D01*
X130447325Y-134521232D01*
X130395225Y-134481303D01*
X130395112Y-134481216D01*
X130247250Y-134367625D01*
X130247040Y-134367440D01*
X130188562Y-134322538D01*
X130188562Y-134322537D01*
X130188537Y-134322520D01*
X130136125Y-134282255D01*
X130136022Y-134282196D01*
X130076826Y-134257653D01*
X130076804Y-134257635D01*
X130076801Y-134257643D01*
X130014403Y-134231756D01*
X130014401Y-134231755D01*
X130007289Y-134228805D01*
X130007021Y-134228713D01*
X129902253Y-134185277D01*
X129900830Y-134184576D01*
X129833458Y-134156755D01*
X129833318Y-134156642D01*
X129833299Y-134156689D01*
X129773069Y-134131718D01*
X129772467Y-134131558D01*
X129772407Y-134131542D01*
X129707282Y-134123040D01*
X129707283Y-134123028D01*
X129707108Y-134123017D01*
X129696436Y-134121608D01*
X129635392Y-134113551D01*
X129633812Y-134113447D01*
X129489190Y-134094567D01*
X129473114Y-134091375D01*
X129449431Y-134085022D01*
X129449430Y-134085021D01*
X129424015Y-134085012D01*
X129408016Y-134083969D01*
X129382829Y-134080681D01*
X129382822Y-134080682D01*
X129358521Y-134083907D01*
X129342167Y-134084985D01*
X129159545Y-134084924D01*
X129159171Y-134084900D01*
X129151262Y-134084900D01*
X129085307Y-134084900D01*
X129011730Y-134084875D01*
X129011350Y-134084900D01*
X128188399Y-134084900D01*
X127964344Y-134084824D01*
X127963970Y-134084800D01*
X127956062Y-134084800D01*
X127890077Y-134084800D01*
X127816530Y-134084775D01*
X127816150Y-134084800D01*
X126696607Y-134084800D01*
X126472044Y-134084724D01*
X126471670Y-134084700D01*
X126463762Y-134084700D01*
X126397869Y-134084700D01*
X126324230Y-134084675D01*
X126323850Y-134084700D01*
X125501369Y-134084700D01*
X125275689Y-134084623D01*
X125275314Y-134084600D01*
X125267762Y-134084600D01*
X125202005Y-134084600D01*
X125201934Y-134084599D01*
X125128229Y-134084575D01*
X125127849Y-134084600D01*
X124305684Y-134084600D01*
X124081544Y-134084524D01*
X124081170Y-134084500D01*
X124073262Y-134084500D01*
X124007292Y-134084500D01*
X123933730Y-134084475D01*
X123933350Y-134084500D01*
X122811199Y-134084500D01*
X122811096Y-134084499D01*
X122586044Y-134084424D01*
X122585670Y-134084400D01*
X122577762Y-134084400D01*
X122511975Y-134084400D01*
X122511904Y-134084399D01*
X122438229Y-134084375D01*
X122437849Y-134084400D01*
X121616853Y-134084400D01*
X121392544Y-134084324D01*
X121392170Y-134084300D01*
X121384262Y-134084300D01*
X121318323Y-134084300D01*
X121244730Y-134084275D01*
X121244350Y-134084300D01*
X120122915Y-134084300D01*
X120122812Y-134084299D01*
X119897844Y-134084224D01*
X119897470Y-134084200D01*
X119889562Y-134084200D01*
X119823759Y-134084200D01*
X119823688Y-134084199D01*
X119750029Y-134084175D01*
X119749649Y-134084200D01*
X118925684Y-134084200D01*
X118925581Y-134084199D01*
X118700444Y-134084124D01*
X118700070Y-134084100D01*
X118692162Y-134084100D01*
X118626390Y-134084100D01*
X118626319Y-134084099D01*
X118552629Y-134084075D01*
X118552249Y-134084100D01*
X118069835Y-134084100D01*
X118053674Y-134083042D01*
X118035705Y-134080680D01*
X118003591Y-134076458D01*
X117917944Y-134065200D01*
X117886630Y-134056809D01*
X117831981Y-134034160D01*
X117796927Y-134019631D01*
X117768805Y-134003369D01*
X117692653Y-133944796D01*
X117669832Y-133921935D01*
X117611661Y-133846032D01*
X117595470Y-133817934D01*
X117558418Y-133728202D01*
X117550062Y-133696829D01*
X117548166Y-133682212D01*
X117532404Y-133560698D01*
X117531375Y-133544517D01*
X117531707Y-133367703D01*
X117531709Y-133367699D01*
X117531970Y-133228232D01*
X117531970Y-133228222D01*
X117531997Y-133213907D01*
X117531996Y-133213880D01*
X117532452Y-132969567D01*
X117532452Y-132969566D01*
X117532542Y-132921508D01*
X117532808Y-132779633D01*
X117532810Y-132779629D01*
X117533506Y-132407229D01*
X117533506Y-132407228D01*
X117533666Y-132322267D01*
X117534223Y-132026248D01*
X117534222Y-132026246D01*
X117534783Y-131728048D01*
X117534782Y-131728046D01*
X117535343Y-131429747D01*
X117535342Y-131429745D01*
X117535627Y-131277706D01*
X117535629Y-131277702D01*
X117535673Y-131254500D01*
X117536169Y-130988837D01*
X117536170Y-130988833D01*
X117536426Y-130852086D01*
X117537023Y-130533947D01*
X117537022Y-130533944D01*
X117537336Y-130366130D01*
X117538143Y-129935646D01*
X117538142Y-129935644D01*
X117538427Y-129783506D01*
X117538429Y-129783502D01*
X117538623Y-129679816D01*
X117538623Y-129679814D01*
X117538703Y-129637347D01*
X117538702Y-129637344D01*
X117539127Y-129410362D01*
X117539548Y-129188934D01*
X117539551Y-129188917D01*
X117539657Y-129131980D01*
X117539657Y-129131974D01*
X117539835Y-129038861D01*
X117539833Y-129038856D01*
X117539851Y-129029775D01*
X117539849Y-129029735D01*
X117540117Y-128886707D01*
X117540119Y-128886703D01*
X117540307Y-128786414D01*
X117540420Y-128726051D01*
X117540419Y-128726046D01*
X117540812Y-128516463D01*
X117540956Y-128439568D01*
X117541238Y-128289607D01*
X117541239Y-128289603D01*
X117541425Y-128190413D01*
X117541513Y-128143448D01*
X117541512Y-128143446D01*
X117541778Y-128000733D01*
X117541780Y-128000730D01*
X117542123Y-127817708D01*
X117542633Y-127545345D01*
X117542632Y-127545342D01*
X117542947Y-127377059D01*
X117543510Y-127077055D01*
X117544175Y-126721462D01*
X117544598Y-126496113D01*
X117544599Y-126496105D01*
X117545190Y-126181354D01*
X117546020Y-125738150D01*
X117546019Y-125738145D01*
X117546277Y-125600703D01*
X117546279Y-125600699D01*
X117546448Y-125510155D01*
X117546448Y-125510153D01*
X117546448Y-125510070D01*
X117546553Y-125454548D01*
X117546552Y-125454544D01*
X117546866Y-125286630D01*
X117547428Y-124986992D01*
X117547990Y-124687554D01*
X117548793Y-124258846D01*
X117548792Y-124258844D01*
X117549211Y-124035114D01*
X117549654Y-123801974D01*
X117549657Y-123801941D01*
X117549675Y-123792028D01*
X117549676Y-123792027D01*
X117549817Y-123716158D01*
X117549924Y-123660260D01*
X117549922Y-123660255D01*
X117549939Y-123651578D01*
X117549938Y-123651552D01*
X117549947Y-123647108D01*
X117550236Y-123492329D01*
X117551043Y-123061545D01*
X117551042Y-123061543D01*
X117551308Y-122918832D01*
X117551310Y-122918829D01*
X117552057Y-122519337D01*
X117552057Y-122519336D01*
X117552513Y-122276355D01*
X117552521Y-122271938D01*
X117553617Y-122255733D01*
X117556317Y-122235554D01*
X117556918Y-122231065D01*
X117553701Y-122206232D01*
X117552675Y-122190074D01*
X117552723Y-122165048D01*
X117546326Y-122140994D01*
X117543189Y-122125059D01*
X117524572Y-121981314D01*
X117524544Y-121980853D01*
X117515086Y-121908065D01*
X117515079Y-121908011D01*
X117507047Y-121845986D01*
X117506592Y-121842472D01*
X117506588Y-121842462D01*
X117506540Y-121842284D01*
X117506539Y-121842273D01*
X117481181Y-121780758D01*
X117456417Y-121720613D01*
X117456416Y-121720612D01*
X117453397Y-121713278D01*
X117453193Y-121712863D01*
X117409791Y-121607573D01*
X117409527Y-121606794D01*
X117406605Y-121599721D01*
X117406605Y-121599718D01*
X117381498Y-121538937D01*
X117356475Y-121478235D01*
X117356474Y-121478234D01*
X117356474Y-121478233D01*
X117356295Y-121477921D01*
X117316199Y-121425561D01*
X117316145Y-121425490D01*
X117271820Y-121367521D01*
X117271272Y-121366893D01*
X117204118Y-121279200D01*
X117204116Y-121279196D01*
X117191183Y-121262308D01*
X117117725Y-121166383D01*
X117113279Y-121162965D01*
X117031974Y-121100453D01*
X117031972Y-121100451D01*
X117008548Y-121082441D01*
X117008534Y-121082431D01*
X116917527Y-121012460D01*
X116859055Y-120967503D01*
X116807119Y-120927568D01*
X116807117Y-120927567D01*
X116807112Y-120927563D01*
X116807103Y-120927559D01*
X116807100Y-120927557D01*
X116742730Y-120900821D01*
X116742729Y-120900820D01*
X116742729Y-120900819D01*
X116742725Y-120900819D01*
X116572588Y-120830145D01*
X116571527Y-120829621D01*
X116516606Y-120806875D01*
X116504276Y-120801768D01*
X116504174Y-120801686D01*
X116504160Y-120801720D01*
X116443470Y-120776511D01*
X116443324Y-120776472D01*
X116442980Y-120776379D01*
X116442964Y-120776376D01*
X116442962Y-120776376D01*
X116378333Y-120767870D01*
X116378205Y-120767853D01*
X116305535Y-120758211D01*
X116304331Y-120758132D01*
X116278061Y-120754674D01*
X116159868Y-120739120D01*
X116143958Y-120735956D01*
X116129928Y-120732197D01*
X116119862Y-120729500D01*
X116119861Y-120729500D01*
X116094887Y-120729500D01*
X116078709Y-120728440D01*
X116072461Y-120727617D01*
X116053944Y-120725181D01*
X116053943Y-120725181D01*
X116053942Y-120725181D01*
X116034324Y-120727764D01*
X116029213Y-120728438D01*
X116013021Y-120729500D01*
X113670027Y-120729500D01*
X113664047Y-120729356D01*
X113425714Y-120717849D01*
X113413702Y-120716681D01*
X113193978Y-120684459D01*
X113182003Y-120682095D01*
X112965333Y-120628133D01*
X112953553Y-120624570D01*
X112743279Y-120549388D01*
X112731992Y-120544713D01*
X112693049Y-120526287D01*
X112530098Y-120449185D01*
X112519313Y-120443415D01*
X112327910Y-120328491D01*
X112317803Y-120321727D01*
X112138243Y-120188357D01*
X112128865Y-120180651D01*
X111963086Y-120030256D01*
X111954549Y-120021717D01*
X111930032Y-119994683D01*
X111804409Y-119856160D01*
X111796733Y-119846820D01*
X111746171Y-119778776D01*
X111663606Y-119667664D01*
X111656852Y-119657576D01*
X111542164Y-119466689D01*
X111536405Y-119455938D01*
X111440573Y-119253755D01*
X111435881Y-119242446D01*
X111360806Y-119032697D01*
X111357255Y-119020979D01*
X111303358Y-118805311D01*
X111300988Y-118793351D01*
X111268408Y-118572357D01*
X111267230Y-118560299D01*
X111256343Y-118335885D01*
X111256342Y-118330437D01*
X112050219Y-118330437D01*
X112050221Y-118330454D01*
X112050221Y-118330456D01*
X112058787Y-118395074D01*
X112058799Y-118395259D01*
X112058812Y-118395258D01*
X112086567Y-118607176D01*
X112086674Y-118608796D01*
X112087601Y-118615795D01*
X112087601Y-118615796D01*
X112096192Y-118680661D01*
X112104715Y-118745731D01*
X112104715Y-118745732D01*
X112104717Y-118745742D01*
X112104774Y-118745954D01*
X112104858Y-118746266D01*
X112104902Y-118746434D01*
X112130027Y-118806957D01*
X112130095Y-118807121D01*
X112157799Y-118874131D01*
X112158521Y-118875593D01*
X112212199Y-119004897D01*
X112212218Y-119004952D01*
X112237509Y-119065865D01*
X112237510Y-119065871D01*
X112237512Y-119065871D01*
X112237512Y-119065872D01*
X112265261Y-119132716D01*
X112265451Y-119133183D01*
X112265456Y-119133192D01*
X112266091Y-119134001D01*
X112299254Y-119177146D01*
X112299257Y-119177153D01*
X112299259Y-119177152D01*
X112350280Y-119243537D01*
X112350319Y-119243582D01*
X112480117Y-119412447D01*
X112480187Y-119412628D01*
X112480231Y-119412595D01*
X112520027Y-119464531D01*
X112520363Y-119464866D01*
X112520551Y-119465054D01*
X112525339Y-119468721D01*
X112572403Y-119504773D01*
X112572516Y-119504929D01*
X112572550Y-119504886D01*
X112741383Y-119634614D01*
X112741654Y-119634852D01*
X112800464Y-119680011D01*
X112800457Y-119680018D01*
X112800494Y-119680034D01*
X112806304Y-119684498D01*
X112852275Y-119719823D01*
X112852396Y-119719892D01*
X112852405Y-119719896D01*
X112852407Y-119719897D01*
X112877862Y-119730451D01*
X112911805Y-119744525D01*
X112911803Y-119744528D01*
X112911836Y-119744537D01*
X112973989Y-119770331D01*
X112973992Y-119770331D01*
X112981589Y-119773484D01*
X112981923Y-119773596D01*
X113109490Y-119826489D01*
X113110226Y-119826794D01*
X113111592Y-119827468D01*
X113118296Y-119830237D01*
X113118299Y-119830239D01*
X113179115Y-119855358D01*
X113179108Y-119855376D01*
X113179261Y-119855418D01*
X113239254Y-119880293D01*
X113239447Y-119880373D01*
X113239699Y-119880440D01*
X113239896Y-119880493D01*
X113240099Y-119880547D01*
X113240101Y-119880547D01*
X113240103Y-119880548D01*
X113304717Y-119888988D01*
X113304879Y-119889059D01*
X113304885Y-119889010D01*
X113324367Y-119891582D01*
X113377300Y-119898571D01*
X113378831Y-119898669D01*
X113589110Y-119926138D01*
X113589296Y-119926220D01*
X113589304Y-119926164D01*
X113603650Y-119928061D01*
X113654747Y-119934819D01*
X113654755Y-119934818D01*
X113655541Y-119934818D01*
X113655543Y-119934817D01*
X113655546Y-119934818D01*
X113709364Y-119927677D01*
X113720129Y-119926249D01*
X113720135Y-119926299D01*
X113720321Y-119926223D01*
X113932043Y-119898474D01*
X113933467Y-119898382D01*
X113940744Y-119897418D01*
X113940746Y-119897419D01*
X114006126Y-119888765D01*
X114070773Y-119880293D01*
X114070774Y-119880292D01*
X114070778Y-119880292D01*
X114071388Y-119880129D01*
X114071390Y-119880128D01*
X114071391Y-119880128D01*
X114132350Y-119854828D01*
X114132357Y-119854845D01*
X114132489Y-119854770D01*
X114192556Y-119829932D01*
X114192558Y-119829929D01*
X114199366Y-119827115D01*
X114200621Y-119826493D01*
X114328897Y-119773258D01*
X114329076Y-119773198D01*
X114336521Y-119770106D01*
X114336525Y-119770106D01*
X114386398Y-119749397D01*
X114397477Y-119744797D01*
X114397477Y-119744798D01*
X114397487Y-119744792D01*
X114458159Y-119719613D01*
X114458163Y-119719609D01*
X114458167Y-119719608D01*
X114458228Y-119719572D01*
X114458229Y-119719570D01*
X114458234Y-119719569D01*
X114500693Y-119686930D01*
X114507899Y-119681391D01*
X114507902Y-119681395D01*
X114507916Y-119681377D01*
X114562656Y-119639316D01*
X114562657Y-119639313D01*
X114569154Y-119634322D01*
X114569296Y-119634196D01*
X114654846Y-119568434D01*
X114737111Y-119505199D01*
X114737269Y-119505077D01*
X114737667Y-119504772D01*
X114789545Y-119465027D01*
X114789551Y-119465018D01*
X114790111Y-119464458D01*
X114790116Y-119464455D01*
X114829771Y-119412683D01*
X114959568Y-119243789D01*
X114959904Y-119243407D01*
X114964696Y-119237165D01*
X114964699Y-119237163D01*
X115005062Y-119184589D01*
X115005069Y-119184594D01*
X115005095Y-119184546D01*
X115044838Y-119132835D01*
X115044841Y-119132827D01*
X115044906Y-119132716D01*
X115044948Y-119132641D01*
X115044954Y-119132635D01*
X115067579Y-119078057D01*
X115070413Y-119071220D01*
X115070419Y-119071203D01*
X115095360Y-119011120D01*
X115095360Y-119011118D01*
X115098375Y-119003856D01*
X115098539Y-119003370D01*
X115151812Y-118874860D01*
X115152424Y-118873621D01*
X115155242Y-118866797D01*
X115155245Y-118866795D01*
X115171392Y-118827706D01*
X115180285Y-118806180D01*
X115180301Y-118806139D01*
X115205400Y-118745596D01*
X115205400Y-118745590D01*
X115205497Y-118745232D01*
X115205525Y-118745126D01*
X115205558Y-118744999D01*
X115205561Y-118744994D01*
X115214046Y-118680068D01*
X115222639Y-118614944D01*
X115222638Y-118614942D01*
X115223602Y-118607642D01*
X115223693Y-118606242D01*
X115227581Y-118576498D01*
X115250540Y-118400826D01*
X115251266Y-118395271D01*
X115251291Y-118395079D01*
X115254378Y-118371745D01*
X115259859Y-118330313D01*
X115259859Y-118330310D01*
X115259859Y-118329522D01*
X115251236Y-118264504D01*
X115251211Y-118264310D01*
X115228729Y-118092720D01*
X115223536Y-118053093D01*
X115223445Y-118051681D01*
X115222478Y-118044375D01*
X115222479Y-118044372D01*
X115213871Y-117979314D01*
X115205359Y-117914347D01*
X115205358Y-117914344D01*
X115205229Y-117913860D01*
X115205227Y-117913852D01*
X115205194Y-117913732D01*
X115205193Y-117913730D01*
X115205193Y-117913727D01*
X115180062Y-117853168D01*
X115155003Y-117792562D01*
X115155001Y-117792560D01*
X115152219Y-117785830D01*
X115151586Y-117784547D01*
X115111982Y-117689108D01*
X119352970Y-117689108D01*
X119352970Y-131820891D01*
X119387078Y-131948187D01*
X119420024Y-132005250D01*
X119452970Y-132062314D01*
X119546156Y-132155500D01*
X119660284Y-132221392D01*
X119787578Y-132255500D01*
X119787580Y-132255500D01*
X133919360Y-132255500D01*
X133919362Y-132255500D01*
X134046656Y-132221392D01*
X134160784Y-132155500D01*
X134253970Y-132062314D01*
X134319862Y-131948186D01*
X134353970Y-131820892D01*
X134353970Y-131392108D01*
X134353970Y-131094508D01*
X134353970Y-130797008D01*
X134353970Y-130498808D01*
X134353970Y-130201508D01*
X134353970Y-129903508D01*
X134353970Y-129605208D01*
X134353970Y-129306708D01*
X134353970Y-129009308D01*
X134353970Y-128711308D01*
X134353970Y-128413208D01*
X134353970Y-128115908D01*
X134353970Y-127817208D01*
X134353970Y-127518708D01*
X134353970Y-127221608D01*
X134353970Y-126923008D01*
X134353970Y-126624908D01*
X134353970Y-126327208D01*
X134353970Y-126029608D01*
X134353970Y-125731108D01*
X134353970Y-125433308D01*
X134353970Y-125134808D01*
X134353970Y-124836808D01*
X134353970Y-124539108D01*
X134353970Y-124241408D01*
X134353970Y-123943108D01*
X134353970Y-123645008D01*
X134353970Y-123348108D01*
X134353970Y-123050208D01*
X134353970Y-122752108D01*
X134353970Y-122454508D01*
X134353970Y-122156708D01*
X134353970Y-121857908D01*
X134353970Y-121560508D01*
X134353970Y-121262408D01*
X134353970Y-120964408D01*
X134353970Y-120666208D01*
X134353970Y-120369208D01*
X134353970Y-120071708D01*
X134353970Y-119774208D01*
X134353970Y-119476508D01*
X134353970Y-119179008D01*
X134353970Y-118881408D01*
X134353970Y-118582508D01*
X134353970Y-118284808D01*
X134353970Y-117986408D01*
X134353970Y-117689108D01*
X138402970Y-117689108D01*
X138402970Y-131820891D01*
X138437078Y-131948187D01*
X138470024Y-132005250D01*
X138502970Y-132062314D01*
X138596156Y-132155500D01*
X138710284Y-132221392D01*
X138837578Y-132255500D01*
X138837580Y-132255500D01*
X152969360Y-132255500D01*
X152969362Y-132255500D01*
X153096656Y-132221392D01*
X153210784Y-132155500D01*
X153303970Y-132062314D01*
X153369862Y-131948186D01*
X153403970Y-131820892D01*
X153403970Y-131392108D01*
X153403970Y-131094508D01*
X153403970Y-130797008D01*
X153403970Y-130498808D01*
X153403970Y-130201508D01*
X153403970Y-129903508D01*
X153403970Y-129605208D01*
X153403970Y-129306708D01*
X153403970Y-129009308D01*
X153403970Y-128711308D01*
X153403970Y-128413208D01*
X153403970Y-128115908D01*
X153403970Y-127817208D01*
X153403970Y-127518708D01*
X153403970Y-127221608D01*
X153403970Y-126923008D01*
X153403970Y-126624908D01*
X153403970Y-126327208D01*
X153403970Y-126029608D01*
X153403970Y-125731108D01*
X153403970Y-125433308D01*
X153403970Y-125134808D01*
X153403970Y-124836808D01*
X153403970Y-124539108D01*
X153403970Y-124241408D01*
X153403970Y-123943108D01*
X153403970Y-123645008D01*
X153403970Y-123348108D01*
X153403970Y-123050208D01*
X153403970Y-122752108D01*
X153403970Y-122454508D01*
X153403970Y-122156708D01*
X153403970Y-121857908D01*
X153403970Y-121560508D01*
X153403970Y-121262408D01*
X153403970Y-120964408D01*
X153403970Y-120666208D01*
X153403970Y-120369208D01*
X153403970Y-120071708D01*
X153403970Y-119774208D01*
X153403970Y-119476508D01*
X153403970Y-119179008D01*
X153403970Y-118881408D01*
X153403970Y-118582508D01*
X153403970Y-118284808D01*
X153403970Y-117986408D01*
X153403970Y-117689108D01*
X157452970Y-117689108D01*
X157452970Y-131820891D01*
X157487078Y-131948187D01*
X157520024Y-132005250D01*
X157552970Y-132062314D01*
X157646156Y-132155500D01*
X157760284Y-132221392D01*
X157887578Y-132255500D01*
X157887580Y-132255500D01*
X172019360Y-132255500D01*
X172019362Y-132255500D01*
X172146656Y-132221392D01*
X172260784Y-132155500D01*
X172353970Y-132062314D01*
X172419862Y-131948186D01*
X172453970Y-131820892D01*
X172453970Y-131392108D01*
X172453970Y-131094508D01*
X172453970Y-130797008D01*
X172453970Y-130498808D01*
X172453970Y-130201508D01*
X172453970Y-129903508D01*
X172453970Y-129605208D01*
X172453970Y-129306708D01*
X172453970Y-129009308D01*
X172453970Y-128711308D01*
X172453970Y-128413208D01*
X172453970Y-128115908D01*
X172453970Y-127817208D01*
X172453970Y-127518708D01*
X172453970Y-127221608D01*
X172453970Y-126923008D01*
X172453970Y-126624908D01*
X172453970Y-126327208D01*
X172453970Y-126029608D01*
X172453970Y-125731108D01*
X172453970Y-125433308D01*
X172453970Y-125134808D01*
X172453970Y-124836808D01*
X172453970Y-124539108D01*
X172453970Y-124241408D01*
X172453970Y-123943108D01*
X172453970Y-123645008D01*
X172453970Y-123348108D01*
X172453970Y-123050208D01*
X172453970Y-122752108D01*
X172453970Y-122454508D01*
X172453970Y-122156708D01*
X172453970Y-121857908D01*
X172453970Y-121560508D01*
X172453970Y-121262408D01*
X172453970Y-120964408D01*
X172453970Y-120666208D01*
X172453970Y-120369208D01*
X172453970Y-120071708D01*
X172453970Y-119774208D01*
X172453970Y-119476508D01*
X172453970Y-119179008D01*
X172453970Y-118881408D01*
X172453970Y-118582508D01*
X172453970Y-118334698D01*
X176568149Y-118334698D01*
X176568150Y-118334825D01*
X176568150Y-118335258D01*
X176568149Y-118335469D01*
X176576678Y-118399980D01*
X176576690Y-118400173D01*
X176576704Y-118400172D01*
X176604315Y-118611555D01*
X176604415Y-118613093D01*
X176613969Y-118685466D01*
X176613963Y-118685503D01*
X176613990Y-118685630D01*
X176622420Y-118750169D01*
X176622596Y-118750824D01*
X176647729Y-118811441D01*
X176647692Y-118811455D01*
X176647793Y-118811595D01*
X176670890Y-118867518D01*
X176675476Y-118878620D01*
X176676154Y-118879996D01*
X176707808Y-118956338D01*
X176729552Y-119008781D01*
X176729714Y-119009254D01*
X176758201Y-119077876D01*
X176758221Y-119077924D01*
X176783080Y-119137879D01*
X176783173Y-119138040D01*
X176800624Y-119160746D01*
X176823602Y-119190644D01*
X176823622Y-119190695D01*
X176823635Y-119190686D01*
X176868096Y-119248588D01*
X176868414Y-119248950D01*
X176997776Y-119417268D01*
X176997852Y-119417464D01*
X176997899Y-119417429D01*
X177035631Y-119466689D01*
X177037903Y-119469655D01*
X177037907Y-119469658D01*
X177038486Y-119470238D01*
X177090333Y-119509958D01*
X177090301Y-119509999D01*
X177090492Y-119510079D01*
X177258611Y-119639309D01*
X177258696Y-119639385D01*
X177265338Y-119644490D01*
X177265341Y-119644493D01*
X177320549Y-119686921D01*
X177320556Y-119686930D01*
X177320558Y-119686928D01*
X177363441Y-119719892D01*
X177369824Y-119724798D01*
X177369841Y-119724808D01*
X177370540Y-119725090D01*
X177429103Y-119749399D01*
X177429113Y-119749407D01*
X177429115Y-119749404D01*
X177491495Y-119775306D01*
X177491496Y-119775306D01*
X177499757Y-119778736D01*
X177499877Y-119778776D01*
X177627398Y-119831710D01*
X177628764Y-119832384D01*
X177675414Y-119851674D01*
X177696125Y-119860238D01*
X177756546Y-119885319D01*
X177756549Y-119885320D01*
X177757203Y-119885495D01*
X177757205Y-119885496D01*
X177822194Y-119894011D01*
X177822358Y-119894084D01*
X177822365Y-119894034D01*
X177887190Y-119902619D01*
X177887190Y-119902618D01*
X177894380Y-119903571D01*
X177895893Y-119903669D01*
X177897382Y-119903865D01*
X178107391Y-119931385D01*
X178107383Y-119931442D01*
X178107590Y-119931411D01*
X178172457Y-119940019D01*
X178172465Y-119940018D01*
X178173264Y-119940018D01*
X178173272Y-119940019D01*
X178238049Y-119931451D01*
X178238255Y-119931483D01*
X178238248Y-119931426D01*
X178449241Y-119903865D01*
X178450770Y-119903766D01*
X178457945Y-119902818D01*
X178457947Y-119902819D01*
X178523067Y-119894222D01*
X178523242Y-119894249D01*
X178523236Y-119894200D01*
X178587930Y-119885750D01*
X178588134Y-119885695D01*
X178588589Y-119885573D01*
X178588598Y-119885572D01*
X178649210Y-119860440D01*
X178649217Y-119860459D01*
X178649361Y-119860377D01*
X178709735Y-119835443D01*
X178709736Y-119835441D01*
X178716455Y-119832667D01*
X178717836Y-119831985D01*
X178846306Y-119778718D01*
X178846756Y-119778566D01*
X178854100Y-119775517D01*
X178854103Y-119775517D01*
X178895787Y-119758212D01*
X178916402Y-119749655D01*
X178916403Y-119749659D01*
X178916441Y-119749638D01*
X178975632Y-119725097D01*
X178975637Y-119725092D01*
X178975644Y-119725090D01*
X178975808Y-119724994D01*
X178975817Y-119724991D01*
X179008228Y-119700080D01*
X179028457Y-119684534D01*
X179028465Y-119684545D01*
X179028498Y-119684501D01*
X179080156Y-119644836D01*
X179080158Y-119644832D01*
X179086504Y-119639960D01*
X179086859Y-119639648D01*
X179255037Y-119510394D01*
X179255199Y-119510269D01*
X179262376Y-119504772D01*
X179307425Y-119470267D01*
X179307431Y-119470258D01*
X179307997Y-119469691D01*
X179308006Y-119469685D01*
X179347727Y-119417836D01*
X179347749Y-119417853D01*
X179347843Y-119417685D01*
X179476567Y-119250224D01*
X179476654Y-119250128D01*
X179528597Y-119182540D01*
X179528605Y-119182530D01*
X179561563Y-119139654D01*
X179562592Y-119138355D01*
X179562594Y-119138352D01*
X179563266Y-119136649D01*
X179587602Y-119078025D01*
X179613076Y-119016675D01*
X179613076Y-119016672D01*
X179616544Y-119008321D01*
X179616587Y-119008193D01*
X179669460Y-118880817D01*
X179670131Y-118879459D01*
X179672905Y-118872750D01*
X179672907Y-118872748D01*
X179698008Y-118812044D01*
X179723089Y-118751624D01*
X179723089Y-118751617D01*
X179723104Y-118751565D01*
X179723160Y-118751354D01*
X179723260Y-118750979D01*
X179723266Y-118750965D01*
X179731804Y-118685804D01*
X179740389Y-118620980D01*
X179740388Y-118620977D01*
X179741339Y-118613802D01*
X179741438Y-118612289D01*
X179742231Y-118606242D01*
X179769150Y-118400822D01*
X179769183Y-118400826D01*
X179769175Y-118400632D01*
X179777789Y-118335691D01*
X179777789Y-118334902D01*
X179777788Y-118334900D01*
X179777789Y-118334898D01*
X179769185Y-118269843D01*
X179741641Y-118059057D01*
X179741545Y-118057570D01*
X179740588Y-118050325D01*
X179740589Y-118050322D01*
X179732007Y-117985320D01*
X179723514Y-117920317D01*
X179723511Y-117920311D01*
X179723341Y-117919676D01*
X179723341Y-117919672D01*
X179699742Y-117862756D01*
X179698379Y-117859468D01*
X179698316Y-117859316D01*
X179670441Y-117791834D01*
X179669779Y-117790491D01*
X179616447Y-117661863D01*
X179616372Y-117661640D01*
X179601895Y-117626746D01*
X179587917Y-117593055D01*
X179587915Y-117593031D01*
X179587909Y-117593034D01*
X179574964Y-117561814D01*
X179562867Y-117532637D01*
X179562863Y-117532631D01*
X179562815Y-117532549D01*
X179562814Y-117532545D01*
X179522686Y-117480310D01*
X179482606Y-117428114D01*
X179482604Y-117428113D01*
X179477754Y-117421796D01*
X179477594Y-117421613D01*
X179474149Y-117417129D01*
X179370967Y-117282814D01*
X179347640Y-117252449D01*
X179347534Y-117252311D01*
X179314240Y-117208845D01*
X179308036Y-117200745D01*
X179308034Y-117200743D01*
X179308023Y-117200729D01*
X179307602Y-117200309D01*
X179307531Y-117200238D01*
X179255355Y-117160249D01*
X179255215Y-117160142D01*
X179138652Y-117070541D01*
X179086819Y-117030697D01*
X179086724Y-117030614D01*
X179024451Y-116982756D01*
X178998359Y-116962699D01*
X178976148Y-116945626D01*
X178976114Y-116945606D01*
X178917298Y-116921192D01*
X178917286Y-116921187D01*
X178847035Y-116892017D01*
X178846910Y-116891974D01*
X178718526Y-116838682D01*
X178717168Y-116838013D01*
X178710518Y-116835263D01*
X178649744Y-116810131D01*
X178649611Y-116810024D01*
X178649593Y-116810069D01*
X178589384Y-116785077D01*
X178588972Y-116784967D01*
X178588810Y-116784924D01*
X178588736Y-116784904D01*
X178523478Y-116776352D01*
X178523479Y-116776340D01*
X178523314Y-116776330D01*
X178451660Y-116766842D01*
X178450150Y-116766742D01*
X178238241Y-116738973D01*
X178238044Y-116738947D01*
X178173465Y-116730379D01*
X178173124Y-116730380D01*
X178172689Y-116730380D01*
X178172677Y-116730379D01*
X178107387Y-116739014D01*
X178107191Y-116739040D01*
X177896614Y-116766545D01*
X177895075Y-116766645D01*
X177822980Y-116776163D01*
X177822815Y-116776184D01*
X177758005Y-116784650D01*
X177757971Y-116784660D01*
X177757552Y-116784772D01*
X177757350Y-116784825D01*
X177714202Y-116802714D01*
X177697341Y-116809706D01*
X177629642Y-116837667D01*
X177628235Y-116838359D01*
X177499348Y-116891798D01*
X177498888Y-116891956D01*
X177491837Y-116894883D01*
X177429937Y-116920578D01*
X177401773Y-116932255D01*
X177370289Y-116945310D01*
X177370133Y-116945401D01*
X177318043Y-116985434D01*
X177318004Y-116985463D01*
X177259767Y-117030183D01*
X177259394Y-117030508D01*
X177090706Y-117160156D01*
X177090547Y-117160278D01*
X177038500Y-117200145D01*
X177038358Y-117200288D01*
X177038092Y-117200554D01*
X177037946Y-117200698D01*
X177002133Y-117247444D01*
X176998019Y-117252814D01*
X176972368Y-117286184D01*
X176868500Y-117421308D01*
X176868317Y-117421517D01*
X176821821Y-117482034D01*
X176821805Y-117482055D01*
X176783361Y-117532067D01*
X176758350Y-117592346D01*
X176758338Y-117592375D01*
X176729960Y-117660716D01*
X176729869Y-117660982D01*
X176676416Y-117789805D01*
X176675833Y-117790988D01*
X176647968Y-117858365D01*
X176647913Y-117858498D01*
X176622827Y-117918954D01*
X176622810Y-117919021D01*
X176622681Y-117919498D01*
X176614153Y-117984552D01*
X176614134Y-117984692D01*
X176604598Y-118056785D01*
X176604511Y-118058099D01*
X176576811Y-118269410D01*
X176576786Y-118269601D01*
X176568149Y-118334698D01*
X172453970Y-118334698D01*
X172453970Y-118284808D01*
X172453970Y-117986408D01*
X172453970Y-117689108D01*
X172419862Y-117561814D01*
X172353970Y-117447686D01*
X172260784Y-117354500D01*
X172180362Y-117308068D01*
X172146657Y-117288608D01*
X172083009Y-117271554D01*
X172019362Y-117254500D01*
X171722362Y-117254500D01*
X171424762Y-117254500D01*
X171127362Y-117254500D01*
X170829062Y-117254500D01*
X170531762Y-117254500D01*
X170233762Y-117254500D01*
X169935462Y-117254500D01*
X169636962Y-117254500D01*
X169339562Y-117254500D01*
X169041562Y-117254500D01*
X168743462Y-117254500D01*
X168446162Y-117254500D01*
X168147462Y-117254500D01*
X167848962Y-117254500D01*
X167551862Y-117254500D01*
X167253262Y-117254500D01*
X166955162Y-117254500D01*
X166657462Y-117254500D01*
X166359862Y-117254500D01*
X166061362Y-117254500D01*
X165763562Y-117254500D01*
X165465062Y-117254500D01*
X165167062Y-117254500D01*
X164869362Y-117254500D01*
X164571662Y-117254500D01*
X164273362Y-117254500D01*
X163975262Y-117254500D01*
X163678362Y-117254500D01*
X163380462Y-117254500D01*
X163082362Y-117254500D01*
X162784762Y-117254500D01*
X162486962Y-117254500D01*
X162188162Y-117254500D01*
X161890762Y-117254500D01*
X161592662Y-117254500D01*
X161294662Y-117254500D01*
X160996562Y-117254500D01*
X160699462Y-117254500D01*
X160401962Y-117254500D01*
X160104462Y-117254500D01*
X159806762Y-117254500D01*
X159509262Y-117254500D01*
X159211662Y-117254500D01*
X158912762Y-117254500D01*
X158615062Y-117254500D01*
X158316662Y-117254500D01*
X158019362Y-117254500D01*
X157887578Y-117254500D01*
X157760282Y-117288608D01*
X157646156Y-117354500D01*
X157646153Y-117354502D01*
X157552972Y-117447683D01*
X157552970Y-117447686D01*
X157487078Y-117561812D01*
X157452970Y-117689108D01*
X153403970Y-117689108D01*
X153369862Y-117561814D01*
X153303970Y-117447686D01*
X153210784Y-117354500D01*
X153130362Y-117308068D01*
X153096657Y-117288608D01*
X153033009Y-117271554D01*
X152969362Y-117254500D01*
X152672362Y-117254500D01*
X152374762Y-117254500D01*
X152077362Y-117254500D01*
X151779062Y-117254500D01*
X151481762Y-117254500D01*
X151183762Y-117254500D01*
X150885462Y-117254500D01*
X150586962Y-117254500D01*
X150289562Y-117254500D01*
X149991562Y-117254500D01*
X149693462Y-117254500D01*
X149396162Y-117254500D01*
X149097462Y-117254500D01*
X148798962Y-117254500D01*
X148501862Y-117254500D01*
X148203262Y-117254500D01*
X147905162Y-117254500D01*
X147607462Y-117254500D01*
X147309862Y-117254500D01*
X147011362Y-117254500D01*
X146713562Y-117254500D01*
X146415062Y-117254500D01*
X146117062Y-117254500D01*
X145819362Y-117254500D01*
X145521662Y-117254500D01*
X145223362Y-117254500D01*
X144925262Y-117254500D01*
X144628362Y-117254500D01*
X144330462Y-117254500D01*
X144032362Y-117254500D01*
X143734762Y-117254500D01*
X143436962Y-117254500D01*
X143138162Y-117254500D01*
X142840762Y-117254500D01*
X142542662Y-117254500D01*
X142244662Y-117254500D01*
X141946562Y-117254500D01*
X141649462Y-117254500D01*
X141351962Y-117254500D01*
X141054462Y-117254500D01*
X140756762Y-117254500D01*
X140459262Y-117254500D01*
X140161662Y-117254500D01*
X139862762Y-117254500D01*
X139565062Y-117254500D01*
X139266662Y-117254500D01*
X138969362Y-117254500D01*
X138837578Y-117254500D01*
X138710282Y-117288608D01*
X138596156Y-117354500D01*
X138596153Y-117354502D01*
X138502972Y-117447683D01*
X138502970Y-117447686D01*
X138437078Y-117561812D01*
X138402970Y-117689108D01*
X134353970Y-117689108D01*
X134319862Y-117561814D01*
X134253970Y-117447686D01*
X134160784Y-117354500D01*
X134080362Y-117308068D01*
X134046657Y-117288608D01*
X133983009Y-117271554D01*
X133919362Y-117254500D01*
X133622362Y-117254500D01*
X133324762Y-117254500D01*
X133027362Y-117254500D01*
X132729062Y-117254500D01*
X132431762Y-117254500D01*
X132133762Y-117254500D01*
X131835462Y-117254500D01*
X131536962Y-117254500D01*
X131239562Y-117254500D01*
X130941562Y-117254500D01*
X130643462Y-117254500D01*
X130346162Y-117254500D01*
X130047462Y-117254500D01*
X129748962Y-117254500D01*
X129451862Y-117254500D01*
X129153262Y-117254500D01*
X128855162Y-117254500D01*
X128557462Y-117254500D01*
X128259862Y-117254500D01*
X127961362Y-117254500D01*
X127663562Y-117254500D01*
X127365062Y-117254500D01*
X127067062Y-117254500D01*
X126769362Y-117254500D01*
X126471662Y-117254500D01*
X126173362Y-117254500D01*
X125875262Y-117254500D01*
X125578362Y-117254500D01*
X125280462Y-117254500D01*
X124982362Y-117254500D01*
X124684762Y-117254500D01*
X124386962Y-117254500D01*
X124088162Y-117254500D01*
X123790762Y-117254500D01*
X123492662Y-117254500D01*
X123194662Y-117254500D01*
X122896562Y-117254500D01*
X122599462Y-117254500D01*
X122301962Y-117254500D01*
X122004462Y-117254500D01*
X121706762Y-117254500D01*
X121409262Y-117254500D01*
X121111662Y-117254500D01*
X120812762Y-117254500D01*
X120515062Y-117254500D01*
X120216662Y-117254500D01*
X119919362Y-117254500D01*
X119787578Y-117254500D01*
X119660282Y-117288608D01*
X119546156Y-117354500D01*
X119546153Y-117354502D01*
X119452972Y-117447683D01*
X119452970Y-117447686D01*
X119387078Y-117561812D01*
X119352970Y-117689108D01*
X115111982Y-117689108D01*
X115098304Y-117656147D01*
X115098249Y-117655987D01*
X115095163Y-117648554D01*
X115095163Y-117648552D01*
X115077313Y-117605557D01*
X115070641Y-117589485D01*
X115070621Y-117589438D01*
X115044811Y-117527242D01*
X115044668Y-117526888D01*
X115044660Y-117526874D01*
X115006736Y-117477534D01*
X115006723Y-117477516D01*
X114959685Y-117416296D01*
X114959559Y-117416153D01*
X114830017Y-117247610D01*
X114790069Y-117195477D01*
X114790067Y-117195475D01*
X114790063Y-117195470D01*
X114789750Y-117195157D01*
X114789693Y-117195101D01*
X114789544Y-117194952D01*
X114737628Y-117155182D01*
X114737632Y-117155175D01*
X114737482Y-117155070D01*
X114737034Y-117154726D01*
X114627474Y-117070541D01*
X114568827Y-117025477D01*
X114568557Y-117025240D01*
X114523610Y-116990727D01*
X114511665Y-116981555D01*
X114511641Y-116981522D01*
X114511635Y-116981531D01*
X114457817Y-116940179D01*
X114457698Y-116940110D01*
X114457683Y-116940103D01*
X114457682Y-116940103D01*
X114399944Y-116916163D01*
X114399946Y-116916156D01*
X114399912Y-116916149D01*
X114336102Y-116889669D01*
X114336097Y-116889668D01*
X114329087Y-116886759D01*
X114328747Y-116886642D01*
X114199811Y-116833182D01*
X114198447Y-116832510D01*
X114131483Y-116804851D01*
X114131495Y-116804820D01*
X114131328Y-116804787D01*
X114070646Y-116779626D01*
X114070452Y-116779575D01*
X114069997Y-116779452D01*
X114005309Y-116771002D01*
X114005244Y-116770973D01*
X114005146Y-116770981D01*
X113932863Y-116761439D01*
X113931343Y-116761340D01*
X113720366Y-116733780D01*
X113720289Y-116733746D01*
X113720174Y-116733755D01*
X113655320Y-116725179D01*
X113655006Y-116725180D01*
X113654694Y-116725180D01*
X113654539Y-116725179D01*
X113589707Y-116733781D01*
X113589513Y-116733807D01*
X113377914Y-116761540D01*
X113376477Y-116761634D01*
X113304162Y-116771206D01*
X113304007Y-116771226D01*
X113239297Y-116779707D01*
X113239280Y-116779712D01*
X113239005Y-116779786D01*
X113238699Y-116779867D01*
X113178124Y-116805007D01*
X113177980Y-116805066D01*
X113110929Y-116832794D01*
X113109631Y-116833433D01*
X112980603Y-116886984D01*
X112980461Y-116887033D01*
X112913223Y-116914949D01*
X112913209Y-116914955D01*
X112851897Y-116940401D01*
X112851884Y-116940408D01*
X112799495Y-116980678D01*
X112799494Y-116980679D01*
X112747852Y-117020364D01*
X112741901Y-117024937D01*
X112741784Y-117025037D01*
X112573065Y-117154726D01*
X112572932Y-117154828D01*
X112520457Y-117195050D01*
X112520297Y-117195210D01*
X112519978Y-117195527D01*
X112491884Y-117232203D01*
X112480210Y-117247444D01*
X112350024Y-117416917D01*
X112349839Y-117417129D01*
X112304572Y-117476088D01*
X112304556Y-117476109D01*
X112265178Y-117527371D01*
X112265130Y-117527454D01*
X112240388Y-117587140D01*
X112240377Y-117587167D01*
X112211796Y-117656064D01*
X112211705Y-117656328D01*
X112168625Y-117760251D01*
X112158201Y-117785396D01*
X112157602Y-117786612D01*
X112129799Y-117853908D01*
X112129743Y-117854042D01*
X112104675Y-117914512D01*
X112104627Y-117914696D01*
X112104526Y-117915068D01*
X112096067Y-117979769D01*
X112096049Y-117979912D01*
X112086491Y-118052354D01*
X112086403Y-118053692D01*
X112058835Y-118264564D01*
X112058809Y-118264756D01*
X112050220Y-118329665D01*
X112050220Y-118330119D01*
X112050219Y-118330437D01*
X111256342Y-118330437D01*
X111256341Y-118323946D01*
X111267091Y-118100657D01*
X111268253Y-118088689D01*
X111272586Y-118059062D01*
X111300413Y-117868770D01*
X111302757Y-117856857D01*
X111356632Y-117639904D01*
X111360161Y-117628199D01*
X111435098Y-117417906D01*
X111439774Y-117406590D01*
X111486300Y-117308068D01*
X111535112Y-117204704D01*
X111540839Y-117193977D01*
X111655522Y-117002459D01*
X111662264Y-116992360D01*
X111795320Y-116812834D01*
X111802974Y-116803497D01*
X111952971Y-116637732D01*
X111961493Y-116629192D01*
X112126546Y-116479208D01*
X112135908Y-116471503D01*
X112314681Y-116338511D01*
X112324734Y-116331771D01*
X112515309Y-116217086D01*
X112526014Y-116211340D01*
X112727823Y-116115514D01*
X112739155Y-116110807D01*
X112948459Y-116035813D01*
X112960191Y-116032255D01*
X113175569Y-115978432D01*
X113187523Y-115976062D01*
X113408490Y-115943493D01*
X113420491Y-115942319D01*
X113658142Y-115930731D01*
X113659865Y-115930647D01*
X113665904Y-115930500D01*
X113851518Y-115930500D01*
X114118538Y-115930500D01*
X114385238Y-115930500D01*
X114652158Y-115930500D01*
X114920188Y-115930500D01*
X115187628Y-115930500D01*
X115454968Y-115930500D01*
X115721698Y-115930500D01*
X116012847Y-115930500D01*
X116029103Y-115931570D01*
X116031020Y-115931823D01*
X116053670Y-115934819D01*
X116078607Y-115931550D01*
X116094719Y-115930500D01*
X116119860Y-115930500D01*
X116119862Y-115930500D01*
X116143795Y-115924086D01*
X116159769Y-115920914D01*
X116303568Y-115902070D01*
X116304375Y-115902017D01*
X116311950Y-115901018D01*
X116311953Y-115901019D01*
X116366231Y-115893865D01*
X116377123Y-115892430D01*
X116377126Y-115892453D01*
X116377212Y-115892418D01*
X116442257Y-115883895D01*
X116442262Y-115883892D01*
X116442599Y-115883802D01*
X116442608Y-115883801D01*
X116486272Y-115865708D01*
X116503205Y-115858692D01*
X116503208Y-115858701D01*
X116503283Y-115858659D01*
X116564040Y-115833536D01*
X116564040Y-115833535D01*
X116571198Y-115830576D01*
X116571926Y-115830216D01*
X116677122Y-115786627D01*
X116677666Y-115786443D01*
X116684913Y-115783435D01*
X116684917Y-115783435D01*
X116745059Y-115758477D01*
X116745061Y-115758483D01*
X116745108Y-115758456D01*
X116806414Y-115733055D01*
X116806422Y-115733048D01*
X116806632Y-115732927D01*
X116806637Y-115732925D01*
X116858216Y-115693294D01*
X116910955Y-115652816D01*
X116910957Y-115652812D01*
X116917285Y-115647956D01*
X116917706Y-115647586D01*
X117066006Y-115533643D01*
X117066019Y-115533633D01*
X117117428Y-115494145D01*
X117117813Y-115493853D01*
X117117820Y-115493847D01*
X117118315Y-115493185D01*
X117162056Y-115436106D01*
X117270911Y-115294096D01*
X117271033Y-115293958D01*
X117276117Y-115287322D01*
X117276121Y-115287320D01*
X117317087Y-115233857D01*
X117317089Y-115233858D01*
X117317097Y-115233843D01*
X117356231Y-115182792D01*
X117356233Y-115182786D01*
X117356249Y-115182766D01*
X117356263Y-115182741D01*
X117356271Y-115182721D01*
X117356276Y-115182715D01*
X117381096Y-115122679D01*
X117406603Y-115061015D01*
X117406603Y-115061014D01*
X117409732Y-115053450D01*
X117409797Y-115053254D01*
X117453225Y-114948209D01*
X117453558Y-114947535D01*
X117456532Y-114940325D01*
X117456534Y-114940324D01*
X117481876Y-114878907D01*
X117506715Y-114818828D01*
X117506715Y-114818822D01*
X117506798Y-114818511D01*
X117506802Y-114818503D01*
X117515272Y-114753493D01*
X117515272Y-114753492D01*
X117515285Y-114753493D01*
X117515282Y-114753414D01*
X117523829Y-114688160D01*
X117523828Y-114688155D01*
X117524832Y-114680493D01*
X117524881Y-114679735D01*
X117543704Y-114535260D01*
X117546845Y-114519363D01*
X117553274Y-114495250D01*
X117553241Y-114470260D01*
X117554280Y-114454095D01*
X117557508Y-114429324D01*
X117554218Y-114404593D01*
X117553136Y-114388418D01*
X117552725Y-114067266D01*
X117552724Y-114067264D01*
X117552345Y-113771665D01*
X117552344Y-113771664D01*
X117552313Y-113747043D01*
X117552312Y-113747041D01*
X117552134Y-113607149D01*
X117552135Y-113607146D01*
X117551585Y-113180663D01*
X117551584Y-113180662D01*
X117551553Y-113156040D01*
X117551552Y-113156037D01*
X117551487Y-113105500D01*
X117551205Y-112884965D01*
X117551011Y-112734728D01*
X117551013Y-112734714D01*
X117550994Y-112720248D01*
X117550995Y-112720247D01*
X117550506Y-112341388D01*
X117550254Y-112140785D01*
X117550256Y-112140765D01*
X117550243Y-112130750D01*
X117550244Y-112130748D01*
X117550171Y-112074162D01*
X117550077Y-111998980D01*
X117550076Y-111998978D01*
X117550064Y-111989045D01*
X117550061Y-111989009D01*
X117549695Y-111703365D01*
X117549321Y-111411208D01*
X117549059Y-111207386D01*
X117549059Y-111207385D01*
X117548984Y-111148542D01*
X117548940Y-111114408D01*
X117548935Y-111110267D01*
X117548934Y-111110266D01*
X117548903Y-111085644D01*
X117548902Y-111085641D01*
X117548555Y-110814066D01*
X117548554Y-110814065D01*
X117548523Y-110789444D01*
X117548522Y-110789440D01*
X117548175Y-110517866D01*
X117548174Y-110517865D01*
X117548143Y-110493244D01*
X117548142Y-110493242D01*
X117547964Y-110353550D01*
X117547965Y-110353547D01*
X117547419Y-109930200D01*
X117547035Y-109630267D01*
X117546655Y-109333866D01*
X117546275Y-109037367D01*
X117545995Y-108818928D01*
X117545903Y-108746508D01*
X117545895Y-108740467D01*
X117545894Y-108740466D01*
X117545862Y-108715846D01*
X117545862Y-108715839D01*
X117545515Y-108444565D01*
X117545514Y-108444564D01*
X117545483Y-108419943D01*
X117545482Y-108419939D01*
X117545103Y-108124043D01*
X117545102Y-108124039D01*
X117544755Y-107852865D01*
X117544754Y-107852864D01*
X117544723Y-107828243D01*
X117544722Y-107828239D01*
X117544375Y-107556866D01*
X117543995Y-107260367D01*
X117543994Y-107260366D01*
X117543963Y-107235743D01*
X117543962Y-107235740D01*
X117543615Y-106964266D01*
X117543235Y-106667866D01*
X117543234Y-106667865D01*
X117543203Y-106643244D01*
X117543202Y-106643240D01*
X117542855Y-106372165D01*
X117542854Y-106372164D01*
X117542823Y-106347543D01*
X117542822Y-106347539D01*
X117542645Y-106209336D01*
X117542475Y-106076265D01*
X117542474Y-106076263D01*
X117542095Y-105780864D01*
X117542094Y-105780863D01*
X117542063Y-105756242D01*
X117542062Y-105756238D01*
X117541683Y-105460343D01*
X117541682Y-105460339D01*
X117541348Y-105199108D01*
X117541068Y-104980814D01*
X117540955Y-104892667D01*
X117540954Y-104892665D01*
X117540575Y-104597264D01*
X117540574Y-104597262D01*
X117540574Y-104597108D01*
X117540556Y-104582869D01*
X117540555Y-104582866D01*
X117540195Y-104302064D01*
X117539815Y-104005666D01*
X117539814Y-104005664D01*
X117539435Y-103710264D01*
X117539434Y-103710262D01*
X117539425Y-103703408D01*
X117539416Y-103695869D01*
X117539415Y-103695866D01*
X117539055Y-103414764D01*
X117539054Y-103414762D01*
X117538675Y-103119464D01*
X117538366Y-102878171D01*
X117538102Y-102668327D01*
X117538104Y-102668310D01*
X117538093Y-102659651D01*
X117538094Y-102659648D01*
X117537999Y-102585514D01*
X117537927Y-102527881D01*
X117537926Y-102527879D01*
X117537914Y-102517946D01*
X117537911Y-102517910D01*
X117537545Y-102232564D01*
X117537519Y-102212308D01*
X117537165Y-101935667D01*
X117537164Y-101935666D01*
X117537133Y-101911045D01*
X117537132Y-101911041D01*
X117536785Y-101639666D01*
X117536413Y-101349508D01*
X117536405Y-101343266D01*
X117536404Y-101343265D01*
X117536373Y-101318644D01*
X117536372Y-101318640D01*
X117536025Y-101047066D01*
X117536024Y-101047064D01*
X117535645Y-100751764D01*
X117535644Y-100751762D01*
X117535265Y-100456165D01*
X117534964Y-100221186D01*
X117534505Y-99862467D01*
X117534504Y-99862466D01*
X117534473Y-99837845D01*
X117534472Y-99837841D01*
X117534461Y-99829508D01*
X117534125Y-99566665D01*
X117533745Y-99269967D01*
X117533744Y-99269966D01*
X117533713Y-99245345D01*
X117533712Y-99245341D01*
X117533365Y-98974265D01*
X117533364Y-98974263D01*
X117532985Y-98678665D01*
X117532984Y-98678663D01*
X117532933Y-98639108D01*
X119352970Y-98639108D01*
X119352970Y-112770891D01*
X119387078Y-112898187D01*
X119420024Y-112955250D01*
X119452970Y-113012314D01*
X119546156Y-113105500D01*
X119660284Y-113171392D01*
X119787578Y-113205500D01*
X119787580Y-113205500D01*
X133919360Y-113205500D01*
X133919362Y-113205500D01*
X134046656Y-113171392D01*
X134160784Y-113105500D01*
X134253970Y-113012314D01*
X134319862Y-112898186D01*
X134353970Y-112770892D01*
X134353970Y-112342108D01*
X134353970Y-112044508D01*
X134353970Y-111747008D01*
X134353970Y-111448808D01*
X134353970Y-111151508D01*
X134353970Y-110853508D01*
X134353970Y-110555208D01*
X134353970Y-110256708D01*
X134353970Y-109959308D01*
X134353970Y-109661308D01*
X134353970Y-109363208D01*
X134353970Y-109065908D01*
X134353970Y-108767208D01*
X134353970Y-108468708D01*
X134353970Y-108171608D01*
X134353970Y-107873008D01*
X134353970Y-107574908D01*
X134353970Y-107277208D01*
X134353970Y-106979608D01*
X134353970Y-106681108D01*
X134353970Y-106383308D01*
X134353970Y-106084808D01*
X134353970Y-105786808D01*
X134353970Y-105489108D01*
X134353970Y-105191408D01*
X134353970Y-104893108D01*
X134353970Y-104595008D01*
X134353970Y-104298108D01*
X134353970Y-104000208D01*
X134353970Y-103702108D01*
X134353970Y-103404508D01*
X134353970Y-103106708D01*
X134353970Y-102807908D01*
X134353970Y-102510508D01*
X134353970Y-102212408D01*
X134353970Y-101914408D01*
X134353970Y-101616208D01*
X134353970Y-101319208D01*
X134353970Y-101021708D01*
X134353970Y-100724208D01*
X134353970Y-100426508D01*
X134353970Y-100129008D01*
X134353970Y-99831408D01*
X134353970Y-99532508D01*
X134353970Y-99234808D01*
X134353970Y-98936408D01*
X134353970Y-98639108D01*
X138402970Y-98639108D01*
X138402970Y-112770891D01*
X138437078Y-112898187D01*
X138470024Y-112955250D01*
X138502970Y-113012314D01*
X138596156Y-113105500D01*
X138710284Y-113171392D01*
X138837578Y-113205500D01*
X138837580Y-113205500D01*
X152969360Y-113205500D01*
X152969362Y-113205500D01*
X153096656Y-113171392D01*
X153210784Y-113105500D01*
X153303970Y-113012314D01*
X153369862Y-112898186D01*
X153403970Y-112770892D01*
X153403970Y-112342108D01*
X153403970Y-112044508D01*
X153403970Y-111747008D01*
X153403970Y-111448808D01*
X153403970Y-111151508D01*
X153403970Y-110853508D01*
X153403970Y-110555208D01*
X153403970Y-110256708D01*
X153403970Y-109959308D01*
X153403970Y-109661308D01*
X153403970Y-109363208D01*
X153403970Y-109065908D01*
X153403970Y-108767208D01*
X153403970Y-108468708D01*
X153403970Y-108171608D01*
X153403970Y-107873008D01*
X153403970Y-107574908D01*
X153403970Y-107277208D01*
X153403970Y-106979608D01*
X153403970Y-106681108D01*
X153403970Y-106383308D01*
X153403970Y-106084808D01*
X153403970Y-105786808D01*
X153403970Y-105489108D01*
X153403970Y-105191408D01*
X153403970Y-104893108D01*
X153403970Y-104595008D01*
X153403970Y-104298108D01*
X153403970Y-104000208D01*
X153403970Y-103702108D01*
X153403970Y-103404508D01*
X153403970Y-103106708D01*
X153403970Y-102807908D01*
X153403970Y-102510508D01*
X153403970Y-102212408D01*
X153403970Y-101914408D01*
X153403970Y-101616208D01*
X153403970Y-101319208D01*
X153403970Y-101021708D01*
X153403970Y-100724208D01*
X153403970Y-100426508D01*
X153403970Y-100129008D01*
X153403970Y-99831408D01*
X153403970Y-99532508D01*
X153403970Y-99234808D01*
X153403970Y-98936408D01*
X153403970Y-98639108D01*
X157452970Y-98639108D01*
X157452970Y-112770891D01*
X157487078Y-112898187D01*
X157520024Y-112955250D01*
X157552970Y-113012314D01*
X157646156Y-113105500D01*
X157760284Y-113171392D01*
X157887578Y-113205500D01*
X157887580Y-113205500D01*
X172019360Y-113205500D01*
X172019362Y-113205500D01*
X172146656Y-113171392D01*
X172260784Y-113105500D01*
X172353970Y-113012314D01*
X172419862Y-112898186D01*
X172453970Y-112770892D01*
X172453970Y-112342108D01*
X172453970Y-112044508D01*
X172453970Y-111747008D01*
X172453970Y-111448808D01*
X172453970Y-111151508D01*
X172453970Y-110853508D01*
X172453970Y-110555208D01*
X172453970Y-110256708D01*
X172453970Y-109959308D01*
X172453970Y-109661308D01*
X172453970Y-109363208D01*
X172453970Y-109065908D01*
X172453970Y-108767208D01*
X172453970Y-108468708D01*
X172453970Y-108171608D01*
X172453970Y-107873008D01*
X172453970Y-107574908D01*
X172453970Y-107277208D01*
X172453970Y-106979608D01*
X172453970Y-106681108D01*
X172453970Y-106383308D01*
X172453970Y-106084808D01*
X172453970Y-105786808D01*
X172453970Y-105489108D01*
X172453970Y-105191408D01*
X172453970Y-104893108D01*
X172453970Y-104595008D01*
X172453970Y-104298108D01*
X172453970Y-104000208D01*
X172453970Y-103702108D01*
X172453970Y-103404508D01*
X172453970Y-103106708D01*
X172453970Y-102807908D01*
X172453970Y-102510508D01*
X172453970Y-102212408D01*
X172453970Y-101914408D01*
X172453970Y-101616208D01*
X172453970Y-101319208D01*
X172453970Y-101021708D01*
X172453970Y-100724208D01*
X172453970Y-100426508D01*
X172453970Y-100129008D01*
X172453970Y-99831408D01*
X172453970Y-99532508D01*
X172453970Y-99234808D01*
X172453970Y-98936408D01*
X172453970Y-98639108D01*
X172419862Y-98511814D01*
X172353970Y-98397686D01*
X172260784Y-98304500D01*
X172203720Y-98271554D01*
X172146657Y-98238608D01*
X172083009Y-98221554D01*
X172019362Y-98204500D01*
X171722362Y-98204500D01*
X171424762Y-98204500D01*
X171127362Y-98204500D01*
X170829062Y-98204500D01*
X170531762Y-98204500D01*
X170233762Y-98204500D01*
X169935462Y-98204500D01*
X169636962Y-98204500D01*
X169339562Y-98204500D01*
X169041562Y-98204500D01*
X168743462Y-98204500D01*
X168446162Y-98204500D01*
X168147462Y-98204500D01*
X167848962Y-98204500D01*
X167551862Y-98204500D01*
X167253262Y-98204500D01*
X166955162Y-98204500D01*
X166657462Y-98204500D01*
X166359862Y-98204500D01*
X166061362Y-98204500D01*
X165763562Y-98204500D01*
X165465062Y-98204500D01*
X165167062Y-98204500D01*
X164869362Y-98204500D01*
X164571662Y-98204500D01*
X164273362Y-98204500D01*
X163975262Y-98204500D01*
X163678362Y-98204500D01*
X163380462Y-98204500D01*
X163082362Y-98204500D01*
X162784762Y-98204500D01*
X162486962Y-98204500D01*
X162188162Y-98204500D01*
X161890762Y-98204500D01*
X161592662Y-98204500D01*
X161294662Y-98204500D01*
X160996562Y-98204500D01*
X160699462Y-98204500D01*
X160401962Y-98204500D01*
X160104462Y-98204500D01*
X159806762Y-98204500D01*
X159509262Y-98204500D01*
X159211662Y-98204500D01*
X158912762Y-98204500D01*
X158615062Y-98204500D01*
X158316662Y-98204500D01*
X158019362Y-98204500D01*
X157887578Y-98204500D01*
X157760282Y-98238608D01*
X157646156Y-98304500D01*
X157646153Y-98304502D01*
X157552972Y-98397683D01*
X157552970Y-98397686D01*
X157487078Y-98511812D01*
X157452970Y-98639108D01*
X153403970Y-98639108D01*
X153369862Y-98511814D01*
X153303970Y-98397686D01*
X153210784Y-98304500D01*
X153153720Y-98271554D01*
X153096657Y-98238608D01*
X153033009Y-98221554D01*
X152969362Y-98204500D01*
X152672362Y-98204500D01*
X152374762Y-98204500D01*
X152077362Y-98204500D01*
X151779062Y-98204500D01*
X151481762Y-98204500D01*
X151183762Y-98204500D01*
X150885462Y-98204500D01*
X150586962Y-98204500D01*
X150289562Y-98204500D01*
X149991562Y-98204500D01*
X149693462Y-98204500D01*
X149396162Y-98204500D01*
X149097462Y-98204500D01*
X148798962Y-98204500D01*
X148501862Y-98204500D01*
X148203262Y-98204500D01*
X147905162Y-98204500D01*
X147607462Y-98204500D01*
X147309862Y-98204500D01*
X147011362Y-98204500D01*
X146713562Y-98204500D01*
X146415062Y-98204500D01*
X146117062Y-98204500D01*
X145819362Y-98204500D01*
X145521662Y-98204500D01*
X145223362Y-98204500D01*
X144925262Y-98204500D01*
X144628362Y-98204500D01*
X144330462Y-98204500D01*
X144032362Y-98204500D01*
X143734762Y-98204500D01*
X143436962Y-98204500D01*
X143138162Y-98204500D01*
X142840762Y-98204500D01*
X142542662Y-98204500D01*
X142244662Y-98204500D01*
X141946562Y-98204500D01*
X141649462Y-98204500D01*
X141351962Y-98204500D01*
X141054462Y-98204500D01*
X140756762Y-98204500D01*
X140459262Y-98204500D01*
X140161662Y-98204500D01*
X139862762Y-98204500D01*
X139565062Y-98204500D01*
X139266662Y-98204500D01*
X138969362Y-98204500D01*
X138837578Y-98204500D01*
X138710282Y-98238608D01*
X138596156Y-98304500D01*
X138596153Y-98304502D01*
X138502972Y-98397683D01*
X138502970Y-98397686D01*
X138437078Y-98511812D01*
X138402970Y-98639108D01*
X134353970Y-98639108D01*
X134319862Y-98511814D01*
X134253970Y-98397686D01*
X134160784Y-98304500D01*
X134103720Y-98271554D01*
X134046657Y-98238608D01*
X133983009Y-98221554D01*
X133919362Y-98204500D01*
X133622362Y-98204500D01*
X133324762Y-98204500D01*
X133027362Y-98204500D01*
X132729062Y-98204500D01*
X132431762Y-98204500D01*
X132133762Y-98204500D01*
X131835462Y-98204500D01*
X131536962Y-98204500D01*
X131239562Y-98204500D01*
X130941562Y-98204500D01*
X130643462Y-98204500D01*
X130346162Y-98204500D01*
X130047462Y-98204500D01*
X129748962Y-98204500D01*
X129451862Y-98204500D01*
X129153262Y-98204500D01*
X128855162Y-98204500D01*
X128557462Y-98204500D01*
X128259862Y-98204500D01*
X127961362Y-98204500D01*
X127663562Y-98204500D01*
X127365062Y-98204500D01*
X127067062Y-98204500D01*
X126769362Y-98204500D01*
X126471662Y-98204500D01*
X126173362Y-98204500D01*
X125875262Y-98204500D01*
X125578362Y-98204500D01*
X125280462Y-98204500D01*
X124982362Y-98204500D01*
X124684762Y-98204500D01*
X124386962Y-98204500D01*
X124088162Y-98204500D01*
X123790762Y-98204500D01*
X123492662Y-98204500D01*
X123194662Y-98204500D01*
X122896562Y-98204500D01*
X122599462Y-98204500D01*
X122301962Y-98204500D01*
X122004462Y-98204500D01*
X121706762Y-98204500D01*
X121409262Y-98204500D01*
X121111662Y-98204500D01*
X120812762Y-98204500D01*
X120515062Y-98204500D01*
X120216662Y-98204500D01*
X119919362Y-98204500D01*
X119787578Y-98204500D01*
X119660282Y-98238608D01*
X119546156Y-98304500D01*
X119546153Y-98304502D01*
X119452972Y-98397683D01*
X119452970Y-98397686D01*
X119387078Y-98511812D01*
X119352970Y-98639108D01*
X117532933Y-98639108D01*
X117532605Y-98383464D01*
X117532604Y-98383463D01*
X117532573Y-98358842D01*
X117532572Y-98358838D01*
X117532225Y-98087366D01*
X117532224Y-98087365D01*
X117532193Y-98062744D01*
X117532192Y-98062740D01*
X117531957Y-97879014D01*
X117531845Y-97791266D01*
X117531844Y-97791264D01*
X117531465Y-97495864D01*
X117531248Y-97326777D01*
X117531156Y-97254571D01*
X117531085Y-97199267D01*
X117531084Y-97199266D01*
X117531053Y-97174644D01*
X117531052Y-97174641D01*
X117530841Y-97010524D01*
X117531893Y-96994257D01*
X117535109Y-96969740D01*
X117531804Y-96944744D01*
X117530736Y-96928674D01*
X117530705Y-96903465D01*
X117524275Y-96879593D01*
X117521078Y-96863595D01*
X117519571Y-96852196D01*
X117501866Y-96718239D01*
X117501770Y-96716806D01*
X117492107Y-96644408D01*
X117492086Y-96644251D01*
X117488888Y-96620055D01*
X117483540Y-96579592D01*
X117483539Y-96579589D01*
X117483538Y-96579582D01*
X117483373Y-96578975D01*
X117483373Y-96578970D01*
X117458138Y-96518355D01*
X117433046Y-96457865D01*
X117433044Y-96457863D01*
X117430259Y-96451148D01*
X117429626Y-96449870D01*
X117419611Y-96425814D01*
X117381949Y-96335347D01*
X117357789Y-96277313D01*
X117357780Y-96277292D01*
X117355755Y-96272426D01*
X117332484Y-96216495D01*
X117332480Y-96216490D01*
X117332471Y-96216468D01*
X117332449Y-96216430D01*
X117332434Y-96216410D01*
X117332433Y-96216408D01*
X117292816Y-96164969D01*
X117292819Y-96164966D01*
X117292801Y-96164950D01*
X117213375Y-96061781D01*
X117133516Y-95958049D01*
X117133430Y-95957828D01*
X117133378Y-95957869D01*
X117113854Y-95932411D01*
X117093625Y-95906034D01*
X117093623Y-95906032D01*
X117093616Y-95906023D01*
X117093062Y-95905471D01*
X117092965Y-95905375D01*
X117092962Y-95905371D01*
X117040637Y-95865352D01*
X116892852Y-95751891D01*
X116892444Y-95751532D01*
X116834039Y-95706737D01*
X116833991Y-95706700D01*
X116781860Y-95666677D01*
X116781658Y-95666560D01*
X116721363Y-95641601D01*
X116721316Y-95641563D01*
X116721310Y-95641579D01*
X116653106Y-95613307D01*
X116652585Y-95613129D01*
X116547886Y-95569789D01*
X116547336Y-95569518D01*
X116478443Y-95541042D01*
X116478391Y-95541000D01*
X116478384Y-95541018D01*
X116418554Y-95516251D01*
X116418301Y-95516183D01*
X116352469Y-95507567D01*
X116352444Y-95507555D01*
X116352405Y-95507559D01*
X116280350Y-95498088D01*
X116279752Y-95498049D01*
X116134785Y-95479075D01*
X116118785Y-95475899D01*
X116094903Y-95469500D01*
X116094902Y-95469500D01*
X116069708Y-95469500D01*
X116053615Y-95468451D01*
X116028632Y-95465180D01*
X116028630Y-95465180D01*
X116004118Y-95468427D01*
X115987840Y-95469500D01*
X113645057Y-95469500D01*
X113639077Y-95469356D01*
X113400744Y-95457849D01*
X113388732Y-95456681D01*
X113169008Y-95424459D01*
X113157033Y-95422095D01*
X112940363Y-95368133D01*
X112928583Y-95364570D01*
X112718309Y-95289388D01*
X112707022Y-95284713D01*
X112678224Y-95271087D01*
X112505128Y-95189185D01*
X112494343Y-95183415D01*
X112369098Y-95108214D01*
X112302940Y-95068491D01*
X112292833Y-95061727D01*
X112121764Y-94934664D01*
X112113272Y-94928356D01*
X112103895Y-94920651D01*
X111939877Y-94771854D01*
X111938115Y-94770255D01*
X111929579Y-94761717D01*
X111852060Y-94676239D01*
X111779439Y-94596160D01*
X111771763Y-94586820D01*
X111759285Y-94570027D01*
X111638636Y-94407664D01*
X111631882Y-94397576D01*
X111623994Y-94384448D01*
X111616627Y-94372185D01*
X111517194Y-94206689D01*
X111511435Y-94195938D01*
X111415603Y-93993755D01*
X111410911Y-93982446D01*
X111335836Y-93772697D01*
X111332285Y-93760979D01*
X111332284Y-93760973D01*
X111278388Y-93545311D01*
X111276018Y-93533351D01*
X111243438Y-93312357D01*
X111242260Y-93300299D01*
X111231373Y-93075885D01*
X111231372Y-93070437D01*
X112025199Y-93070437D01*
X112025201Y-93070454D01*
X112025201Y-93070456D01*
X112033767Y-93135074D01*
X112033779Y-93135259D01*
X112033792Y-93135258D01*
X112061547Y-93347176D01*
X112061655Y-93348809D01*
X112071136Y-93420389D01*
X112071147Y-93420568D01*
X112071160Y-93420567D01*
X112079696Y-93485742D01*
X112079754Y-93485954D01*
X112079838Y-93486266D01*
X112079882Y-93486434D01*
X112105007Y-93546957D01*
X112105075Y-93547121D01*
X112132779Y-93614131D01*
X112133500Y-93615592D01*
X112134103Y-93617043D01*
X112187178Y-93744895D01*
X112187197Y-93744949D01*
X112210769Y-93801722D01*
X112210770Y-93801729D01*
X112210772Y-93801729D01*
X112240227Y-93872682D01*
X112240430Y-93873181D01*
X112240437Y-93873193D01*
X112241071Y-93874001D01*
X112274234Y-93917146D01*
X112274237Y-93917153D01*
X112274239Y-93917152D01*
X112325260Y-93983537D01*
X112325299Y-93983582D01*
X112455097Y-94152447D01*
X112455167Y-94152628D01*
X112455211Y-94152595D01*
X112495007Y-94204531D01*
X112495343Y-94204866D01*
X112495531Y-94205054D01*
X112500319Y-94208721D01*
X112547383Y-94244773D01*
X112547496Y-94244929D01*
X112547530Y-94244886D01*
X112716363Y-94374614D01*
X112716632Y-94374850D01*
X112722862Y-94379634D01*
X112722864Y-94379636D01*
X112775071Y-94419724D01*
X112775095Y-94419757D01*
X112775102Y-94419749D01*
X112827257Y-94459824D01*
X112827376Y-94459892D01*
X112827385Y-94459896D01*
X112827387Y-94459897D01*
X112850584Y-94469515D01*
X112886785Y-94484525D01*
X112886783Y-94484528D01*
X112886816Y-94484537D01*
X112948969Y-94510331D01*
X112948972Y-94510331D01*
X112956569Y-94513484D01*
X112956903Y-94513596D01*
X113085206Y-94566794D01*
X113086572Y-94567468D01*
X113093276Y-94570237D01*
X113093279Y-94570239D01*
X113154095Y-94595358D01*
X113154088Y-94595376D01*
X113154241Y-94595418D01*
X113213969Y-94620183D01*
X113214427Y-94620373D01*
X113214679Y-94620440D01*
X113214876Y-94620493D01*
X113215079Y-94620547D01*
X113215081Y-94620547D01*
X113215083Y-94620548D01*
X113279697Y-94628988D01*
X113279859Y-94629059D01*
X113279865Y-94629010D01*
X113299347Y-94631582D01*
X113352280Y-94638571D01*
X113353810Y-94638669D01*
X113564217Y-94666156D01*
X113629553Y-94674819D01*
X113629553Y-94674818D01*
X113629554Y-94674819D01*
X113630516Y-94674819D01*
X113630524Y-94674817D01*
X113630526Y-94674818D01*
X113676394Y-94668732D01*
X113695024Y-94666261D01*
X113695260Y-94666230D01*
X113696063Y-94666125D01*
X113906961Y-94638557D01*
X113909129Y-94638415D01*
X113915885Y-94637518D01*
X113915888Y-94637519D01*
X113980982Y-94628882D01*
X113980990Y-94628944D01*
X113981219Y-94628850D01*
X114034534Y-94621882D01*
X114045586Y-94620438D01*
X114046476Y-94620199D01*
X114046518Y-94620187D01*
X114046528Y-94620186D01*
X114091119Y-94601663D01*
X114107249Y-94594963D01*
X114107260Y-94594990D01*
X114107466Y-94594872D01*
X114167385Y-94570119D01*
X114167384Y-94570119D01*
X114173725Y-94567500D01*
X114175661Y-94566544D01*
X114372755Y-94484673D01*
X114372757Y-94484678D01*
X114372796Y-94484655D01*
X114433093Y-94459639D01*
X114433097Y-94459635D01*
X114433267Y-94459536D01*
X114433279Y-94459532D01*
X114472598Y-94429298D01*
X114485744Y-94419190D01*
X114485752Y-94419201D01*
X114485784Y-94419158D01*
X114712415Y-94245049D01*
X114712547Y-94244998D01*
X114712523Y-94244967D01*
X114712777Y-94244772D01*
X114764601Y-94205051D01*
X114764610Y-94205038D01*
X114764930Y-94204720D01*
X114764989Y-94204660D01*
X114764998Y-94204654D01*
X114797325Y-94162473D01*
X114804988Y-94152474D01*
X114805072Y-94152365D01*
X114919813Y-94002995D01*
X114934450Y-93983940D01*
X114934628Y-93983741D01*
X114951080Y-93962314D01*
X114981743Y-93922376D01*
X114981744Y-93922375D01*
X114981747Y-93922377D01*
X114981760Y-93922352D01*
X115019871Y-93872742D01*
X115019871Y-93872740D01*
X115019888Y-93872719D01*
X115019922Y-93872659D01*
X115019929Y-93872640D01*
X115019934Y-93872635D01*
X115045862Y-93810088D01*
X115070368Y-93751017D01*
X115070368Y-93751014D01*
X115073475Y-93743526D01*
X115073562Y-93743266D01*
X115126792Y-93614860D01*
X115127404Y-93613621D01*
X115130222Y-93606797D01*
X115130225Y-93606795D01*
X115146372Y-93567706D01*
X115155265Y-93546180D01*
X115155281Y-93546139D01*
X115180380Y-93485596D01*
X115180380Y-93485591D01*
X115180383Y-93485586D01*
X115180520Y-93485075D01*
X115180539Y-93485003D01*
X115180539Y-93484996D01*
X115180541Y-93484994D01*
X115189026Y-93420068D01*
X115197619Y-93354944D01*
X115197618Y-93354942D01*
X115198582Y-93347642D01*
X115198673Y-93346242D01*
X115203101Y-93312366D01*
X115223733Y-93154500D01*
X115226246Y-93135271D01*
X115226271Y-93135079D01*
X115229358Y-93111745D01*
X115234839Y-93070313D01*
X115234839Y-93070310D01*
X115234839Y-93069522D01*
X115226216Y-93004504D01*
X115226191Y-93004310D01*
X115203962Y-92834654D01*
X115198516Y-92793093D01*
X115198425Y-92791681D01*
X115197458Y-92784375D01*
X115197459Y-92784372D01*
X115188851Y-92719314D01*
X115185928Y-92697008D01*
X115181709Y-92664804D01*
X115180339Y-92654347D01*
X115180338Y-92654346D01*
X115180338Y-92654341D01*
X115180174Y-92653730D01*
X115178273Y-92649150D01*
X115154976Y-92593008D01*
X115129983Y-92532562D01*
X115129981Y-92532560D01*
X115127202Y-92525838D01*
X115126571Y-92524561D01*
X115073280Y-92396139D01*
X115073226Y-92395978D01*
X115045621Y-92329485D01*
X115045601Y-92329438D01*
X115019791Y-92267242D01*
X115019648Y-92266888D01*
X115019640Y-92266874D01*
X114981716Y-92217534D01*
X114981703Y-92217516D01*
X114934665Y-92156296D01*
X114934539Y-92156153D01*
X114804997Y-91987610D01*
X114765049Y-91935477D01*
X114765047Y-91935476D01*
X114765047Y-91935475D01*
X114764525Y-91934953D01*
X114712608Y-91895182D01*
X114712612Y-91895175D01*
X114712462Y-91895070D01*
X114712014Y-91894726D01*
X114608701Y-91815341D01*
X114543807Y-91765477D01*
X114543537Y-91765240D01*
X114493593Y-91726890D01*
X114486645Y-91721555D01*
X114486621Y-91721522D01*
X114486615Y-91721531D01*
X114432797Y-91680179D01*
X114432678Y-91680110D01*
X114432663Y-91680103D01*
X114432662Y-91680103D01*
X114374924Y-91656163D01*
X114374926Y-91656156D01*
X114374892Y-91656149D01*
X114311082Y-91629669D01*
X114311077Y-91629668D01*
X114304067Y-91626759D01*
X114303727Y-91626642D01*
X114174791Y-91573182D01*
X114173427Y-91572510D01*
X114106463Y-91544851D01*
X114106475Y-91544820D01*
X114106308Y-91544787D01*
X114045626Y-91519626D01*
X114045432Y-91519575D01*
X114044977Y-91519452D01*
X113980289Y-91511002D01*
X113980224Y-91510973D01*
X113980126Y-91510981D01*
X113907843Y-91501439D01*
X113906323Y-91501340D01*
X113695346Y-91473780D01*
X113695269Y-91473746D01*
X113695154Y-91473755D01*
X113630300Y-91465179D01*
X113629986Y-91465180D01*
X113629674Y-91465180D01*
X113629519Y-91465179D01*
X113564687Y-91473781D01*
X113564493Y-91473807D01*
X113352894Y-91501540D01*
X113351457Y-91501634D01*
X113279142Y-91511206D01*
X113278987Y-91511226D01*
X113214277Y-91519707D01*
X113214260Y-91519712D01*
X113213985Y-91519786D01*
X113213679Y-91519867D01*
X113153104Y-91545007D01*
X113152960Y-91545066D01*
X113085909Y-91572794D01*
X113084611Y-91573433D01*
X112955583Y-91626984D01*
X112955441Y-91627033D01*
X112888203Y-91654949D01*
X112888189Y-91654955D01*
X112826877Y-91680401D01*
X112826864Y-91680408D01*
X112776808Y-91718885D01*
X112774474Y-91720679D01*
X112759293Y-91732345D01*
X112716881Y-91764937D01*
X112716764Y-91765037D01*
X112548045Y-91894726D01*
X112547912Y-91894828D01*
X112495437Y-91935050D01*
X112495277Y-91935210D01*
X112494958Y-91935527D01*
X112466864Y-91972203D01*
X112455190Y-91987444D01*
X112325004Y-92156917D01*
X112324819Y-92157129D01*
X112279552Y-92216088D01*
X112279536Y-92216109D01*
X112240158Y-92267371D01*
X112240110Y-92267454D01*
X112215368Y-92327140D01*
X112215357Y-92327167D01*
X112186776Y-92396064D01*
X112186685Y-92396328D01*
X112133535Y-92524543D01*
X112133181Y-92525396D01*
X112132580Y-92526617D01*
X112104794Y-92593872D01*
X112104737Y-92594009D01*
X112079657Y-92654507D01*
X112079619Y-92654650D01*
X112079507Y-92655065D01*
X112071047Y-92719769D01*
X112071029Y-92719912D01*
X112061471Y-92792354D01*
X112061383Y-92793692D01*
X112033815Y-93004564D01*
X112033789Y-93004756D01*
X112025200Y-93069665D01*
X112025200Y-93070119D01*
X112025199Y-93070437D01*
X111231372Y-93070437D01*
X111231371Y-93063946D01*
X111242121Y-92840657D01*
X111243283Y-92828689D01*
X111246968Y-92803490D01*
X111275443Y-92608770D01*
X111277787Y-92596857D01*
X111331662Y-92379904D01*
X111335191Y-92368199D01*
X111410128Y-92157906D01*
X111414804Y-92146590D01*
X111459063Y-92052868D01*
X111510142Y-91944704D01*
X111515869Y-91933977D01*
X111630552Y-91742459D01*
X111637294Y-91732360D01*
X111770350Y-91552834D01*
X111778004Y-91543497D01*
X111928001Y-91377732D01*
X111936523Y-91369192D01*
X112101576Y-91219208D01*
X112110938Y-91211503D01*
X112289711Y-91078511D01*
X112299764Y-91071771D01*
X112490339Y-90957086D01*
X112501044Y-90951340D01*
X112702853Y-90855514D01*
X112714185Y-90850807D01*
X112923489Y-90775813D01*
X112935221Y-90772255D01*
X113150599Y-90718432D01*
X113162553Y-90716062D01*
X113383520Y-90683493D01*
X113395521Y-90682319D01*
X113628783Y-90670945D01*
X113634895Y-90670647D01*
X113640934Y-90670500D01*
X113826548Y-90670500D01*
X114093568Y-90670500D01*
X114360268Y-90670500D01*
X114627188Y-90670500D01*
X114895218Y-90670500D01*
X115162658Y-90670500D01*
X115429998Y-90670500D01*
X115696728Y-90670500D01*
X115987883Y-90670500D01*
X116004138Y-90671570D01*
X116028707Y-90674819D01*
X116051913Y-90671777D01*
X116053643Y-90671551D01*
X116069756Y-90670500D01*
X116094891Y-90670500D01*
X116094892Y-90670500D01*
X116118834Y-90664084D01*
X116134792Y-90660914D01*
X116280082Y-90641872D01*
X116281503Y-90641780D01*
X116288766Y-90640818D01*
X116288769Y-90640819D01*
X116353851Y-90632204D01*
X116354012Y-90632229D01*
X116354007Y-90632184D01*
X116418794Y-90623693D01*
X116418797Y-90623691D01*
X116418808Y-90623689D01*
X116418912Y-90623661D01*
X116419410Y-90623527D01*
X116419414Y-90623527D01*
X116479689Y-90598511D01*
X116479696Y-90598528D01*
X116479828Y-90598453D01*
X116540576Y-90573333D01*
X116540576Y-90573332D01*
X116547383Y-90570518D01*
X116548671Y-90569880D01*
X116652259Y-90526889D01*
X116652404Y-90526841D01*
X116660426Y-90523510D01*
X116660428Y-90523510D01*
X116724542Y-90496891D01*
X116781645Y-90473191D01*
X116782118Y-90473000D01*
X116782567Y-90472648D01*
X116835534Y-90431937D01*
X116886578Y-90392714D01*
X116886579Y-90392712D01*
X116893616Y-90387305D01*
X116893732Y-90387202D01*
X116989219Y-90313808D01*
X117040496Y-90274395D01*
X117092797Y-90234325D01*
X117092803Y-90234316D01*
X117093345Y-90233773D01*
X117093354Y-90233767D01*
X117133122Y-90181852D01*
X117246834Y-90033884D01*
X117247192Y-90033479D01*
X117252048Y-90027153D01*
X117252050Y-90027152D01*
X117291974Y-89975148D01*
X117291975Y-89975147D01*
X117291980Y-89975151D01*
X117292004Y-89975108D01*
X117332179Y-89922833D01*
X117332183Y-89922821D01*
X117332185Y-89922820D01*
X117332298Y-89922625D01*
X117332302Y-89922620D01*
X117354183Y-89869830D01*
X117357429Y-89862000D01*
X117357439Y-89861972D01*
X117382701Y-89801117D01*
X117382701Y-89801115D01*
X117385725Y-89793831D01*
X117385905Y-89793302D01*
X117403955Y-89749757D01*
X117429186Y-89688887D01*
X117429774Y-89687697D01*
X117433161Y-89679500D01*
X117453167Y-89631072D01*
X117457770Y-89619931D01*
X117457771Y-89619931D01*
X117457804Y-89619846D01*
X117482744Y-89559681D01*
X117482745Y-89559676D01*
X117482897Y-89559106D01*
X117482899Y-89559103D01*
X117491429Y-89493842D01*
X117499979Y-89429028D01*
X117499978Y-89429024D01*
X117500945Y-89421697D01*
X117501031Y-89420371D01*
X117501040Y-89420308D01*
X117519936Y-89275734D01*
X117523113Y-89259725D01*
X117529500Y-89235892D01*
X117529500Y-89210641D01*
X117530546Y-89194571D01*
X117533819Y-89169531D01*
X117530576Y-89145072D01*
X117529500Y-89128774D01*
X117529500Y-86475787D01*
X117529502Y-86418199D01*
X117529506Y-86262852D01*
X117529510Y-86262822D01*
X117529510Y-86176786D01*
X117529511Y-86141408D01*
X117529512Y-86119925D01*
X117529510Y-86119920D01*
X117529511Y-86112341D01*
X117529510Y-86112307D01*
X117529510Y-80799886D01*
X117529512Y-80741508D01*
X117529516Y-80587451D01*
X117529520Y-80587421D01*
X117529520Y-80500086D01*
X117529522Y-80444525D01*
X117529520Y-80444520D01*
X117529521Y-80436941D01*
X117529520Y-80436907D01*
X117529520Y-79589108D01*
X119352970Y-79589108D01*
X119352970Y-79886108D01*
X119352970Y-80183808D01*
X119352970Y-80481208D01*
X119352970Y-80779508D01*
X119352970Y-81076808D01*
X119352970Y-81374808D01*
X119352970Y-81673008D01*
X119352970Y-81971608D01*
X119352970Y-82268908D01*
X119352970Y-82567008D01*
X119352970Y-82865008D01*
X119352970Y-83162308D01*
X119352970Y-83461108D01*
X119352970Y-83759608D01*
X119352970Y-84056608D01*
X119352970Y-84355308D01*
X119352970Y-84653408D01*
X119352970Y-84951008D01*
X119352970Y-85248708D01*
X119352970Y-85547108D01*
X119352970Y-85845008D01*
X119352970Y-86143508D01*
X119352970Y-86441408D01*
X119352970Y-86739108D01*
X119352970Y-87036908D01*
X119352970Y-87335208D01*
X119352970Y-87633208D01*
X119352970Y-87930108D01*
X119352970Y-88228008D01*
X119352970Y-88526108D01*
X119352970Y-88823708D01*
X119352970Y-89121608D01*
X119352970Y-89420308D01*
X119352970Y-89717708D01*
X119352970Y-90015908D01*
X119352970Y-90313808D01*
X119352970Y-90612008D01*
X119352970Y-90909108D01*
X119352970Y-91206608D01*
X119352970Y-91504008D01*
X119352970Y-91801808D01*
X119352970Y-92099208D01*
X119352970Y-92396908D01*
X119352970Y-92695708D01*
X119352970Y-92993508D01*
X119352970Y-93291908D01*
X119352970Y-93589108D01*
X119352970Y-93720892D01*
X119370024Y-93784539D01*
X119387078Y-93848187D01*
X119407270Y-93883160D01*
X119452970Y-93962314D01*
X119546156Y-94055500D01*
X119660284Y-94121392D01*
X119787578Y-94155500D01*
X119787580Y-94155500D01*
X133919360Y-94155500D01*
X133919362Y-94155500D01*
X134046656Y-94121392D01*
X134160784Y-94055500D01*
X134253970Y-93962314D01*
X134319862Y-93848186D01*
X134353970Y-93720892D01*
X134353970Y-93292108D01*
X134353970Y-92994508D01*
X134353970Y-92697008D01*
X134353970Y-92398808D01*
X134353970Y-92101508D01*
X134353970Y-91803508D01*
X134353970Y-91505208D01*
X134353970Y-91206708D01*
X134353970Y-90909308D01*
X134353970Y-90611308D01*
X134353970Y-90313208D01*
X134353970Y-90015908D01*
X134353970Y-89717208D01*
X134353970Y-89418708D01*
X134353970Y-89121608D01*
X134353970Y-88823008D01*
X134353970Y-88524908D01*
X134353970Y-88227208D01*
X134353970Y-87929608D01*
X134353970Y-87631108D01*
X134353970Y-87333308D01*
X134353970Y-87034808D01*
X134353970Y-86736808D01*
X134353970Y-86439108D01*
X134353970Y-86141408D01*
X134353970Y-85843108D01*
X134353970Y-85545008D01*
X134353970Y-85248108D01*
X134353970Y-84950208D01*
X134353970Y-84652108D01*
X134353970Y-84354508D01*
X134353970Y-84056708D01*
X134353970Y-83757908D01*
X134353970Y-83460508D01*
X134353970Y-83162408D01*
X134353970Y-82864408D01*
X134353970Y-82566208D01*
X134353970Y-82269208D01*
X134353970Y-81971708D01*
X134353970Y-81674208D01*
X134353970Y-81376508D01*
X134353970Y-81079008D01*
X134353970Y-80781408D01*
X134353970Y-80482508D01*
X134353970Y-80184808D01*
X134353970Y-79886408D01*
X134353970Y-79589108D01*
X138402970Y-79589108D01*
X138402970Y-79886108D01*
X138402970Y-80183808D01*
X138402970Y-80481208D01*
X138402970Y-80779508D01*
X138402970Y-81076808D01*
X138402970Y-81374808D01*
X138402970Y-81673008D01*
X138402970Y-81971608D01*
X138402970Y-82268908D01*
X138402970Y-82567008D01*
X138402970Y-82865008D01*
X138402970Y-83162308D01*
X138402970Y-83461108D01*
X138402970Y-83759608D01*
X138402970Y-84056608D01*
X138402970Y-84355308D01*
X138402970Y-84653408D01*
X138402970Y-84951008D01*
X138402970Y-85248708D01*
X138402970Y-85547108D01*
X138402970Y-85845008D01*
X138402970Y-86143508D01*
X138402970Y-86441408D01*
X138402970Y-86739108D01*
X138402970Y-87036908D01*
X138402970Y-87335208D01*
X138402970Y-87633208D01*
X138402970Y-87930108D01*
X138402970Y-88228008D01*
X138402970Y-88526108D01*
X138402970Y-88823708D01*
X138402970Y-89121608D01*
X138402970Y-89420308D01*
X138402970Y-89717708D01*
X138402970Y-90015908D01*
X138402970Y-90313808D01*
X138402970Y-90612008D01*
X138402970Y-90909108D01*
X138402970Y-91206608D01*
X138402970Y-91504008D01*
X138402970Y-91801808D01*
X138402970Y-92099208D01*
X138402970Y-92396908D01*
X138402970Y-92695708D01*
X138402970Y-92993508D01*
X138402970Y-93291908D01*
X138402970Y-93589108D01*
X138402970Y-93720892D01*
X138420024Y-93784539D01*
X138437078Y-93848187D01*
X138457270Y-93883160D01*
X138502970Y-93962314D01*
X138596156Y-94055500D01*
X138710284Y-94121392D01*
X138837578Y-94155500D01*
X138837580Y-94155500D01*
X152969360Y-94155500D01*
X152969362Y-94155500D01*
X153096656Y-94121392D01*
X153210784Y-94055500D01*
X153303970Y-93962314D01*
X153369862Y-93848186D01*
X153403970Y-93720892D01*
X153403970Y-93292108D01*
X153403970Y-92994508D01*
X153403970Y-92697008D01*
X153403970Y-92398808D01*
X153403970Y-92101508D01*
X153403970Y-91803508D01*
X153403970Y-91505208D01*
X153403970Y-91206708D01*
X153403970Y-90909308D01*
X153403970Y-90611308D01*
X153403970Y-90313208D01*
X153403970Y-90015908D01*
X153403970Y-89717208D01*
X153403970Y-89418708D01*
X153403970Y-89121608D01*
X153403970Y-88823008D01*
X153403970Y-88524908D01*
X153403970Y-88227208D01*
X153403970Y-87929608D01*
X153403970Y-87631108D01*
X153403970Y-87333308D01*
X153403970Y-87034808D01*
X153403970Y-86736808D01*
X153403970Y-86439108D01*
X153403970Y-86141408D01*
X153403970Y-85843108D01*
X153403970Y-85545008D01*
X153403970Y-85248108D01*
X153403970Y-84950208D01*
X153403970Y-84652108D01*
X153403970Y-84354508D01*
X153403970Y-84056708D01*
X153403970Y-83757908D01*
X153403970Y-83460508D01*
X153403970Y-83162408D01*
X153403970Y-82864408D01*
X153403970Y-82566208D01*
X153403970Y-82269208D01*
X153403970Y-81971708D01*
X153403970Y-81674208D01*
X153403970Y-81376508D01*
X153403970Y-81079008D01*
X153403970Y-80781408D01*
X153403970Y-80482508D01*
X153403970Y-80184808D01*
X153403970Y-79886408D01*
X153403970Y-79589108D01*
X157452970Y-79589108D01*
X157452970Y-79886108D01*
X157452970Y-80183808D01*
X157452970Y-80481208D01*
X157452970Y-80779508D01*
X157452970Y-81076808D01*
X157452970Y-81374808D01*
X157452970Y-81673008D01*
X157452970Y-81971608D01*
X157452970Y-82268908D01*
X157452970Y-82567008D01*
X157452970Y-82865008D01*
X157452970Y-83162308D01*
X157452970Y-83461108D01*
X157452970Y-83759608D01*
X157452970Y-84056608D01*
X157452970Y-84355308D01*
X157452970Y-84653408D01*
X157452970Y-84951008D01*
X157452970Y-85248708D01*
X157452970Y-85547108D01*
X157452970Y-85845008D01*
X157452970Y-86143508D01*
X157452970Y-86441408D01*
X157452970Y-86739108D01*
X157452970Y-87036908D01*
X157452970Y-87335208D01*
X157452970Y-87633208D01*
X157452970Y-87930108D01*
X157452970Y-88228008D01*
X157452970Y-88526108D01*
X157452970Y-88823708D01*
X157452970Y-89121608D01*
X157452970Y-89420308D01*
X157452970Y-89717708D01*
X157452970Y-90015908D01*
X157452970Y-90313808D01*
X157452970Y-90612008D01*
X157452970Y-90909108D01*
X157452970Y-91206608D01*
X157452970Y-91504008D01*
X157452970Y-91801808D01*
X157452970Y-92099208D01*
X157452970Y-92396908D01*
X157452970Y-92695708D01*
X157452970Y-92993508D01*
X157452970Y-93291908D01*
X157452970Y-93589108D01*
X157452970Y-93720892D01*
X157470024Y-93784539D01*
X157487078Y-93848187D01*
X157507270Y-93883160D01*
X157552970Y-93962314D01*
X157646156Y-94055500D01*
X157760284Y-94121392D01*
X157887578Y-94155500D01*
X157887580Y-94155500D01*
X172019360Y-94155500D01*
X172019362Y-94155500D01*
X172146656Y-94121392D01*
X172260784Y-94055500D01*
X172353970Y-93962314D01*
X172419862Y-93848186D01*
X172453970Y-93720892D01*
X172453970Y-93292108D01*
X172453970Y-93079498D01*
X176568149Y-93079498D01*
X176568150Y-93079625D01*
X176568150Y-93080058D01*
X176568149Y-93080269D01*
X176576678Y-93144780D01*
X176576690Y-93144973D01*
X176576704Y-93144972D01*
X176604315Y-93356355D01*
X176604415Y-93357893D01*
X176613969Y-93430266D01*
X176613963Y-93430303D01*
X176613990Y-93430430D01*
X176622420Y-93494969D01*
X176622596Y-93495624D01*
X176647729Y-93556241D01*
X176647692Y-93556255D01*
X176647793Y-93556395D01*
X176671428Y-93613621D01*
X176675476Y-93623420D01*
X176676154Y-93624796D01*
X176725270Y-93743254D01*
X176729582Y-93753653D01*
X176729667Y-93753902D01*
X176741077Y-93781403D01*
X176758201Y-93822676D01*
X176778950Y-93872719D01*
X176783075Y-93882666D01*
X176783125Y-93882752D01*
X176783126Y-93882754D01*
X176784447Y-93884473D01*
X176822662Y-93934219D01*
X176822678Y-93934240D01*
X176868393Y-93993776D01*
X176868558Y-93993962D01*
X176997921Y-94162357D01*
X176998006Y-94162468D01*
X177038004Y-94214657D01*
X177038404Y-94215057D01*
X177038408Y-94215060D01*
X177038409Y-94215061D01*
X177090343Y-94254864D01*
X177090430Y-94254984D01*
X177090456Y-94254951D01*
X177316796Y-94428837D01*
X177316786Y-94428849D01*
X177316842Y-94428872D01*
X177369692Y-94469515D01*
X177369693Y-94469515D01*
X177369694Y-94469516D01*
X177369898Y-94469634D01*
X177369903Y-94469636D01*
X177369907Y-94469639D01*
X177430634Y-94494834D01*
X177430681Y-94494872D01*
X177430688Y-94494857D01*
X177611836Y-94570119D01*
X177627301Y-94576544D01*
X177629342Y-94577550D01*
X177695735Y-94604977D01*
X177695968Y-94605073D01*
X177756390Y-94630177D01*
X177756392Y-94630177D01*
X177756394Y-94630178D01*
X177756669Y-94630252D01*
X177756783Y-94630282D01*
X177757368Y-94630439D01*
X177757371Y-94630439D01*
X177757373Y-94630440D01*
X177821712Y-94638848D01*
X177821946Y-94638952D01*
X177821956Y-94638881D01*
X177841188Y-94641433D01*
X177887029Y-94647519D01*
X177887031Y-94647518D01*
X177893754Y-94648411D01*
X177895995Y-94648557D01*
X178107246Y-94676166D01*
X178107474Y-94676267D01*
X178107484Y-94676198D01*
X178172457Y-94684819D01*
X178172457Y-94684818D01*
X178172458Y-94684819D01*
X178173444Y-94684819D01*
X178173444Y-94684818D01*
X178173446Y-94684819D01*
X178237908Y-94676270D01*
X178238149Y-94676239D01*
X178449241Y-94648665D01*
X178450770Y-94648566D01*
X178457945Y-94647618D01*
X178457947Y-94647619D01*
X178523067Y-94639022D01*
X178523242Y-94639049D01*
X178523236Y-94639000D01*
X178587930Y-94630550D01*
X178588134Y-94630495D01*
X178588589Y-94630373D01*
X178588598Y-94630372D01*
X178649210Y-94605240D01*
X178649217Y-94605259D01*
X178649361Y-94605177D01*
X178709735Y-94580243D01*
X178709736Y-94580241D01*
X178716455Y-94577467D01*
X178717836Y-94576785D01*
X178846306Y-94523518D01*
X178846756Y-94523366D01*
X178854100Y-94520317D01*
X178854103Y-94520317D01*
X178915397Y-94494872D01*
X178916402Y-94494455D01*
X178916403Y-94494459D01*
X178916441Y-94494438D01*
X178975632Y-94469897D01*
X178975637Y-94469892D01*
X178975644Y-94469890D01*
X178975808Y-94469794D01*
X178975817Y-94469791D01*
X179008228Y-94444880D01*
X179028457Y-94429334D01*
X179028465Y-94429345D01*
X179028498Y-94429301D01*
X179080156Y-94389636D01*
X179080158Y-94389632D01*
X179086504Y-94384760D01*
X179086859Y-94384448D01*
X179255037Y-94255194D01*
X179255199Y-94255069D01*
X179268278Y-94245051D01*
X179307425Y-94215067D01*
X179307433Y-94215057D01*
X179307997Y-94214491D01*
X179308006Y-94214485D01*
X179347727Y-94162636D01*
X179347749Y-94162653D01*
X179347843Y-94162485D01*
X179476571Y-93995019D01*
X179476645Y-93994937D01*
X179482259Y-93987631D01*
X179482263Y-93987629D01*
X179524904Y-93932143D01*
X179524908Y-93932139D01*
X179536575Y-93916960D01*
X179561585Y-93884424D01*
X179562594Y-93883152D01*
X179562595Y-93883149D01*
X179563262Y-93881461D01*
X179587652Y-93822703D01*
X179587654Y-93822700D01*
X179608414Y-93772702D01*
X179613076Y-93761475D01*
X179613076Y-93761473D01*
X179616544Y-93753122D01*
X179616580Y-93753008D01*
X179669463Y-93625611D01*
X179670133Y-93624254D01*
X179672904Y-93617550D01*
X179672907Y-93617548D01*
X179698008Y-93556844D01*
X179723089Y-93496424D01*
X179723089Y-93496417D01*
X179723104Y-93496365D01*
X179723160Y-93496154D01*
X179723260Y-93495779D01*
X179723266Y-93495765D01*
X179731804Y-93430604D01*
X179740389Y-93365780D01*
X179740388Y-93365777D01*
X179741339Y-93358602D01*
X179741438Y-93357089D01*
X179741608Y-93355796D01*
X179769150Y-93145622D01*
X179769183Y-93145626D01*
X179769175Y-93145432D01*
X179777789Y-93080491D01*
X179777789Y-93079702D01*
X179777788Y-93079700D01*
X179777789Y-93079698D01*
X179769185Y-93014643D01*
X179741641Y-92803857D01*
X179741546Y-92802383D01*
X179740588Y-92795127D01*
X179740589Y-92795122D01*
X179731939Y-92729597D01*
X179723514Y-92665117D01*
X179723511Y-92665112D01*
X179723341Y-92664477D01*
X179723341Y-92664472D01*
X179698379Y-92604269D01*
X179693727Y-92593008D01*
X179670441Y-92536634D01*
X179669779Y-92535291D01*
X179616447Y-92406663D01*
X179616372Y-92406440D01*
X179587918Y-92337857D01*
X179587915Y-92337831D01*
X179587909Y-92337834D01*
X179583475Y-92327140D01*
X179562867Y-92277437D01*
X179562863Y-92277431D01*
X179562815Y-92277349D01*
X179562814Y-92277345D01*
X179522686Y-92225110D01*
X179482606Y-92172914D01*
X179482604Y-92172913D01*
X179477754Y-92166596D01*
X179477594Y-92166413D01*
X179474497Y-92162382D01*
X179390367Y-92052868D01*
X179347640Y-91997249D01*
X179347534Y-91997111D01*
X179310025Y-91948142D01*
X179308036Y-91945545D01*
X179308034Y-91945543D01*
X179308023Y-91945529D01*
X179307602Y-91945109D01*
X179307531Y-91945038D01*
X179255355Y-91905049D01*
X179255215Y-91904942D01*
X179123258Y-91803508D01*
X179086819Y-91775497D01*
X179086726Y-91775416D01*
X179080599Y-91770707D01*
X179023595Y-91726898D01*
X179023586Y-91726886D01*
X179023584Y-91726890D01*
X178976156Y-91690431D01*
X178976108Y-91690403D01*
X178917298Y-91665992D01*
X178917286Y-91665987D01*
X178847035Y-91636817D01*
X178846910Y-91636774D01*
X178718526Y-91583482D01*
X178717168Y-91582813D01*
X178710518Y-91580063D01*
X178649744Y-91554931D01*
X178649611Y-91554824D01*
X178649593Y-91554869D01*
X178589381Y-91529876D01*
X178589138Y-91529811D01*
X178588986Y-91529771D01*
X178588739Y-91529704D01*
X178523478Y-91521152D01*
X178523479Y-91521140D01*
X178523314Y-91521130D01*
X178451660Y-91511642D01*
X178450150Y-91511542D01*
X178238241Y-91483773D01*
X178238044Y-91483747D01*
X178173465Y-91475179D01*
X178173124Y-91475180D01*
X178172689Y-91475180D01*
X178172677Y-91475179D01*
X178107387Y-91483814D01*
X178107191Y-91483840D01*
X177896614Y-91511345D01*
X177895075Y-91511445D01*
X177822980Y-91520963D01*
X177822815Y-91520984D01*
X177757993Y-91529452D01*
X177757935Y-91529468D01*
X177757543Y-91529573D01*
X177757359Y-91529621D01*
X177720109Y-91545066D01*
X177697341Y-91554506D01*
X177629642Y-91582467D01*
X177628235Y-91583159D01*
X177499348Y-91636598D01*
X177498888Y-91636756D01*
X177491837Y-91639683D01*
X177429937Y-91665378D01*
X177370307Y-91690103D01*
X177370305Y-91690103D01*
X177370291Y-91690110D01*
X177370129Y-91690203D01*
X177318264Y-91730065D01*
X177318223Y-91730097D01*
X177259761Y-91774988D01*
X177259399Y-91775305D01*
X177090706Y-91904956D01*
X177090547Y-91905078D01*
X177038500Y-91944945D01*
X177038358Y-91945088D01*
X177038092Y-91945354D01*
X177037946Y-91945498D01*
X176998019Y-91997614D01*
X176997898Y-91997772D01*
X176868500Y-92166108D01*
X176868317Y-92166317D01*
X176821821Y-92226834D01*
X176821805Y-92226855D01*
X176783361Y-92276867D01*
X176758350Y-92337146D01*
X176758338Y-92337175D01*
X176729960Y-92405516D01*
X176729869Y-92405782D01*
X176676416Y-92534605D01*
X176675833Y-92535788D01*
X176647968Y-92603165D01*
X176647913Y-92603298D01*
X176622826Y-92663757D01*
X176622817Y-92663793D01*
X176622681Y-92664296D01*
X176614196Y-92729032D01*
X176614177Y-92729176D01*
X176604598Y-92801589D01*
X176604511Y-92802899D01*
X176576811Y-93014210D01*
X176576786Y-93014401D01*
X176568149Y-93079498D01*
X172453970Y-93079498D01*
X172453970Y-92994508D01*
X172453970Y-92697008D01*
X172453970Y-92398808D01*
X172453970Y-92101508D01*
X172453970Y-91803508D01*
X172453970Y-91505208D01*
X172453970Y-91206708D01*
X172453970Y-90909308D01*
X172453970Y-90611308D01*
X172453970Y-90313208D01*
X172453970Y-90015908D01*
X172453970Y-89717208D01*
X172453970Y-89418708D01*
X172453970Y-89121608D01*
X172453970Y-88823008D01*
X172453970Y-88524908D01*
X172453970Y-88227208D01*
X172453970Y-87929608D01*
X172453970Y-87631108D01*
X172453970Y-87333308D01*
X172453970Y-87034808D01*
X172453970Y-86736808D01*
X172453970Y-86439108D01*
X172453970Y-86141408D01*
X172453970Y-85843108D01*
X172453970Y-85545008D01*
X172453970Y-85248108D01*
X172453970Y-84950208D01*
X172453970Y-84652108D01*
X172453970Y-84354508D01*
X172453970Y-84056708D01*
X172453970Y-83757908D01*
X172453970Y-83460508D01*
X172453970Y-83162408D01*
X172453970Y-82864408D01*
X172453970Y-82566208D01*
X172453970Y-82269208D01*
X172453970Y-81971708D01*
X172453970Y-81674208D01*
X172453970Y-81376508D01*
X172453970Y-81079008D01*
X172453970Y-80781408D01*
X172453970Y-80482508D01*
X172453970Y-80184808D01*
X172453970Y-79886408D01*
X172453970Y-79589108D01*
X172419862Y-79461814D01*
X172353970Y-79347686D01*
X172260784Y-79254500D01*
X172203720Y-79221554D01*
X172146657Y-79188608D01*
X172083009Y-79171554D01*
X172019362Y-79154500D01*
X171722362Y-79154500D01*
X171424762Y-79154500D01*
X171127362Y-79154500D01*
X170829062Y-79154500D01*
X170531762Y-79154500D01*
X170233762Y-79154500D01*
X169935462Y-79154500D01*
X169636962Y-79154500D01*
X169339562Y-79154500D01*
X169041562Y-79154500D01*
X168743462Y-79154500D01*
X168446162Y-79154500D01*
X168147462Y-79154500D01*
X167848962Y-79154500D01*
X167551862Y-79154500D01*
X167253262Y-79154500D01*
X166955162Y-79154500D01*
X166657462Y-79154500D01*
X166359862Y-79154500D01*
X166061362Y-79154500D01*
X165763562Y-79154500D01*
X165465062Y-79154500D01*
X165167062Y-79154500D01*
X164869362Y-79154500D01*
X164571662Y-79154500D01*
X164273362Y-79154500D01*
X163975262Y-79154500D01*
X163678362Y-79154500D01*
X163380462Y-79154500D01*
X163082362Y-79154500D01*
X162784762Y-79154500D01*
X162486962Y-79154500D01*
X162188162Y-79154500D01*
X161890762Y-79154500D01*
X161592662Y-79154500D01*
X161294662Y-79154500D01*
X160996562Y-79154500D01*
X160699462Y-79154500D01*
X160401962Y-79154500D01*
X160104462Y-79154500D01*
X159806762Y-79154500D01*
X159509262Y-79154500D01*
X159211662Y-79154500D01*
X158912762Y-79154500D01*
X158615062Y-79154500D01*
X158316662Y-79154500D01*
X158019362Y-79154500D01*
X157887578Y-79154500D01*
X157760282Y-79188608D01*
X157646156Y-79254500D01*
X157646153Y-79254502D01*
X157552972Y-79347683D01*
X157552970Y-79347686D01*
X157487078Y-79461812D01*
X157463822Y-79548608D01*
X157452970Y-79589108D01*
X153403970Y-79589108D01*
X153369862Y-79461814D01*
X153303970Y-79347686D01*
X153210784Y-79254500D01*
X153153720Y-79221554D01*
X153096657Y-79188608D01*
X153033009Y-79171554D01*
X152969362Y-79154500D01*
X152672362Y-79154500D01*
X152374762Y-79154500D01*
X152077362Y-79154500D01*
X151779062Y-79154500D01*
X151481762Y-79154500D01*
X151183762Y-79154500D01*
X150885462Y-79154500D01*
X150586962Y-79154500D01*
X150289562Y-79154500D01*
X149991562Y-79154500D01*
X149693462Y-79154500D01*
X149396162Y-79154500D01*
X149097462Y-79154500D01*
X148798962Y-79154500D01*
X148501862Y-79154500D01*
X148203262Y-79154500D01*
X147905162Y-79154500D01*
X147607462Y-79154500D01*
X147309862Y-79154500D01*
X147011362Y-79154500D01*
X146713562Y-79154500D01*
X146415062Y-79154500D01*
X146117062Y-79154500D01*
X145819362Y-79154500D01*
X145521662Y-79154500D01*
X145223362Y-79154500D01*
X144925262Y-79154500D01*
X144628362Y-79154500D01*
X144330462Y-79154500D01*
X144032362Y-79154500D01*
X143734762Y-79154500D01*
X143436962Y-79154500D01*
X143138162Y-79154500D01*
X142840762Y-79154500D01*
X142542662Y-79154500D01*
X142244662Y-79154500D01*
X141946562Y-79154500D01*
X141649462Y-79154500D01*
X141351962Y-79154500D01*
X141054462Y-79154500D01*
X140756762Y-79154500D01*
X140459262Y-79154500D01*
X140161662Y-79154500D01*
X139862762Y-79154500D01*
X139565062Y-79154500D01*
X139266662Y-79154500D01*
X138969362Y-79154500D01*
X138837578Y-79154500D01*
X138710282Y-79188608D01*
X138596156Y-79254500D01*
X138596153Y-79254502D01*
X138502972Y-79347683D01*
X138502970Y-79347686D01*
X138437078Y-79461812D01*
X138413822Y-79548608D01*
X138402970Y-79589108D01*
X134353970Y-79589108D01*
X134319862Y-79461814D01*
X134253970Y-79347686D01*
X134160784Y-79254500D01*
X134103720Y-79221554D01*
X134046657Y-79188608D01*
X133983009Y-79171554D01*
X133919362Y-79154500D01*
X133622362Y-79154500D01*
X133324762Y-79154500D01*
X133027362Y-79154500D01*
X132729062Y-79154500D01*
X132431762Y-79154500D01*
X132133762Y-79154500D01*
X131835462Y-79154500D01*
X131536962Y-79154500D01*
X131239562Y-79154500D01*
X130941562Y-79154500D01*
X130643462Y-79154500D01*
X130346162Y-79154500D01*
X130047462Y-79154500D01*
X129748962Y-79154500D01*
X129451862Y-79154500D01*
X129153262Y-79154500D01*
X128855162Y-79154500D01*
X128557462Y-79154500D01*
X128259862Y-79154500D01*
X127961362Y-79154500D01*
X127663562Y-79154500D01*
X127365062Y-79154500D01*
X127067062Y-79154500D01*
X126769362Y-79154500D01*
X126471662Y-79154500D01*
X126173362Y-79154500D01*
X125875262Y-79154500D01*
X125578362Y-79154500D01*
X125280462Y-79154500D01*
X124982362Y-79154500D01*
X124684762Y-79154500D01*
X124386962Y-79154500D01*
X124088162Y-79154500D01*
X123790762Y-79154500D01*
X123492662Y-79154500D01*
X123194662Y-79154500D01*
X122896562Y-79154500D01*
X122599462Y-79154500D01*
X122301962Y-79154500D01*
X122004462Y-79154500D01*
X121706762Y-79154500D01*
X121409262Y-79154500D01*
X121111662Y-79154500D01*
X120812762Y-79154500D01*
X120515062Y-79154500D01*
X120216662Y-79154500D01*
X119919362Y-79154500D01*
X119787578Y-79154500D01*
X119660282Y-79188608D01*
X119546156Y-79254500D01*
X119546153Y-79254502D01*
X119452972Y-79347683D01*
X119452970Y-79347686D01*
X119387078Y-79461812D01*
X119363822Y-79548608D01*
X119352970Y-79589108D01*
X117529520Y-79589108D01*
X117529520Y-77861307D01*
X117530567Y-77845223D01*
X117548528Y-77708059D01*
X117556950Y-77676635D01*
X117593739Y-77588015D01*
X117609942Y-77560003D01*
X117668916Y-77483274D01*
X117691676Y-77460517D01*
X117768594Y-77401417D01*
X117796661Y-77385197D01*
X117885532Y-77348361D01*
X117916927Y-77339960D01*
X118053384Y-77322118D01*
X118053545Y-77322097D01*
X118069622Y-77321050D01*
X118261078Y-77321050D01*
X118560778Y-77321050D01*
X118859078Y-77321050D01*
X119158078Y-77321050D01*
X119455778Y-77321050D01*
X119753878Y-77321050D01*
X120051978Y-77321050D01*
X120350078Y-77321050D01*
X120649078Y-77321050D01*
X120947378Y-77321050D01*
X121246878Y-77321050D01*
X121545478Y-77321050D01*
X121843678Y-77321050D01*
X122142778Y-77321050D01*
X122441878Y-77321050D01*
X122740078Y-77321050D01*
X123038978Y-77321050D01*
X123336878Y-77321050D01*
X123635878Y-77321050D01*
X123934678Y-77321050D01*
X124234078Y-77321050D01*
X124532678Y-77321050D01*
X124831578Y-77321050D01*
X125129578Y-77321050D01*
X125427978Y-77321050D01*
X125726678Y-77321050D01*
X126024578Y-77321050D01*
X126324178Y-77321050D01*
X126622678Y-77321050D01*
X126921078Y-77321050D01*
X127219778Y-77321050D01*
X127518678Y-77321050D01*
X127818078Y-77321050D01*
X128117678Y-77321050D01*
X128416478Y-77321050D01*
X128715578Y-77321050D01*
X129014878Y-77321050D01*
X129337393Y-77321050D01*
X129353632Y-77322117D01*
X129378240Y-77325369D01*
X129403135Y-77322102D01*
X129419264Y-77321050D01*
X129444361Y-77321050D01*
X129444362Y-77321050D01*
X129468334Y-77314626D01*
X129484278Y-77311457D01*
X129628264Y-77292568D01*
X129628522Y-77292552D01*
X129636458Y-77291508D01*
X129636459Y-77291509D01*
X129675388Y-77286392D01*
X129701075Y-77283016D01*
X129701075Y-77283022D01*
X129701101Y-77283012D01*
X129767005Y-77274367D01*
X129767007Y-77274365D01*
X129767029Y-77274363D01*
X129767093Y-77274346D01*
X129767116Y-77274336D01*
X129767119Y-77274336D01*
X129825756Y-77250062D01*
X129825786Y-77250059D01*
X129825783Y-77250052D01*
X129896292Y-77220884D01*
X129896540Y-77220760D01*
X130001620Y-77177262D01*
X130002129Y-77177091D01*
X130009554Y-77174013D01*
X130009555Y-77174013D01*
X130069437Y-77149190D01*
X130069439Y-77149196D01*
X130069485Y-77149170D01*
X130131083Y-77123672D01*
X130131085Y-77123669D01*
X130131289Y-77123552D01*
X130131290Y-77123550D01*
X130131295Y-77123549D01*
X130182627Y-77084139D01*
X130182643Y-77084127D01*
X130182652Y-77084139D01*
X130182687Y-77084092D01*
X130235652Y-77043470D01*
X130235653Y-77043468D01*
X130241958Y-77038633D01*
X130242368Y-77038272D01*
X130242594Y-77038099D01*
X130272461Y-77015168D01*
X130389550Y-76925274D01*
X130389569Y-76925299D01*
X130389640Y-76925203D01*
X130442296Y-76884856D01*
X130442299Y-76884851D01*
X130442620Y-76884529D01*
X130442625Y-76884526D01*
X130482548Y-76832470D01*
X130595895Y-76684952D01*
X130596400Y-76684379D01*
X130601596Y-76677607D01*
X130641349Y-76625796D01*
X130641419Y-76625745D01*
X130641401Y-76625731D01*
X130681186Y-76573952D01*
X130681185Y-76573952D01*
X130681190Y-76573947D01*
X130681192Y-76573940D01*
X130681358Y-76573652D01*
X130681361Y-76573650D01*
X130706346Y-76513325D01*
X130706399Y-76513259D01*
X130706378Y-76513251D01*
X130725639Y-76466836D01*
X130731702Y-76452227D01*
X130731702Y-76452225D01*
X130734706Y-76444987D01*
X130734949Y-76444266D01*
X130778314Y-76339567D01*
X130778374Y-76339449D01*
X130781690Y-76331439D01*
X130781692Y-76331437D01*
X130807929Y-76268066D01*
X130831562Y-76211008D01*
X130832128Y-76209697D01*
X130832128Y-76209696D01*
X130832315Y-76208090D01*
X130840688Y-76144422D01*
X130840689Y-76144422D01*
X130840689Y-76144407D01*
X130849289Y-76079079D01*
X130849288Y-76079077D01*
X130850436Y-76070363D01*
X130850445Y-76070219D01*
X130866354Y-75949245D01*
X130869354Y-75926429D01*
X130872519Y-75910513D01*
X130878970Y-75886442D01*
X130878970Y-75861434D01*
X130880029Y-75845264D01*
X130880032Y-75845247D01*
X130883289Y-75820478D01*
X130880033Y-75795772D01*
X130878970Y-75779570D01*
X130878970Y-73436605D01*
X130879114Y-73430626D01*
X130879546Y-73421676D01*
X130879565Y-73421289D01*
X131673649Y-73421289D01*
X131673650Y-73421494D01*
X131673650Y-73421790D01*
X131673649Y-73422067D01*
X131679107Y-73463201D01*
X131682266Y-73487013D01*
X131709896Y-73697823D01*
X131710011Y-73698700D01*
X131710107Y-73700152D01*
X131719683Y-73772498D01*
X131719703Y-73772653D01*
X131728176Y-73837301D01*
X131728230Y-73837501D01*
X131728279Y-73837684D01*
X131728343Y-73837926D01*
X131753473Y-73898475D01*
X131753504Y-73898632D01*
X131753533Y-73898621D01*
X131781288Y-73965737D01*
X131781922Y-73967023D01*
X131802570Y-74016774D01*
X131835401Y-74095878D01*
X131835450Y-74096021D01*
X131838362Y-74103034D01*
X131863413Y-74163372D01*
X131863415Y-74163384D01*
X131863418Y-74163384D01*
X131888866Y-74224698D01*
X131888890Y-74224739D01*
X131888895Y-74224745D01*
X131929138Y-74277101D01*
X131929144Y-74277116D01*
X131929148Y-74277114D01*
X131929149Y-74277115D01*
X131968831Y-74328755D01*
X131973816Y-74335241D01*
X131973919Y-74335360D01*
X132103331Y-74503719D01*
X132103394Y-74503883D01*
X132103434Y-74503853D01*
X132143519Y-74556151D01*
X132143523Y-74556154D01*
X132144011Y-74556642D01*
X132195778Y-74596295D01*
X132195883Y-74596438D01*
X132195914Y-74596399D01*
X132363918Y-74725455D01*
X132364917Y-74726222D01*
X132365147Y-74726424D01*
X132426192Y-74773293D01*
X132426204Y-74773302D01*
X132475828Y-74811421D01*
X132475832Y-74811422D01*
X132475842Y-74811430D01*
X132475850Y-74811435D01*
X132475932Y-74811482D01*
X132475935Y-74811484D01*
X132538409Y-74837382D01*
X132538481Y-74837412D01*
X132538479Y-74837415D01*
X132538505Y-74837422D01*
X132597553Y-74861918D01*
X132597554Y-74861918D01*
X132604990Y-74865003D01*
X132605244Y-74865088D01*
X132733743Y-74918357D01*
X132734961Y-74918958D01*
X132771624Y-74934104D01*
X132802364Y-74946804D01*
X132802487Y-74946903D01*
X132802504Y-74946862D01*
X132862974Y-74971930D01*
X132862980Y-74971930D01*
X132863551Y-74972084D01*
X132863554Y-74972085D01*
X132928400Y-74980562D01*
X132928395Y-74980604D01*
X132928547Y-74980581D01*
X132993626Y-74989169D01*
X133000916Y-74990131D01*
X133002250Y-74990217D01*
X133213021Y-75017772D01*
X133213014Y-75017827D01*
X133213213Y-75017797D01*
X133278133Y-75026389D01*
X133278134Y-75026388D01*
X133278135Y-75026389D01*
X133278926Y-75026389D01*
X133343822Y-75017784D01*
X133344024Y-75017815D01*
X133344017Y-75017759D01*
X133344246Y-75017729D01*
X133555574Y-74990051D01*
X133557194Y-74989945D01*
X133564263Y-74989008D01*
X133564266Y-74989009D01*
X133629131Y-74980417D01*
X133694201Y-74971895D01*
X133694209Y-74971891D01*
X133694899Y-74971706D01*
X133694909Y-74971705D01*
X133755426Y-74946582D01*
X133755434Y-74946601D01*
X133755583Y-74946516D01*
X133815988Y-74921544D01*
X133815990Y-74921542D01*
X133822662Y-74918784D01*
X133824108Y-74918069D01*
X133951024Y-74865382D01*
X133951054Y-74865373D01*
X133959926Y-74861689D01*
X133959931Y-74861689D01*
X134015949Y-74838430D01*
X134015952Y-74838430D01*
X134070447Y-74815807D01*
X134075832Y-74813571D01*
X134080470Y-74811917D01*
X134081694Y-74811351D01*
X134085411Y-74808259D01*
X134130387Y-74773689D01*
X134130388Y-74773688D01*
X134186111Y-74730861D01*
X134186113Y-74730857D01*
X134193143Y-74725455D01*
X134193176Y-74725425D01*
X134360952Y-74596464D01*
X134360993Y-74596434D01*
X134361218Y-74596261D01*
X134412985Y-74556596D01*
X134412986Y-74556594D01*
X134412988Y-74556593D01*
X134413518Y-74556061D01*
X134413527Y-74556055D01*
X134414046Y-74555378D01*
X134453471Y-74503909D01*
X134453586Y-74503759D01*
X134522251Y-74414398D01*
X134582886Y-74335490D01*
X134583144Y-74335199D01*
X134628951Y-74275543D01*
X134628955Y-74275546D01*
X134628973Y-74275513D01*
X134668282Y-74224360D01*
X134668284Y-74224356D01*
X134668368Y-74224211D01*
X134668368Y-74224210D01*
X134668371Y-74224207D01*
X134693674Y-74163176D01*
X134718798Y-74102642D01*
X134718798Y-74102639D01*
X134721938Y-74095075D01*
X134722060Y-74094710D01*
X134775271Y-73966370D01*
X134775940Y-73965015D01*
X134803797Y-73897570D01*
X134803798Y-73897570D01*
X134803841Y-73897461D01*
X134828843Y-73837161D01*
X134828844Y-73837147D01*
X134828934Y-73836817D01*
X134828967Y-73836696D01*
X134829019Y-73836502D01*
X134837480Y-73771729D01*
X134837508Y-73771732D01*
X134837501Y-73771562D01*
X134846089Y-73706510D01*
X134846088Y-73706508D01*
X134847034Y-73699348D01*
X134847134Y-73697823D01*
X134847142Y-73697766D01*
X134874634Y-73487304D01*
X134876244Y-73475167D01*
X134882716Y-73426355D01*
X134883289Y-73422036D01*
X134883289Y-73422034D01*
X134883289Y-73421074D01*
X134883284Y-73421040D01*
X134874740Y-73356633D01*
X134847033Y-73144678D01*
X134846891Y-73142496D01*
X134844491Y-73124413D01*
X134837374Y-73070774D01*
X134828908Y-73006004D01*
X134828905Y-73005998D01*
X134828804Y-73005618D01*
X134828729Y-73005339D01*
X134828655Y-73005064D01*
X134828654Y-73005056D01*
X134810205Y-72960645D01*
X134803649Y-72944862D01*
X134803556Y-72944639D01*
X134802540Y-72942180D01*
X134778589Y-72884205D01*
X134778586Y-72884201D01*
X134775984Y-72877903D01*
X134775023Y-72875953D01*
X134762771Y-72846459D01*
X134694028Y-72680979D01*
X134694022Y-72680920D01*
X134694007Y-72680927D01*
X134668118Y-72618523D01*
X134668117Y-72618522D01*
X134668115Y-72618516D01*
X134668110Y-72618510D01*
X134668001Y-72618322D01*
X134667998Y-72618315D01*
X134649053Y-72593678D01*
X134628042Y-72566352D01*
X134628007Y-72566307D01*
X134453890Y-72339656D01*
X134453809Y-72339550D01*
X134420974Y-72296713D01*
X134413521Y-72286989D01*
X134413516Y-72286985D01*
X134413135Y-72286603D01*
X134406820Y-72281763D01*
X134361442Y-72246983D01*
X134361361Y-72246872D01*
X134361338Y-72246903D01*
X134191948Y-72116782D01*
X134191743Y-72116603D01*
X134185635Y-72111913D01*
X134185634Y-72111912D01*
X134132460Y-72071086D01*
X134130719Y-72069749D01*
X134081557Y-72031984D01*
X134081212Y-72031719D01*
X134081211Y-72031718D01*
X134081209Y-72031717D01*
X134081108Y-72031658D01*
X134020479Y-72006524D01*
X134020452Y-72006513D01*
X133959486Y-71981222D01*
X133959484Y-71981221D01*
X133952439Y-71978299D01*
X133952176Y-71978208D01*
X133823263Y-71924768D01*
X133822021Y-71924156D01*
X133754641Y-71896320D01*
X133754502Y-71896263D01*
X133752411Y-71895396D01*
X133694067Y-71871210D01*
X133694066Y-71871209D01*
X133694062Y-71871208D01*
X133693634Y-71871093D01*
X133693478Y-71871051D01*
X133693466Y-71871049D01*
X133693465Y-71871049D01*
X133655563Y-71866095D01*
X133628686Y-71862582D01*
X133628627Y-71862556D01*
X133628540Y-71862563D01*
X133606019Y-71859591D01*
X133563415Y-71853971D01*
X133563414Y-71853971D01*
X133556197Y-71853019D01*
X133554812Y-71852928D01*
X133343887Y-71825362D01*
X133343656Y-71825331D01*
X133343580Y-71825298D01*
X133343466Y-71825307D01*
X133278766Y-71816748D01*
X133278587Y-71816749D01*
X133278188Y-71816749D01*
X133278009Y-71816748D01*
X133213016Y-71825367D01*
X133212825Y-71825392D01*
X133001476Y-71853083D01*
X133000053Y-71853176D01*
X132927848Y-71862729D01*
X132927697Y-71862749D01*
X132877500Y-71869326D01*
X132862817Y-71871251D01*
X132862816Y-71871251D01*
X132862795Y-71871254D01*
X132862559Y-71871318D01*
X132862231Y-71871406D01*
X132862211Y-71871411D01*
X132801637Y-71896547D01*
X132801494Y-71896606D01*
X132734379Y-71924357D01*
X132733084Y-71924995D01*
X132604391Y-71978399D01*
X132604205Y-71978462D01*
X132539150Y-72005472D01*
X132539132Y-72005480D01*
X132475335Y-72031954D01*
X132426184Y-72069735D01*
X132426166Y-72069749D01*
X132364802Y-72116898D01*
X132364642Y-72117037D01*
X132196019Y-72246649D01*
X132195872Y-72246762D01*
X132143934Y-72286560D01*
X132143638Y-72286858D01*
X132143417Y-72287078D01*
X132103385Y-72339338D01*
X132103272Y-72339486D01*
X131973766Y-72508022D01*
X131973499Y-72508327D01*
X131928012Y-72567564D01*
X131927988Y-72567596D01*
X131888640Y-72618802D01*
X131888578Y-72618910D01*
X131863281Y-72679924D01*
X131863265Y-72679963D01*
X131835145Y-72747718D01*
X131835019Y-72748087D01*
X131781615Y-72876893D01*
X131780950Y-72878245D01*
X131753259Y-72945287D01*
X131753197Y-72945437D01*
X131728093Y-73005986D01*
X131728052Y-73006144D01*
X131727968Y-73006457D01*
X131727923Y-73006624D01*
X131719468Y-73071344D01*
X131719447Y-73071507D01*
X131709912Y-73143742D01*
X131709814Y-73145243D01*
X131682270Y-73356095D01*
X131682245Y-73356288D01*
X131673649Y-73421289D01*
X130879565Y-73421289D01*
X130890620Y-73192278D01*
X130891785Y-73180297D01*
X130923993Y-72960660D01*
X130926362Y-72948672D01*
X130980438Y-72731858D01*
X130983964Y-72720200D01*
X131059083Y-72509882D01*
X131063775Y-72498552D01*
X131159358Y-72296707D01*
X131165090Y-72286000D01*
X131280089Y-72094472D01*
X131286837Y-72084389D01*
X131420277Y-71904736D01*
X131427939Y-71895408D01*
X131578256Y-71729620D01*
X131586793Y-71721082D01*
X131752281Y-71571012D01*
X131761617Y-71563343D01*
X131940925Y-71430154D01*
X131950959Y-71423435D01*
X132141811Y-71308720D01*
X132152570Y-71302956D01*
X132354716Y-71207142D01*
X132366024Y-71202450D01*
X132575738Y-71127388D01*
X132587462Y-71123835D01*
X132803232Y-71069932D01*
X132815176Y-71067566D01*
X133036227Y-71034985D01*
X133048275Y-71033807D01*
X133272597Y-71022914D01*
X133284549Y-71022913D01*
X133507915Y-71033671D01*
X133519850Y-71034828D01*
X133739772Y-71066980D01*
X133751714Y-71069330D01*
X133968543Y-71123193D01*
X133980257Y-71126726D01*
X134190607Y-71201685D01*
X134201904Y-71206350D01*
X134323502Y-71263752D01*
X134403822Y-71301668D01*
X134414613Y-71307430D01*
X134605978Y-71422077D01*
X134606034Y-71422110D01*
X134616113Y-71428839D01*
X134794616Y-71561070D01*
X134795679Y-71561857D01*
X134805090Y-71569571D01*
X134806693Y-71571022D01*
X134970697Y-71719505D01*
X134979241Y-71728034D01*
X135129316Y-71893179D01*
X135137019Y-71902535D01*
X135270077Y-72081302D01*
X135276840Y-72091385D01*
X135370414Y-72246872D01*
X135391424Y-72281783D01*
X135397210Y-72292569D01*
X135462327Y-72429823D01*
X135492927Y-72494320D01*
X135497629Y-72505645D01*
X135572686Y-72715124D01*
X135576243Y-72726846D01*
X135630138Y-72942201D01*
X135632523Y-72954223D01*
X135665055Y-73174935D01*
X135666235Y-73187020D01*
X135673617Y-73339486D01*
X135677602Y-73421790D01*
X135677825Y-73426385D01*
X135677970Y-73432382D01*
X135677970Y-75779527D01*
X135676905Y-75795746D01*
X135673651Y-75820408D01*
X135676914Y-75845247D01*
X135677970Y-75861397D01*
X135677970Y-75886442D01*
X135684339Y-75910212D01*
X135684407Y-75910465D01*
X135687575Y-75926405D01*
X135716143Y-76143865D01*
X135716145Y-76143882D01*
X135724701Y-76209085D01*
X135749817Y-76269770D01*
X135749813Y-76269771D01*
X135749823Y-76269785D01*
X135821808Y-76443784D01*
X135822045Y-76444482D01*
X135850384Y-76512856D01*
X135850415Y-76512930D01*
X135875276Y-76573026D01*
X135875437Y-76573303D01*
X135914480Y-76624161D01*
X135915608Y-76625631D01*
X135955455Y-76677607D01*
X135960122Y-76683694D01*
X135960595Y-76684234D01*
X136016110Y-76756549D01*
X136074008Y-76831969D01*
X136114122Y-76884293D01*
X136114260Y-76884473D01*
X136114452Y-76884664D01*
X136114483Y-76884695D01*
X136166874Y-76924878D01*
X136166923Y-76924946D01*
X136166938Y-76924928D01*
X136314292Y-77038099D01*
X136314526Y-77038304D01*
X136320748Y-77043080D01*
X136320749Y-77043081D01*
X136352472Y-77067431D01*
X136373809Y-77083809D01*
X136373803Y-77083815D01*
X136373834Y-77083828D01*
X136425169Y-77123255D01*
X136425171Y-77123256D01*
X136425178Y-77123261D01*
X136425283Y-77123322D01*
X136426364Y-77123770D01*
X136485853Y-77148422D01*
X136485880Y-77148444D01*
X136485884Y-77148436D01*
X136554318Y-77176818D01*
X136554616Y-77176918D01*
X136659786Y-77220501D01*
X136660069Y-77220642D01*
X136667611Y-77223765D01*
X136667614Y-77223767D01*
X136728575Y-77249009D01*
X136728896Y-77249142D01*
X136728894Y-77249145D01*
X136728926Y-77249154D01*
X136789172Y-77274121D01*
X136789232Y-77274146D01*
X136789366Y-77274182D01*
X136789369Y-77274182D01*
X136789373Y-77274184D01*
X136855390Y-77282866D01*
X136855426Y-77282882D01*
X136855427Y-77282871D01*
X136919886Y-77291369D01*
X136919888Y-77291368D01*
X136927970Y-77292434D01*
X136928288Y-77292454D01*
X137072593Y-77311434D01*
X137088502Y-77314598D01*
X137112578Y-77321050D01*
X137137575Y-77321050D01*
X137153744Y-77322108D01*
X137178531Y-77325369D01*
X137203241Y-77322112D01*
X137219440Y-77321050D01*
X137408678Y-77321050D01*
X137704078Y-77321050D01*
X138000178Y-77321050D01*
X138294778Y-77321050D01*
X138590278Y-77321050D01*
X138886678Y-77321050D01*
X139181278Y-77321050D01*
X139475778Y-77321050D01*
X139771178Y-77321050D01*
X140067478Y-77321050D01*
X140363978Y-77321050D01*
X140659978Y-77321050D01*
X140956078Y-77321050D01*
X141243343Y-77321050D01*
X141243371Y-77321051D01*
X141251991Y-77321050D01*
X141251995Y-77321052D01*
X141312907Y-77321050D01*
X141383762Y-77321050D01*
X141394893Y-77321050D01*
X141394923Y-77321046D01*
X141617457Y-77321040D01*
X141617468Y-77321040D01*
X141843078Y-77321040D01*
X142139378Y-77321040D01*
X142435678Y-77321040D01*
X142732478Y-77321040D01*
X143028178Y-77321040D01*
X143323878Y-77321040D01*
X143619478Y-77321040D01*
X143915278Y-77321040D01*
X144211678Y-77321040D01*
X144507678Y-77321040D01*
X144803778Y-77321040D01*
X145099378Y-77321040D01*
X145395178Y-77321040D01*
X145690378Y-77321040D01*
X145986078Y-77321040D01*
X146281578Y-77321040D01*
X146577978Y-77321040D01*
X146873178Y-77321040D01*
X147168278Y-77321040D01*
X147464578Y-77321040D01*
X147759678Y-77321040D01*
X148046443Y-77321040D01*
X148046471Y-77321041D01*
X148055091Y-77321040D01*
X148055095Y-77321042D01*
X148116078Y-77321040D01*
X148186862Y-77321040D01*
X148197993Y-77321040D01*
X148198023Y-77321036D01*
X148420986Y-77321030D01*
X148420997Y-77321030D01*
X148646378Y-77321030D01*
X148941378Y-77321030D01*
X149236578Y-77321030D01*
X149533278Y-77321030D01*
X149829078Y-77321030D01*
X150125378Y-77321030D01*
X150421378Y-77321030D01*
X150716578Y-77321030D01*
X151011978Y-77321030D01*
X151308578Y-77321030D01*
X151605378Y-77321030D01*
X151900978Y-77321030D01*
X152197578Y-77321030D01*
X152493078Y-77321030D01*
X152788478Y-77321030D01*
X153083478Y-77321030D01*
X153379378Y-77321030D01*
X153675278Y-77321030D01*
X153970578Y-77321030D01*
X154267078Y-77321030D01*
X154587331Y-77321030D01*
X154603595Y-77322100D01*
X154628144Y-77325349D01*
X154651544Y-77322283D01*
X154653100Y-77322080D01*
X154669204Y-77321030D01*
X154694363Y-77321030D01*
X154718267Y-77314624D01*
X154734254Y-77311447D01*
X154879511Y-77292420D01*
X154881000Y-77292324D01*
X154888216Y-77291368D01*
X154888218Y-77291369D01*
X154941014Y-77284380D01*
X154953053Y-77282787D01*
X154953219Y-77282765D01*
X155018211Y-77274252D01*
X155018220Y-77274247D01*
X155018844Y-77274079D01*
X155018863Y-77274077D01*
X155058270Y-77257721D01*
X155079107Y-77249074D01*
X155079262Y-77249009D01*
X155139997Y-77223899D01*
X155139998Y-77223897D01*
X155146751Y-77221106D01*
X155148089Y-77220445D01*
X155252306Y-77177193D01*
X155252486Y-77177132D01*
X155259943Y-77174035D01*
X155259947Y-77174035D01*
X155303246Y-77156055D01*
X155322676Y-77147988D01*
X155322676Y-77147989D01*
X155322689Y-77147982D01*
X155381395Y-77123618D01*
X155381618Y-77123528D01*
X155381657Y-77123498D01*
X155434651Y-77082760D01*
X155434670Y-77082753D01*
X155434667Y-77082749D01*
X155454601Y-77067431D01*
X155486077Y-77043245D01*
X155486078Y-77043243D01*
X155492678Y-77038172D01*
X155492817Y-77038048D01*
X155639942Y-76924953D01*
X155692287Y-76884845D01*
X155692288Y-76884842D01*
X155692291Y-76884841D01*
X155692829Y-76884303D01*
X155692834Y-76884295D01*
X155692838Y-76884293D01*
X155732560Y-76832433D01*
X155846433Y-76684240D01*
X155846674Y-76683967D01*
X155851503Y-76677678D01*
X155851505Y-76677677D01*
X155870003Y-76653586D01*
X155892573Y-76624196D01*
X155892576Y-76624199D01*
X155892595Y-76624165D01*
X155931683Y-76573298D01*
X155931684Y-76573294D01*
X155931765Y-76573156D01*
X155931767Y-76573154D01*
X155956960Y-76512392D01*
X155982199Y-76451580D01*
X155982199Y-76451576D01*
X155985277Y-76444161D01*
X155985395Y-76443810D01*
X156028678Y-76339421D01*
X156029381Y-76337997D01*
X156036793Y-76320050D01*
X156057155Y-76270740D01*
X156082241Y-76210239D01*
X156082242Y-76210226D01*
X156082421Y-76209556D01*
X156082427Y-76209544D01*
X156090889Y-76144725D01*
X156090919Y-76144729D01*
X156090912Y-76144549D01*
X156099489Y-76079588D01*
X156099488Y-76079584D01*
X156100430Y-76072454D01*
X156100533Y-76070861D01*
X156119414Y-75926244D01*
X156122595Y-75910212D01*
X156128970Y-75886422D01*
X156128970Y-75861120D01*
X156130014Y-75845064D01*
X156133288Y-75819989D01*
X156130779Y-75801094D01*
X156130048Y-75795578D01*
X156128970Y-75779263D01*
X156128970Y-73436582D01*
X156129114Y-73430603D01*
X156129527Y-73422047D01*
X156129565Y-73421259D01*
X156923649Y-73421259D01*
X156923650Y-73421464D01*
X156923650Y-73421760D01*
X156923649Y-73422037D01*
X156932266Y-73486983D01*
X156932291Y-73487176D01*
X156960006Y-73698631D01*
X156960100Y-73700061D01*
X156969704Y-73772626D01*
X156969724Y-73772781D01*
X156978177Y-73837280D01*
X156978341Y-73837890D01*
X157003641Y-73898850D01*
X157003700Y-73898994D01*
X157031326Y-73965798D01*
X157031950Y-73967063D01*
X157085459Y-74095998D01*
X157085525Y-74096188D01*
X157088364Y-74103025D01*
X157113420Y-74163370D01*
X157113664Y-74163956D01*
X157113668Y-74163977D01*
X157113672Y-74163976D01*
X157138873Y-74224698D01*
X157177062Y-74274377D01*
X157177071Y-74274401D01*
X157177077Y-74274397D01*
X157218870Y-74328787D01*
X157223893Y-74335323D01*
X157224026Y-74335476D01*
X157353436Y-74503826D01*
X157353541Y-74503963D01*
X157393522Y-74556125D01*
X157394012Y-74556615D01*
X157445862Y-74596330D01*
X157445923Y-74596376D01*
X157613957Y-74725455D01*
X157614917Y-74726192D01*
X157615147Y-74726394D01*
X157676192Y-74773263D01*
X157676204Y-74773272D01*
X157725828Y-74811391D01*
X157725832Y-74811392D01*
X157725842Y-74811400D01*
X157725850Y-74811405D01*
X157725932Y-74811452D01*
X157725935Y-74811454D01*
X157763181Y-74826894D01*
X157788481Y-74837382D01*
X157788479Y-74837385D01*
X157788505Y-74837392D01*
X157847553Y-74861888D01*
X157847554Y-74861888D01*
X157854990Y-74864973D01*
X157855244Y-74865058D01*
X157983743Y-74918327D01*
X157984961Y-74918928D01*
X158021624Y-74934074D01*
X158052364Y-74946774D01*
X158052487Y-74946873D01*
X158052504Y-74946832D01*
X158112974Y-74971900D01*
X158112980Y-74971900D01*
X158113551Y-74972054D01*
X158113554Y-74972055D01*
X158178400Y-74980532D01*
X158178395Y-74980574D01*
X158178547Y-74980551D01*
X158243626Y-74989139D01*
X158243627Y-74989138D01*
X158250919Y-74990101D01*
X158252253Y-74990187D01*
X158463169Y-75017762D01*
X158528116Y-75026359D01*
X158528119Y-75026358D01*
X158528123Y-75026359D01*
X158528926Y-75026359D01*
X158528928Y-75026359D01*
X158574007Y-75020382D01*
X158594023Y-75017729D01*
X158804786Y-74990131D01*
X158805489Y-74990039D01*
X158807192Y-74989927D01*
X158814276Y-74988988D01*
X158814282Y-74988989D01*
X158879300Y-74980374D01*
X158879493Y-74980404D01*
X158879486Y-74980351D01*
X158944184Y-74971879D01*
X158944918Y-74971681D01*
X158944925Y-74971681D01*
X159005662Y-74946464D01*
X159005670Y-74946485D01*
X159005830Y-74946394D01*
X159065973Y-74921533D01*
X159065974Y-74921531D01*
X159072566Y-74918807D01*
X159074081Y-74918058D01*
X159293666Y-74826894D01*
X159320378Y-74815804D01*
X159323306Y-74814913D01*
X159329771Y-74811977D01*
X159332433Y-74810819D01*
X159336294Y-74807550D01*
X159409229Y-74751489D01*
X159409228Y-74751489D01*
X159409233Y-74751486D01*
X159611072Y-74596353D01*
X159662993Y-74556569D01*
X159663002Y-74556556D01*
X159663182Y-74556378D01*
X159663292Y-74556269D01*
X159663508Y-74556051D01*
X159663517Y-74556045D01*
X159703218Y-74504217D01*
X159703368Y-74504107D01*
X159703327Y-74504076D01*
X159832861Y-74335496D01*
X159832904Y-74335439D01*
X159833136Y-74335177D01*
X159838103Y-74328707D01*
X159838106Y-74328706D01*
X159877721Y-74277115D01*
X159878455Y-74276159D01*
X159878480Y-74276127D01*
X159895230Y-74254328D01*
X159918288Y-74224320D01*
X159918289Y-74224316D01*
X159918305Y-74224296D01*
X159918353Y-74224214D01*
X159918364Y-74224186D01*
X159918367Y-74224183D01*
X159942979Y-74164821D01*
X159943003Y-74164790D01*
X159942994Y-74164787D01*
X159968621Y-74103034D01*
X159968801Y-74102601D01*
X159968801Y-74102598D01*
X159971967Y-74094970D01*
X159972080Y-74094633D01*
X160025268Y-73966353D01*
X160025946Y-73964980D01*
X160053874Y-73897363D01*
X160053875Y-73897363D01*
X160053918Y-73897254D01*
X160078841Y-73837148D01*
X160078841Y-73837146D01*
X160079014Y-73836495D01*
X160079019Y-73836485D01*
X160083047Y-73805640D01*
X160087517Y-73771430D01*
X160087545Y-73771433D01*
X160087538Y-73771262D01*
X160096089Y-73706498D01*
X160096088Y-73706496D01*
X160097039Y-73699299D01*
X160097137Y-73697774D01*
X160124642Y-73487220D01*
X160133289Y-73422006D01*
X160133288Y-73421998D01*
X160133288Y-73421040D01*
X160133287Y-73421036D01*
X160133288Y-73421032D01*
X160124722Y-73356467D01*
X160097033Y-73144648D01*
X160096891Y-73142466D01*
X160094495Y-73124413D01*
X160087374Y-73070744D01*
X160078908Y-73005974D01*
X160078905Y-73005968D01*
X160078804Y-73005588D01*
X160078729Y-73005309D01*
X160078655Y-73005034D01*
X160078654Y-73005026D01*
X160057711Y-72954611D01*
X160053649Y-72944832D01*
X160053556Y-72944609D01*
X160052561Y-72942201D01*
X160028589Y-72884175D01*
X160028586Y-72884171D01*
X160025984Y-72877873D01*
X160025023Y-72875923D01*
X159944028Y-72680949D01*
X159944022Y-72680890D01*
X159944007Y-72680897D01*
X159918118Y-72618493D01*
X159918117Y-72618492D01*
X159918115Y-72618486D01*
X159918110Y-72618480D01*
X159918001Y-72618292D01*
X159917998Y-72618285D01*
X159899053Y-72593648D01*
X159878042Y-72566322D01*
X159878007Y-72566277D01*
X159703692Y-72339368D01*
X159703709Y-72339354D01*
X159703612Y-72339264D01*
X159663505Y-72286942D01*
X159663410Y-72286847D01*
X159663140Y-72286578D01*
X159663133Y-72286571D01*
X159611377Y-72246903D01*
X159610962Y-72246585D01*
X159610882Y-72246475D01*
X159610859Y-72246506D01*
X159442109Y-72116884D01*
X159441946Y-72116741D01*
X159381570Y-72070383D01*
X159381555Y-72070363D01*
X159381552Y-72070369D01*
X159331200Y-72031692D01*
X159331199Y-72031691D01*
X159331188Y-72031683D01*
X159331131Y-72031650D01*
X159271617Y-72006976D01*
X159271618Y-72006971D01*
X159271595Y-72006967D01*
X159268415Y-72005648D01*
X159250911Y-71998387D01*
X159202309Y-71978226D01*
X159202102Y-71978155D01*
X159073250Y-71924735D01*
X159071983Y-71924111D01*
X159065267Y-71921336D01*
X159065265Y-71921335D01*
X159004617Y-71896281D01*
X158944082Y-71871184D01*
X158944080Y-71871183D01*
X158944069Y-71871179D01*
X158943978Y-71871155D01*
X158943554Y-71871042D01*
X158943471Y-71871019D01*
X158878733Y-71862559D01*
X158878671Y-71862531D01*
X158878579Y-71862539D01*
X158806241Y-71852992D01*
X158804820Y-71852899D01*
X158594346Y-71825392D01*
X158593656Y-71825301D01*
X158593580Y-71825268D01*
X158593466Y-71825277D01*
X158528766Y-71816718D01*
X158528587Y-71816719D01*
X158528188Y-71816719D01*
X158528009Y-71816718D01*
X158463016Y-71825337D01*
X158462825Y-71825362D01*
X158251455Y-71853056D01*
X158249996Y-71853152D01*
X158242825Y-71854101D01*
X158178743Y-71862582D01*
X158178123Y-71862664D01*
X158177963Y-71862685D01*
X158112809Y-71871221D01*
X158112764Y-71871234D01*
X158112386Y-71871335D01*
X158112193Y-71871386D01*
X158051899Y-71896408D01*
X158051753Y-71896469D01*
X157984413Y-71924313D01*
X157983098Y-71924961D01*
X157853621Y-71978695D01*
X157853496Y-71978739D01*
X157806720Y-71998157D01*
X157789083Y-72005480D01*
X157788678Y-72005648D01*
X157788668Y-72005652D01*
X157725335Y-72031937D01*
X157676780Y-72069256D01*
X157676771Y-72069263D01*
X157615001Y-72116728D01*
X157614894Y-72116821D01*
X157446223Y-72246462D01*
X157446080Y-72246572D01*
X157393937Y-72286528D01*
X157393774Y-72286692D01*
X157393570Y-72286897D01*
X157393428Y-72287038D01*
X157353652Y-72338961D01*
X157353541Y-72339105D01*
X157223756Y-72508010D01*
X157223520Y-72508280D01*
X157180024Y-72564925D01*
X157180001Y-72564955D01*
X157138641Y-72618782D01*
X157138580Y-72618888D01*
X157115037Y-72675670D01*
X157115023Y-72675705D01*
X157085250Y-72747448D01*
X157085132Y-72747793D01*
X157031624Y-72876844D01*
X157030955Y-72878204D01*
X157003430Y-72944843D01*
X157003367Y-72944996D01*
X156978093Y-73005954D01*
X156977925Y-73006578D01*
X156969508Y-73071006D01*
X156969487Y-73071169D01*
X156959907Y-73143738D01*
X156959808Y-73145259D01*
X156932270Y-73356065D01*
X156932245Y-73356258D01*
X156923649Y-73421259D01*
X156129565Y-73421259D01*
X156140620Y-73192247D01*
X156141785Y-73180266D01*
X156173993Y-72960630D01*
X156176362Y-72948642D01*
X156230438Y-72731828D01*
X156233964Y-72720170D01*
X156309083Y-72509852D01*
X156313775Y-72498522D01*
X156409358Y-72296677D01*
X156415090Y-72285970D01*
X156530089Y-72094442D01*
X156536837Y-72084359D01*
X156670273Y-71904711D01*
X156677937Y-71895381D01*
X156828251Y-71729604D01*
X156836793Y-71721061D01*
X157002280Y-71570984D01*
X157011621Y-71563311D01*
X157190918Y-71430138D01*
X157200958Y-71423415D01*
X157391811Y-71308692D01*
X157402574Y-71302924D01*
X157604712Y-71207122D01*
X157616010Y-71202436D01*
X157825747Y-71127365D01*
X157837474Y-71123811D01*
X158053245Y-71069899D01*
X158065180Y-71067535D01*
X158286222Y-71034956D01*
X158298273Y-71033778D01*
X158522594Y-71022892D01*
X158534532Y-71022890D01*
X158757914Y-71033642D01*
G37*
%TD.AperFunction*%
M02*
