%TF.GenerationSoftware,KiCad,Pcbnew,8.0.2*%
%TF.CreationDate,2024-10-14T14:12:18+09:00*%
%TF.ProjectId,plate,706c6174-652e-46b6-9963-61645f706362,rev?*%
%TF.SameCoordinates,Original*%
%TF.FileFunction,Profile,NP*%
%FSLAX46Y46*%
G04 Gerber Fmt 4.6, Leading zero omitted, Abs format (unit mm)*
G04 Created by KiCad (PCBNEW 8.0.2) date 2024-10-14 14:12:18*
%MOMM*%
%LPD*%
G01*
G04 APERTURE LIST*
%TA.AperFunction,Profile*%
%ADD10C,0.100000*%
%TD*%
G04 APERTURE END LIST*
D10*
X133853470Y-131458000D02*
X133853470Y-131755000D01*
X133853470Y-131160400D02*
X133853470Y-131458000D01*
X133853470Y-130862900D02*
X133853470Y-131160400D01*
X133853470Y-130564700D02*
X133853470Y-130862900D01*
X133853470Y-130267400D02*
X133853470Y-130564700D01*
X133853470Y-129969400D02*
X133853470Y-130267400D01*
X133853470Y-129671100D02*
X133853470Y-129969400D01*
X133853470Y-129372600D02*
X133853470Y-129671100D01*
X133853470Y-129075200D02*
X133853470Y-129372600D01*
X133853470Y-128777200D02*
X133853470Y-129075200D01*
X133853470Y-128479100D02*
X133853470Y-128777200D01*
X133853470Y-128181800D02*
X133853470Y-128479100D01*
X133853470Y-127883100D02*
X133853470Y-128181800D01*
X133853470Y-127584600D02*
X133853470Y-127883100D01*
X133853470Y-127287500D02*
X133853470Y-127584600D01*
X133853470Y-126988900D02*
X133853470Y-127287500D01*
X133853470Y-126690800D02*
X133853470Y-126988900D01*
X133853470Y-126393100D02*
X133853470Y-126690800D01*
X133853470Y-126095500D02*
X133853470Y-126393100D01*
X133853470Y-125797000D02*
X133853470Y-126095500D01*
X133853470Y-125499200D02*
X133853470Y-125797000D01*
X133853470Y-125200700D02*
X133853470Y-125499200D01*
X133853470Y-124902700D02*
X133853470Y-125200700D01*
X133853470Y-124605000D02*
X133853470Y-124902700D01*
X133853470Y-124307300D02*
X133853470Y-124605000D01*
X133853470Y-124009000D02*
X133853470Y-124307300D01*
X133853470Y-123710900D02*
X133853470Y-124009000D01*
X133853470Y-123414000D02*
X133853470Y-123710900D01*
X133853470Y-123116100D02*
X133853470Y-123414000D01*
X133853470Y-122818000D02*
X133853470Y-123116100D01*
X133853470Y-122520400D02*
X133853470Y-122818000D01*
X133853470Y-122222600D02*
X133853470Y-122520400D01*
X133853470Y-121923800D02*
X133853470Y-122222600D01*
X133853470Y-121626400D02*
X133853470Y-121923800D01*
X133853470Y-121328300D02*
X133853470Y-121626400D01*
X133853470Y-121030300D02*
X133853470Y-121328300D01*
X133853470Y-120732100D02*
X133853470Y-121030300D01*
X133853470Y-120435100D02*
X133853470Y-120732100D01*
X133853470Y-120137600D02*
X133853470Y-120435100D01*
X133853470Y-119840100D02*
X133853470Y-120137600D01*
X133853470Y-119542400D02*
X133853470Y-119840100D01*
X133853470Y-119244900D02*
X133853470Y-119542400D01*
X133853470Y-118947300D02*
X133853470Y-119244900D01*
X133853470Y-118648400D02*
X133853470Y-118947300D01*
X133853470Y-118350700D02*
X133853470Y-118648400D01*
X133853470Y-118052300D02*
X133853470Y-118350700D01*
X133853470Y-117755000D02*
X133853470Y-118052300D01*
X133556470Y-117755000D02*
X133853470Y-117755000D01*
X133258870Y-117755000D02*
X133556470Y-117755000D01*
X132961470Y-117755000D02*
X133258870Y-117755000D01*
X132663170Y-117755000D02*
X132961470Y-117755000D01*
X132365870Y-117755000D02*
X132663170Y-117755000D01*
X132067870Y-117755000D02*
X132365870Y-117755000D01*
X131769570Y-117755000D02*
X132067870Y-117755000D01*
X131471070Y-117755000D02*
X131769570Y-117755000D01*
X131173670Y-117755000D02*
X131471070Y-117755000D01*
X130875670Y-117755000D02*
X131173670Y-117755000D01*
X130577570Y-117755000D02*
X130875670Y-117755000D01*
X130280270Y-117755000D02*
X130577570Y-117755000D01*
X129981570Y-117755000D02*
X130280270Y-117755000D01*
X129683070Y-117755000D02*
X129981570Y-117755000D01*
X129385970Y-117755000D02*
X129683070Y-117755000D01*
X129087370Y-117755000D02*
X129385970Y-117755000D01*
X128789270Y-117755000D02*
X129087370Y-117755000D01*
X128491570Y-117755000D02*
X128789270Y-117755000D01*
X128193970Y-117755000D02*
X128491570Y-117755000D01*
X127895470Y-117755000D02*
X128193970Y-117755000D01*
X127597670Y-117755000D02*
X127895470Y-117755000D01*
X127299170Y-117755000D02*
X127597670Y-117755000D01*
X127001170Y-117755000D02*
X127299170Y-117755000D01*
X126703470Y-117755000D02*
X127001170Y-117755000D01*
X126405770Y-117755000D02*
X126703470Y-117755000D01*
X126107470Y-117755000D02*
X126405770Y-117755000D01*
X125809370Y-117755000D02*
X126107470Y-117755000D01*
X125512470Y-117755000D02*
X125809370Y-117755000D01*
X125214570Y-117755000D02*
X125512470Y-117755000D01*
X124916470Y-117755000D02*
X125214570Y-117755000D01*
X124618870Y-117755000D02*
X124916470Y-117755000D01*
X124321070Y-117755000D02*
X124618870Y-117755000D01*
X124022270Y-117755000D02*
X124321070Y-117755000D01*
X123724870Y-117755000D02*
X124022270Y-117755000D01*
X123426770Y-117755000D02*
X123724870Y-117755000D01*
X123128770Y-117755000D02*
X123426770Y-117755000D01*
X122830670Y-117755000D02*
X123128770Y-117755000D01*
X122533570Y-117755000D02*
X122830670Y-117755000D01*
X122236070Y-117755000D02*
X122533570Y-117755000D01*
X121938570Y-117755000D02*
X122236070Y-117755000D01*
X121640870Y-117755000D02*
X121938570Y-117755000D01*
X121343370Y-117755000D02*
X121640870Y-117755000D01*
X121045770Y-117755000D02*
X121343370Y-117755000D01*
X120746870Y-117755000D02*
X121045770Y-117755000D01*
X120449170Y-117755000D02*
X120746870Y-117755000D01*
X120150770Y-117755000D02*
X120449170Y-117755000D01*
X119853470Y-117755000D02*
X120150770Y-117755000D01*
X119853470Y-118052000D02*
X119853470Y-117755000D01*
X119853470Y-118349700D02*
X119853470Y-118052000D01*
X119853470Y-118647100D02*
X119853470Y-118349700D01*
X119853470Y-118945400D02*
X119853470Y-118647100D01*
X119853470Y-119242700D02*
X119853470Y-118945400D01*
X119853470Y-119540700D02*
X119853470Y-119242700D01*
X119853470Y-119838900D02*
X119853470Y-119540700D01*
X119853470Y-120137500D02*
X119853470Y-119838900D01*
X119853470Y-120434800D02*
X119853470Y-120137500D01*
X119853470Y-120732900D02*
X119853470Y-120434800D01*
X119853470Y-121030900D02*
X119853470Y-120732900D01*
X119853470Y-121328200D02*
X119853470Y-121030900D01*
X119853470Y-121627000D02*
X119853470Y-121328200D01*
X119853470Y-121925500D02*
X119853470Y-121627000D01*
X119853470Y-122222500D02*
X119853470Y-121925500D01*
X119853470Y-122521200D02*
X119853470Y-122222500D01*
X119853470Y-122819300D02*
X119853470Y-122521200D01*
X119853470Y-123116900D02*
X119853470Y-122819300D01*
X119853470Y-123414600D02*
X119853470Y-123116900D01*
X119853470Y-123713000D02*
X119853470Y-123414600D01*
X119853470Y-124010900D02*
X119853470Y-123713000D01*
X119853470Y-124309400D02*
X119853470Y-124010900D01*
X119853470Y-124607300D02*
X119853470Y-124309400D01*
X119853470Y-124905000D02*
X119853470Y-124607300D01*
X119853470Y-125202800D02*
X119853470Y-124905000D01*
X119853470Y-125501100D02*
X119853470Y-125202800D01*
X119853470Y-125799100D02*
X119853470Y-125501100D01*
X119853470Y-126096000D02*
X119853470Y-125799100D01*
X119853470Y-126393900D02*
X119853470Y-126096000D01*
X119853470Y-126692000D02*
X119853470Y-126393900D01*
X119853470Y-126989600D02*
X119853470Y-126692000D01*
X119853470Y-127287500D02*
X119853470Y-126989600D01*
X119853470Y-127586200D02*
X119853470Y-127287500D01*
X119853470Y-127883600D02*
X119853470Y-127586200D01*
X119853470Y-128181800D02*
X119853470Y-127883600D01*
X119853470Y-128479700D02*
X119853470Y-128181800D01*
X119853470Y-128777900D02*
X119853470Y-128479700D01*
X119853470Y-129075000D02*
X119853470Y-128777900D01*
X119853470Y-129372500D02*
X119853470Y-129075000D01*
X119853470Y-129669900D02*
X119853470Y-129372500D01*
X119853470Y-129967700D02*
X119853470Y-129669900D01*
X119853470Y-130265100D02*
X119853470Y-129967700D01*
X119853470Y-130562800D02*
X119853470Y-130265100D01*
X119853470Y-130861600D02*
X119853470Y-130562800D01*
X119853470Y-131159400D02*
X119853470Y-130861600D01*
X119853470Y-131457800D02*
X119853470Y-131159400D01*
X119853470Y-131755000D02*
X119853470Y-131457800D01*
X120150470Y-131755000D02*
X119853470Y-131755000D01*
X120448170Y-131755000D02*
X120150470Y-131755000D01*
X120745570Y-131755000D02*
X120448170Y-131755000D01*
X121043870Y-131755000D02*
X120745570Y-131755000D01*
X121341170Y-131755000D02*
X121043870Y-131755000D01*
X121639170Y-131755000D02*
X121341170Y-131755000D01*
X121937370Y-131755000D02*
X121639170Y-131755000D01*
X122235970Y-131755000D02*
X121937370Y-131755000D01*
X122533270Y-131755000D02*
X122235970Y-131755000D01*
X122831370Y-131755000D02*
X122533270Y-131755000D01*
X123129370Y-131755000D02*
X122831370Y-131755000D01*
X123426670Y-131755000D02*
X123129370Y-131755000D01*
X123725470Y-131755000D02*
X123426670Y-131755000D01*
X124023970Y-131755000D02*
X123725470Y-131755000D01*
X124321070Y-131755000D02*
X124023970Y-131755000D01*
X124619670Y-131755000D02*
X124321070Y-131755000D01*
X124917770Y-131755000D02*
X124619670Y-131755000D01*
X125215370Y-131755000D02*
X124917770Y-131755000D01*
X125513070Y-131755000D02*
X125215370Y-131755000D01*
X125811470Y-131755000D02*
X125513070Y-131755000D01*
X126109370Y-131755000D02*
X125811470Y-131755000D01*
X126407870Y-131755000D02*
X126109370Y-131755000D01*
X126705770Y-131755000D02*
X126407870Y-131755000D01*
X127003470Y-131755000D02*
X126705770Y-131755000D01*
X127301270Y-131755000D02*
X127003470Y-131755000D01*
X127599570Y-131755000D02*
X127301270Y-131755000D01*
X127897570Y-131755000D02*
X127599570Y-131755000D01*
X128194470Y-131755000D02*
X127897570Y-131755000D01*
X128492370Y-131755000D02*
X128194470Y-131755000D01*
X128790470Y-131755000D02*
X128492370Y-131755000D01*
X129088070Y-131755000D02*
X128790470Y-131755000D01*
X129385970Y-131755000D02*
X129088070Y-131755000D01*
X129684670Y-131755000D02*
X129385970Y-131755000D01*
X129982070Y-131755000D02*
X129684670Y-131755000D01*
X130280270Y-131755000D02*
X129982070Y-131755000D01*
X130578170Y-131755000D02*
X130280270Y-131755000D01*
X130876370Y-131755000D02*
X130578170Y-131755000D01*
X131173470Y-131755000D02*
X130876370Y-131755000D01*
X131470970Y-131755000D02*
X131173470Y-131755000D01*
X131768370Y-131755000D02*
X131470970Y-131755000D01*
X132066170Y-131755000D02*
X131768370Y-131755000D01*
X132363570Y-131755000D02*
X132066170Y-131755000D01*
X132661270Y-131755000D02*
X132363570Y-131755000D01*
X132960070Y-131755000D02*
X132661270Y-131755000D01*
X133257870Y-131755000D02*
X132960070Y-131755000D01*
X133556270Y-131755000D02*
X133257870Y-131755000D01*
X133853470Y-131755000D02*
X133556270Y-131755000D01*
X133853470Y-112408000D02*
X133853470Y-112705000D01*
X133853470Y-112110400D02*
X133853470Y-112408000D01*
X133853470Y-111812900D02*
X133853470Y-112110400D01*
X133853470Y-111514700D02*
X133853470Y-111812900D01*
X133853470Y-111217400D02*
X133853470Y-111514700D01*
X133853470Y-110919400D02*
X133853470Y-111217400D01*
X133853470Y-110621100D02*
X133853470Y-110919400D01*
X133853470Y-110322600D02*
X133853470Y-110621100D01*
X133853470Y-110025200D02*
X133853470Y-110322600D01*
X133853470Y-109727200D02*
X133853470Y-110025200D01*
X133853470Y-109429100D02*
X133853470Y-109727200D01*
X133853470Y-109131800D02*
X133853470Y-109429100D01*
X133853470Y-108833100D02*
X133853470Y-109131800D01*
X133853470Y-108534600D02*
X133853470Y-108833100D01*
X133853470Y-108237500D02*
X133853470Y-108534600D01*
X133853470Y-107938900D02*
X133853470Y-108237500D01*
X133853470Y-107640800D02*
X133853470Y-107938900D01*
X133853470Y-107343100D02*
X133853470Y-107640800D01*
X133853470Y-107045500D02*
X133853470Y-107343100D01*
X133853470Y-106747000D02*
X133853470Y-107045500D01*
X133853470Y-106449200D02*
X133853470Y-106747000D01*
X133853470Y-106150700D02*
X133853470Y-106449200D01*
X133853470Y-105852700D02*
X133853470Y-106150700D01*
X133853470Y-105555000D02*
X133853470Y-105852700D01*
X133853470Y-105257300D02*
X133853470Y-105555000D01*
X133853470Y-104959000D02*
X133853470Y-105257300D01*
X133853470Y-104660900D02*
X133853470Y-104959000D01*
X133853470Y-104364000D02*
X133853470Y-104660900D01*
X133853470Y-104066100D02*
X133853470Y-104364000D01*
X133853470Y-103768000D02*
X133853470Y-104066100D01*
X133853470Y-103470400D02*
X133853470Y-103768000D01*
X133853470Y-103172600D02*
X133853470Y-103470400D01*
X133853470Y-102873800D02*
X133853470Y-103172600D01*
X133853470Y-102576400D02*
X133853470Y-102873800D01*
X133853470Y-102278300D02*
X133853470Y-102576400D01*
X133853470Y-101980300D02*
X133853470Y-102278300D01*
X133853470Y-101682100D02*
X133853470Y-101980300D01*
X133853470Y-101385100D02*
X133853470Y-101682100D01*
X133853470Y-101087600D02*
X133853470Y-101385100D01*
X133853470Y-100790100D02*
X133853470Y-101087600D01*
X133853470Y-100492400D02*
X133853470Y-100790100D01*
X133853470Y-100194900D02*
X133853470Y-100492400D01*
X133853470Y-99897300D02*
X133853470Y-100194900D01*
X133853470Y-99598400D02*
X133853470Y-99897300D01*
X133853470Y-99300700D02*
X133853470Y-99598400D01*
X133853470Y-99002300D02*
X133853470Y-99300700D01*
X133853470Y-98705000D02*
X133853470Y-99002300D01*
X133556470Y-98705000D02*
X133853470Y-98705000D01*
X133258870Y-98705000D02*
X133556470Y-98705000D01*
X132961470Y-98705000D02*
X133258870Y-98705000D01*
X132663170Y-98705000D02*
X132961470Y-98705000D01*
X132365870Y-98705000D02*
X132663170Y-98705000D01*
X132067870Y-98705000D02*
X132365870Y-98705000D01*
X131769570Y-98705000D02*
X132067870Y-98705000D01*
X131471070Y-98705000D02*
X131769570Y-98705000D01*
X131173670Y-98705000D02*
X131471070Y-98705000D01*
X130875670Y-98705000D02*
X131173670Y-98705000D01*
X130577570Y-98705000D02*
X130875670Y-98705000D01*
X130280270Y-98705000D02*
X130577570Y-98705000D01*
X129981570Y-98705000D02*
X130280270Y-98705000D01*
X129683070Y-98705000D02*
X129981570Y-98705000D01*
X129385970Y-98705000D02*
X129683070Y-98705000D01*
X129087370Y-98705000D02*
X129385970Y-98705000D01*
X128789270Y-98705000D02*
X129087370Y-98705000D01*
X128491570Y-98705000D02*
X128789270Y-98705000D01*
X128193970Y-98705000D02*
X128491570Y-98705000D01*
X127895470Y-98705000D02*
X128193970Y-98705000D01*
X127597670Y-98705000D02*
X127895470Y-98705000D01*
X127299170Y-98705000D02*
X127597670Y-98705000D01*
X127001170Y-98705000D02*
X127299170Y-98705000D01*
X126703470Y-98705000D02*
X127001170Y-98705000D01*
X126405770Y-98705000D02*
X126703470Y-98705000D01*
X126107470Y-98705000D02*
X126405770Y-98705000D01*
X125809370Y-98705000D02*
X126107470Y-98705000D01*
X125512470Y-98705000D02*
X125809370Y-98705000D01*
X125214570Y-98705000D02*
X125512470Y-98705000D01*
X124916470Y-98705000D02*
X125214570Y-98705000D01*
X124618870Y-98705000D02*
X124916470Y-98705000D01*
X124321070Y-98705000D02*
X124618870Y-98705000D01*
X124022270Y-98705000D02*
X124321070Y-98705000D01*
X123724870Y-98705000D02*
X124022270Y-98705000D01*
X123426770Y-98705000D02*
X123724870Y-98705000D01*
X123128770Y-98705000D02*
X123426770Y-98705000D01*
X122830670Y-98705000D02*
X123128770Y-98705000D01*
X122533570Y-98705000D02*
X122830670Y-98705000D01*
X122236070Y-98705000D02*
X122533570Y-98705000D01*
X121938570Y-98705000D02*
X122236070Y-98705000D01*
X121640870Y-98705000D02*
X121938570Y-98705000D01*
X121343370Y-98705000D02*
X121640870Y-98705000D01*
X121045770Y-98705000D02*
X121343370Y-98705000D01*
X120746870Y-98705000D02*
X121045770Y-98705000D01*
X120449170Y-98705000D02*
X120746870Y-98705000D01*
X120150770Y-98705000D02*
X120449170Y-98705000D01*
X119853470Y-98705000D02*
X120150770Y-98705000D01*
X119853470Y-99002000D02*
X119853470Y-98705000D01*
X119853470Y-99299700D02*
X119853470Y-99002000D01*
X119853470Y-99597100D02*
X119853470Y-99299700D01*
X119853470Y-99895400D02*
X119853470Y-99597100D01*
X119853470Y-100192700D02*
X119853470Y-99895400D01*
X119853470Y-100490700D02*
X119853470Y-100192700D01*
X119853470Y-100788900D02*
X119853470Y-100490700D01*
X119853470Y-101087500D02*
X119853470Y-100788900D01*
X119853470Y-101384800D02*
X119853470Y-101087500D01*
X119853470Y-101682900D02*
X119853470Y-101384800D01*
X119853470Y-101980900D02*
X119853470Y-101682900D01*
X119853470Y-102278200D02*
X119853470Y-101980900D01*
X119853470Y-102577000D02*
X119853470Y-102278200D01*
X119853470Y-102875500D02*
X119853470Y-102577000D01*
X119853470Y-103172500D02*
X119853470Y-102875500D01*
X119853470Y-103471200D02*
X119853470Y-103172500D01*
X119853470Y-103769300D02*
X119853470Y-103471200D01*
X119853470Y-104066900D02*
X119853470Y-103769300D01*
X119853470Y-104364600D02*
X119853470Y-104066900D01*
X119853470Y-104663000D02*
X119853470Y-104364600D01*
X119853470Y-104960900D02*
X119853470Y-104663000D01*
X119853470Y-105259400D02*
X119853470Y-104960900D01*
X119853470Y-105557300D02*
X119853470Y-105259400D01*
X119853470Y-105855000D02*
X119853470Y-105557300D01*
X119853470Y-106152800D02*
X119853470Y-105855000D01*
X119853470Y-106451100D02*
X119853470Y-106152800D01*
X119853470Y-106749100D02*
X119853470Y-106451100D01*
X119853470Y-107046000D02*
X119853470Y-106749100D01*
X119853470Y-107343900D02*
X119853470Y-107046000D01*
X119853470Y-107642000D02*
X119853470Y-107343900D01*
X119853470Y-107939600D02*
X119853470Y-107642000D01*
X119853470Y-108237500D02*
X119853470Y-107939600D01*
X119853470Y-108536200D02*
X119853470Y-108237500D01*
X119853470Y-108833600D02*
X119853470Y-108536200D01*
X119853470Y-109131800D02*
X119853470Y-108833600D01*
X119853470Y-109429700D02*
X119853470Y-109131800D01*
X119853470Y-109727900D02*
X119853470Y-109429700D01*
X119853470Y-110025000D02*
X119853470Y-109727900D01*
X119853470Y-110322500D02*
X119853470Y-110025000D01*
X119853470Y-110619900D02*
X119853470Y-110322500D01*
X119853470Y-110917700D02*
X119853470Y-110619900D01*
X119853470Y-111215100D02*
X119853470Y-110917700D01*
X119853470Y-111512800D02*
X119853470Y-111215100D01*
X119853470Y-111811600D02*
X119853470Y-111512800D01*
X119853470Y-112109400D02*
X119853470Y-111811600D01*
X119853470Y-112407800D02*
X119853470Y-112109400D01*
X119853470Y-112705000D02*
X119853470Y-112407800D01*
X120150470Y-112705000D02*
X119853470Y-112705000D01*
X120448170Y-112705000D02*
X120150470Y-112705000D01*
X120745570Y-112705000D02*
X120448170Y-112705000D01*
X121043870Y-112705000D02*
X120745570Y-112705000D01*
X121341170Y-112705000D02*
X121043870Y-112705000D01*
X121639170Y-112705000D02*
X121341170Y-112705000D01*
X121937370Y-112705000D02*
X121639170Y-112705000D01*
X122235970Y-112705000D02*
X121937370Y-112705000D01*
X122533270Y-112705000D02*
X122235970Y-112705000D01*
X122831370Y-112705000D02*
X122533270Y-112705000D01*
X123129370Y-112705000D02*
X122831370Y-112705000D01*
X123426670Y-112705000D02*
X123129370Y-112705000D01*
X123725470Y-112705000D02*
X123426670Y-112705000D01*
X124023970Y-112705000D02*
X123725470Y-112705000D01*
X124321070Y-112705000D02*
X124023970Y-112705000D01*
X124619670Y-112705000D02*
X124321070Y-112705000D01*
X124917770Y-112705000D02*
X124619670Y-112705000D01*
X125215370Y-112705000D02*
X124917770Y-112705000D01*
X125513070Y-112705000D02*
X125215370Y-112705000D01*
X125811470Y-112705000D02*
X125513070Y-112705000D01*
X126109370Y-112705000D02*
X125811470Y-112705000D01*
X126407870Y-112705000D02*
X126109370Y-112705000D01*
X126705770Y-112705000D02*
X126407870Y-112705000D01*
X127003470Y-112705000D02*
X126705770Y-112705000D01*
X127301270Y-112705000D02*
X127003470Y-112705000D01*
X127599570Y-112705000D02*
X127301270Y-112705000D01*
X127897570Y-112705000D02*
X127599570Y-112705000D01*
X128194470Y-112705000D02*
X127897570Y-112705000D01*
X128492370Y-112705000D02*
X128194470Y-112705000D01*
X128790470Y-112705000D02*
X128492370Y-112705000D01*
X129088070Y-112705000D02*
X128790470Y-112705000D01*
X129385970Y-112705000D02*
X129088070Y-112705000D01*
X129684670Y-112705000D02*
X129385970Y-112705000D01*
X129982070Y-112705000D02*
X129684670Y-112705000D01*
X130280270Y-112705000D02*
X129982070Y-112705000D01*
X130578170Y-112705000D02*
X130280270Y-112705000D01*
X130876370Y-112705000D02*
X130578170Y-112705000D01*
X131173470Y-112705000D02*
X130876370Y-112705000D01*
X131470970Y-112705000D02*
X131173470Y-112705000D01*
X131768370Y-112705000D02*
X131470970Y-112705000D01*
X132066170Y-112705000D02*
X131768370Y-112705000D01*
X132363570Y-112705000D02*
X132066170Y-112705000D01*
X132661270Y-112705000D02*
X132363570Y-112705000D01*
X132960070Y-112705000D02*
X132661270Y-112705000D01*
X133257870Y-112705000D02*
X132960070Y-112705000D01*
X133556270Y-112705000D02*
X133257870Y-112705000D01*
X133853470Y-112705000D02*
X133556270Y-112705000D01*
X152903470Y-93358000D02*
X152903470Y-93655000D01*
X152903470Y-93060400D02*
X152903470Y-93358000D01*
X152903470Y-92762900D02*
X152903470Y-93060400D01*
X152903470Y-92464700D02*
X152903470Y-92762900D01*
X152903470Y-92167400D02*
X152903470Y-92464700D01*
X152903470Y-91869400D02*
X152903470Y-92167400D01*
X152903470Y-91571100D02*
X152903470Y-91869400D01*
X152903470Y-91272600D02*
X152903470Y-91571100D01*
X152903470Y-90975200D02*
X152903470Y-91272600D01*
X152903470Y-90677200D02*
X152903470Y-90975200D01*
X152903470Y-90379100D02*
X152903470Y-90677200D01*
X152903470Y-90081800D02*
X152903470Y-90379100D01*
X152903470Y-89783100D02*
X152903470Y-90081800D01*
X152903470Y-89484600D02*
X152903470Y-89783100D01*
X152903470Y-89187500D02*
X152903470Y-89484600D01*
X152903470Y-88888900D02*
X152903470Y-89187500D01*
X152903470Y-88590800D02*
X152903470Y-88888900D01*
X152903470Y-88293100D02*
X152903470Y-88590800D01*
X152903470Y-87995500D02*
X152903470Y-88293100D01*
X152903470Y-87697000D02*
X152903470Y-87995500D01*
X152903470Y-87399200D02*
X152903470Y-87697000D01*
X152903470Y-87100700D02*
X152903470Y-87399200D01*
X152903470Y-86802700D02*
X152903470Y-87100700D01*
X152903470Y-86505000D02*
X152903470Y-86802700D01*
X152903470Y-86207300D02*
X152903470Y-86505000D01*
X152903470Y-85909000D02*
X152903470Y-86207300D01*
X152903470Y-85610900D02*
X152903470Y-85909000D01*
X152903470Y-85314000D02*
X152903470Y-85610900D01*
X152903470Y-85016100D02*
X152903470Y-85314000D01*
X152903470Y-84718000D02*
X152903470Y-85016100D01*
X152903470Y-84420400D02*
X152903470Y-84718000D01*
X152903470Y-84122600D02*
X152903470Y-84420400D01*
X152903470Y-83823800D02*
X152903470Y-84122600D01*
X152903470Y-83526400D02*
X152903470Y-83823800D01*
X152903470Y-83228300D02*
X152903470Y-83526400D01*
X152903470Y-82930300D02*
X152903470Y-83228300D01*
X152903470Y-82632100D02*
X152903470Y-82930300D01*
X152903470Y-82335100D02*
X152903470Y-82632100D01*
X152903470Y-82037600D02*
X152903470Y-82335100D01*
X152903470Y-81740100D02*
X152903470Y-82037600D01*
X152903470Y-81442400D02*
X152903470Y-81740100D01*
X152903470Y-81144900D02*
X152903470Y-81442400D01*
X152903470Y-80847300D02*
X152903470Y-81144900D01*
X152903470Y-80548400D02*
X152903470Y-80847300D01*
X152903470Y-80250700D02*
X152903470Y-80548400D01*
X152903470Y-79952300D02*
X152903470Y-80250700D01*
X152903470Y-79655000D02*
X152903470Y-79952300D01*
X152606470Y-79655000D02*
X152903470Y-79655000D01*
X152308870Y-79655000D02*
X152606470Y-79655000D01*
X152011470Y-79655000D02*
X152308870Y-79655000D01*
X151713170Y-79655000D02*
X152011470Y-79655000D01*
X151415870Y-79655000D02*
X151713170Y-79655000D01*
X151117870Y-79655000D02*
X151415870Y-79655000D01*
X150819570Y-79655000D02*
X151117870Y-79655000D01*
X150521070Y-79655000D02*
X150819570Y-79655000D01*
X150223670Y-79655000D02*
X150521070Y-79655000D01*
X149925670Y-79655000D02*
X150223670Y-79655000D01*
X149627570Y-79655000D02*
X149925670Y-79655000D01*
X149330270Y-79655000D02*
X149627570Y-79655000D01*
X149031570Y-79655000D02*
X149330270Y-79655000D01*
X148733070Y-79655000D02*
X149031570Y-79655000D01*
X148435970Y-79655000D02*
X148733070Y-79655000D01*
X148137370Y-79655000D02*
X148435970Y-79655000D01*
X147839270Y-79655000D02*
X148137370Y-79655000D01*
X147541570Y-79655000D02*
X147839270Y-79655000D01*
X147243970Y-79655000D02*
X147541570Y-79655000D01*
X146945470Y-79655000D02*
X147243970Y-79655000D01*
X146647670Y-79655000D02*
X146945470Y-79655000D01*
X146349170Y-79655000D02*
X146647670Y-79655000D01*
X146051170Y-79655000D02*
X146349170Y-79655000D01*
X145753470Y-79655000D02*
X146051170Y-79655000D01*
X145455770Y-79655000D02*
X145753470Y-79655000D01*
X145157470Y-79655000D02*
X145455770Y-79655000D01*
X144859370Y-79655000D02*
X145157470Y-79655000D01*
X144562470Y-79655000D02*
X144859370Y-79655000D01*
X144264570Y-79655000D02*
X144562470Y-79655000D01*
X143966470Y-79655000D02*
X144264570Y-79655000D01*
X143668870Y-79655000D02*
X143966470Y-79655000D01*
X143371070Y-79655000D02*
X143668870Y-79655000D01*
X143072270Y-79655000D02*
X143371070Y-79655000D01*
X142774870Y-79655000D02*
X143072270Y-79655000D01*
X142476770Y-79655000D02*
X142774870Y-79655000D01*
X142178770Y-79655000D02*
X142476770Y-79655000D01*
X141880670Y-79655000D02*
X142178770Y-79655000D01*
X141583570Y-79655000D02*
X141880670Y-79655000D01*
X141286070Y-79655000D02*
X141583570Y-79655000D01*
X140988570Y-79655000D02*
X141286070Y-79655000D01*
X140690870Y-79655000D02*
X140988570Y-79655000D01*
X140393370Y-79655000D02*
X140690870Y-79655000D01*
X140095770Y-79655000D02*
X140393370Y-79655000D01*
X139796870Y-79655000D02*
X140095770Y-79655000D01*
X139499170Y-79655000D02*
X139796870Y-79655000D01*
X139200770Y-79655000D02*
X139499170Y-79655000D01*
X138903470Y-79655000D02*
X139200770Y-79655000D01*
X138903470Y-79952000D02*
X138903470Y-79655000D01*
X138903470Y-80249700D02*
X138903470Y-79952000D01*
X138903470Y-80547100D02*
X138903470Y-80249700D01*
X138903470Y-80845400D02*
X138903470Y-80547100D01*
X138903470Y-81142700D02*
X138903470Y-80845400D01*
X138903470Y-81440700D02*
X138903470Y-81142700D01*
X138903470Y-81738900D02*
X138903470Y-81440700D01*
X138903470Y-82037500D02*
X138903470Y-81738900D01*
X138903470Y-82334800D02*
X138903470Y-82037500D01*
X138903470Y-82632900D02*
X138903470Y-82334800D01*
X138903470Y-82930900D02*
X138903470Y-82632900D01*
X138903470Y-83228200D02*
X138903470Y-82930900D01*
X138903470Y-83527000D02*
X138903470Y-83228200D01*
X138903470Y-83825500D02*
X138903470Y-83527000D01*
X138903470Y-84122500D02*
X138903470Y-83825500D01*
X138903470Y-84421200D02*
X138903470Y-84122500D01*
X138903470Y-84719300D02*
X138903470Y-84421200D01*
X138903470Y-85016900D02*
X138903470Y-84719300D01*
X138903470Y-85314600D02*
X138903470Y-85016900D01*
X138903470Y-85613000D02*
X138903470Y-85314600D01*
X138903470Y-85910900D02*
X138903470Y-85613000D01*
X138903470Y-86209400D02*
X138903470Y-85910900D01*
X138903470Y-86507300D02*
X138903470Y-86209400D01*
X138903470Y-86805000D02*
X138903470Y-86507300D01*
X138903470Y-87102800D02*
X138903470Y-86805000D01*
X138903470Y-87401100D02*
X138903470Y-87102800D01*
X138903470Y-87699100D02*
X138903470Y-87401100D01*
X138903470Y-87996000D02*
X138903470Y-87699100D01*
X138903470Y-88293900D02*
X138903470Y-87996000D01*
X138903470Y-88592000D02*
X138903470Y-88293900D01*
X138903470Y-88889600D02*
X138903470Y-88592000D01*
X138903470Y-89187500D02*
X138903470Y-88889600D01*
X138903470Y-89486200D02*
X138903470Y-89187500D01*
X138903470Y-89783600D02*
X138903470Y-89486200D01*
X138903470Y-90081800D02*
X138903470Y-89783600D01*
X138903470Y-90379700D02*
X138903470Y-90081800D01*
X138903470Y-90677900D02*
X138903470Y-90379700D01*
X138903470Y-90975000D02*
X138903470Y-90677900D01*
X138903470Y-91272500D02*
X138903470Y-90975000D01*
X138903470Y-91569900D02*
X138903470Y-91272500D01*
X138903470Y-91867700D02*
X138903470Y-91569900D01*
X138903470Y-92165100D02*
X138903470Y-91867700D01*
X138903470Y-92462800D02*
X138903470Y-92165100D01*
X138903470Y-92761600D02*
X138903470Y-92462800D01*
X138903470Y-93059400D02*
X138903470Y-92761600D01*
X138903470Y-93357800D02*
X138903470Y-93059400D01*
X138903470Y-93655000D02*
X138903470Y-93357800D01*
X139200470Y-93655000D02*
X138903470Y-93655000D01*
X139498170Y-93655000D02*
X139200470Y-93655000D01*
X139795570Y-93655000D02*
X139498170Y-93655000D01*
X140093870Y-93655000D02*
X139795570Y-93655000D01*
X140391170Y-93655000D02*
X140093870Y-93655000D01*
X140689170Y-93655000D02*
X140391170Y-93655000D01*
X140987370Y-93655000D02*
X140689170Y-93655000D01*
X141285970Y-93655000D02*
X140987370Y-93655000D01*
X141583270Y-93655000D02*
X141285970Y-93655000D01*
X141881370Y-93655000D02*
X141583270Y-93655000D01*
X142179370Y-93655000D02*
X141881370Y-93655000D01*
X142476670Y-93655000D02*
X142179370Y-93655000D01*
X142775470Y-93655000D02*
X142476670Y-93655000D01*
X143073970Y-93655000D02*
X142775470Y-93655000D01*
X143371070Y-93655000D02*
X143073970Y-93655000D01*
X143669670Y-93655000D02*
X143371070Y-93655000D01*
X143967770Y-93655000D02*
X143669670Y-93655000D01*
X144265370Y-93655000D02*
X143967770Y-93655000D01*
X144563070Y-93655000D02*
X144265370Y-93655000D01*
X144861470Y-93655000D02*
X144563070Y-93655000D01*
X145159370Y-93655000D02*
X144861470Y-93655000D01*
X145457870Y-93655000D02*
X145159370Y-93655000D01*
X145755770Y-93655000D02*
X145457870Y-93655000D01*
X146053470Y-93655000D02*
X145755770Y-93655000D01*
X146351270Y-93655000D02*
X146053470Y-93655000D01*
X146649570Y-93655000D02*
X146351270Y-93655000D01*
X146947570Y-93655000D02*
X146649570Y-93655000D01*
X147244470Y-93655000D02*
X146947570Y-93655000D01*
X147542370Y-93655000D02*
X147244470Y-93655000D01*
X147840470Y-93655000D02*
X147542370Y-93655000D01*
X148138070Y-93655000D02*
X147840470Y-93655000D01*
X148435970Y-93655000D02*
X148138070Y-93655000D01*
X148734670Y-93655000D02*
X148435970Y-93655000D01*
X149032070Y-93655000D02*
X148734670Y-93655000D01*
X149330270Y-93655000D02*
X149032070Y-93655000D01*
X149628170Y-93655000D02*
X149330270Y-93655000D01*
X149926370Y-93655000D02*
X149628170Y-93655000D01*
X150223470Y-93655000D02*
X149926370Y-93655000D01*
X150520970Y-93655000D02*
X150223470Y-93655000D01*
X150818370Y-93655000D02*
X150520970Y-93655000D01*
X151116170Y-93655000D02*
X150818370Y-93655000D01*
X151413570Y-93655000D02*
X151116170Y-93655000D01*
X151711270Y-93655000D02*
X151413570Y-93655000D01*
X152010070Y-93655000D02*
X151711270Y-93655000D01*
X152307870Y-93655000D02*
X152010070Y-93655000D01*
X152606270Y-93655000D02*
X152307870Y-93655000D01*
X152903470Y-93655000D02*
X152606270Y-93655000D01*
X171953470Y-93358000D02*
X171953470Y-93655000D01*
X171953470Y-93060400D02*
X171953470Y-93358000D01*
X171953470Y-92762900D02*
X171953470Y-93060400D01*
X171953470Y-92464700D02*
X171953470Y-92762900D01*
X171953470Y-92167400D02*
X171953470Y-92464700D01*
X171953470Y-91869400D02*
X171953470Y-92167400D01*
X171953470Y-91571100D02*
X171953470Y-91869400D01*
X171953470Y-91272600D02*
X171953470Y-91571100D01*
X171953470Y-90975200D02*
X171953470Y-91272600D01*
X171953470Y-90677200D02*
X171953470Y-90975200D01*
X171953470Y-90379100D02*
X171953470Y-90677200D01*
X171953470Y-90081800D02*
X171953470Y-90379100D01*
X171953470Y-89783100D02*
X171953470Y-90081800D01*
X171953470Y-89484600D02*
X171953470Y-89783100D01*
X171953470Y-89187500D02*
X171953470Y-89484600D01*
X171953470Y-88888900D02*
X171953470Y-89187500D01*
X171953470Y-88590800D02*
X171953470Y-88888900D01*
X171953470Y-88293100D02*
X171953470Y-88590800D01*
X171953470Y-87995500D02*
X171953470Y-88293100D01*
X171953470Y-87697000D02*
X171953470Y-87995500D01*
X171953470Y-87399200D02*
X171953470Y-87697000D01*
X171953470Y-87100700D02*
X171953470Y-87399200D01*
X171953470Y-86802700D02*
X171953470Y-87100700D01*
X171953470Y-86505000D02*
X171953470Y-86802700D01*
X171953470Y-86207300D02*
X171953470Y-86505000D01*
X171953470Y-85909000D02*
X171953470Y-86207300D01*
X171953470Y-85610900D02*
X171953470Y-85909000D01*
X171953470Y-85314000D02*
X171953470Y-85610900D01*
X171953470Y-85016100D02*
X171953470Y-85314000D01*
X171953470Y-84718000D02*
X171953470Y-85016100D01*
X171953470Y-84420400D02*
X171953470Y-84718000D01*
X171953470Y-84122600D02*
X171953470Y-84420400D01*
X171953470Y-83823800D02*
X171953470Y-84122600D01*
X171953470Y-83526400D02*
X171953470Y-83823800D01*
X171953470Y-83228300D02*
X171953470Y-83526400D01*
X171953470Y-82930300D02*
X171953470Y-83228300D01*
X171953470Y-82632100D02*
X171953470Y-82930300D01*
X171953470Y-82335100D02*
X171953470Y-82632100D01*
X171953470Y-82037600D02*
X171953470Y-82335100D01*
X171953470Y-81740100D02*
X171953470Y-82037600D01*
X171953470Y-81442400D02*
X171953470Y-81740100D01*
X171953470Y-81144900D02*
X171953470Y-81442400D01*
X171953470Y-80847300D02*
X171953470Y-81144900D01*
X171953470Y-80548400D02*
X171953470Y-80847300D01*
X171953470Y-80250700D02*
X171953470Y-80548400D01*
X171953470Y-79952300D02*
X171953470Y-80250700D01*
X171953470Y-79655000D02*
X171953470Y-79952300D01*
X171656470Y-79655000D02*
X171953470Y-79655000D01*
X171358870Y-79655000D02*
X171656470Y-79655000D01*
X171061470Y-79655000D02*
X171358870Y-79655000D01*
X170763170Y-79655000D02*
X171061470Y-79655000D01*
X170465870Y-79655000D02*
X170763170Y-79655000D01*
X170167870Y-79655000D02*
X170465870Y-79655000D01*
X169869570Y-79655000D02*
X170167870Y-79655000D01*
X169571070Y-79655000D02*
X169869570Y-79655000D01*
X169273670Y-79655000D02*
X169571070Y-79655000D01*
X168975670Y-79655000D02*
X169273670Y-79655000D01*
X168677570Y-79655000D02*
X168975670Y-79655000D01*
X168380270Y-79655000D02*
X168677570Y-79655000D01*
X168081570Y-79655000D02*
X168380270Y-79655000D01*
X167783070Y-79655000D02*
X168081570Y-79655000D01*
X167485970Y-79655000D02*
X167783070Y-79655000D01*
X167187370Y-79655000D02*
X167485970Y-79655000D01*
X166889270Y-79655000D02*
X167187370Y-79655000D01*
X166591570Y-79655000D02*
X166889270Y-79655000D01*
X166293970Y-79655000D02*
X166591570Y-79655000D01*
X165995470Y-79655000D02*
X166293970Y-79655000D01*
X165697670Y-79655000D02*
X165995470Y-79655000D01*
X165399170Y-79655000D02*
X165697670Y-79655000D01*
X165101170Y-79655000D02*
X165399170Y-79655000D01*
X164803470Y-79655000D02*
X165101170Y-79655000D01*
X164505770Y-79655000D02*
X164803470Y-79655000D01*
X164207470Y-79655000D02*
X164505770Y-79655000D01*
X163909370Y-79655000D02*
X164207470Y-79655000D01*
X163612470Y-79655000D02*
X163909370Y-79655000D01*
X163314570Y-79655000D02*
X163612470Y-79655000D01*
X163016470Y-79655000D02*
X163314570Y-79655000D01*
X162718870Y-79655000D02*
X163016470Y-79655000D01*
X162421070Y-79655000D02*
X162718870Y-79655000D01*
X162122270Y-79655000D02*
X162421070Y-79655000D01*
X161824870Y-79655000D02*
X162122270Y-79655000D01*
X161526770Y-79655000D02*
X161824870Y-79655000D01*
X161228770Y-79655000D02*
X161526770Y-79655000D01*
X160930670Y-79655000D02*
X161228770Y-79655000D01*
X160633570Y-79655000D02*
X160930670Y-79655000D01*
X160336070Y-79655000D02*
X160633570Y-79655000D01*
X160038570Y-79655000D02*
X160336070Y-79655000D01*
X159740870Y-79655000D02*
X160038570Y-79655000D01*
X159443370Y-79655000D02*
X159740870Y-79655000D01*
X159145770Y-79655000D02*
X159443370Y-79655000D01*
X158846870Y-79655000D02*
X159145770Y-79655000D01*
X158549170Y-79655000D02*
X158846870Y-79655000D01*
X158250770Y-79655000D02*
X158549170Y-79655000D01*
X157953470Y-79655000D02*
X158250770Y-79655000D01*
X157953470Y-79952000D02*
X157953470Y-79655000D01*
X157953470Y-80249700D02*
X157953470Y-79952000D01*
X157953470Y-80547100D02*
X157953470Y-80249700D01*
X157953470Y-80845400D02*
X157953470Y-80547100D01*
X157953470Y-81142700D02*
X157953470Y-80845400D01*
X157953470Y-81440700D02*
X157953470Y-81142700D01*
X157953470Y-81738900D02*
X157953470Y-81440700D01*
X157953470Y-82037500D02*
X157953470Y-81738900D01*
X157953470Y-82334800D02*
X157953470Y-82037500D01*
X157953470Y-82632900D02*
X157953470Y-82334800D01*
X157953470Y-82930900D02*
X157953470Y-82632900D01*
X157953470Y-83228200D02*
X157953470Y-82930900D01*
X157953470Y-83527000D02*
X157953470Y-83228200D01*
X157953470Y-83825500D02*
X157953470Y-83527000D01*
X157953470Y-84122500D02*
X157953470Y-83825500D01*
X157953470Y-84421200D02*
X157953470Y-84122500D01*
X157953470Y-84719300D02*
X157953470Y-84421200D01*
X157953470Y-85016900D02*
X157953470Y-84719300D01*
X157953470Y-85314600D02*
X157953470Y-85016900D01*
X157953470Y-85613000D02*
X157953470Y-85314600D01*
X157953470Y-85910900D02*
X157953470Y-85613000D01*
X157953470Y-86209400D02*
X157953470Y-85910900D01*
X157953470Y-86507300D02*
X157953470Y-86209400D01*
X157953470Y-86805000D02*
X157953470Y-86507300D01*
X157953470Y-87102800D02*
X157953470Y-86805000D01*
X157953470Y-87401100D02*
X157953470Y-87102800D01*
X157953470Y-87699100D02*
X157953470Y-87401100D01*
X157953470Y-87996000D02*
X157953470Y-87699100D01*
X157953470Y-88293900D02*
X157953470Y-87996000D01*
X157953470Y-88592000D02*
X157953470Y-88293900D01*
X157953470Y-88889600D02*
X157953470Y-88592000D01*
X157953470Y-89187500D02*
X157953470Y-88889600D01*
X157953470Y-89486200D02*
X157953470Y-89187500D01*
X157953470Y-89783600D02*
X157953470Y-89486200D01*
X157953470Y-90081800D02*
X157953470Y-89783600D01*
X157953470Y-90379700D02*
X157953470Y-90081800D01*
X157953470Y-90677900D02*
X157953470Y-90379700D01*
X157953470Y-90975000D02*
X157953470Y-90677900D01*
X157953470Y-91272500D02*
X157953470Y-90975000D01*
X157953470Y-91569900D02*
X157953470Y-91272500D01*
X157953470Y-91867700D02*
X157953470Y-91569900D01*
X157953470Y-92165100D02*
X157953470Y-91867700D01*
X157953470Y-92462800D02*
X157953470Y-92165100D01*
X157953470Y-92761600D02*
X157953470Y-92462800D01*
X157953470Y-93059400D02*
X157953470Y-92761600D01*
X157953470Y-93357800D02*
X157953470Y-93059400D01*
X157953470Y-93655000D02*
X157953470Y-93357800D01*
X158250470Y-93655000D02*
X157953470Y-93655000D01*
X158548170Y-93655000D02*
X158250470Y-93655000D01*
X158845570Y-93655000D02*
X158548170Y-93655000D01*
X159143870Y-93655000D02*
X158845570Y-93655000D01*
X159441170Y-93655000D02*
X159143870Y-93655000D01*
X159739170Y-93655000D02*
X159441170Y-93655000D01*
X160037370Y-93655000D02*
X159739170Y-93655000D01*
X160335970Y-93655000D02*
X160037370Y-93655000D01*
X160633270Y-93655000D02*
X160335970Y-93655000D01*
X160931370Y-93655000D02*
X160633270Y-93655000D01*
X161229370Y-93655000D02*
X160931370Y-93655000D01*
X161526670Y-93655000D02*
X161229370Y-93655000D01*
X161825470Y-93655000D02*
X161526670Y-93655000D01*
X162123970Y-93655000D02*
X161825470Y-93655000D01*
X162421070Y-93655000D02*
X162123970Y-93655000D01*
X162719670Y-93655000D02*
X162421070Y-93655000D01*
X163017770Y-93655000D02*
X162719670Y-93655000D01*
X163315370Y-93655000D02*
X163017770Y-93655000D01*
X163613070Y-93655000D02*
X163315370Y-93655000D01*
X163911470Y-93655000D02*
X163613070Y-93655000D01*
X164209370Y-93655000D02*
X163911470Y-93655000D01*
X164507870Y-93655000D02*
X164209370Y-93655000D01*
X164805770Y-93655000D02*
X164507870Y-93655000D01*
X165103470Y-93655000D02*
X164805770Y-93655000D01*
X165401270Y-93655000D02*
X165103470Y-93655000D01*
X165699570Y-93655000D02*
X165401270Y-93655000D01*
X165997570Y-93655000D02*
X165699570Y-93655000D01*
X166294470Y-93655000D02*
X165997570Y-93655000D01*
X166592370Y-93655000D02*
X166294470Y-93655000D01*
X166890470Y-93655000D02*
X166592370Y-93655000D01*
X167188070Y-93655000D02*
X166890470Y-93655000D01*
X167485970Y-93655000D02*
X167188070Y-93655000D01*
X167784670Y-93655000D02*
X167485970Y-93655000D01*
X168082070Y-93655000D02*
X167784670Y-93655000D01*
X168380270Y-93655000D02*
X168082070Y-93655000D01*
X168678170Y-93655000D02*
X168380270Y-93655000D01*
X168976370Y-93655000D02*
X168678170Y-93655000D01*
X169273470Y-93655000D02*
X168976370Y-93655000D01*
X169570970Y-93655000D02*
X169273470Y-93655000D01*
X169868370Y-93655000D02*
X169570970Y-93655000D01*
X170166170Y-93655000D02*
X169868370Y-93655000D01*
X170463570Y-93655000D02*
X170166170Y-93655000D01*
X170761270Y-93655000D02*
X170463570Y-93655000D01*
X171060070Y-93655000D02*
X170761270Y-93655000D01*
X171357870Y-93655000D02*
X171060070Y-93655000D01*
X171656270Y-93655000D02*
X171357870Y-93655000D01*
X171953470Y-93655000D02*
X171656270Y-93655000D01*
X133853470Y-93358000D02*
X133853470Y-93655000D01*
X133853470Y-93060400D02*
X133853470Y-93358000D01*
X133853470Y-92762900D02*
X133853470Y-93060400D01*
X133853470Y-92464700D02*
X133853470Y-92762900D01*
X133853470Y-92167400D02*
X133853470Y-92464700D01*
X133853470Y-91869400D02*
X133853470Y-92167400D01*
X133853470Y-91571100D02*
X133853470Y-91869400D01*
X133853470Y-91272600D02*
X133853470Y-91571100D01*
X133853470Y-90975200D02*
X133853470Y-91272600D01*
X133853470Y-90677200D02*
X133853470Y-90975200D01*
X133853470Y-90379100D02*
X133853470Y-90677200D01*
X133853470Y-90081800D02*
X133853470Y-90379100D01*
X133853470Y-89783100D02*
X133853470Y-90081800D01*
X133853470Y-89484600D02*
X133853470Y-89783100D01*
X133853470Y-89187500D02*
X133853470Y-89484600D01*
X133853470Y-88888900D02*
X133853470Y-89187500D01*
X133853470Y-88590800D02*
X133853470Y-88888900D01*
X133853470Y-88293100D02*
X133853470Y-88590800D01*
X133853470Y-87995500D02*
X133853470Y-88293100D01*
X133853470Y-87697000D02*
X133853470Y-87995500D01*
X133853470Y-87399200D02*
X133853470Y-87697000D01*
X133853470Y-87100700D02*
X133853470Y-87399200D01*
X133853470Y-86802700D02*
X133853470Y-87100700D01*
X133853470Y-86505000D02*
X133853470Y-86802700D01*
X133853470Y-86207300D02*
X133853470Y-86505000D01*
X133853470Y-85909000D02*
X133853470Y-86207300D01*
X133853470Y-85610900D02*
X133853470Y-85909000D01*
X133853470Y-85314000D02*
X133853470Y-85610900D01*
X133853470Y-85016100D02*
X133853470Y-85314000D01*
X133853470Y-84718000D02*
X133853470Y-85016100D01*
X133853470Y-84420400D02*
X133853470Y-84718000D01*
X133853470Y-84122600D02*
X133853470Y-84420400D01*
X133853470Y-83823800D02*
X133853470Y-84122600D01*
X133853470Y-83526400D02*
X133853470Y-83823800D01*
X133853470Y-83228300D02*
X133853470Y-83526400D01*
X133853470Y-82930300D02*
X133853470Y-83228300D01*
X133853470Y-82632100D02*
X133853470Y-82930300D01*
X133853470Y-82335100D02*
X133853470Y-82632100D01*
X133853470Y-82037600D02*
X133853470Y-82335100D01*
X133853470Y-81740100D02*
X133853470Y-82037600D01*
X133853470Y-81442400D02*
X133853470Y-81740100D01*
X133853470Y-81144900D02*
X133853470Y-81442400D01*
X133853470Y-80847300D02*
X133853470Y-81144900D01*
X133853470Y-80548400D02*
X133853470Y-80847300D01*
X133853470Y-80250700D02*
X133853470Y-80548400D01*
X133853470Y-79952300D02*
X133853470Y-80250700D01*
X133853470Y-79655000D02*
X133853470Y-79952300D01*
X133556470Y-79655000D02*
X133853470Y-79655000D01*
X133258870Y-79655000D02*
X133556470Y-79655000D01*
X132961470Y-79655000D02*
X133258870Y-79655000D01*
X132663170Y-79655000D02*
X132961470Y-79655000D01*
X132365870Y-79655000D02*
X132663170Y-79655000D01*
X132067870Y-79655000D02*
X132365870Y-79655000D01*
X131769570Y-79655000D02*
X132067870Y-79655000D01*
X131471070Y-79655000D02*
X131769570Y-79655000D01*
X131173670Y-79655000D02*
X131471070Y-79655000D01*
X130875670Y-79655000D02*
X131173670Y-79655000D01*
X130577570Y-79655000D02*
X130875670Y-79655000D01*
X130280270Y-79655000D02*
X130577570Y-79655000D01*
X129981570Y-79655000D02*
X130280270Y-79655000D01*
X129683070Y-79655000D02*
X129981570Y-79655000D01*
X129385970Y-79655000D02*
X129683070Y-79655000D01*
X129087370Y-79655000D02*
X129385970Y-79655000D01*
X128789270Y-79655000D02*
X129087370Y-79655000D01*
X128491570Y-79655000D02*
X128789270Y-79655000D01*
X128193970Y-79655000D02*
X128491570Y-79655000D01*
X127895470Y-79655000D02*
X128193970Y-79655000D01*
X127597670Y-79655000D02*
X127895470Y-79655000D01*
X127299170Y-79655000D02*
X127597670Y-79655000D01*
X127001170Y-79655000D02*
X127299170Y-79655000D01*
X126703470Y-79655000D02*
X127001170Y-79655000D01*
X126405770Y-79655000D02*
X126703470Y-79655000D01*
X126107470Y-79655000D02*
X126405770Y-79655000D01*
X125809370Y-79655000D02*
X126107470Y-79655000D01*
X125512470Y-79655000D02*
X125809370Y-79655000D01*
X125214570Y-79655000D02*
X125512470Y-79655000D01*
X124916470Y-79655000D02*
X125214570Y-79655000D01*
X124618870Y-79655000D02*
X124916470Y-79655000D01*
X124321070Y-79655000D02*
X124618870Y-79655000D01*
X124022270Y-79655000D02*
X124321070Y-79655000D01*
X123724870Y-79655000D02*
X124022270Y-79655000D01*
X123426770Y-79655000D02*
X123724870Y-79655000D01*
X123128770Y-79655000D02*
X123426770Y-79655000D01*
X122830670Y-79655000D02*
X123128770Y-79655000D01*
X122533570Y-79655000D02*
X122830670Y-79655000D01*
X122236070Y-79655000D02*
X122533570Y-79655000D01*
X121938570Y-79655000D02*
X122236070Y-79655000D01*
X121640870Y-79655000D02*
X121938570Y-79655000D01*
X121343370Y-79655000D02*
X121640870Y-79655000D01*
X121045770Y-79655000D02*
X121343370Y-79655000D01*
X120746870Y-79655000D02*
X121045770Y-79655000D01*
X120449170Y-79655000D02*
X120746870Y-79655000D01*
X120150770Y-79655000D02*
X120449170Y-79655000D01*
X119853470Y-79655000D02*
X120150770Y-79655000D01*
X119853470Y-79952000D02*
X119853470Y-79655000D01*
X119853470Y-80249700D02*
X119853470Y-79952000D01*
X119853470Y-80547100D02*
X119853470Y-80249700D01*
X119853470Y-80845400D02*
X119853470Y-80547100D01*
X119853470Y-81142700D02*
X119853470Y-80845400D01*
X119853470Y-81440700D02*
X119853470Y-81142700D01*
X119853470Y-81738900D02*
X119853470Y-81440700D01*
X119853470Y-82037500D02*
X119853470Y-81738900D01*
X119853470Y-82334800D02*
X119853470Y-82037500D01*
X119853470Y-82632900D02*
X119853470Y-82334800D01*
X119853470Y-82930900D02*
X119853470Y-82632900D01*
X119853470Y-83228200D02*
X119853470Y-82930900D01*
X119853470Y-83527000D02*
X119853470Y-83228200D01*
X119853470Y-83825500D02*
X119853470Y-83527000D01*
X119853470Y-84122500D02*
X119853470Y-83825500D01*
X119853470Y-84421200D02*
X119853470Y-84122500D01*
X119853470Y-84719300D02*
X119853470Y-84421200D01*
X119853470Y-85016900D02*
X119853470Y-84719300D01*
X119853470Y-85314600D02*
X119853470Y-85016900D01*
X119853470Y-85613000D02*
X119853470Y-85314600D01*
X119853470Y-85910900D02*
X119853470Y-85613000D01*
X119853470Y-86209400D02*
X119853470Y-85910900D01*
X119853470Y-86507300D02*
X119853470Y-86209400D01*
X119853470Y-86805000D02*
X119853470Y-86507300D01*
X119853470Y-87102800D02*
X119853470Y-86805000D01*
X119853470Y-87401100D02*
X119853470Y-87102800D01*
X119853470Y-87699100D02*
X119853470Y-87401100D01*
X119853470Y-87996000D02*
X119853470Y-87699100D01*
X119853470Y-88293900D02*
X119853470Y-87996000D01*
X119853470Y-88592000D02*
X119853470Y-88293900D01*
X119853470Y-88889600D02*
X119853470Y-88592000D01*
X119853470Y-89187500D02*
X119853470Y-88889600D01*
X119853470Y-89486200D02*
X119853470Y-89187500D01*
X119853470Y-89783600D02*
X119853470Y-89486200D01*
X119853470Y-90081800D02*
X119853470Y-89783600D01*
X119853470Y-90379700D02*
X119853470Y-90081800D01*
X119853470Y-90677900D02*
X119853470Y-90379700D01*
X119853470Y-90975000D02*
X119853470Y-90677900D01*
X119853470Y-91272500D02*
X119853470Y-90975000D01*
X119853470Y-91569900D02*
X119853470Y-91272500D01*
X119853470Y-91867700D02*
X119853470Y-91569900D01*
X119853470Y-92165100D02*
X119853470Y-91867700D01*
X119853470Y-92462800D02*
X119853470Y-92165100D01*
X119853470Y-92761600D02*
X119853470Y-92462800D01*
X119853470Y-93059400D02*
X119853470Y-92761600D01*
X119853470Y-93357800D02*
X119853470Y-93059400D01*
X119853470Y-93655000D02*
X119853470Y-93357800D01*
X120150470Y-93655000D02*
X119853470Y-93655000D01*
X120448170Y-93655000D02*
X120150470Y-93655000D01*
X120745570Y-93655000D02*
X120448170Y-93655000D01*
X121043870Y-93655000D02*
X120745570Y-93655000D01*
X121341170Y-93655000D02*
X121043870Y-93655000D01*
X121639170Y-93655000D02*
X121341170Y-93655000D01*
X121937370Y-93655000D02*
X121639170Y-93655000D01*
X122235970Y-93655000D02*
X121937370Y-93655000D01*
X122533270Y-93655000D02*
X122235970Y-93655000D01*
X122831370Y-93655000D02*
X122533270Y-93655000D01*
X123129370Y-93655000D02*
X122831370Y-93655000D01*
X123426670Y-93655000D02*
X123129370Y-93655000D01*
X123725470Y-93655000D02*
X123426670Y-93655000D01*
X124023970Y-93655000D02*
X123725470Y-93655000D01*
X124321070Y-93655000D02*
X124023970Y-93655000D01*
X124619670Y-93655000D02*
X124321070Y-93655000D01*
X124917770Y-93655000D02*
X124619670Y-93655000D01*
X125215370Y-93655000D02*
X124917770Y-93655000D01*
X125513070Y-93655000D02*
X125215370Y-93655000D01*
X125811470Y-93655000D02*
X125513070Y-93655000D01*
X126109370Y-93655000D02*
X125811470Y-93655000D01*
X126407870Y-93655000D02*
X126109370Y-93655000D01*
X126705770Y-93655000D02*
X126407870Y-93655000D01*
X127003470Y-93655000D02*
X126705770Y-93655000D01*
X127301270Y-93655000D02*
X127003470Y-93655000D01*
X127599570Y-93655000D02*
X127301270Y-93655000D01*
X127897570Y-93655000D02*
X127599570Y-93655000D01*
X128194470Y-93655000D02*
X127897570Y-93655000D01*
X128492370Y-93655000D02*
X128194470Y-93655000D01*
X128790470Y-93655000D02*
X128492370Y-93655000D01*
X129088070Y-93655000D02*
X128790470Y-93655000D01*
X129385970Y-93655000D02*
X129088070Y-93655000D01*
X129684670Y-93655000D02*
X129385970Y-93655000D01*
X129982070Y-93655000D02*
X129684670Y-93655000D01*
X130280270Y-93655000D02*
X129982070Y-93655000D01*
X130578170Y-93655000D02*
X130280270Y-93655000D01*
X130876370Y-93655000D02*
X130578170Y-93655000D01*
X131173470Y-93655000D02*
X130876370Y-93655000D01*
X131470970Y-93655000D02*
X131173470Y-93655000D01*
X131768370Y-93655000D02*
X131470970Y-93655000D01*
X132066170Y-93655000D02*
X131768370Y-93655000D01*
X132363570Y-93655000D02*
X132066170Y-93655000D01*
X132661270Y-93655000D02*
X132363570Y-93655000D01*
X132960070Y-93655000D02*
X132661270Y-93655000D01*
X133257870Y-93655000D02*
X132960070Y-93655000D01*
X133556270Y-93655000D02*
X133257870Y-93655000D01*
X133853470Y-93655000D02*
X133556270Y-93655000D01*
X152903470Y-112408000D02*
X152903470Y-112705000D01*
X152903470Y-112110400D02*
X152903470Y-112408000D01*
X152903470Y-111812900D02*
X152903470Y-112110400D01*
X152903470Y-111514700D02*
X152903470Y-111812900D01*
X152903470Y-111217400D02*
X152903470Y-111514700D01*
X152903470Y-110919400D02*
X152903470Y-111217400D01*
X152903470Y-110621100D02*
X152903470Y-110919400D01*
X152903470Y-110322600D02*
X152903470Y-110621100D01*
X152903470Y-110025200D02*
X152903470Y-110322600D01*
X152903470Y-109727200D02*
X152903470Y-110025200D01*
X152903470Y-109429100D02*
X152903470Y-109727200D01*
X152903470Y-109131800D02*
X152903470Y-109429100D01*
X152903470Y-108833100D02*
X152903470Y-109131800D01*
X152903470Y-108534600D02*
X152903470Y-108833100D01*
X152903470Y-108237500D02*
X152903470Y-108534600D01*
X152903470Y-107938900D02*
X152903470Y-108237500D01*
X152903470Y-107640800D02*
X152903470Y-107938900D01*
X152903470Y-107343100D02*
X152903470Y-107640800D01*
X152903470Y-107045500D02*
X152903470Y-107343100D01*
X152903470Y-106747000D02*
X152903470Y-107045500D01*
X152903470Y-106449200D02*
X152903470Y-106747000D01*
X152903470Y-106150700D02*
X152903470Y-106449200D01*
X152903470Y-105852700D02*
X152903470Y-106150700D01*
X152903470Y-105555000D02*
X152903470Y-105852700D01*
X152903470Y-105257300D02*
X152903470Y-105555000D01*
X152903470Y-104959000D02*
X152903470Y-105257300D01*
X152903470Y-104660900D02*
X152903470Y-104959000D01*
X152903470Y-104364000D02*
X152903470Y-104660900D01*
X152903470Y-104066100D02*
X152903470Y-104364000D01*
X152903470Y-103768000D02*
X152903470Y-104066100D01*
X152903470Y-103470400D02*
X152903470Y-103768000D01*
X152903470Y-103172600D02*
X152903470Y-103470400D01*
X152903470Y-102873800D02*
X152903470Y-103172600D01*
X152903470Y-102576400D02*
X152903470Y-102873800D01*
X152903470Y-102278300D02*
X152903470Y-102576400D01*
X152903470Y-101980300D02*
X152903470Y-102278300D01*
X152903470Y-101682100D02*
X152903470Y-101980300D01*
X152903470Y-101385100D02*
X152903470Y-101682100D01*
X152903470Y-101087600D02*
X152903470Y-101385100D01*
X152903470Y-100790100D02*
X152903470Y-101087600D01*
X152903470Y-100492400D02*
X152903470Y-100790100D01*
X152903470Y-100194900D02*
X152903470Y-100492400D01*
X152903470Y-99897300D02*
X152903470Y-100194900D01*
X152903470Y-99598400D02*
X152903470Y-99897300D01*
X152903470Y-99300700D02*
X152903470Y-99598400D01*
X152903470Y-99002300D02*
X152903470Y-99300700D01*
X152903470Y-98705000D02*
X152903470Y-99002300D01*
X152606470Y-98705000D02*
X152903470Y-98705000D01*
X152308870Y-98705000D02*
X152606470Y-98705000D01*
X152011470Y-98705000D02*
X152308870Y-98705000D01*
X151713170Y-98705000D02*
X152011470Y-98705000D01*
X151415870Y-98705000D02*
X151713170Y-98705000D01*
X151117870Y-98705000D02*
X151415870Y-98705000D01*
X150819570Y-98705000D02*
X151117870Y-98705000D01*
X150521070Y-98705000D02*
X150819570Y-98705000D01*
X150223670Y-98705000D02*
X150521070Y-98705000D01*
X149925670Y-98705000D02*
X150223670Y-98705000D01*
X149627570Y-98705000D02*
X149925670Y-98705000D01*
X149330270Y-98705000D02*
X149627570Y-98705000D01*
X149031570Y-98705000D02*
X149330270Y-98705000D01*
X148733070Y-98705000D02*
X149031570Y-98705000D01*
X148435970Y-98705000D02*
X148733070Y-98705000D01*
X148137370Y-98705000D02*
X148435970Y-98705000D01*
X147839270Y-98705000D02*
X148137370Y-98705000D01*
X147541570Y-98705000D02*
X147839270Y-98705000D01*
X147243970Y-98705000D02*
X147541570Y-98705000D01*
X146945470Y-98705000D02*
X147243970Y-98705000D01*
X146647670Y-98705000D02*
X146945470Y-98705000D01*
X146349170Y-98705000D02*
X146647670Y-98705000D01*
X146051170Y-98705000D02*
X146349170Y-98705000D01*
X145753470Y-98705000D02*
X146051170Y-98705000D01*
X145455770Y-98705000D02*
X145753470Y-98705000D01*
X145157470Y-98705000D02*
X145455770Y-98705000D01*
X144859370Y-98705000D02*
X145157470Y-98705000D01*
X144562470Y-98705000D02*
X144859370Y-98705000D01*
X144264570Y-98705000D02*
X144562470Y-98705000D01*
X143966470Y-98705000D02*
X144264570Y-98705000D01*
X143668870Y-98705000D02*
X143966470Y-98705000D01*
X143371070Y-98705000D02*
X143668870Y-98705000D01*
X143072270Y-98705000D02*
X143371070Y-98705000D01*
X142774870Y-98705000D02*
X143072270Y-98705000D01*
X142476770Y-98705000D02*
X142774870Y-98705000D01*
X142178770Y-98705000D02*
X142476770Y-98705000D01*
X141880670Y-98705000D02*
X142178770Y-98705000D01*
X141583570Y-98705000D02*
X141880670Y-98705000D01*
X141286070Y-98705000D02*
X141583570Y-98705000D01*
X140988570Y-98705000D02*
X141286070Y-98705000D01*
X140690870Y-98705000D02*
X140988570Y-98705000D01*
X140393370Y-98705000D02*
X140690870Y-98705000D01*
X140095770Y-98705000D02*
X140393370Y-98705000D01*
X139796870Y-98705000D02*
X140095770Y-98705000D01*
X139499170Y-98705000D02*
X139796870Y-98705000D01*
X139200770Y-98705000D02*
X139499170Y-98705000D01*
X138903470Y-98705000D02*
X139200770Y-98705000D01*
X138903470Y-99002000D02*
X138903470Y-98705000D01*
X138903470Y-99299700D02*
X138903470Y-99002000D01*
X138903470Y-99597100D02*
X138903470Y-99299700D01*
X138903470Y-99895400D02*
X138903470Y-99597100D01*
X138903470Y-100192700D02*
X138903470Y-99895400D01*
X138903470Y-100490700D02*
X138903470Y-100192700D01*
X138903470Y-100788900D02*
X138903470Y-100490700D01*
X138903470Y-101087500D02*
X138903470Y-100788900D01*
X138903470Y-101384800D02*
X138903470Y-101087500D01*
X138903470Y-101682900D02*
X138903470Y-101384800D01*
X138903470Y-101980900D02*
X138903470Y-101682900D01*
X138903470Y-102278200D02*
X138903470Y-101980900D01*
X138903470Y-102577000D02*
X138903470Y-102278200D01*
X138903470Y-102875500D02*
X138903470Y-102577000D01*
X138903470Y-103172500D02*
X138903470Y-102875500D01*
X138903470Y-103471200D02*
X138903470Y-103172500D01*
X138903470Y-103769300D02*
X138903470Y-103471200D01*
X138903470Y-104066900D02*
X138903470Y-103769300D01*
X138903470Y-104364600D02*
X138903470Y-104066900D01*
X138903470Y-104663000D02*
X138903470Y-104364600D01*
X138903470Y-104960900D02*
X138903470Y-104663000D01*
X138903470Y-105259400D02*
X138903470Y-104960900D01*
X138903470Y-105557300D02*
X138903470Y-105259400D01*
X138903470Y-105855000D02*
X138903470Y-105557300D01*
X138903470Y-106152800D02*
X138903470Y-105855000D01*
X138903470Y-106451100D02*
X138903470Y-106152800D01*
X138903470Y-106749100D02*
X138903470Y-106451100D01*
X138903470Y-107046000D02*
X138903470Y-106749100D01*
X138903470Y-107343900D02*
X138903470Y-107046000D01*
X138903470Y-107642000D02*
X138903470Y-107343900D01*
X138903470Y-107939600D02*
X138903470Y-107642000D01*
X138903470Y-108237500D02*
X138903470Y-107939600D01*
X138903470Y-108536200D02*
X138903470Y-108237500D01*
X138903470Y-108833600D02*
X138903470Y-108536200D01*
X138903470Y-109131800D02*
X138903470Y-108833600D01*
X138903470Y-109429700D02*
X138903470Y-109131800D01*
X138903470Y-109727900D02*
X138903470Y-109429700D01*
X138903470Y-110025000D02*
X138903470Y-109727900D01*
X138903470Y-110322500D02*
X138903470Y-110025000D01*
X138903470Y-110619900D02*
X138903470Y-110322500D01*
X138903470Y-110917700D02*
X138903470Y-110619900D01*
X138903470Y-111215100D02*
X138903470Y-110917700D01*
X138903470Y-111512800D02*
X138903470Y-111215100D01*
X138903470Y-111811600D02*
X138903470Y-111512800D01*
X138903470Y-112109400D02*
X138903470Y-111811600D01*
X138903470Y-112407800D02*
X138903470Y-112109400D01*
X138903470Y-112705000D02*
X138903470Y-112407800D01*
X139200470Y-112705000D02*
X138903470Y-112705000D01*
X139498170Y-112705000D02*
X139200470Y-112705000D01*
X139795570Y-112705000D02*
X139498170Y-112705000D01*
X140093870Y-112705000D02*
X139795570Y-112705000D01*
X140391170Y-112705000D02*
X140093870Y-112705000D01*
X140689170Y-112705000D02*
X140391170Y-112705000D01*
X140987370Y-112705000D02*
X140689170Y-112705000D01*
X141285970Y-112705000D02*
X140987370Y-112705000D01*
X141583270Y-112705000D02*
X141285970Y-112705000D01*
X141881370Y-112705000D02*
X141583270Y-112705000D01*
X142179370Y-112705000D02*
X141881370Y-112705000D01*
X142476670Y-112705000D02*
X142179370Y-112705000D01*
X142775470Y-112705000D02*
X142476670Y-112705000D01*
X143073970Y-112705000D02*
X142775470Y-112705000D01*
X143371070Y-112705000D02*
X143073970Y-112705000D01*
X143669670Y-112705000D02*
X143371070Y-112705000D01*
X143967770Y-112705000D02*
X143669670Y-112705000D01*
X144265370Y-112705000D02*
X143967770Y-112705000D01*
X144563070Y-112705000D02*
X144265370Y-112705000D01*
X144861470Y-112705000D02*
X144563070Y-112705000D01*
X145159370Y-112705000D02*
X144861470Y-112705000D01*
X145457870Y-112705000D02*
X145159370Y-112705000D01*
X145755770Y-112705000D02*
X145457870Y-112705000D01*
X146053470Y-112705000D02*
X145755770Y-112705000D01*
X146351270Y-112705000D02*
X146053470Y-112705000D01*
X146649570Y-112705000D02*
X146351270Y-112705000D01*
X146947570Y-112705000D02*
X146649570Y-112705000D01*
X147244470Y-112705000D02*
X146947570Y-112705000D01*
X147542370Y-112705000D02*
X147244470Y-112705000D01*
X147840470Y-112705000D02*
X147542370Y-112705000D01*
X148138070Y-112705000D02*
X147840470Y-112705000D01*
X148435970Y-112705000D02*
X148138070Y-112705000D01*
X148734670Y-112705000D02*
X148435970Y-112705000D01*
X149032070Y-112705000D02*
X148734670Y-112705000D01*
X149330270Y-112705000D02*
X149032070Y-112705000D01*
X149628170Y-112705000D02*
X149330270Y-112705000D01*
X149926370Y-112705000D02*
X149628170Y-112705000D01*
X150223470Y-112705000D02*
X149926370Y-112705000D01*
X150520970Y-112705000D02*
X150223470Y-112705000D01*
X150818370Y-112705000D02*
X150520970Y-112705000D01*
X151116170Y-112705000D02*
X150818370Y-112705000D01*
X151413570Y-112705000D02*
X151116170Y-112705000D01*
X151711270Y-112705000D02*
X151413570Y-112705000D01*
X152010070Y-112705000D02*
X151711270Y-112705000D01*
X152307870Y-112705000D02*
X152010070Y-112705000D01*
X152606270Y-112705000D02*
X152307870Y-112705000D01*
X152903470Y-112705000D02*
X152606270Y-112705000D01*
X171953470Y-112408000D02*
X171953470Y-112705000D01*
X171953470Y-112110400D02*
X171953470Y-112408000D01*
X171953470Y-111812900D02*
X171953470Y-112110400D01*
X171953470Y-111514700D02*
X171953470Y-111812900D01*
X171953470Y-111217400D02*
X171953470Y-111514700D01*
X171953470Y-110919400D02*
X171953470Y-111217400D01*
X171953470Y-110621100D02*
X171953470Y-110919400D01*
X171953470Y-110322600D02*
X171953470Y-110621100D01*
X171953470Y-110025200D02*
X171953470Y-110322600D01*
X171953470Y-109727200D02*
X171953470Y-110025200D01*
X171953470Y-109429100D02*
X171953470Y-109727200D01*
X171953470Y-109131800D02*
X171953470Y-109429100D01*
X171953470Y-108833100D02*
X171953470Y-109131800D01*
X171953470Y-108534600D02*
X171953470Y-108833100D01*
X171953470Y-108237500D02*
X171953470Y-108534600D01*
X171953470Y-107938900D02*
X171953470Y-108237500D01*
X171953470Y-107640800D02*
X171953470Y-107938900D01*
X171953470Y-107343100D02*
X171953470Y-107640800D01*
X171953470Y-107045500D02*
X171953470Y-107343100D01*
X171953470Y-106747000D02*
X171953470Y-107045500D01*
X171953470Y-106449200D02*
X171953470Y-106747000D01*
X171953470Y-106150700D02*
X171953470Y-106449200D01*
X171953470Y-105852700D02*
X171953470Y-106150700D01*
X171953470Y-105555000D02*
X171953470Y-105852700D01*
X171953470Y-105257300D02*
X171953470Y-105555000D01*
X171953470Y-104959000D02*
X171953470Y-105257300D01*
X171953470Y-104660900D02*
X171953470Y-104959000D01*
X171953470Y-104364000D02*
X171953470Y-104660900D01*
X171953470Y-104066100D02*
X171953470Y-104364000D01*
X171953470Y-103768000D02*
X171953470Y-104066100D01*
X171953470Y-103470400D02*
X171953470Y-103768000D01*
X171953470Y-103172600D02*
X171953470Y-103470400D01*
X171953470Y-102873800D02*
X171953470Y-103172600D01*
X171953470Y-102576400D02*
X171953470Y-102873800D01*
X171953470Y-102278300D02*
X171953470Y-102576400D01*
X171953470Y-101980300D02*
X171953470Y-102278300D01*
X171953470Y-101682100D02*
X171953470Y-101980300D01*
X171953470Y-101385100D02*
X171953470Y-101682100D01*
X171953470Y-101087600D02*
X171953470Y-101385100D01*
X171953470Y-100790100D02*
X171953470Y-101087600D01*
X171953470Y-100492400D02*
X171953470Y-100790100D01*
X171953470Y-100194900D02*
X171953470Y-100492400D01*
X171953470Y-99897300D02*
X171953470Y-100194900D01*
X171953470Y-99598400D02*
X171953470Y-99897300D01*
X171953470Y-99300700D02*
X171953470Y-99598400D01*
X171953470Y-99002300D02*
X171953470Y-99300700D01*
X171953470Y-98705000D02*
X171953470Y-99002300D01*
X171656470Y-98705000D02*
X171953470Y-98705000D01*
X171358870Y-98705000D02*
X171656470Y-98705000D01*
X171061470Y-98705000D02*
X171358870Y-98705000D01*
X170763170Y-98705000D02*
X171061470Y-98705000D01*
X170465870Y-98705000D02*
X170763170Y-98705000D01*
X170167870Y-98705000D02*
X170465870Y-98705000D01*
X169869570Y-98705000D02*
X170167870Y-98705000D01*
X169571070Y-98705000D02*
X169869570Y-98705000D01*
X169273670Y-98705000D02*
X169571070Y-98705000D01*
X168975670Y-98705000D02*
X169273670Y-98705000D01*
X168677570Y-98705000D02*
X168975670Y-98705000D01*
X168380270Y-98705000D02*
X168677570Y-98705000D01*
X168081570Y-98705000D02*
X168380270Y-98705000D01*
X167783070Y-98705000D02*
X168081570Y-98705000D01*
X167485970Y-98705000D02*
X167783070Y-98705000D01*
X167187370Y-98705000D02*
X167485970Y-98705000D01*
X166889270Y-98705000D02*
X167187370Y-98705000D01*
X166591570Y-98705000D02*
X166889270Y-98705000D01*
X166293970Y-98705000D02*
X166591570Y-98705000D01*
X165995470Y-98705000D02*
X166293970Y-98705000D01*
X165697670Y-98705000D02*
X165995470Y-98705000D01*
X165399170Y-98705000D02*
X165697670Y-98705000D01*
X165101170Y-98705000D02*
X165399170Y-98705000D01*
X164803470Y-98705000D02*
X165101170Y-98705000D01*
X164505770Y-98705000D02*
X164803470Y-98705000D01*
X164207470Y-98705000D02*
X164505770Y-98705000D01*
X163909370Y-98705000D02*
X164207470Y-98705000D01*
X163612470Y-98705000D02*
X163909370Y-98705000D01*
X163314570Y-98705000D02*
X163612470Y-98705000D01*
X163016470Y-98705000D02*
X163314570Y-98705000D01*
X162718870Y-98705000D02*
X163016470Y-98705000D01*
X162421070Y-98705000D02*
X162718870Y-98705000D01*
X162122270Y-98705000D02*
X162421070Y-98705000D01*
X161824870Y-98705000D02*
X162122270Y-98705000D01*
X161526770Y-98705000D02*
X161824870Y-98705000D01*
X161228770Y-98705000D02*
X161526770Y-98705000D01*
X160930670Y-98705000D02*
X161228770Y-98705000D01*
X160633570Y-98705000D02*
X160930670Y-98705000D01*
X160336070Y-98705000D02*
X160633570Y-98705000D01*
X160038570Y-98705000D02*
X160336070Y-98705000D01*
X159740870Y-98705000D02*
X160038570Y-98705000D01*
X159443370Y-98705000D02*
X159740870Y-98705000D01*
X159145770Y-98705000D02*
X159443370Y-98705000D01*
X158846870Y-98705000D02*
X159145770Y-98705000D01*
X158549170Y-98705000D02*
X158846870Y-98705000D01*
X158250770Y-98705000D02*
X158549170Y-98705000D01*
X157953470Y-98705000D02*
X158250770Y-98705000D01*
X157953470Y-99002000D02*
X157953470Y-98705000D01*
X157953470Y-99299700D02*
X157953470Y-99002000D01*
X157953470Y-99597100D02*
X157953470Y-99299700D01*
X157953470Y-99895400D02*
X157953470Y-99597100D01*
X157953470Y-100192700D02*
X157953470Y-99895400D01*
X157953470Y-100490700D02*
X157953470Y-100192700D01*
X157953470Y-100788900D02*
X157953470Y-100490700D01*
X157953470Y-101087500D02*
X157953470Y-100788900D01*
X157953470Y-101384800D02*
X157953470Y-101087500D01*
X157953470Y-101682900D02*
X157953470Y-101384800D01*
X157953470Y-101980900D02*
X157953470Y-101682900D01*
X157953470Y-102278200D02*
X157953470Y-101980900D01*
X157953470Y-102577000D02*
X157953470Y-102278200D01*
X157953470Y-102875500D02*
X157953470Y-102577000D01*
X157953470Y-103172500D02*
X157953470Y-102875500D01*
X157953470Y-103471200D02*
X157953470Y-103172500D01*
X157953470Y-103769300D02*
X157953470Y-103471200D01*
X157953470Y-104066900D02*
X157953470Y-103769300D01*
X157953470Y-104364600D02*
X157953470Y-104066900D01*
X157953470Y-104663000D02*
X157953470Y-104364600D01*
X157953470Y-104960900D02*
X157953470Y-104663000D01*
X157953470Y-105259400D02*
X157953470Y-104960900D01*
X157953470Y-105557300D02*
X157953470Y-105259400D01*
X157953470Y-105855000D02*
X157953470Y-105557300D01*
X157953470Y-106152800D02*
X157953470Y-105855000D01*
X157953470Y-106451100D02*
X157953470Y-106152800D01*
X157953470Y-106749100D02*
X157953470Y-106451100D01*
X157953470Y-107046000D02*
X157953470Y-106749100D01*
X157953470Y-107343900D02*
X157953470Y-107046000D01*
X157953470Y-107642000D02*
X157953470Y-107343900D01*
X157953470Y-107939600D02*
X157953470Y-107642000D01*
X157953470Y-108237500D02*
X157953470Y-107939600D01*
X157953470Y-108536200D02*
X157953470Y-108237500D01*
X157953470Y-108833600D02*
X157953470Y-108536200D01*
X157953470Y-109131800D02*
X157953470Y-108833600D01*
X157953470Y-109429700D02*
X157953470Y-109131800D01*
X157953470Y-109727900D02*
X157953470Y-109429700D01*
X157953470Y-110025000D02*
X157953470Y-109727900D01*
X157953470Y-110322500D02*
X157953470Y-110025000D01*
X157953470Y-110619900D02*
X157953470Y-110322500D01*
X157953470Y-110917700D02*
X157953470Y-110619900D01*
X157953470Y-111215100D02*
X157953470Y-110917700D01*
X157953470Y-111512800D02*
X157953470Y-111215100D01*
X157953470Y-111811600D02*
X157953470Y-111512800D01*
X157953470Y-112109400D02*
X157953470Y-111811600D01*
X157953470Y-112407800D02*
X157953470Y-112109400D01*
X157953470Y-112705000D02*
X157953470Y-112407800D01*
X158250470Y-112705000D02*
X157953470Y-112705000D01*
X158548170Y-112705000D02*
X158250470Y-112705000D01*
X158845570Y-112705000D02*
X158548170Y-112705000D01*
X159143870Y-112705000D02*
X158845570Y-112705000D01*
X159441170Y-112705000D02*
X159143870Y-112705000D01*
X159739170Y-112705000D02*
X159441170Y-112705000D01*
X160037370Y-112705000D02*
X159739170Y-112705000D01*
X160335970Y-112705000D02*
X160037370Y-112705000D01*
X160633270Y-112705000D02*
X160335970Y-112705000D01*
X160931370Y-112705000D02*
X160633270Y-112705000D01*
X161229370Y-112705000D02*
X160931370Y-112705000D01*
X161526670Y-112705000D02*
X161229370Y-112705000D01*
X161825470Y-112705000D02*
X161526670Y-112705000D01*
X162123970Y-112705000D02*
X161825470Y-112705000D01*
X162421070Y-112705000D02*
X162123970Y-112705000D01*
X162719670Y-112705000D02*
X162421070Y-112705000D01*
X163017770Y-112705000D02*
X162719670Y-112705000D01*
X163315370Y-112705000D02*
X163017770Y-112705000D01*
X163613070Y-112705000D02*
X163315370Y-112705000D01*
X163911470Y-112705000D02*
X163613070Y-112705000D01*
X164209370Y-112705000D02*
X163911470Y-112705000D01*
X164507870Y-112705000D02*
X164209370Y-112705000D01*
X164805770Y-112705000D02*
X164507870Y-112705000D01*
X165103470Y-112705000D02*
X164805770Y-112705000D01*
X165401270Y-112705000D02*
X165103470Y-112705000D01*
X165699570Y-112705000D02*
X165401270Y-112705000D01*
X165997570Y-112705000D02*
X165699570Y-112705000D01*
X166294470Y-112705000D02*
X165997570Y-112705000D01*
X166592370Y-112705000D02*
X166294470Y-112705000D01*
X166890470Y-112705000D02*
X166592370Y-112705000D01*
X167188070Y-112705000D02*
X166890470Y-112705000D01*
X167485970Y-112705000D02*
X167188070Y-112705000D01*
X167784670Y-112705000D02*
X167485970Y-112705000D01*
X168082070Y-112705000D02*
X167784670Y-112705000D01*
X168380270Y-112705000D02*
X168082070Y-112705000D01*
X168678170Y-112705000D02*
X168380270Y-112705000D01*
X168976370Y-112705000D02*
X168678170Y-112705000D01*
X169273470Y-112705000D02*
X168976370Y-112705000D01*
X169570970Y-112705000D02*
X169273470Y-112705000D01*
X169868370Y-112705000D02*
X169570970Y-112705000D01*
X170166170Y-112705000D02*
X169868370Y-112705000D01*
X170463570Y-112705000D02*
X170166170Y-112705000D01*
X170761270Y-112705000D02*
X170463570Y-112705000D01*
X171060070Y-112705000D02*
X170761270Y-112705000D01*
X171357870Y-112705000D02*
X171060070Y-112705000D01*
X171656270Y-112705000D02*
X171357870Y-112705000D01*
X171953470Y-112705000D02*
X171656270Y-112705000D01*
X171953470Y-131458000D02*
X171953470Y-131755000D01*
X171953470Y-131160400D02*
X171953470Y-131458000D01*
X171953470Y-130862900D02*
X171953470Y-131160400D01*
X171953470Y-130564700D02*
X171953470Y-130862900D01*
X171953470Y-130267400D02*
X171953470Y-130564700D01*
X171953470Y-129969400D02*
X171953470Y-130267400D01*
X171953470Y-129671100D02*
X171953470Y-129969400D01*
X171953470Y-129372600D02*
X171953470Y-129671100D01*
X171953470Y-129075200D02*
X171953470Y-129372600D01*
X171953470Y-128777200D02*
X171953470Y-129075200D01*
X171953470Y-128479100D02*
X171953470Y-128777200D01*
X171953470Y-128181800D02*
X171953470Y-128479100D01*
X171953470Y-127883100D02*
X171953470Y-128181800D01*
X171953470Y-127584600D02*
X171953470Y-127883100D01*
X171953470Y-127287500D02*
X171953470Y-127584600D01*
X171953470Y-126988900D02*
X171953470Y-127287500D01*
X171953470Y-126690800D02*
X171953470Y-126988900D01*
X171953470Y-126393100D02*
X171953470Y-126690800D01*
X171953470Y-126095500D02*
X171953470Y-126393100D01*
X171953470Y-125797000D02*
X171953470Y-126095500D01*
X171953470Y-125499200D02*
X171953470Y-125797000D01*
X171953470Y-125200700D02*
X171953470Y-125499200D01*
X171953470Y-124902700D02*
X171953470Y-125200700D01*
X171953470Y-124605000D02*
X171953470Y-124902700D01*
X171953470Y-124307300D02*
X171953470Y-124605000D01*
X171953470Y-124009000D02*
X171953470Y-124307300D01*
X171953470Y-123710900D02*
X171953470Y-124009000D01*
X171953470Y-123414000D02*
X171953470Y-123710900D01*
X171953470Y-123116100D02*
X171953470Y-123414000D01*
X171953470Y-122818000D02*
X171953470Y-123116100D01*
X171953470Y-122520400D02*
X171953470Y-122818000D01*
X171953470Y-122222600D02*
X171953470Y-122520400D01*
X171953470Y-121923800D02*
X171953470Y-122222600D01*
X171953470Y-121626400D02*
X171953470Y-121923800D01*
X171953470Y-121328300D02*
X171953470Y-121626400D01*
X171953470Y-121030300D02*
X171953470Y-121328300D01*
X171953470Y-120732100D02*
X171953470Y-121030300D01*
X171953470Y-120435100D02*
X171953470Y-120732100D01*
X171953470Y-120137600D02*
X171953470Y-120435100D01*
X171953470Y-119840100D02*
X171953470Y-120137600D01*
X171953470Y-119542400D02*
X171953470Y-119840100D01*
X171953470Y-119244900D02*
X171953470Y-119542400D01*
X171953470Y-118947300D02*
X171953470Y-119244900D01*
X171953470Y-118648400D02*
X171953470Y-118947300D01*
X171953470Y-118350700D02*
X171953470Y-118648400D01*
X171953470Y-118052300D02*
X171953470Y-118350700D01*
X171953470Y-117755000D02*
X171953470Y-118052300D01*
X171656470Y-117755000D02*
X171953470Y-117755000D01*
X171358870Y-117755000D02*
X171656470Y-117755000D01*
X171061470Y-117755000D02*
X171358870Y-117755000D01*
X170763170Y-117755000D02*
X171061470Y-117755000D01*
X170465870Y-117755000D02*
X170763170Y-117755000D01*
X170167870Y-117755000D02*
X170465870Y-117755000D01*
X169869570Y-117755000D02*
X170167870Y-117755000D01*
X169571070Y-117755000D02*
X169869570Y-117755000D01*
X169273670Y-117755000D02*
X169571070Y-117755000D01*
X168975670Y-117755000D02*
X169273670Y-117755000D01*
X168677570Y-117755000D02*
X168975670Y-117755000D01*
X168380270Y-117755000D02*
X168677570Y-117755000D01*
X168081570Y-117755000D02*
X168380270Y-117755000D01*
X167783070Y-117755000D02*
X168081570Y-117755000D01*
X167485970Y-117755000D02*
X167783070Y-117755000D01*
X167187370Y-117755000D02*
X167485970Y-117755000D01*
X166889270Y-117755000D02*
X167187370Y-117755000D01*
X166591570Y-117755000D02*
X166889270Y-117755000D01*
X166293970Y-117755000D02*
X166591570Y-117755000D01*
X165995470Y-117755000D02*
X166293970Y-117755000D01*
X165697670Y-117755000D02*
X165995470Y-117755000D01*
X165399170Y-117755000D02*
X165697670Y-117755000D01*
X165101170Y-117755000D02*
X165399170Y-117755000D01*
X164803470Y-117755000D02*
X165101170Y-117755000D01*
X164505770Y-117755000D02*
X164803470Y-117755000D01*
X164207470Y-117755000D02*
X164505770Y-117755000D01*
X163909370Y-117755000D02*
X164207470Y-117755000D01*
X163612470Y-117755000D02*
X163909370Y-117755000D01*
X163314570Y-117755000D02*
X163612470Y-117755000D01*
X163016470Y-117755000D02*
X163314570Y-117755000D01*
X162718870Y-117755000D02*
X163016470Y-117755000D01*
X162421070Y-117755000D02*
X162718870Y-117755000D01*
X162122270Y-117755000D02*
X162421070Y-117755000D01*
X161824870Y-117755000D02*
X162122270Y-117755000D01*
X161526770Y-117755000D02*
X161824870Y-117755000D01*
X161228770Y-117755000D02*
X161526770Y-117755000D01*
X160930670Y-117755000D02*
X161228770Y-117755000D01*
X160633570Y-117755000D02*
X160930670Y-117755000D01*
X160336070Y-117755000D02*
X160633570Y-117755000D01*
X160038570Y-117755000D02*
X160336070Y-117755000D01*
X159740870Y-117755000D02*
X160038570Y-117755000D01*
X159443370Y-117755000D02*
X159740870Y-117755000D01*
X159145770Y-117755000D02*
X159443370Y-117755000D01*
X158846870Y-117755000D02*
X159145770Y-117755000D01*
X158549170Y-117755000D02*
X158846870Y-117755000D01*
X158250770Y-117755000D02*
X158549170Y-117755000D01*
X157953470Y-117755000D02*
X158250770Y-117755000D01*
X157953470Y-118052000D02*
X157953470Y-117755000D01*
X157953470Y-118349700D02*
X157953470Y-118052000D01*
X157953470Y-118647100D02*
X157953470Y-118349700D01*
X157953470Y-118945400D02*
X157953470Y-118647100D01*
X157953470Y-119242700D02*
X157953470Y-118945400D01*
X157953470Y-119540700D02*
X157953470Y-119242700D01*
X157953470Y-119838900D02*
X157953470Y-119540700D01*
X157953470Y-120137500D02*
X157953470Y-119838900D01*
X157953470Y-120434800D02*
X157953470Y-120137500D01*
X157953470Y-120732900D02*
X157953470Y-120434800D01*
X157953470Y-121030900D02*
X157953470Y-120732900D01*
X157953470Y-121328200D02*
X157953470Y-121030900D01*
X157953470Y-121627000D02*
X157953470Y-121328200D01*
X157953470Y-121925500D02*
X157953470Y-121627000D01*
X157953470Y-122222500D02*
X157953470Y-121925500D01*
X157953470Y-122521200D02*
X157953470Y-122222500D01*
X157953470Y-122819300D02*
X157953470Y-122521200D01*
X157953470Y-123116900D02*
X157953470Y-122819300D01*
X157953470Y-123414600D02*
X157953470Y-123116900D01*
X157953470Y-123713000D02*
X157953470Y-123414600D01*
X157953470Y-124010900D02*
X157953470Y-123713000D01*
X157953470Y-124309400D02*
X157953470Y-124010900D01*
X157953470Y-124607300D02*
X157953470Y-124309400D01*
X157953470Y-124905000D02*
X157953470Y-124607300D01*
X157953470Y-125202800D02*
X157953470Y-124905000D01*
X157953470Y-125501100D02*
X157953470Y-125202800D01*
X157953470Y-125799100D02*
X157953470Y-125501100D01*
X157953470Y-126096000D02*
X157953470Y-125799100D01*
X157953470Y-126393900D02*
X157953470Y-126096000D01*
X157953470Y-126692000D02*
X157953470Y-126393900D01*
X157953470Y-126989600D02*
X157953470Y-126692000D01*
X157953470Y-127287500D02*
X157953470Y-126989600D01*
X157953470Y-127586200D02*
X157953470Y-127287500D01*
X157953470Y-127883600D02*
X157953470Y-127586200D01*
X157953470Y-128181800D02*
X157953470Y-127883600D01*
X157953470Y-128479700D02*
X157953470Y-128181800D01*
X157953470Y-128777900D02*
X157953470Y-128479700D01*
X157953470Y-129075000D02*
X157953470Y-128777900D01*
X157953470Y-129372500D02*
X157953470Y-129075000D01*
X157953470Y-129669900D02*
X157953470Y-129372500D01*
X157953470Y-129967700D02*
X157953470Y-129669900D01*
X157953470Y-130265100D02*
X157953470Y-129967700D01*
X157953470Y-130562800D02*
X157953470Y-130265100D01*
X157953470Y-130861600D02*
X157953470Y-130562800D01*
X157953470Y-131159400D02*
X157953470Y-130861600D01*
X157953470Y-131457800D02*
X157953470Y-131159400D01*
X157953470Y-131755000D02*
X157953470Y-131457800D01*
X158250470Y-131755000D02*
X157953470Y-131755000D01*
X158548170Y-131755000D02*
X158250470Y-131755000D01*
X158845570Y-131755000D02*
X158548170Y-131755000D01*
X159143870Y-131755000D02*
X158845570Y-131755000D01*
X159441170Y-131755000D02*
X159143870Y-131755000D01*
X159739170Y-131755000D02*
X159441170Y-131755000D01*
X160037370Y-131755000D02*
X159739170Y-131755000D01*
X160335970Y-131755000D02*
X160037370Y-131755000D01*
X160633270Y-131755000D02*
X160335970Y-131755000D01*
X160931370Y-131755000D02*
X160633270Y-131755000D01*
X161229370Y-131755000D02*
X160931370Y-131755000D01*
X161526670Y-131755000D02*
X161229370Y-131755000D01*
X161825470Y-131755000D02*
X161526670Y-131755000D01*
X162123970Y-131755000D02*
X161825470Y-131755000D01*
X162421070Y-131755000D02*
X162123970Y-131755000D01*
X162719670Y-131755000D02*
X162421070Y-131755000D01*
X163017770Y-131755000D02*
X162719670Y-131755000D01*
X163315370Y-131755000D02*
X163017770Y-131755000D01*
X163613070Y-131755000D02*
X163315370Y-131755000D01*
X163911470Y-131755000D02*
X163613070Y-131755000D01*
X164209370Y-131755000D02*
X163911470Y-131755000D01*
X164507870Y-131755000D02*
X164209370Y-131755000D01*
X164805770Y-131755000D02*
X164507870Y-131755000D01*
X165103470Y-131755000D02*
X164805770Y-131755000D01*
X165401270Y-131755000D02*
X165103470Y-131755000D01*
X165699570Y-131755000D02*
X165401270Y-131755000D01*
X165997570Y-131755000D02*
X165699570Y-131755000D01*
X166294470Y-131755000D02*
X165997570Y-131755000D01*
X166592370Y-131755000D02*
X166294470Y-131755000D01*
X166890470Y-131755000D02*
X166592370Y-131755000D01*
X167188070Y-131755000D02*
X166890470Y-131755000D01*
X167485970Y-131755000D02*
X167188070Y-131755000D01*
X167784670Y-131755000D02*
X167485970Y-131755000D01*
X168082070Y-131755000D02*
X167784670Y-131755000D01*
X168380270Y-131755000D02*
X168082070Y-131755000D01*
X168678170Y-131755000D02*
X168380270Y-131755000D01*
X168976370Y-131755000D02*
X168678170Y-131755000D01*
X169273470Y-131755000D02*
X168976370Y-131755000D01*
X169570970Y-131755000D02*
X169273470Y-131755000D01*
X169868370Y-131755000D02*
X169570970Y-131755000D01*
X170166170Y-131755000D02*
X169868370Y-131755000D01*
X170463570Y-131755000D02*
X170166170Y-131755000D01*
X170761270Y-131755000D02*
X170463570Y-131755000D01*
X171060070Y-131755000D02*
X170761270Y-131755000D01*
X171357870Y-131755000D02*
X171060070Y-131755000D01*
X171656270Y-131755000D02*
X171357870Y-131755000D01*
X171953470Y-131755000D02*
X171656270Y-131755000D01*
X152903470Y-131458000D02*
X152903470Y-131755000D01*
X152903470Y-131160400D02*
X152903470Y-131458000D01*
X152903470Y-130862900D02*
X152903470Y-131160400D01*
X152903470Y-130564700D02*
X152903470Y-130862900D01*
X152903470Y-130267400D02*
X152903470Y-130564700D01*
X152903470Y-129969400D02*
X152903470Y-130267400D01*
X152903470Y-129671100D02*
X152903470Y-129969400D01*
X152903470Y-129372600D02*
X152903470Y-129671100D01*
X152903470Y-129075200D02*
X152903470Y-129372600D01*
X152903470Y-128777200D02*
X152903470Y-129075200D01*
X152903470Y-128479100D02*
X152903470Y-128777200D01*
X152903470Y-128181800D02*
X152903470Y-128479100D01*
X152903470Y-127883100D02*
X152903470Y-128181800D01*
X152903470Y-127584600D02*
X152903470Y-127883100D01*
X152903470Y-127287500D02*
X152903470Y-127584600D01*
X152903470Y-126988900D02*
X152903470Y-127287500D01*
X152903470Y-126690800D02*
X152903470Y-126988900D01*
X152903470Y-126393100D02*
X152903470Y-126690800D01*
X152903470Y-126095500D02*
X152903470Y-126393100D01*
X152903470Y-125797000D02*
X152903470Y-126095500D01*
X152903470Y-125499200D02*
X152903470Y-125797000D01*
X152903470Y-125200700D02*
X152903470Y-125499200D01*
X152903470Y-124902700D02*
X152903470Y-125200700D01*
X152903470Y-124605000D02*
X152903470Y-124902700D01*
X152903470Y-124307300D02*
X152903470Y-124605000D01*
X152903470Y-124009000D02*
X152903470Y-124307300D01*
X152903470Y-123710900D02*
X152903470Y-124009000D01*
X152903470Y-123414000D02*
X152903470Y-123710900D01*
X152903470Y-123116100D02*
X152903470Y-123414000D01*
X152903470Y-122818000D02*
X152903470Y-123116100D01*
X152903470Y-122520400D02*
X152903470Y-122818000D01*
X152903470Y-122222600D02*
X152903470Y-122520400D01*
X152903470Y-121923800D02*
X152903470Y-122222600D01*
X152903470Y-121626400D02*
X152903470Y-121923800D01*
X152903470Y-121328300D02*
X152903470Y-121626400D01*
X152903470Y-121030300D02*
X152903470Y-121328300D01*
X152903470Y-120732100D02*
X152903470Y-121030300D01*
X152903470Y-120435100D02*
X152903470Y-120732100D01*
X152903470Y-120137600D02*
X152903470Y-120435100D01*
X152903470Y-119840100D02*
X152903470Y-120137600D01*
X152903470Y-119542400D02*
X152903470Y-119840100D01*
X152903470Y-119244900D02*
X152903470Y-119542400D01*
X152903470Y-118947300D02*
X152903470Y-119244900D01*
X152903470Y-118648400D02*
X152903470Y-118947300D01*
X152903470Y-118350700D02*
X152903470Y-118648400D01*
X152903470Y-118052300D02*
X152903470Y-118350700D01*
X152903470Y-117755000D02*
X152903470Y-118052300D01*
X152606470Y-117755000D02*
X152903470Y-117755000D01*
X152308870Y-117755000D02*
X152606470Y-117755000D01*
X152011470Y-117755000D02*
X152308870Y-117755000D01*
X151713170Y-117755000D02*
X152011470Y-117755000D01*
X151415870Y-117755000D02*
X151713170Y-117755000D01*
X151117870Y-117755000D02*
X151415870Y-117755000D01*
X150819570Y-117755000D02*
X151117870Y-117755000D01*
X150521070Y-117755000D02*
X150819570Y-117755000D01*
X150223670Y-117755000D02*
X150521070Y-117755000D01*
X149925670Y-117755000D02*
X150223670Y-117755000D01*
X149627570Y-117755000D02*
X149925670Y-117755000D01*
X149330270Y-117755000D02*
X149627570Y-117755000D01*
X149031570Y-117755000D02*
X149330270Y-117755000D01*
X148733070Y-117755000D02*
X149031570Y-117755000D01*
X148435970Y-117755000D02*
X148733070Y-117755000D01*
X148137370Y-117755000D02*
X148435970Y-117755000D01*
X147839270Y-117755000D02*
X148137370Y-117755000D01*
X147541570Y-117755000D02*
X147839270Y-117755000D01*
X147243970Y-117755000D02*
X147541570Y-117755000D01*
X146945470Y-117755000D02*
X147243970Y-117755000D01*
X146647670Y-117755000D02*
X146945470Y-117755000D01*
X146349170Y-117755000D02*
X146647670Y-117755000D01*
X146051170Y-117755000D02*
X146349170Y-117755000D01*
X145753470Y-117755000D02*
X146051170Y-117755000D01*
X145455770Y-117755000D02*
X145753470Y-117755000D01*
X145157470Y-117755000D02*
X145455770Y-117755000D01*
X144859370Y-117755000D02*
X145157470Y-117755000D01*
X144562470Y-117755000D02*
X144859370Y-117755000D01*
X144264570Y-117755000D02*
X144562470Y-117755000D01*
X143966470Y-117755000D02*
X144264570Y-117755000D01*
X143668870Y-117755000D02*
X143966470Y-117755000D01*
X143371070Y-117755000D02*
X143668870Y-117755000D01*
X143072270Y-117755000D02*
X143371070Y-117755000D01*
X142774870Y-117755000D02*
X143072270Y-117755000D01*
X142476770Y-117755000D02*
X142774870Y-117755000D01*
X142178770Y-117755000D02*
X142476770Y-117755000D01*
X141880670Y-117755000D02*
X142178770Y-117755000D01*
X141583570Y-117755000D02*
X141880670Y-117755000D01*
X141286070Y-117755000D02*
X141583570Y-117755000D01*
X140988570Y-117755000D02*
X141286070Y-117755000D01*
X140690870Y-117755000D02*
X140988570Y-117755000D01*
X140393370Y-117755000D02*
X140690870Y-117755000D01*
X140095770Y-117755000D02*
X140393370Y-117755000D01*
X139796870Y-117755000D02*
X140095770Y-117755000D01*
X139499170Y-117755000D02*
X139796870Y-117755000D01*
X139200770Y-117755000D02*
X139499170Y-117755000D01*
X138903470Y-117755000D02*
X139200770Y-117755000D01*
X138903470Y-118052000D02*
X138903470Y-117755000D01*
X138903470Y-118349700D02*
X138903470Y-118052000D01*
X138903470Y-118647100D02*
X138903470Y-118349700D01*
X138903470Y-118945400D02*
X138903470Y-118647100D01*
X138903470Y-119242700D02*
X138903470Y-118945400D01*
X138903470Y-119540700D02*
X138903470Y-119242700D01*
X138903470Y-119838900D02*
X138903470Y-119540700D01*
X138903470Y-120137500D02*
X138903470Y-119838900D01*
X138903470Y-120434800D02*
X138903470Y-120137500D01*
X138903470Y-120732900D02*
X138903470Y-120434800D01*
X138903470Y-121030900D02*
X138903470Y-120732900D01*
X138903470Y-121328200D02*
X138903470Y-121030900D01*
X138903470Y-121627000D02*
X138903470Y-121328200D01*
X138903470Y-121925500D02*
X138903470Y-121627000D01*
X138903470Y-122222500D02*
X138903470Y-121925500D01*
X138903470Y-122521200D02*
X138903470Y-122222500D01*
X138903470Y-122819300D02*
X138903470Y-122521200D01*
X138903470Y-123116900D02*
X138903470Y-122819300D01*
X138903470Y-123414600D02*
X138903470Y-123116900D01*
X138903470Y-123713000D02*
X138903470Y-123414600D01*
X138903470Y-124010900D02*
X138903470Y-123713000D01*
X138903470Y-124309400D02*
X138903470Y-124010900D01*
X138903470Y-124607300D02*
X138903470Y-124309400D01*
X138903470Y-124905000D02*
X138903470Y-124607300D01*
X138903470Y-125202800D02*
X138903470Y-124905000D01*
X138903470Y-125501100D02*
X138903470Y-125202800D01*
X138903470Y-125799100D02*
X138903470Y-125501100D01*
X138903470Y-126096000D02*
X138903470Y-125799100D01*
X138903470Y-126393900D02*
X138903470Y-126096000D01*
X138903470Y-126692000D02*
X138903470Y-126393900D01*
X138903470Y-126989600D02*
X138903470Y-126692000D01*
X138903470Y-127287500D02*
X138903470Y-126989600D01*
X138903470Y-127586200D02*
X138903470Y-127287500D01*
X138903470Y-127883600D02*
X138903470Y-127586200D01*
X138903470Y-128181800D02*
X138903470Y-127883600D01*
X138903470Y-128479700D02*
X138903470Y-128181800D01*
X138903470Y-128777900D02*
X138903470Y-128479700D01*
X138903470Y-129075000D02*
X138903470Y-128777900D01*
X138903470Y-129372500D02*
X138903470Y-129075000D01*
X138903470Y-129669900D02*
X138903470Y-129372500D01*
X138903470Y-129967700D02*
X138903470Y-129669900D01*
X138903470Y-130265100D02*
X138903470Y-129967700D01*
X138903470Y-130562800D02*
X138903470Y-130265100D01*
X138903470Y-130861600D02*
X138903470Y-130562800D01*
X138903470Y-131159400D02*
X138903470Y-130861600D01*
X138903470Y-131457800D02*
X138903470Y-131159400D01*
X138903470Y-131755000D02*
X138903470Y-131457800D01*
X139200470Y-131755000D02*
X138903470Y-131755000D01*
X139498170Y-131755000D02*
X139200470Y-131755000D01*
X139795570Y-131755000D02*
X139498170Y-131755000D01*
X140093870Y-131755000D02*
X139795570Y-131755000D01*
X140391170Y-131755000D02*
X140093870Y-131755000D01*
X140689170Y-131755000D02*
X140391170Y-131755000D01*
X140987370Y-131755000D02*
X140689170Y-131755000D01*
X141285970Y-131755000D02*
X140987370Y-131755000D01*
X141583270Y-131755000D02*
X141285970Y-131755000D01*
X141881370Y-131755000D02*
X141583270Y-131755000D01*
X142179370Y-131755000D02*
X141881370Y-131755000D01*
X142476670Y-131755000D02*
X142179370Y-131755000D01*
X142775470Y-131755000D02*
X142476670Y-131755000D01*
X143073970Y-131755000D02*
X142775470Y-131755000D01*
X143371070Y-131755000D02*
X143073970Y-131755000D01*
X143669670Y-131755000D02*
X143371070Y-131755000D01*
X143967770Y-131755000D02*
X143669670Y-131755000D01*
X144265370Y-131755000D02*
X143967770Y-131755000D01*
X144563070Y-131755000D02*
X144265370Y-131755000D01*
X144861470Y-131755000D02*
X144563070Y-131755000D01*
X145159370Y-131755000D02*
X144861470Y-131755000D01*
X145457870Y-131755000D02*
X145159370Y-131755000D01*
X145755770Y-131755000D02*
X145457870Y-131755000D01*
X146053470Y-131755000D02*
X145755770Y-131755000D01*
X146351270Y-131755000D02*
X146053470Y-131755000D01*
X146649570Y-131755000D02*
X146351270Y-131755000D01*
X146947570Y-131755000D02*
X146649570Y-131755000D01*
X147244470Y-131755000D02*
X146947570Y-131755000D01*
X147542370Y-131755000D02*
X147244470Y-131755000D01*
X147840470Y-131755000D02*
X147542370Y-131755000D01*
X148138070Y-131755000D02*
X147840470Y-131755000D01*
X148435970Y-131755000D02*
X148138070Y-131755000D01*
X148734670Y-131755000D02*
X148435970Y-131755000D01*
X149032070Y-131755000D02*
X148734670Y-131755000D01*
X149330270Y-131755000D02*
X149032070Y-131755000D01*
X149628170Y-131755000D02*
X149330270Y-131755000D01*
X149926370Y-131755000D02*
X149628170Y-131755000D01*
X150223470Y-131755000D02*
X149926370Y-131755000D01*
X150520970Y-131755000D02*
X150223470Y-131755000D01*
X150818370Y-131755000D02*
X150520970Y-131755000D01*
X151116170Y-131755000D02*
X150818370Y-131755000D01*
X151413570Y-131755000D02*
X151116170Y-131755000D01*
X151711270Y-131755000D02*
X151413570Y-131755000D01*
X152010070Y-131755000D02*
X151711270Y-131755000D01*
X152307870Y-131755000D02*
X152010070Y-131755000D01*
X152606270Y-131755000D02*
X152307870Y-131755000D01*
X152903470Y-131755000D02*
X152606270Y-131755000D01*
X113369680Y-117267400D02*
X113655040Y-117230000D01*
X113104640Y-117377400D02*
X113369680Y-117267400D01*
X112877230Y-117552200D02*
X113104640Y-117377400D01*
X112702240Y-117780000D02*
X112877230Y-117552200D01*
X112592260Y-118045300D02*
X112702240Y-117780000D01*
X112555040Y-118330000D02*
X112592260Y-118045300D01*
X112592420Y-118615400D02*
X112555040Y-118330000D01*
X112702430Y-118880400D02*
X112592420Y-118615400D01*
X112877220Y-119107800D02*
X112702430Y-118880400D01*
X113104970Y-119282800D02*
X112877220Y-119107800D01*
X113370270Y-119392800D02*
X113104970Y-119282800D01*
X113655040Y-119430000D02*
X113370270Y-119392800D01*
X113940400Y-119392600D02*
X113655040Y-119430000D01*
X114205450Y-119282600D02*
X113940400Y-119392600D01*
X114432850Y-119107800D02*
X114205450Y-119282600D01*
X114607840Y-118880100D02*
X114432850Y-119107800D01*
X114717820Y-118614800D02*
X114607840Y-118880100D01*
X114755040Y-118330000D02*
X114717820Y-118614800D01*
X114717660Y-118044700D02*
X114755040Y-118330000D01*
X114607650Y-117779600D02*
X114717660Y-118044700D01*
X114432870Y-117552200D02*
X114607650Y-117779600D01*
X114205120Y-117377200D02*
X114432870Y-117552200D01*
X113939820Y-117267200D02*
X114205120Y-117377200D01*
X113655040Y-117230000D02*
X113939820Y-117267200D01*
X134341170Y-73136210D02*
X134378470Y-73421570D01*
X134231070Y-72871170D02*
X134341170Y-73136210D01*
X134056370Y-72643760D02*
X134231070Y-72871170D01*
X133828570Y-72468770D02*
X134056370Y-72643760D01*
X133563270Y-72358790D02*
X133828570Y-72468770D01*
X133278470Y-72321570D02*
X133563270Y-72358790D01*
X132993170Y-72358950D02*
X133278470Y-72321570D01*
X132728070Y-72468960D02*
X132993170Y-72358950D01*
X132500670Y-72643750D02*
X132728070Y-72468960D01*
X132325670Y-72871490D02*
X132500670Y-72643750D01*
X132215670Y-73136800D02*
X132325670Y-72871490D01*
X132178470Y-73421570D02*
X132215670Y-73136800D01*
X132215870Y-73706930D02*
X132178470Y-73421570D01*
X132325870Y-73971970D02*
X132215870Y-73706930D01*
X132500670Y-74199380D02*
X132325870Y-73971970D01*
X132728470Y-74374370D02*
X132500670Y-74199380D01*
X132993770Y-74484350D02*
X132728470Y-74374370D01*
X133278470Y-74521570D02*
X132993770Y-74484350D01*
X133563870Y-74484190D02*
X133278470Y-74521570D01*
X133828870Y-74374180D02*
X133563870Y-74484190D01*
X134056270Y-74199390D02*
X133828870Y-74374180D01*
X134231270Y-73971650D02*
X134056270Y-74199390D01*
X134341270Y-73706340D02*
X134231270Y-73971650D01*
X134378470Y-73421570D02*
X134341270Y-73706340D01*
X159591170Y-73136180D02*
X159628470Y-73421540D01*
X159481070Y-72871140D02*
X159591170Y-73136180D01*
X159306370Y-72643730D02*
X159481070Y-72871140D01*
X159078570Y-72468750D02*
X159306370Y-72643730D01*
X158813270Y-72358760D02*
X159078570Y-72468750D01*
X158528470Y-72321540D02*
X158813270Y-72358760D01*
X158243170Y-72358920D02*
X158528470Y-72321540D01*
X157978070Y-72468940D02*
X158243170Y-72358920D01*
X157750670Y-72643720D02*
X157978070Y-72468940D01*
X157575670Y-72871470D02*
X157750670Y-72643720D01*
X157465670Y-73136770D02*
X157575670Y-72871470D01*
X157428470Y-73421540D02*
X157465670Y-73136770D01*
X157465870Y-73706900D02*
X157428470Y-73421540D01*
X157575870Y-73971950D02*
X157465870Y-73706900D01*
X157750670Y-74199350D02*
X157575870Y-73971950D01*
X157978470Y-74374340D02*
X157750670Y-74199350D01*
X158243770Y-74484320D02*
X157978470Y-74374340D01*
X158528470Y-74521540D02*
X158243770Y-74484320D01*
X158813870Y-74484170D02*
X158528470Y-74521540D01*
X159078870Y-74374150D02*
X158813870Y-74484170D01*
X159306270Y-74199370D02*
X159078870Y-74374150D01*
X159481270Y-73971620D02*
X159306270Y-74199370D01*
X159591270Y-73706320D02*
X159481270Y-73971620D01*
X159628470Y-73421540D02*
X159591270Y-73706320D01*
X113344660Y-92007400D02*
X113630020Y-91970000D01*
X113079620Y-92117400D02*
X113344660Y-92007400D01*
X112852210Y-92292200D02*
X113079620Y-92117400D01*
X112677220Y-92520000D02*
X112852210Y-92292200D01*
X112567240Y-92785300D02*
X112677220Y-92520000D01*
X112530020Y-93070000D02*
X112567240Y-92785300D01*
X112567400Y-93355400D02*
X112530020Y-93070000D01*
X112677410Y-93620400D02*
X112567400Y-93355400D01*
X112852200Y-93847800D02*
X112677410Y-93620400D01*
X113079950Y-94022800D02*
X112852200Y-93847800D01*
X113345250Y-94132800D02*
X113079950Y-94022800D01*
X113630020Y-94170000D02*
X113345250Y-94132800D01*
X113915380Y-94132700D02*
X113630020Y-94170000D01*
X114180430Y-94022600D02*
X113915380Y-94132700D01*
X114407830Y-93847900D02*
X114180430Y-94022600D01*
X114582820Y-93620100D02*
X114407830Y-93847900D01*
X114692800Y-93354800D02*
X114582820Y-93620100D01*
X114730020Y-93070000D02*
X114692800Y-93354800D01*
X114692640Y-92784700D02*
X114730020Y-93070000D01*
X114582630Y-92519600D02*
X114692640Y-92784700D01*
X114407850Y-92292200D02*
X114582630Y-92519600D01*
X114180100Y-92117200D02*
X114407850Y-92292200D01*
X113914800Y-92007200D02*
X114180100Y-92117200D01*
X113630020Y-91970000D02*
X113914800Y-92007200D01*
X178458370Y-92017400D02*
X178172970Y-91980000D01*
X178723370Y-92127400D02*
X178458370Y-92017400D01*
X178950770Y-92302200D02*
X178723370Y-92127400D01*
X179125770Y-92530000D02*
X178950770Y-92302200D01*
X179235770Y-92795300D02*
X179125770Y-92530000D01*
X179272970Y-93080000D02*
X179235770Y-92795300D01*
X179235570Y-93365400D02*
X179272970Y-93080000D01*
X179125570Y-93630400D02*
X179235570Y-93365400D01*
X178950770Y-93857800D02*
X179125570Y-93630400D01*
X178723070Y-94032800D02*
X178950770Y-93857800D01*
X178457770Y-94142800D02*
X178723070Y-94032800D01*
X178172970Y-94180000D02*
X178457770Y-94142800D01*
X177887570Y-94142700D02*
X178172970Y-94180000D01*
X177622570Y-94032600D02*
X177887570Y-94142700D01*
X177395170Y-93857900D02*
X177622570Y-94032600D01*
X177220170Y-93630100D02*
X177395170Y-93857900D01*
X177110170Y-93364800D02*
X177220170Y-93630100D01*
X177072970Y-93080000D02*
X177110170Y-93364800D01*
X177110370Y-92794700D02*
X177072970Y-93080000D01*
X177220370Y-92529600D02*
X177110370Y-92794700D01*
X177395170Y-92302200D02*
X177220370Y-92529600D01*
X177622870Y-92127200D02*
X177395170Y-92302200D01*
X177888170Y-92017200D02*
X177622870Y-92127200D01*
X178172970Y-91980000D02*
X177888170Y-92017200D01*
X178458370Y-117272600D02*
X178172970Y-117235200D01*
X178723370Y-117382600D02*
X178458370Y-117272600D01*
X178950770Y-117557400D02*
X178723370Y-117382600D01*
X179125770Y-117785200D02*
X178950770Y-117557400D01*
X179235770Y-118050500D02*
X179125770Y-117785200D01*
X179272970Y-118335200D02*
X179235770Y-118050500D01*
X179235570Y-118620600D02*
X179272970Y-118335200D01*
X179125570Y-118885600D02*
X179235570Y-118620600D01*
X178950770Y-119113000D02*
X179125570Y-118885600D01*
X178723070Y-119288000D02*
X178950770Y-119113000D01*
X178457770Y-119398000D02*
X178723070Y-119288000D01*
X178172970Y-119435200D02*
X178457770Y-119398000D01*
X177887570Y-119397800D02*
X178172970Y-119435200D01*
X177622570Y-119287800D02*
X177887570Y-119397800D01*
X177395170Y-119113000D02*
X177622570Y-119287800D01*
X177220170Y-118885300D02*
X177395170Y-119113000D01*
X177110170Y-118620000D02*
X177220170Y-118885300D01*
X177072970Y-118335200D02*
X177110170Y-118620000D01*
X177110370Y-118049900D02*
X177072970Y-118335200D01*
X177220370Y-117784800D02*
X177110370Y-118049900D01*
X177395170Y-117557400D02*
X177220370Y-117784800D01*
X177622870Y-117382400D02*
X177395170Y-117557400D01*
X177888170Y-117272400D02*
X177622870Y-117382400D01*
X178172970Y-117235200D02*
X177888170Y-117272400D01*
X159596070Y-138269800D02*
X159633470Y-137984500D01*
X159486070Y-138534900D02*
X159596070Y-138269800D01*
X159311270Y-138762300D02*
X159486070Y-138534900D01*
X159083570Y-138937300D02*
X159311270Y-138762300D01*
X158818270Y-139047300D02*
X159083570Y-138937300D01*
X158533470Y-139084500D02*
X158818270Y-139047300D01*
X158248170Y-139047100D02*
X158533470Y-139084500D01*
X157983070Y-138937100D02*
X158248170Y-139047100D01*
X157755670Y-138762300D02*
X157983070Y-138937100D01*
X157580670Y-138534600D02*
X157755670Y-138762300D01*
X157470670Y-138269300D02*
X157580670Y-138534600D01*
X157433470Y-137984500D02*
X157470670Y-138269300D01*
X157470870Y-137699100D02*
X157433470Y-137984500D01*
X157580870Y-137434100D02*
X157470870Y-137699100D01*
X157755670Y-137206700D02*
X157580870Y-137434100D01*
X157983370Y-137031700D02*
X157755670Y-137206700D01*
X158248670Y-136921700D02*
X157983370Y-137031700D01*
X158533470Y-136884500D02*
X158248670Y-136921700D01*
X158818870Y-136921900D02*
X158533470Y-136884500D01*
X159083870Y-137031900D02*
X158818870Y-136921900D01*
X159311270Y-137206700D02*
X159083870Y-137031900D01*
X159486270Y-137434400D02*
X159311270Y-137206700D01*
X159596270Y-137699700D02*
X159486270Y-137434400D01*
X159633470Y-137984500D02*
X159596270Y-137699700D01*
X155633370Y-135585500D02*
X155633470Y-135585500D01*
X155599570Y-135327500D02*
X155633370Y-135585500D01*
X155499270Y-135085300D02*
X155599570Y-135327500D01*
X155340470Y-134878400D02*
X155499270Y-135085300D01*
X155134070Y-134719900D02*
X155340470Y-134878400D01*
X154891970Y-134619500D02*
X155134070Y-134719900D01*
X154633370Y-134585500D02*
X154891970Y-134619500D01*
X154337370Y-134585500D02*
X154633370Y-134585500D01*
X154041970Y-134585500D02*
X154337370Y-134585500D01*
X153745770Y-134585500D02*
X154041970Y-134585500D01*
X153451270Y-134585500D02*
X153745770Y-134585500D01*
X153155670Y-134585500D02*
X153451270Y-134585500D01*
X152859370Y-134585500D02*
X153155670Y-134585500D01*
X152564770Y-134585500D02*
X152859370Y-134585500D01*
X152270270Y-134585500D02*
X152564770Y-134585500D01*
X151974770Y-134585500D02*
X152270270Y-134585500D01*
X151678470Y-134585500D02*
X151974770Y-134585500D01*
X151381970Y-134585500D02*
X151678470Y-134585500D01*
X151085970Y-134585500D02*
X151381970Y-134585500D01*
X150789970Y-134585500D02*
X151085970Y-134585500D01*
X150494070Y-134585500D02*
X150789970Y-134585500D01*
X150199370Y-134585500D02*
X150494070Y-134585500D01*
X149902970Y-134585500D02*
X150199370Y-134585500D01*
X149606670Y-134585500D02*
X149902970Y-134585500D01*
X149310370Y-134585500D02*
X149606670Y-134585500D01*
X149013570Y-134585500D02*
X149310370Y-134585500D01*
X148717870Y-134585500D02*
X149013570Y-134585500D01*
X148422170Y-134585500D02*
X148717870Y-134585500D01*
X148126470Y-134585500D02*
X148422170Y-134585500D01*
X147830670Y-134585500D02*
X148126470Y-134585500D01*
X147534370Y-134585500D02*
X147830670Y-134585500D01*
X147238370Y-134585500D02*
X147534370Y-134585500D01*
X146942170Y-134585500D02*
X147238370Y-134585500D01*
X146646670Y-134585500D02*
X146942170Y-134585500D01*
X146350870Y-134585500D02*
X146646670Y-134585500D01*
X146055670Y-134585500D02*
X146350870Y-134585500D01*
X145759970Y-134585500D02*
X146055670Y-134585500D01*
X145464470Y-134585500D02*
X145759970Y-134585500D01*
X145167970Y-134585500D02*
X145464470Y-134585500D01*
X144872770Y-134585500D02*
X145167970Y-134585500D01*
X144577770Y-134585500D02*
X144872770Y-134585500D01*
X144281470Y-134585500D02*
X144577770Y-134585500D01*
X143986270Y-134585500D02*
X144281470Y-134585500D01*
X143690970Y-134585500D02*
X143986270Y-134585500D01*
X143395870Y-134585500D02*
X143690970Y-134585500D01*
X143099570Y-134585500D02*
X143395870Y-134585500D01*
X142804570Y-134585500D02*
X143099570Y-134585500D01*
X142509470Y-134585500D02*
X142804570Y-134585500D01*
X142212770Y-134585500D02*
X142509470Y-134585500D01*
X141916870Y-134585500D02*
X142212770Y-134585500D01*
X141620670Y-134585500D02*
X141916870Y-134585500D01*
X141324570Y-134585500D02*
X141620670Y-134585500D01*
X141029470Y-134585500D02*
X141324570Y-134585500D01*
X140734070Y-134585500D02*
X141029470Y-134585500D01*
X140437370Y-134585500D02*
X140734070Y-134585500D01*
X140140670Y-134585500D02*
X140437370Y-134585500D01*
X139845070Y-134585500D02*
X140140670Y-134585500D01*
X139548470Y-134585500D02*
X139845070Y-134585500D01*
X139252970Y-134585500D02*
X139548470Y-134585500D01*
X138957570Y-134585500D02*
X139252970Y-134585500D01*
X138662570Y-134585500D02*
X138957570Y-134585500D01*
X138366670Y-134585500D02*
X138662570Y-134585500D01*
X138070670Y-134585500D02*
X138366670Y-134585500D01*
X137775470Y-134585500D02*
X138070670Y-134585500D01*
X137478970Y-134585500D02*
X137775470Y-134585500D01*
X137183370Y-134585500D02*
X137478970Y-134585500D01*
X136923970Y-134619500D02*
X137183370Y-134585500D01*
X136683070Y-134719500D02*
X136923970Y-134619500D01*
X136476270Y-134878400D02*
X136683070Y-134719500D01*
X136317270Y-135085500D02*
X136476270Y-134878400D01*
X136217270Y-135326600D02*
X136317270Y-135085500D01*
X136183370Y-135585500D02*
X136217270Y-135326600D01*
X136183370Y-135852200D02*
X136183370Y-135585500D01*
X136183370Y-136119300D02*
X136183370Y-135852200D01*
X136183370Y-136386000D02*
X136183370Y-136119300D01*
X136183370Y-136652900D02*
X136183370Y-136386000D01*
X136183370Y-136920900D02*
X136183370Y-136652900D01*
X136183370Y-137188400D02*
X136183370Y-136920900D01*
X136183370Y-137455700D02*
X136183370Y-137188400D01*
X136183370Y-137722400D02*
X136183370Y-137455700D01*
X136183370Y-137988800D02*
X136183370Y-137722400D01*
X136169670Y-138272500D02*
X136183370Y-137988800D01*
X136128570Y-138552700D02*
X136169670Y-138272500D01*
X136059670Y-138829100D02*
X136128570Y-138552700D01*
X135963770Y-139097400D02*
X136059670Y-138829100D01*
X135841770Y-139354700D02*
X135963770Y-139097400D01*
X135695170Y-139598400D02*
X135841770Y-139354700D01*
X135525270Y-139826800D02*
X135695170Y-139598400D01*
X135333970Y-140037400D02*
X135525270Y-139826800D01*
X135123270Y-140228000D02*
X135333970Y-140037400D01*
X134894970Y-140397200D02*
X135123270Y-140228000D01*
X134651470Y-140543200D02*
X134894970Y-140397200D01*
X134393570Y-140665100D02*
X134651470Y-140543200D01*
X134125670Y-140760700D02*
X134393570Y-140665100D01*
X133850170Y-140829300D02*
X134125670Y-140760700D01*
X133568470Y-140870700D02*
X133850170Y-140829300D01*
X133283370Y-140884500D02*
X133568470Y-140870700D01*
X132999670Y-140870800D02*
X133283370Y-140884500D01*
X132719370Y-140829700D02*
X132999670Y-140870800D01*
X132442670Y-140760800D02*
X132719370Y-140829700D01*
X132174170Y-140664800D02*
X132442670Y-140760800D01*
X131916570Y-140542900D02*
X132174170Y-140664800D01*
X131672470Y-140396300D02*
X131916570Y-140542900D01*
X131443670Y-140226400D02*
X131672470Y-140396300D01*
X131232670Y-140035000D02*
X131443670Y-140226400D01*
X131041670Y-139824300D02*
X131232670Y-140035000D01*
X130872070Y-139596100D02*
X131041670Y-139824300D01*
X130725770Y-139352600D02*
X130872070Y-139596100D01*
X130603470Y-139094700D02*
X130725770Y-139352600D01*
X130507570Y-138826800D02*
X130603470Y-139094700D01*
X130438770Y-138551300D02*
X130507570Y-138826800D01*
X130397270Y-138269600D02*
X130438770Y-138551300D01*
X130383370Y-137984500D02*
X130397270Y-138269600D01*
X130383370Y-137684000D02*
X130383370Y-137984500D01*
X130383370Y-137384000D02*
X130383370Y-137684000D01*
X130383370Y-137084600D02*
X130383370Y-137384000D01*
X130383370Y-136785300D02*
X130383370Y-137084600D01*
X130383370Y-136484200D02*
X130383370Y-136785300D01*
X130383370Y-136184500D02*
X130383370Y-136484200D01*
X130383370Y-135884500D02*
X130383370Y-136184500D01*
X130383370Y-135585500D02*
X130383370Y-135884500D01*
X130349470Y-135326100D02*
X130383370Y-135585500D01*
X130249370Y-135085100D02*
X130349470Y-135326100D01*
X130090570Y-134878400D02*
X130249370Y-135085100D01*
X129883470Y-134719300D02*
X130090570Y-134878400D01*
X129642270Y-134619300D02*
X129883470Y-134719300D01*
X129383370Y-134585500D02*
X129642270Y-134619300D01*
X129085370Y-134585400D02*
X129383370Y-134585500D01*
X128785570Y-134585400D02*
X129085370Y-134585400D01*
X128487070Y-134585400D02*
X128785570Y-134585400D01*
X128187970Y-134585400D02*
X128487070Y-134585400D01*
X127890170Y-134585300D02*
X128187970Y-134585400D01*
X127591870Y-134585300D02*
X127890170Y-134585300D01*
X127293670Y-134585300D02*
X127591870Y-134585300D01*
X126995470Y-134585300D02*
X127293670Y-134585300D01*
X126696270Y-134585300D02*
X126995470Y-134585300D01*
X126397870Y-134585200D02*
X126696270Y-134585300D01*
X126098170Y-134585200D02*
X126397870Y-134585200D01*
X125799470Y-134585200D02*
X126098170Y-134585200D01*
X125501170Y-134585200D02*
X125799470Y-134585200D01*
X125201870Y-134585100D02*
X125501170Y-134585200D01*
X124902770Y-134585100D02*
X125201870Y-134585100D01*
X124604370Y-134585100D02*
X124902770Y-134585100D01*
X124305270Y-134585100D02*
X124604370Y-134585100D01*
X124007370Y-134585000D02*
X124305270Y-134585100D01*
X123708170Y-134585000D02*
X124007370Y-134585000D01*
X123409170Y-134585000D02*
X123708170Y-134585000D01*
X123109670Y-134585000D02*
X123409170Y-134585000D01*
X122810970Y-134585000D02*
X123109670Y-134585000D01*
X122511870Y-134584900D02*
X122810970Y-134585000D01*
X122213770Y-134584900D02*
X122511870Y-134584900D01*
X121915270Y-134584900D02*
X122213770Y-134584900D01*
X121616470Y-134584900D02*
X121915270Y-134584900D01*
X121318370Y-134584800D02*
X121616470Y-134584900D01*
X121018670Y-134584800D02*
X121318370Y-134584800D01*
X120719970Y-134584800D02*
X121018670Y-134584800D01*
X120421470Y-134584800D02*
X120719970Y-134584800D01*
X120122670Y-134584800D02*
X120421470Y-134584800D01*
X119823670Y-134584700D02*
X120122670Y-134584800D01*
X119524070Y-134584700D02*
X119823670Y-134584700D01*
X119224370Y-134584700D02*
X119524070Y-134584700D01*
X118925470Y-134584700D02*
X119224370Y-134584700D01*
X118626270Y-134584600D02*
X118925470Y-134584700D01*
X118326770Y-134584600D02*
X118626270Y-134584600D01*
X118028970Y-134584600D02*
X118326770Y-134584600D01*
X117771070Y-134550700D02*
X118028970Y-134584600D01*
X117529070Y-134450400D02*
X117771070Y-134550700D01*
X117322480Y-134291500D02*
X117529070Y-134450400D01*
X117164300Y-134085100D02*
X117322480Y-134291500D01*
X117064330Y-133843000D02*
X117164300Y-134085100D01*
X117030800Y-133584500D02*
X117064330Y-133843000D01*
X117031360Y-133286500D02*
X117030800Y-133584500D01*
X117031920Y-132986600D02*
X117031360Y-133286500D01*
X117032480Y-132688200D02*
X117031920Y-132986600D01*
X117033040Y-132389100D02*
X117032480Y-132688200D01*
X117033600Y-132091200D02*
X117033040Y-132389100D01*
X117034160Y-131793000D02*
X117033600Y-132091200D01*
X117034720Y-131494700D02*
X117034160Y-131793000D01*
X117035280Y-131196500D02*
X117034720Y-131494700D01*
X117035840Y-130897400D02*
X117035280Y-131196500D01*
X117036400Y-130598900D02*
X117035840Y-130897400D01*
X117036960Y-130299300D02*
X117036400Y-130598900D01*
X117037520Y-130000600D02*
X117036960Y-130299300D01*
X117038080Y-129702300D02*
X117037520Y-130000600D01*
X117038640Y-129403000D02*
X117038080Y-129702300D01*
X117039210Y-129103800D02*
X117038640Y-129403000D01*
X117039770Y-128805500D02*
X117039210Y-129103800D01*
X117040330Y-128506400D02*
X117039770Y-128805500D01*
X117040890Y-128208400D02*
X117040330Y-128506400D01*
X117041450Y-127909300D02*
X117040890Y-128208400D01*
X117042010Y-127610300D02*
X117041450Y-127909300D01*
X117042570Y-127310800D02*
X117042010Y-127610300D01*
X117043130Y-127012100D02*
X117042570Y-127310800D01*
X117043690Y-126713000D02*
X117043130Y-127012100D01*
X117044250Y-126414900D02*
X117043690Y-126713000D01*
X117044810Y-126116400D02*
X117044250Y-126414900D01*
X117045370Y-125817600D02*
X117044810Y-126116400D01*
X117045930Y-125519500D02*
X117045370Y-125817600D01*
X117046490Y-125219800D02*
X117045930Y-125519500D01*
X117047050Y-124921100D02*
X117046490Y-125219800D01*
X117047610Y-124622600D02*
X117047050Y-124921100D01*
X117048170Y-124323800D02*
X117047610Y-124622600D01*
X117048730Y-124024700D02*
X117048170Y-124323800D01*
X117049300Y-123725200D02*
X117048730Y-124024700D01*
X117049860Y-123425500D02*
X117049300Y-123725200D01*
X117050420Y-123126500D02*
X117049860Y-123425500D01*
X117050980Y-122827400D02*
X117050420Y-123126500D01*
X117051540Y-122527900D02*
X117050980Y-122827400D01*
X117052100Y-122230000D02*
X117051540Y-122527900D01*
X117018700Y-121972100D02*
X117052100Y-122230000D01*
X116918860Y-121729900D02*
X117018700Y-121972100D01*
X116760420Y-121523000D02*
X116918860Y-121729900D01*
X116554270Y-121364500D02*
X116760420Y-121523000D01*
X116312330Y-121264000D02*
X116554270Y-121364500D01*
X116053970Y-121230000D02*
X116312330Y-121264000D01*
X115753400Y-121230000D02*
X116053970Y-121230000D01*
X115453460Y-121230000D02*
X115753400Y-121230000D01*
X115154050Y-121230000D02*
X115453460Y-121230000D01*
X114854720Y-121230000D02*
X115154050Y-121230000D01*
X114553660Y-121230000D02*
X114854720Y-121230000D01*
X114253930Y-121230000D02*
X114553660Y-121230000D01*
X113953950Y-121230000D02*
X114253930Y-121230000D01*
X113654960Y-121230000D02*
X113953950Y-121230000D01*
X113371190Y-121216300D02*
X113654960Y-121230000D01*
X113090920Y-121175200D02*
X113371190Y-121216300D01*
X112814270Y-121106300D02*
X113090920Y-121175200D01*
X112545770Y-121010300D02*
X112814270Y-121106300D01*
X112288140Y-120888400D02*
X112545770Y-121010300D01*
X112043980Y-120741800D02*
X112288140Y-120888400D01*
X111815240Y-120571900D02*
X112043980Y-120741800D01*
X111604260Y-120380500D02*
X111815240Y-120571900D01*
X111413180Y-120169800D02*
X111604260Y-120380500D01*
X111243610Y-119941600D02*
X111413180Y-120169800D01*
X111097310Y-119698100D02*
X111243610Y-119941600D01*
X110975070Y-119440200D02*
X111097310Y-119698100D01*
X110879180Y-119172300D02*
X110975070Y-119440200D01*
X110810330Y-118896800D02*
X110879180Y-119172300D01*
X110768800Y-118615100D02*
X110810330Y-118896800D01*
X110754970Y-118330000D02*
X110768800Y-118615100D01*
X110768630Y-118046300D02*
X110754970Y-118330000D01*
X110809620Y-117766000D02*
X110768630Y-118046300D01*
X110878330Y-117489300D02*
X110809620Y-117766000D01*
X110974010Y-117220800D02*
X110878330Y-117489300D01*
X111095660Y-116963200D02*
X110974010Y-117220800D01*
X111241890Y-116719000D02*
X111095660Y-116963200D01*
X111411390Y-116490300D02*
X111241890Y-116719000D01*
X111602320Y-116279300D02*
X111411390Y-116490300D01*
X111812620Y-116088200D02*
X111602320Y-116279300D01*
X112040470Y-115918700D02*
X111812620Y-116088200D01*
X112283580Y-115772400D02*
X112040470Y-115918700D01*
X112541140Y-115650100D02*
X112283580Y-115772400D01*
X112808790Y-115554200D02*
X112541140Y-115650100D01*
X113084100Y-115485400D02*
X112808790Y-115554200D01*
X113365660Y-115443900D02*
X113084100Y-115485400D01*
X113650690Y-115430000D02*
X113365660Y-115443900D01*
X113917410Y-115430000D02*
X113650690Y-115430000D01*
X114184430Y-115430000D02*
X113917410Y-115430000D01*
X114451130Y-115430000D02*
X114184430Y-115430000D01*
X114718050Y-115430000D02*
X114451130Y-115430000D01*
X114986080Y-115430000D02*
X114718050Y-115430000D01*
X115253520Y-115430000D02*
X114986080Y-115430000D01*
X115520860Y-115430000D02*
X115253520Y-115430000D01*
X115787590Y-115430000D02*
X115520860Y-115430000D01*
X116053970Y-115430000D02*
X115787590Y-115430000D01*
X116311890Y-115396200D02*
X116053970Y-115430000D01*
X116553950Y-115295900D02*
X116311890Y-115396200D01*
X116760630Y-115137100D02*
X116553950Y-115295900D01*
X116918920Y-114930600D02*
X116760630Y-115137100D01*
X117019010Y-114688500D02*
X116918920Y-114930600D01*
X117052690Y-114430000D02*
X117019010Y-114688500D01*
X117052310Y-114133800D02*
X117052690Y-114430000D01*
X117051930Y-113838200D02*
X117052310Y-114133800D01*
X117051550Y-113541900D02*
X117051930Y-113838200D01*
X117051170Y-113247200D02*
X117051550Y-113541900D01*
X117050790Y-112951500D02*
X117051170Y-113247200D01*
X117050410Y-112655000D02*
X117050790Y-112951500D01*
X117050030Y-112360200D02*
X117050410Y-112655000D01*
X117049660Y-112065500D02*
X117050030Y-112360200D01*
X117049280Y-111769900D02*
X117049660Y-112065500D01*
X117048900Y-111473400D02*
X117049280Y-111769900D01*
X117048520Y-111176800D02*
X117048900Y-111473400D01*
X117048140Y-110880600D02*
X117048520Y-111176800D01*
X117047760Y-110584400D02*
X117048140Y-110880600D01*
X117047380Y-110288300D02*
X117047760Y-110584400D01*
X117047000Y-109993500D02*
X117047380Y-110288300D01*
X117046620Y-109696800D02*
X117047000Y-109993500D01*
X117046240Y-109400400D02*
X117046620Y-109696800D01*
X117045860Y-109103900D02*
X117046240Y-109400400D01*
X117045480Y-108807000D02*
X117045860Y-109103900D01*
X117045100Y-108511100D02*
X117045480Y-108807000D01*
X117044720Y-108215200D02*
X117045100Y-108511100D01*
X117044340Y-107919400D02*
X117044720Y-108215200D01*
X117043960Y-107623400D02*
X117044340Y-107919400D01*
X117043580Y-107326900D02*
X117043960Y-107623400D01*
X117043200Y-107030800D02*
X117043580Y-107326900D01*
X117042820Y-106734400D02*
X117043200Y-107030800D01*
X117042440Y-106438700D02*
X117042820Y-106734400D01*
X117042060Y-106142800D02*
X117042440Y-106438700D01*
X117041680Y-105847400D02*
X117042060Y-106142800D01*
X117041300Y-105551500D02*
X117041680Y-105847400D01*
X117040920Y-105255800D02*
X117041300Y-105551500D01*
X117040540Y-104959200D02*
X117040920Y-105255800D01*
X117040160Y-104663800D02*
X117040540Y-104959200D01*
X117039780Y-104368600D02*
X117040160Y-104663800D01*
X117039400Y-104072200D02*
X117039780Y-104368600D01*
X117039020Y-103776800D02*
X117039400Y-104072200D01*
X117038640Y-103481300D02*
X117039020Y-103776800D01*
X117038260Y-103186000D02*
X117038640Y-103481300D01*
X117037880Y-102889600D02*
X117038260Y-103186000D01*
X117037510Y-102594400D02*
X117037880Y-102889600D01*
X117037130Y-102299100D02*
X117037510Y-102594400D01*
X117036750Y-102002200D02*
X117037130Y-102299100D01*
X117036370Y-101706200D02*
X117036750Y-102002200D01*
X117035990Y-101409800D02*
X117036370Y-101706200D01*
X117035610Y-101113600D02*
X117035990Y-101409800D01*
X117035230Y-100818300D02*
X117035610Y-101113600D01*
X117034850Y-100522700D02*
X117035230Y-100818300D01*
X117034470Y-100225900D02*
X117034850Y-100522700D01*
X117034090Y-99929000D02*
X117034470Y-100225900D01*
X117033710Y-99633200D02*
X117034090Y-99929000D01*
X117033330Y-99336500D02*
X117033710Y-99633200D01*
X117032950Y-99040800D02*
X117033330Y-99336500D01*
X117032570Y-98745200D02*
X117032950Y-99040800D01*
X117032190Y-98450000D02*
X117032570Y-98745200D01*
X117031810Y-98153900D02*
X117032190Y-98450000D01*
X117031430Y-97857800D02*
X117031810Y-98153900D01*
X117031050Y-97562400D02*
X117031430Y-97857800D01*
X117030670Y-97265800D02*
X117031050Y-97562400D01*
X117030290Y-96970000D02*
X117030670Y-97265800D01*
X116995990Y-96710500D02*
X117030290Y-96970000D01*
X116895700Y-96469600D02*
X116995990Y-96710500D01*
X116736570Y-96262900D02*
X116895700Y-96469600D01*
X116529340Y-96103800D02*
X116736570Y-96262900D01*
X116288010Y-96003900D02*
X116529340Y-96103800D01*
X116029010Y-95970000D02*
X116288010Y-96003900D01*
X115728440Y-95970000D02*
X116029010Y-95970000D01*
X115428500Y-95970000D02*
X115728440Y-95970000D01*
X115129080Y-95970000D02*
X115428500Y-95970000D01*
X114829750Y-95970000D02*
X115129080Y-95970000D01*
X114528700Y-95970000D02*
X114829750Y-95970000D01*
X114228970Y-95970000D02*
X114528700Y-95970000D01*
X113928980Y-95970000D02*
X114228970Y-95970000D01*
X113629990Y-95970000D02*
X113928980Y-95970000D01*
X113346220Y-95956300D02*
X113629990Y-95970000D01*
X113065950Y-95915200D02*
X113346220Y-95956300D01*
X112789300Y-95846300D02*
X113065950Y-95915200D01*
X112520800Y-95750300D02*
X112789300Y-95846300D01*
X112263170Y-95628400D02*
X112520800Y-95750300D01*
X112019010Y-95481800D02*
X112263170Y-95628400D01*
X111790270Y-95311900D02*
X112019010Y-95481800D01*
X111579290Y-95120500D02*
X111790270Y-95311900D01*
X111388210Y-94909800D02*
X111579290Y-95120500D01*
X111218640Y-94681600D02*
X111388210Y-94909800D01*
X111072340Y-94438100D02*
X111218640Y-94681600D01*
X110950100Y-94180200D02*
X111072340Y-94438100D01*
X110854210Y-93912300D02*
X110950100Y-94180200D01*
X110785360Y-93636800D02*
X110854210Y-93912300D01*
X110743830Y-93355100D02*
X110785360Y-93636800D01*
X110730000Y-93070000D02*
X110743830Y-93355100D01*
X110743660Y-92786300D02*
X110730000Y-93070000D01*
X110784650Y-92506000D02*
X110743660Y-92786300D01*
X110853360Y-92229300D02*
X110784650Y-92506000D01*
X110949040Y-91960800D02*
X110853360Y-92229300D01*
X111070690Y-91703200D02*
X110949040Y-91960800D01*
X111216920Y-91459000D02*
X111070690Y-91703200D01*
X111386420Y-91230300D02*
X111216920Y-91459000D01*
X111577350Y-91019300D02*
X111386420Y-91230300D01*
X111787650Y-90828200D02*
X111577350Y-91019300D01*
X112015500Y-90658700D02*
X111787650Y-90828200D01*
X112258610Y-90512400D02*
X112015500Y-90658700D01*
X112516170Y-90390100D02*
X112258610Y-90512400D01*
X112783820Y-90294200D02*
X112516170Y-90390100D01*
X113059130Y-90225400D02*
X112783820Y-90294200D01*
X113340690Y-90183900D02*
X113059130Y-90225400D01*
X113625720Y-90170000D02*
X113340690Y-90183900D01*
X113892440Y-90170000D02*
X113625720Y-90170000D01*
X114159460Y-90170000D02*
X113892440Y-90170000D01*
X114426160Y-90170000D02*
X114159460Y-90170000D01*
X114693080Y-90170000D02*
X114426160Y-90170000D01*
X114961110Y-90170000D02*
X114693080Y-90170000D01*
X115228550Y-90170000D02*
X114961110Y-90170000D01*
X115495890Y-90170000D02*
X115228550Y-90170000D01*
X115762620Y-90170000D02*
X115495890Y-90170000D01*
X116029000Y-90170000D02*
X115762620Y-90170000D01*
X116288420Y-90136000D02*
X116029000Y-90170000D01*
X116529370Y-90036000D02*
X116288420Y-90136000D01*
X116736100Y-89877100D02*
X116529370Y-90036000D01*
X116895180Y-89670100D02*
X116736100Y-89877100D01*
X116995160Y-89428900D02*
X116895180Y-89670100D01*
X117029000Y-89170000D02*
X116995160Y-89428900D01*
X117029000Y-88872100D02*
X117029000Y-89170000D01*
X117029000Y-88572400D02*
X117029000Y-88872100D01*
X117029000Y-88274100D02*
X117029000Y-88572400D01*
X117029000Y-87975100D02*
X117029000Y-88274100D01*
X117029000Y-87677400D02*
X117029000Y-87975100D01*
X117029000Y-87379300D02*
X117029000Y-87677400D01*
X117029000Y-87081200D02*
X117029000Y-87379300D01*
X117029000Y-86783100D02*
X117029000Y-87081200D01*
X117029000Y-86484100D02*
X117029000Y-86783100D01*
X117029010Y-86185800D02*
X117029000Y-86484100D01*
X117029010Y-85886300D02*
X117029010Y-86185800D01*
X117029010Y-85587600D02*
X117029010Y-85886300D01*
X117029010Y-85289500D02*
X117029010Y-85587600D01*
X117029010Y-84990400D02*
X117029010Y-85289500D01*
X117029010Y-84691300D02*
X117029010Y-84990400D01*
X117029010Y-84393100D02*
X117029010Y-84691300D01*
X117029010Y-84094100D02*
X117029010Y-84393100D01*
X117029010Y-83796300D02*
X117029010Y-84094100D01*
X117029010Y-83497300D02*
X117029010Y-83796300D01*
X117029010Y-83198400D02*
X117029010Y-83497300D01*
X117029010Y-82899100D02*
X117029010Y-83198400D01*
X117029010Y-82600500D02*
X117029010Y-82899100D01*
X117029010Y-82301500D02*
X117029010Y-82600500D01*
X117029010Y-82003600D02*
X117029010Y-82301500D01*
X117029010Y-81705200D02*
X117029010Y-82003600D01*
X117029010Y-81406500D02*
X117029010Y-81705200D01*
X117029010Y-81108600D02*
X117029010Y-81406500D01*
X117029010Y-80809000D02*
X117029010Y-81108600D01*
X117029020Y-80510400D02*
X117029010Y-80809000D01*
X117029020Y-80212100D02*
X117029020Y-80510400D01*
X117029020Y-79913400D02*
X117029020Y-80212100D01*
X117029020Y-79614500D02*
X117029020Y-79913400D01*
X117029020Y-79315100D02*
X117029020Y-79614500D01*
X117029020Y-79015500D02*
X117029020Y-79315100D01*
X117029020Y-78716700D02*
X117029020Y-79015500D01*
X117029020Y-78417600D02*
X117029020Y-78716700D01*
X117029020Y-78118300D02*
X117029020Y-78417600D01*
X117029020Y-77820600D02*
X117029020Y-78118300D01*
X117063000Y-77561100D02*
X117029020Y-77820600D01*
X117163010Y-77320190D02*
X117063000Y-77561100D01*
X117321910Y-77113450D02*
X117163010Y-77320190D01*
X117528950Y-76954370D02*
X117321910Y-77113450D01*
X117770170Y-76854390D02*
X117528950Y-76954370D01*
X118028970Y-76820550D02*
X117770170Y-76854390D01*
X118326970Y-76820550D02*
X118028970Y-76820550D01*
X118626670Y-76820550D02*
X118326970Y-76820550D01*
X118924970Y-76820550D02*
X118626670Y-76820550D01*
X119223970Y-76820550D02*
X118924970Y-76820550D01*
X119521670Y-76820550D02*
X119223970Y-76820550D01*
X119819770Y-76820550D02*
X119521670Y-76820550D01*
X120117870Y-76820550D02*
X119819770Y-76820550D01*
X120415970Y-76820550D02*
X120117870Y-76820550D01*
X120714970Y-76820550D02*
X120415970Y-76820550D01*
X121013270Y-76820550D02*
X120714970Y-76820550D01*
X121312770Y-76820550D02*
X121013270Y-76820550D01*
X121611370Y-76820550D02*
X121312770Y-76820550D01*
X121909570Y-76820550D02*
X121611370Y-76820550D01*
X122208670Y-76820550D02*
X121909570Y-76820550D01*
X122507770Y-76820550D02*
X122208670Y-76820550D01*
X122805970Y-76820550D02*
X122507770Y-76820550D01*
X123104870Y-76820550D02*
X122805970Y-76820550D01*
X123402770Y-76820550D02*
X123104870Y-76820550D01*
X123701770Y-76820550D02*
X123402770Y-76820550D01*
X124000570Y-76820550D02*
X123701770Y-76820550D01*
X124299970Y-76820550D02*
X124000570Y-76820550D01*
X124598570Y-76820550D02*
X124299970Y-76820550D01*
X124897470Y-76820550D02*
X124598570Y-76820550D01*
X125195470Y-76820550D02*
X124897470Y-76820550D01*
X125493870Y-76820550D02*
X125195470Y-76820550D01*
X125792570Y-76820550D02*
X125493870Y-76820550D01*
X126090470Y-76820550D02*
X125792570Y-76820550D01*
X126390070Y-76820550D02*
X126090470Y-76820550D01*
X126688570Y-76820550D02*
X126390070Y-76820550D01*
X126986970Y-76820550D02*
X126688570Y-76820550D01*
X127285670Y-76820550D02*
X126986970Y-76820550D01*
X127584570Y-76820550D02*
X127285670Y-76820550D01*
X127883970Y-76820550D02*
X127584570Y-76820550D01*
X128183570Y-76820550D02*
X127883970Y-76820550D01*
X128482370Y-76820550D02*
X128183570Y-76820550D01*
X128781470Y-76820550D02*
X128482370Y-76820550D01*
X129080770Y-76820550D02*
X128781470Y-76820550D01*
X129378470Y-76820550D02*
X129080770Y-76820550D01*
X129636570Y-76786690D02*
X129378470Y-76820550D01*
X129878770Y-76686430D02*
X129636570Y-76786690D01*
X130085570Y-76527660D02*
X129878770Y-76686430D01*
X130244170Y-76321250D02*
X130085570Y-76527660D01*
X130344470Y-76079090D02*
X130244170Y-76321250D01*
X130378470Y-75820550D02*
X130344470Y-76079090D01*
X130378470Y-75519980D02*
X130378470Y-75820550D01*
X130378470Y-75220040D02*
X130378470Y-75519980D01*
X130378470Y-74920630D02*
X130378470Y-75220040D01*
X130378470Y-74621300D02*
X130378470Y-74920630D01*
X130378470Y-74320240D02*
X130378470Y-74621300D01*
X130378470Y-74020520D02*
X130378470Y-74320240D01*
X130378470Y-73720530D02*
X130378470Y-74020520D01*
X130378470Y-73421540D02*
X130378470Y-73720530D01*
X130392170Y-73137770D02*
X130378470Y-73421540D01*
X130433270Y-72857500D02*
X130392170Y-73137770D01*
X130502270Y-72580850D02*
X130433270Y-72857500D01*
X130598170Y-72312350D02*
X130502270Y-72580850D01*
X130720170Y-72054720D02*
X130598170Y-72312350D01*
X130866770Y-71810560D02*
X130720170Y-72054720D01*
X131036670Y-71581820D02*
X130866770Y-71810560D01*
X131227970Y-71370830D02*
X131036670Y-71581820D01*
X131438670Y-71179760D02*
X131227970Y-71370830D01*
X131666970Y-71010180D02*
X131438670Y-71179760D01*
X131910370Y-70863880D02*
X131666970Y-71010180D01*
X132168270Y-70741640D02*
X131910370Y-70863880D01*
X132436170Y-70645750D02*
X132168270Y-70741640D01*
X132711770Y-70576900D02*
X132436170Y-70645750D01*
X132993470Y-70535380D02*
X132711770Y-70576900D01*
X133278470Y-70521540D02*
X132993470Y-70535380D01*
X133562270Y-70535210D02*
X133278470Y-70521540D01*
X133842570Y-70576190D02*
X133562270Y-70535210D01*
X134119170Y-70644900D02*
X133842570Y-70576190D01*
X134387670Y-70740580D02*
X134119170Y-70644900D01*
X134645370Y-70862230D02*
X134387670Y-70740580D01*
X134889470Y-71008470D02*
X134645370Y-70862230D01*
X135118270Y-71177960D02*
X134889470Y-71008470D01*
X135329170Y-71368900D02*
X135118270Y-71177960D01*
X135520270Y-71579190D02*
X135329170Y-71368900D01*
X135689870Y-71807050D02*
X135520270Y-71579190D01*
X135836170Y-72050150D02*
X135689870Y-71807050D01*
X135958370Y-72307720D02*
X135836170Y-72050150D01*
X136054270Y-72575370D02*
X135958370Y-72307720D01*
X136123170Y-72850680D02*
X136054270Y-72575370D01*
X136164670Y-73132240D02*
X136123170Y-72850680D01*
X136178470Y-73417270D02*
X136164670Y-73132240D01*
X136178470Y-73683990D02*
X136178470Y-73417270D01*
X136178470Y-73951010D02*
X136178470Y-73683990D01*
X136178470Y-74217710D02*
X136178470Y-73951010D01*
X136178470Y-74484630D02*
X136178470Y-74217710D01*
X136178470Y-74752660D02*
X136178470Y-74484630D01*
X136178470Y-75020100D02*
X136178470Y-74752660D01*
X136178470Y-75287440D02*
X136178470Y-75020100D01*
X136178470Y-75554180D02*
X136178470Y-75287440D01*
X136178470Y-75820550D02*
X136178470Y-75554180D01*
X136212370Y-76078600D02*
X136178470Y-75820550D01*
X136312570Y-76320800D02*
X136212370Y-76078600D01*
X136471370Y-76527660D02*
X136312570Y-76320800D01*
X136677770Y-76686180D02*
X136471370Y-76527660D01*
X136919970Y-76786550D02*
X136677770Y-76686180D01*
X137178470Y-76820550D02*
X136919970Y-76786550D01*
X137474570Y-76820550D02*
X137178470Y-76820550D01*
X137769970Y-76820550D02*
X137474570Y-76820550D01*
X138066070Y-76820550D02*
X137769970Y-76820550D01*
X138360670Y-76820550D02*
X138066070Y-76820550D01*
X138656170Y-76820550D02*
X138360670Y-76820550D01*
X138952570Y-76820550D02*
X138656170Y-76820550D01*
X139247170Y-76820550D02*
X138952570Y-76820550D01*
X139541670Y-76820550D02*
X139247170Y-76820550D01*
X139837070Y-76820550D02*
X139541670Y-76820550D01*
X140133370Y-76820550D02*
X139837070Y-76820550D01*
X140429870Y-76820550D02*
X140133370Y-76820550D01*
X140725870Y-76820550D02*
X140429870Y-76820550D01*
X141021970Y-76820550D02*
X140725870Y-76820550D01*
X141317870Y-76820550D02*
X141021970Y-76820550D01*
X141612470Y-76820540D02*
X141317870Y-76820550D01*
X141908970Y-76820540D02*
X141612470Y-76820540D01*
X142205270Y-76820540D02*
X141908970Y-76820540D01*
X142501570Y-76820540D02*
X142205270Y-76820540D01*
X142798370Y-76820540D02*
X142501570Y-76820540D01*
X143094070Y-76820540D02*
X142798370Y-76820540D01*
X143389770Y-76820540D02*
X143094070Y-76820540D01*
X143685370Y-76820540D02*
X143389770Y-76820540D01*
X143981170Y-76820540D02*
X143685370Y-76820540D01*
X144277570Y-76820540D02*
X143981170Y-76820540D01*
X144573570Y-76820540D02*
X144277570Y-76820540D01*
X144869670Y-76820540D02*
X144573570Y-76820540D01*
X145165270Y-76820540D02*
X144869670Y-76820540D01*
X145461070Y-76820540D02*
X145165270Y-76820540D01*
X145756270Y-76820540D02*
X145461070Y-76820540D01*
X146051970Y-76820540D02*
X145756270Y-76820540D01*
X146347470Y-76820540D02*
X146051970Y-76820540D01*
X146643870Y-76820540D02*
X146347470Y-76820540D01*
X146939070Y-76820540D02*
X146643870Y-76820540D01*
X147234170Y-76820540D02*
X146939070Y-76820540D01*
X147530470Y-76820540D02*
X147234170Y-76820540D01*
X147825570Y-76820540D02*
X147530470Y-76820540D01*
X148120970Y-76820540D02*
X147825570Y-76820540D01*
X148416070Y-76820530D02*
X148120970Y-76820540D01*
X148712270Y-76820530D02*
X148416070Y-76820530D01*
X149007270Y-76820530D02*
X148712270Y-76820530D01*
X149302470Y-76820530D02*
X149007270Y-76820530D01*
X149599170Y-76820530D02*
X149302470Y-76820530D01*
X149894970Y-76820530D02*
X149599170Y-76820530D01*
X150191270Y-76820530D02*
X149894970Y-76820530D01*
X150487270Y-76820530D02*
X150191270Y-76820530D01*
X150782470Y-76820530D02*
X150487270Y-76820530D01*
X151077870Y-76820530D02*
X150782470Y-76820530D01*
X151374470Y-76820530D02*
X151077870Y-76820530D01*
X151671270Y-76820530D02*
X151374470Y-76820530D01*
X151966870Y-76820530D02*
X151671270Y-76820530D01*
X152263470Y-76820530D02*
X151966870Y-76820530D01*
X152558970Y-76820530D02*
X152263470Y-76820530D01*
X152854370Y-76820530D02*
X152558970Y-76820530D01*
X153149370Y-76820530D02*
X152854370Y-76820530D01*
X153445270Y-76820530D02*
X153149370Y-76820530D01*
X153741170Y-76820530D02*
X153445270Y-76820530D01*
X154036470Y-76820530D02*
X153741170Y-76820530D01*
X154332970Y-76820530D02*
X154036470Y-76820530D01*
X154628470Y-76820530D02*
X154332970Y-76820530D01*
X154887870Y-76786550D02*
X154628470Y-76820530D01*
X155128870Y-76686530D02*
X154887870Y-76786550D01*
X155335570Y-76527640D02*
X155128870Y-76686530D01*
X155494670Y-76320590D02*
X155335570Y-76527640D01*
X155594670Y-76079410D02*
X155494670Y-76320590D01*
X155628470Y-75820530D02*
X155594670Y-76079410D01*
X155628470Y-75519960D02*
X155628470Y-75820530D01*
X155628470Y-75220010D02*
X155628470Y-75519960D01*
X155628470Y-74920600D02*
X155628470Y-75220010D01*
X155628470Y-74621270D02*
X155628470Y-74920600D01*
X155628470Y-74320220D02*
X155628470Y-74621270D01*
X155628470Y-74020490D02*
X155628470Y-74320220D01*
X155628470Y-73720500D02*
X155628470Y-74020490D01*
X155628470Y-73421520D02*
X155628470Y-73720500D01*
X155642170Y-73137740D02*
X155628470Y-73421520D01*
X155683270Y-72857470D02*
X155642170Y-73137740D01*
X155752270Y-72580820D02*
X155683270Y-72857470D01*
X155848170Y-72312320D02*
X155752270Y-72580820D01*
X155970170Y-72054690D02*
X155848170Y-72312320D01*
X156116770Y-71810530D02*
X155970170Y-72054690D01*
X156286670Y-71581790D02*
X156116770Y-71810530D01*
X156477970Y-71370810D02*
X156286670Y-71581790D01*
X156688670Y-71179730D02*
X156477970Y-71370810D01*
X156916970Y-71010160D02*
X156688670Y-71179730D01*
X157160370Y-70863850D02*
X156916970Y-71010160D01*
X157418270Y-70741620D02*
X157160370Y-70863850D01*
X157686170Y-70645730D02*
X157418270Y-70741620D01*
X157961770Y-70576870D02*
X157686170Y-70645730D01*
X158243470Y-70535350D02*
X157961770Y-70576870D01*
X158528470Y-70521520D02*
X158243470Y-70535350D01*
X158812270Y-70535180D02*
X158528470Y-70521520D01*
X159092570Y-70576160D02*
X158812270Y-70535180D01*
X159369170Y-70644870D02*
X159092570Y-70576160D01*
X159637670Y-70740560D02*
X159369170Y-70644870D01*
X159895370Y-70862210D02*
X159637670Y-70740560D01*
X160139470Y-71008440D02*
X159895370Y-70862210D01*
X160368270Y-71177940D02*
X160139470Y-71008440D01*
X160579170Y-71368870D02*
X160368270Y-71177940D01*
X160770270Y-71579160D02*
X160579170Y-71368870D01*
X160939870Y-71807020D02*
X160770270Y-71579160D01*
X161086170Y-72050130D02*
X160939870Y-71807020D01*
X161208370Y-72307690D02*
X161086170Y-72050130D01*
X161304270Y-72575340D02*
X161208370Y-72307690D01*
X161373170Y-72850660D02*
X161304270Y-72575340D01*
X161414670Y-73132210D02*
X161373170Y-72850660D01*
X161428470Y-73417240D02*
X161414670Y-73132210D01*
X161428470Y-73683960D02*
X161428470Y-73417240D01*
X161428470Y-73950980D02*
X161428470Y-73683960D01*
X161428470Y-74217680D02*
X161428470Y-73950980D01*
X161428470Y-74484600D02*
X161428470Y-74217680D01*
X161428470Y-74752640D02*
X161428470Y-74484600D01*
X161428470Y-75020080D02*
X161428470Y-74752640D01*
X161428470Y-75287420D02*
X161428470Y-75020080D01*
X161428470Y-75554150D02*
X161428470Y-75287420D01*
X161428470Y-75820530D02*
X161428470Y-75554150D01*
X161462470Y-76079940D02*
X161428470Y-75820530D01*
X161562470Y-76320890D02*
X161462470Y-76079940D01*
X161721370Y-76527630D02*
X161562470Y-76320890D01*
X161928470Y-76686700D02*
X161721370Y-76527630D01*
X162169570Y-76786690D02*
X161928470Y-76686700D01*
X162428470Y-76820530D02*
X162169570Y-76786690D01*
X162726270Y-76820530D02*
X162428470Y-76820530D01*
X163025870Y-76820530D02*
X162726270Y-76820530D01*
X163324070Y-76820530D02*
X163025870Y-76820530D01*
X163622870Y-76820530D02*
X163324070Y-76820530D01*
X163920470Y-76820530D02*
X163622870Y-76820530D01*
X164218470Y-76820530D02*
X163920470Y-76820530D01*
X164516470Y-76820530D02*
X164218470Y-76820530D01*
X164814370Y-76820530D02*
X164516470Y-76820530D01*
X165113270Y-76820530D02*
X164814370Y-76820530D01*
X165411470Y-76820530D02*
X165113270Y-76820530D01*
X165710770Y-76820530D02*
X165411470Y-76820530D01*
X166009270Y-76820530D02*
X165710770Y-76820530D01*
X166307370Y-76820530D02*
X166009270Y-76820530D01*
X166606270Y-76820540D02*
X166307370Y-76820530D01*
X166905270Y-76820540D02*
X166606270Y-76820540D01*
X167203270Y-76820540D02*
X166905270Y-76820540D01*
X167502170Y-76820540D02*
X167203270Y-76820540D01*
X167799870Y-76820540D02*
X167502170Y-76820540D01*
X168098770Y-76820540D02*
X167799870Y-76820540D01*
X168397470Y-76820540D02*
X168098770Y-76820540D01*
X168696670Y-76820540D02*
X168397470Y-76820540D01*
X168995170Y-76820540D02*
X168696670Y-76820540D01*
X169293970Y-76820540D02*
X168995170Y-76820540D01*
X169591770Y-76820540D02*
X169293970Y-76820540D01*
X169889970Y-76820540D02*
X169591770Y-76820540D01*
X170188570Y-76820540D02*
X169889970Y-76820540D01*
X170486370Y-76820540D02*
X170188570Y-76820540D01*
X170785870Y-76820540D02*
X170486370Y-76820540D01*
X171084270Y-76820540D02*
X170785870Y-76820540D01*
X171382470Y-76820550D02*
X171084270Y-76820540D01*
X171681070Y-76820550D02*
X171382470Y-76820550D01*
X171979870Y-76820550D02*
X171681070Y-76820550D01*
X172279070Y-76820550D02*
X171979870Y-76820550D01*
X172578570Y-76820550D02*
X172279070Y-76820550D01*
X172877270Y-76820550D02*
X172578570Y-76820550D01*
X173176170Y-76820550D02*
X172877270Y-76820550D01*
X173475370Y-76820550D02*
X173176170Y-76820550D01*
X173772970Y-76820550D02*
X173475370Y-76820550D01*
X174032370Y-76854530D02*
X173772970Y-76820550D01*
X174273370Y-76954540D02*
X174032370Y-76854530D01*
X174480070Y-77113440D02*
X174273370Y-76954540D01*
X174639170Y-77320480D02*
X174480070Y-77113440D01*
X174739170Y-77561700D02*
X174639170Y-77320480D01*
X174773070Y-77820600D02*
X174739170Y-77561700D01*
X174773070Y-78118700D02*
X174773070Y-77820600D01*
X174773070Y-78418700D02*
X174773070Y-78118700D01*
X174773070Y-78717300D02*
X174773070Y-78418700D01*
X174773170Y-79016500D02*
X174773070Y-78717300D01*
X174773170Y-79314500D02*
X174773170Y-79016500D01*
X174773170Y-79612900D02*
X174773170Y-79314500D01*
X174773170Y-79911300D02*
X174773170Y-79612900D01*
X174773270Y-80209600D02*
X174773170Y-79911300D01*
X174773270Y-80508800D02*
X174773270Y-80209600D01*
X174773270Y-80807400D02*
X174773270Y-80508800D01*
X174773270Y-81107200D02*
X174773270Y-80807400D01*
X174773270Y-81406100D02*
X174773270Y-81107200D01*
X174773370Y-81704500D02*
X174773270Y-81406100D01*
X174773370Y-82003900D02*
X174773370Y-81704500D01*
X174773370Y-82303200D02*
X174773370Y-82003900D01*
X174773370Y-82601700D02*
X174773370Y-82303200D01*
X174773470Y-82900900D02*
X174773370Y-82601700D01*
X174773470Y-83199000D02*
X174773470Y-82900900D01*
X174773470Y-83498300D02*
X174773470Y-83199000D01*
X174773470Y-83797400D02*
X174773470Y-83498300D01*
X174773470Y-84097000D02*
X174773470Y-83797400D01*
X174773570Y-84395900D02*
X174773470Y-84097000D01*
X174773570Y-84695100D02*
X174773570Y-84395900D01*
X174773570Y-84993300D02*
X174773570Y-84695100D01*
X174773570Y-85291900D02*
X174773570Y-84993300D01*
X174773670Y-85590900D02*
X174773570Y-85291900D01*
X174773670Y-85889100D02*
X174773670Y-85590900D01*
X174773670Y-86189000D02*
X174773670Y-85889100D01*
X174773670Y-86487800D02*
X174773670Y-86189000D01*
X174773670Y-86786400D02*
X174773670Y-86487800D01*
X174773770Y-87085300D02*
X174773670Y-86786400D01*
X174773770Y-87384500D02*
X174773770Y-87085300D01*
X174773770Y-87684200D02*
X174773770Y-87384500D01*
X174773770Y-87984000D02*
X174773770Y-87684200D01*
X174773870Y-88283100D02*
X174773770Y-87984000D01*
X174773870Y-88582400D02*
X174773870Y-88283100D01*
X174773870Y-88882000D02*
X174773870Y-88582400D01*
X174773870Y-89180000D02*
X174773870Y-88882000D01*
X174807870Y-89439500D02*
X174773870Y-89180000D01*
X174907970Y-89680400D02*
X174807870Y-89439500D01*
X175066870Y-89887100D02*
X174907970Y-89680400D01*
X175273870Y-90046200D02*
X175066870Y-89887100D01*
X175515070Y-90146200D02*
X175273870Y-90046200D01*
X175773970Y-90180000D02*
X175515070Y-90146200D01*
X176040670Y-90180000D02*
X175773970Y-90180000D01*
X176307670Y-90180000D02*
X176040670Y-90180000D01*
X176574370Y-90180000D02*
X176307670Y-90180000D01*
X176841370Y-90180000D02*
X176574370Y-90180000D01*
X177109370Y-90180000D02*
X176841370Y-90180000D01*
X177376770Y-90180000D02*
X177109370Y-90180000D01*
X177644170Y-90180000D02*
X177376770Y-90180000D01*
X177910870Y-90180000D02*
X177644170Y-90180000D01*
X178177270Y-90180000D02*
X177910870Y-90180000D01*
X178460970Y-90193700D02*
X178177270Y-90180000D01*
X178741170Y-90234800D02*
X178460970Y-90193700D01*
X179017570Y-90303800D02*
X178741170Y-90234800D01*
X179285770Y-90399700D02*
X179017570Y-90303800D01*
X179543070Y-90521700D02*
X179285770Y-90399700D01*
X179786870Y-90668300D02*
X179543070Y-90521700D01*
X180015270Y-90838200D02*
X179786870Y-90668300D01*
X180225870Y-91029500D02*
X180015270Y-90838200D01*
X180416470Y-91240200D02*
X180225870Y-91029500D01*
X180585670Y-91468500D02*
X180416470Y-91240200D01*
X180731570Y-91711900D02*
X180585670Y-91468500D01*
X180853570Y-91969800D02*
X180731570Y-91711900D01*
X180949170Y-92237700D02*
X180853570Y-91969800D01*
X181017770Y-92513300D02*
X180949170Y-92237700D01*
X181059170Y-92795000D02*
X181017770Y-92513300D01*
X181072970Y-93080000D02*
X181059170Y-92795000D01*
X181059270Y-93363800D02*
X181072970Y-93080000D01*
X181018170Y-93644100D02*
X181059270Y-93363800D01*
X180949270Y-93920700D02*
X181018170Y-93644100D01*
X180853270Y-94189200D02*
X180949270Y-93920700D01*
X180731370Y-94446900D02*
X180853270Y-94189200D01*
X180584770Y-94691000D02*
X180731370Y-94446900D01*
X180414870Y-94919800D02*
X180584770Y-94691000D01*
X180223470Y-95130700D02*
X180414870Y-94919800D01*
X180012770Y-95321800D02*
X180223470Y-95130700D01*
X179784570Y-95491400D02*
X180012770Y-95321800D01*
X179541070Y-95637700D02*
X179784570Y-95491400D01*
X179283170Y-95759900D02*
X179541070Y-95637700D01*
X179015270Y-95855800D02*
X179283170Y-95759900D01*
X178739770Y-95924700D02*
X179015270Y-95855800D01*
X178458070Y-95966200D02*
X178739770Y-95924700D01*
X178172970Y-95980000D02*
X178458070Y-95966200D01*
X177872370Y-95980000D02*
X178172970Y-95980000D01*
X177572470Y-95980000D02*
X177872370Y-95980000D01*
X177273070Y-95980000D02*
X177572470Y-95980000D01*
X176973770Y-95980000D02*
X177273070Y-95980000D01*
X176672670Y-95980000D02*
X176973770Y-95980000D01*
X176372970Y-95980000D02*
X176672670Y-95980000D01*
X176072970Y-95980000D02*
X176372970Y-95980000D01*
X175773970Y-95980000D02*
X176072970Y-95980000D01*
X175515970Y-96013900D02*
X175773970Y-95980000D01*
X175273670Y-96114100D02*
X175515970Y-96013900D01*
X175066870Y-96272900D02*
X175273670Y-96114100D01*
X174908370Y-96479300D02*
X175066870Y-96272900D01*
X174807970Y-96721500D02*
X174908370Y-96479300D01*
X174773970Y-96980000D02*
X174807970Y-96721500D01*
X174773970Y-97276200D02*
X174773970Y-96980000D01*
X174773970Y-97571700D02*
X174773970Y-97276200D01*
X174773970Y-97867900D02*
X174773970Y-97571700D01*
X174773970Y-98162600D02*
X174773970Y-97867900D01*
X174773970Y-98458200D02*
X174773970Y-98162600D01*
X174773970Y-98754600D02*
X174773970Y-98458200D01*
X174773970Y-99049300D02*
X174773970Y-98754600D01*
X174773970Y-99343900D02*
X174773970Y-99049300D01*
X174773970Y-99639400D02*
X174773970Y-99343900D01*
X174773970Y-99935800D02*
X174773970Y-99639400D01*
X174773970Y-100232400D02*
X174773970Y-99935800D01*
X174773970Y-100528500D02*
X174773970Y-100232400D01*
X174773970Y-100824600D02*
X174773970Y-100528500D01*
X174773970Y-101120600D02*
X174773970Y-100824600D01*
X174773970Y-101415400D02*
X174773970Y-101120600D01*
X174773970Y-101711900D02*
X174773970Y-101415400D01*
X174773970Y-102008300D02*
X174773970Y-101711900D01*
X174773970Y-102304700D02*
X174773970Y-102008300D01*
X174773970Y-102601500D02*
X174773970Y-102304700D01*
X174773970Y-102897400D02*
X174773970Y-102601500D01*
X174773970Y-103193100D02*
X174773970Y-102897400D01*
X174773970Y-103488900D02*
X174773970Y-103193100D01*
X174773970Y-103784800D02*
X174773970Y-103488900D01*
X174773970Y-104081200D02*
X174773970Y-103784800D01*
X174773970Y-104377300D02*
X174773970Y-104081200D01*
X174773970Y-104673500D02*
X174773970Y-104377300D01*
X174773970Y-104969200D02*
X174773970Y-104673500D01*
X174773970Y-105265000D02*
X174773970Y-104969200D01*
X174773970Y-105560300D02*
X174773970Y-105265000D01*
X174773970Y-105856100D02*
X174773970Y-105560300D01*
X174773970Y-106151700D02*
X174773970Y-105856100D01*
X174773970Y-106448300D02*
X174773970Y-106151700D01*
X174773970Y-106743500D02*
X174773970Y-106448300D01*
X174773970Y-107038700D02*
X174773970Y-106743500D01*
X174773970Y-107335100D02*
X174773970Y-107038700D01*
X174773970Y-107630300D02*
X174773970Y-107335100D01*
X174773970Y-107925800D02*
X174773970Y-107630300D01*
X174773970Y-108220900D02*
X174773970Y-107925800D01*
X174773970Y-108517300D02*
X174773970Y-108220900D01*
X174773970Y-108812400D02*
X174773970Y-108517300D01*
X174773970Y-109107600D02*
X174773970Y-108812400D01*
X174773970Y-109404400D02*
X174773970Y-109107600D01*
X174773970Y-109700300D02*
X174773970Y-109404400D01*
X174773970Y-109996700D02*
X174773970Y-109700300D01*
X174773970Y-110292800D02*
X174773970Y-109996700D01*
X174773970Y-110588100D02*
X174773970Y-110292800D01*
X174773970Y-110883500D02*
X174773970Y-110588100D01*
X174773970Y-111180300D02*
X174773970Y-110883500D01*
X174773970Y-111477100D02*
X174773970Y-111180300D01*
X174773970Y-111772800D02*
X174773970Y-111477100D01*
X174773970Y-112069500D02*
X174773970Y-111772800D01*
X174773970Y-112365100D02*
X174773970Y-112069500D01*
X174773970Y-112660500D02*
X174773970Y-112365100D01*
X174773970Y-112955700D02*
X174773970Y-112660500D01*
X174773970Y-113251600D02*
X174773970Y-112955700D01*
X174773970Y-113547700D02*
X174773970Y-113251600D01*
X174773970Y-113843000D02*
X174773970Y-113547700D01*
X174773970Y-114139600D02*
X174773970Y-113843000D01*
X174773970Y-114435200D02*
X174773970Y-114139600D01*
X174807870Y-114693300D02*
X174773970Y-114435200D01*
X174908070Y-114935500D02*
X174807870Y-114693300D01*
X175066870Y-115142300D02*
X174908070Y-114935500D01*
X175273270Y-115300900D02*
X175066870Y-115142300D01*
X175515470Y-115401200D02*
X175273270Y-115300900D01*
X175773970Y-115435200D02*
X175515470Y-115401200D01*
X176040670Y-115435200D02*
X175773970Y-115435200D01*
X176307670Y-115435200D02*
X176040670Y-115435200D01*
X176574370Y-115435200D02*
X176307670Y-115435200D01*
X176841370Y-115435200D02*
X176574370Y-115435200D01*
X177109370Y-115435200D02*
X176841370Y-115435200D01*
X177376770Y-115435200D02*
X177109370Y-115435200D01*
X177644170Y-115435200D02*
X177376770Y-115435200D01*
X177910870Y-115435200D02*
X177644170Y-115435200D01*
X178177270Y-115435200D02*
X177910870Y-115435200D01*
X178460970Y-115448900D02*
X178177270Y-115435200D01*
X178741170Y-115490000D02*
X178460970Y-115448900D01*
X179017570Y-115559000D02*
X178741170Y-115490000D01*
X179285770Y-115654900D02*
X179017570Y-115559000D01*
X179543070Y-115776900D02*
X179285770Y-115654900D01*
X179786870Y-115923500D02*
X179543070Y-115776900D01*
X180015270Y-116093400D02*
X179786870Y-115923500D01*
X180225870Y-116284700D02*
X180015270Y-116093400D01*
X180416470Y-116495400D02*
X180225870Y-116284700D01*
X180585670Y-116723700D02*
X180416470Y-116495400D01*
X180731570Y-116967100D02*
X180585670Y-116723700D01*
X180853570Y-117225000D02*
X180731570Y-116967100D01*
X180949170Y-117492900D02*
X180853570Y-117225000D01*
X181017770Y-117768500D02*
X180949170Y-117492900D01*
X181059170Y-118050100D02*
X181017770Y-117768500D01*
X181072970Y-118335200D02*
X181059170Y-118050100D01*
X181059270Y-118619000D02*
X181072970Y-118335200D01*
X181018170Y-118899300D02*
X181059270Y-118619000D01*
X180949270Y-119175900D02*
X181018170Y-118899300D01*
X180853270Y-119444400D02*
X180949270Y-119175900D01*
X180731370Y-119702000D02*
X180853270Y-119444400D01*
X180584770Y-119946200D02*
X180731370Y-119702000D01*
X180414870Y-120175000D02*
X180584770Y-119946200D01*
X180223470Y-120385900D02*
X180414870Y-120175000D01*
X180012770Y-120577000D02*
X180223470Y-120385900D01*
X179784570Y-120746600D02*
X180012770Y-120577000D01*
X179541070Y-120892900D02*
X179784570Y-120746600D01*
X179283170Y-121015100D02*
X179541070Y-120892900D01*
X179015270Y-121111000D02*
X179283170Y-121015100D01*
X178739770Y-121179900D02*
X179015270Y-121111000D01*
X178458070Y-121221400D02*
X178739770Y-121179900D01*
X178172970Y-121235200D02*
X178458070Y-121221400D01*
X177872370Y-121235200D02*
X178172970Y-121235200D01*
X177572470Y-121235200D02*
X177872370Y-121235200D01*
X177273070Y-121235200D02*
X177572470Y-121235200D01*
X176973770Y-121235200D02*
X177273070Y-121235200D01*
X176672670Y-121235200D02*
X176973770Y-121235200D01*
X176372970Y-121235200D02*
X176672670Y-121235200D01*
X176072970Y-121235200D02*
X176372970Y-121235200D01*
X175773970Y-121235200D02*
X176072970Y-121235200D01*
X175514570Y-121269200D02*
X175773970Y-121235200D01*
X175273570Y-121369200D02*
X175514570Y-121269200D01*
X175066870Y-121528100D02*
X175273570Y-121369200D01*
X174907770Y-121735200D02*
X175066870Y-121528100D01*
X174807770Y-121976300D02*
X174907770Y-121735200D01*
X174773870Y-122235200D02*
X174807770Y-121976300D01*
X174773870Y-122533100D02*
X174773870Y-122235200D01*
X174773870Y-122832800D02*
X174773870Y-122533100D01*
X174773870Y-123131200D02*
X174773870Y-122832800D01*
X174773770Y-123430100D02*
X174773870Y-123131200D01*
X174773770Y-123727800D02*
X174773770Y-123430100D01*
X174773770Y-124026000D02*
X174773770Y-123727800D01*
X174773770Y-124324100D02*
X174773770Y-124026000D01*
X174773670Y-124622100D02*
X174773770Y-124324100D01*
X174773670Y-124921100D02*
X174773670Y-124622100D01*
X174773670Y-125219400D02*
X174773670Y-124921100D01*
X174773670Y-125518900D02*
X174773670Y-125219400D01*
X174773670Y-125817600D02*
X174773670Y-125518900D01*
X174773570Y-126115700D02*
X174773670Y-125817600D01*
X174773570Y-126414800D02*
X174773570Y-126115700D01*
X174773570Y-126713800D02*
X174773570Y-126414800D01*
X174773570Y-127012100D02*
X174773570Y-126713800D01*
X174773470Y-127311000D02*
X174773570Y-127012100D01*
X174773470Y-127608800D02*
X174773470Y-127311000D01*
X174773470Y-127907900D02*
X174773470Y-127608800D01*
X174773470Y-128206700D02*
X174773470Y-127907900D01*
X174773470Y-128506100D02*
X174773470Y-128206700D01*
X174773370Y-128804700D02*
X174773470Y-128506100D01*
X174773370Y-129103600D02*
X174773370Y-128804700D01*
X174773370Y-129401600D02*
X174773370Y-129103600D01*
X174773370Y-129699900D02*
X174773370Y-129401600D01*
X174773270Y-129998600D02*
X174773370Y-129699900D01*
X174773270Y-130296500D02*
X174773270Y-129998600D01*
X174773270Y-130596100D02*
X174773270Y-130296500D01*
X174773270Y-130894700D02*
X174773270Y-130596100D01*
X174773270Y-131193000D02*
X174773270Y-130894700D01*
X174773170Y-131491700D02*
X174773270Y-131193000D01*
X174773170Y-131790600D02*
X174773170Y-131491700D01*
X174773170Y-132090000D02*
X174773170Y-131790600D01*
X174773170Y-132389600D02*
X174773170Y-132090000D01*
X174773070Y-132688400D02*
X174773170Y-132389600D01*
X174773070Y-132987400D02*
X174773070Y-132688400D01*
X174773070Y-133286800D02*
X174773070Y-132987400D01*
X174773070Y-133584500D02*
X174773070Y-133286800D01*
X174739070Y-133843900D02*
X174773070Y-133584500D01*
X174638970Y-134084900D02*
X174739070Y-133843900D01*
X174480070Y-134291600D02*
X174638970Y-134084900D01*
X174273070Y-134450700D02*
X174480070Y-134291600D01*
X174031870Y-134550700D02*
X174273070Y-134450700D01*
X173772970Y-134584600D02*
X174031870Y-134550700D01*
X173475270Y-134584600D02*
X173772970Y-134584600D01*
X173175870Y-134584600D02*
X173475270Y-134584600D01*
X172877770Y-134584600D02*
X173175870Y-134584600D01*
X172579070Y-134584700D02*
X172877770Y-134584600D01*
X172281670Y-134584700D02*
X172579070Y-134584700D01*
X171983770Y-134584700D02*
X172281670Y-134584700D01*
X171685970Y-134584700D02*
X171983770Y-134584700D01*
X171388170Y-134584800D02*
X171685970Y-134584700D01*
X171089470Y-134584800D02*
X171388170Y-134584800D01*
X170791370Y-134584800D02*
X171089470Y-134584800D01*
X170492070Y-134584800D02*
X170791370Y-134584800D01*
X170193770Y-134584800D02*
X170492070Y-134584800D01*
X169895870Y-134584900D02*
X170193770Y-134584800D01*
X169596970Y-134584900D02*
X169895870Y-134584900D01*
X169298170Y-134584900D02*
X169596970Y-134584900D01*
X169000270Y-134584900D02*
X169298170Y-134584900D01*
X168701570Y-134585000D02*
X169000270Y-134584900D01*
X168403970Y-134585000D02*
X168701570Y-134585000D01*
X168105170Y-134585000D02*
X168403970Y-134585000D01*
X167806670Y-134585000D02*
X168105170Y-134585000D01*
X167507570Y-134585100D02*
X167806670Y-134585000D01*
X167209170Y-134585100D02*
X167507570Y-134585100D01*
X166910570Y-134585100D02*
X167209170Y-134585100D01*
X166612770Y-134585100D02*
X166910570Y-134585100D01*
X166314770Y-134585100D02*
X166612770Y-134585100D01*
X166016270Y-134585200D02*
X166314770Y-134585100D01*
X165718570Y-134585200D02*
X166016270Y-134585200D01*
X165419270Y-134585200D02*
X165718570Y-134585200D01*
X165120970Y-134585200D02*
X165419270Y-134585200D01*
X164822870Y-134585300D02*
X165120970Y-134585200D01*
X164524470Y-134585300D02*
X164822870Y-134585300D01*
X164225770Y-134585300D02*
X164524470Y-134585300D01*
X163926670Y-134585300D02*
X164225770Y-134585300D01*
X163627370Y-134585300D02*
X163926670Y-134585300D01*
X163328770Y-134585400D02*
X163627370Y-134585300D01*
X163030070Y-134585400D02*
X163328770Y-134585400D01*
X162730970Y-134585400D02*
X163030070Y-134585400D01*
X162433470Y-134585400D02*
X162730970Y-134585400D01*
X162174070Y-134619400D02*
X162433470Y-134585400D01*
X161933070Y-134719500D02*
X162174070Y-134619400D01*
X161726370Y-134878400D02*
X161933070Y-134719500D01*
X161567270Y-135085400D02*
X161726370Y-134878400D01*
X161467370Y-135326600D02*
X161567270Y-135085400D01*
X161433470Y-135585500D02*
X161467370Y-135326600D01*
X161433470Y-135852200D02*
X161433470Y-135585500D01*
X161433470Y-136119200D02*
X161433470Y-135852200D01*
X161433470Y-136385900D02*
X161433470Y-136119200D01*
X161433470Y-136652900D02*
X161433470Y-136385900D01*
X161433470Y-136920900D02*
X161433470Y-136652900D01*
X161433470Y-137188300D02*
X161433470Y-136920900D01*
X161433470Y-137455700D02*
X161433470Y-137188300D01*
X161433470Y-137722400D02*
X161433470Y-137455700D01*
X161433470Y-137988800D02*
X161433470Y-137722400D01*
X161419770Y-138272500D02*
X161433470Y-137988800D01*
X161378670Y-138552700D02*
X161419770Y-138272500D01*
X161309770Y-138829100D02*
X161378670Y-138552700D01*
X161213770Y-139097300D02*
X161309770Y-138829100D01*
X161091870Y-139354600D02*
X161213770Y-139097300D01*
X160945270Y-139598400D02*
X161091870Y-139354600D01*
X160775370Y-139826800D02*
X160945270Y-139598400D01*
X160583970Y-140037400D02*
X160775370Y-139826800D01*
X160373270Y-140228000D02*
X160583970Y-140037400D01*
X160145070Y-140397200D02*
X160373270Y-140228000D01*
X159901570Y-140543100D02*
X160145070Y-140397200D01*
X159643670Y-140665100D02*
X159901570Y-140543100D01*
X159375770Y-140760700D02*
X159643670Y-140665100D01*
X159100270Y-140829300D02*
X159375770Y-140760700D01*
X158818570Y-140870700D02*
X159100270Y-140829300D01*
X158533470Y-140884500D02*
X158818570Y-140870700D01*
X158249670Y-140870800D02*
X158533470Y-140884500D01*
X157969470Y-140829700D02*
X158249670Y-140870800D01*
X157692770Y-140760800D02*
X157969470Y-140829700D01*
X157424270Y-140664800D02*
X157692770Y-140760800D01*
X157166670Y-140542800D02*
X157424270Y-140664800D01*
X156922470Y-140396200D02*
X157166670Y-140542800D01*
X156693770Y-140226400D02*
X156922470Y-140396200D01*
X156482770Y-140035000D02*
X156693770Y-140226400D01*
X156291670Y-139824300D02*
X156482770Y-140035000D01*
X156122170Y-139596100D02*
X156291670Y-139824300D01*
X155975870Y-139352600D02*
X156122170Y-139596100D01*
X155853570Y-139094700D02*
X155975870Y-139352600D01*
X155757670Y-138826800D02*
X155853570Y-139094700D01*
X155688870Y-138551300D02*
X155757670Y-138826800D01*
X155647370Y-138269600D02*
X155688870Y-138551300D01*
X155633470Y-137984500D02*
X155647370Y-138269600D01*
X155633470Y-137683900D02*
X155633470Y-137984500D01*
X155633470Y-137384000D02*
X155633470Y-137683900D01*
X155633470Y-137084600D02*
X155633470Y-137384000D01*
X155633470Y-136785300D02*
X155633470Y-137084600D01*
X155633470Y-136484200D02*
X155633470Y-136785300D01*
X155633470Y-136184500D02*
X155633470Y-136484200D01*
X155633470Y-135884500D02*
X155633470Y-136184500D01*
X155633470Y-135585500D02*
X155633470Y-135884500D01*
X134346170Y-138269900D02*
X134383470Y-137984500D01*
X134236070Y-138534900D02*
X134346170Y-138269900D01*
X134061370Y-138762300D02*
X134236070Y-138534900D01*
X133833570Y-138937300D02*
X134061370Y-138762300D01*
X133568270Y-139047300D02*
X133833570Y-138937300D01*
X133283470Y-139084500D02*
X133568270Y-139047300D01*
X132998170Y-139047100D02*
X133283470Y-139084500D01*
X132733070Y-138937100D02*
X132998170Y-139047100D01*
X132505670Y-138762300D02*
X132733070Y-138937100D01*
X132330670Y-138534600D02*
X132505670Y-138762300D01*
X132220670Y-138269300D02*
X132330670Y-138534600D01*
X132183470Y-137984500D02*
X132220670Y-138269300D01*
X132220870Y-137699100D02*
X132183470Y-137984500D01*
X132330870Y-137434100D02*
X132220870Y-137699100D01*
X132505670Y-137206700D02*
X132330870Y-137434100D01*
X132733470Y-137031700D02*
X132505670Y-137206700D01*
X132998770Y-136921700D02*
X132733470Y-137031700D01*
X133283470Y-136884500D02*
X132998770Y-136921700D01*
X133568870Y-136921900D02*
X133283470Y-136884500D01*
X133833870Y-137031900D02*
X133568870Y-136921900D01*
X134061270Y-137206700D02*
X133833870Y-137031900D01*
X134236270Y-137434400D02*
X134061270Y-137206700D01*
X134346270Y-137699700D02*
X134236270Y-137434400D01*
X134383470Y-137984500D02*
X134346270Y-137699700D01*
M02*
