%TF.GenerationSoftware,KiCad,Pcbnew,8.0.2*%
%TF.CreationDate,2024-10-13T22:55:22+09:00*%
%TF.ProjectId,typing-check-board,74797069-6e67-42d6-9368-65636b2d626f,rev?*%
%TF.SameCoordinates,Original*%
%TF.FileFunction,Legend,Bot*%
%TF.FilePolarity,Positive*%
%FSLAX46Y46*%
G04 Gerber Fmt 4.6, Leading zero omitted, Abs format (unit mm)*
G04 Created by KiCad (PCBNEW 8.0.2) date 2024-10-13 22:55:22*
%MOMM*%
%LPD*%
G01*
G04 APERTURE LIST*
%ADD10C,0.150000*%
%ADD11C,0.152000*%
%ADD12C,0.120000*%
%ADD13C,0.200000*%
%ADD14C,0.127000*%
G04 APERTURE END LIST*
D10*
X112926844Y-68939819D02*
X112926844Y-67939819D01*
X112926844Y-67939819D02*
X112688749Y-67939819D01*
X112688749Y-67939819D02*
X112545892Y-67987438D01*
X112545892Y-67987438D02*
X112450654Y-68082676D01*
X112450654Y-68082676D02*
X112403035Y-68177914D01*
X112403035Y-68177914D02*
X112355416Y-68368390D01*
X112355416Y-68368390D02*
X112355416Y-68511247D01*
X112355416Y-68511247D02*
X112403035Y-68701723D01*
X112403035Y-68701723D02*
X112450654Y-68796961D01*
X112450654Y-68796961D02*
X112545892Y-68892200D01*
X112545892Y-68892200D02*
X112688749Y-68939819D01*
X112688749Y-68939819D02*
X112926844Y-68939819D01*
X111926844Y-68939819D02*
X111926844Y-67939819D01*
X111926844Y-67939819D02*
X111688749Y-67939819D01*
X111688749Y-67939819D02*
X111545892Y-67987438D01*
X111545892Y-67987438D02*
X111450654Y-68082676D01*
X111450654Y-68082676D02*
X111403035Y-68177914D01*
X111403035Y-68177914D02*
X111355416Y-68368390D01*
X111355416Y-68368390D02*
X111355416Y-68511247D01*
X111355416Y-68511247D02*
X111403035Y-68701723D01*
X111403035Y-68701723D02*
X111450654Y-68796961D01*
X111450654Y-68796961D02*
X111545892Y-68892200D01*
X111545892Y-68892200D02*
X111688749Y-68939819D01*
X111688749Y-68939819D02*
X111926844Y-68939819D01*
X110403035Y-68939819D02*
X110974463Y-68939819D01*
X110688749Y-68939819D02*
X110688749Y-67939819D01*
X110688749Y-67939819D02*
X110783987Y-68082676D01*
X110783987Y-68082676D02*
X110879225Y-68177914D01*
X110879225Y-68177914D02*
X110974463Y-68225533D01*
X122918333Y-67389819D02*
X122918333Y-68104104D01*
X122918333Y-68104104D02*
X122965952Y-68246961D01*
X122965952Y-68246961D02*
X123061190Y-68342200D01*
X123061190Y-68342200D02*
X123204047Y-68389819D01*
X123204047Y-68389819D02*
X123299285Y-68389819D01*
X122442142Y-68389819D02*
X122442142Y-67389819D01*
X122442142Y-67389819D02*
X122204047Y-67389819D01*
X122204047Y-67389819D02*
X122061190Y-67437438D01*
X122061190Y-67437438D02*
X121965952Y-67532676D01*
X121965952Y-67532676D02*
X121918333Y-67627914D01*
X121918333Y-67627914D02*
X121870714Y-67818390D01*
X121870714Y-67818390D02*
X121870714Y-67961247D01*
X121870714Y-67961247D02*
X121918333Y-68151723D01*
X121918333Y-68151723D02*
X121965952Y-68246961D01*
X121965952Y-68246961D02*
X122061190Y-68342200D01*
X122061190Y-68342200D02*
X122204047Y-68389819D01*
X122204047Y-68389819D02*
X122442142Y-68389819D01*
X121489761Y-67485057D02*
X121442142Y-67437438D01*
X121442142Y-67437438D02*
X121346904Y-67389819D01*
X121346904Y-67389819D02*
X121108809Y-67389819D01*
X121108809Y-67389819D02*
X121013571Y-67437438D01*
X121013571Y-67437438D02*
X120965952Y-67485057D01*
X120965952Y-67485057D02*
X120918333Y-67580295D01*
X120918333Y-67580295D02*
X120918333Y-67675533D01*
X120918333Y-67675533D02*
X120965952Y-67818390D01*
X120965952Y-67818390D02*
X121537380Y-68389819D01*
X121537380Y-68389819D02*
X120918333Y-68389819D01*
X113415416Y-70769819D02*
X113748749Y-70293628D01*
X113986844Y-70769819D02*
X113986844Y-69769819D01*
X113986844Y-69769819D02*
X113605892Y-69769819D01*
X113605892Y-69769819D02*
X113510654Y-69817438D01*
X113510654Y-69817438D02*
X113463035Y-69865057D01*
X113463035Y-69865057D02*
X113415416Y-69960295D01*
X113415416Y-69960295D02*
X113415416Y-70103152D01*
X113415416Y-70103152D02*
X113463035Y-70198390D01*
X113463035Y-70198390D02*
X113510654Y-70246009D01*
X113510654Y-70246009D02*
X113605892Y-70293628D01*
X113605892Y-70293628D02*
X113986844Y-70293628D01*
X112558273Y-69769819D02*
X112748749Y-69769819D01*
X112748749Y-69769819D02*
X112843987Y-69817438D01*
X112843987Y-69817438D02*
X112891606Y-69865057D01*
X112891606Y-69865057D02*
X112986844Y-70007914D01*
X112986844Y-70007914D02*
X113034463Y-70198390D01*
X113034463Y-70198390D02*
X113034463Y-70579342D01*
X113034463Y-70579342D02*
X112986844Y-70674580D01*
X112986844Y-70674580D02*
X112939225Y-70722200D01*
X112939225Y-70722200D02*
X112843987Y-70769819D01*
X112843987Y-70769819D02*
X112653511Y-70769819D01*
X112653511Y-70769819D02*
X112558273Y-70722200D01*
X112558273Y-70722200D02*
X112510654Y-70674580D01*
X112510654Y-70674580D02*
X112463035Y-70579342D01*
X112463035Y-70579342D02*
X112463035Y-70341247D01*
X112463035Y-70341247D02*
X112510654Y-70246009D01*
X112510654Y-70246009D02*
X112558273Y-70198390D01*
X112558273Y-70198390D02*
X112653511Y-70150771D01*
X112653511Y-70150771D02*
X112843987Y-70150771D01*
X112843987Y-70150771D02*
X112939225Y-70198390D01*
X112939225Y-70198390D02*
X112986844Y-70246009D01*
X112986844Y-70246009D02*
X113034463Y-70341247D01*
X132041666Y-70049819D02*
X132374999Y-69573628D01*
X132613094Y-70049819D02*
X132613094Y-69049819D01*
X132613094Y-69049819D02*
X132232142Y-69049819D01*
X132232142Y-69049819D02*
X132136904Y-69097438D01*
X132136904Y-69097438D02*
X132089285Y-69145057D01*
X132089285Y-69145057D02*
X132041666Y-69240295D01*
X132041666Y-69240295D02*
X132041666Y-69383152D01*
X132041666Y-69383152D02*
X132089285Y-69478390D01*
X132089285Y-69478390D02*
X132136904Y-69526009D01*
X132136904Y-69526009D02*
X132232142Y-69573628D01*
X132232142Y-69573628D02*
X132613094Y-69573628D01*
X131708332Y-69049819D02*
X131041666Y-69049819D01*
X131041666Y-69049819D02*
X131470237Y-70049819D01*
X115985416Y-62699819D02*
X116318749Y-62223628D01*
X116556844Y-62699819D02*
X116556844Y-61699819D01*
X116556844Y-61699819D02*
X116175892Y-61699819D01*
X116175892Y-61699819D02*
X116080654Y-61747438D01*
X116080654Y-61747438D02*
X116033035Y-61795057D01*
X116033035Y-61795057D02*
X115985416Y-61890295D01*
X115985416Y-61890295D02*
X115985416Y-62033152D01*
X115985416Y-62033152D02*
X116033035Y-62128390D01*
X116033035Y-62128390D02*
X116080654Y-62176009D01*
X116080654Y-62176009D02*
X116175892Y-62223628D01*
X116175892Y-62223628D02*
X116556844Y-62223628D01*
X115556844Y-62699819D02*
X115556844Y-61699819D01*
X115556844Y-61699819D02*
X115318749Y-61699819D01*
X115318749Y-61699819D02*
X115175892Y-61747438D01*
X115175892Y-61747438D02*
X115080654Y-61842676D01*
X115080654Y-61842676D02*
X115033035Y-61937914D01*
X115033035Y-61937914D02*
X114985416Y-62128390D01*
X114985416Y-62128390D02*
X114985416Y-62271247D01*
X114985416Y-62271247D02*
X115033035Y-62461723D01*
X115033035Y-62461723D02*
X115080654Y-62556961D01*
X115080654Y-62556961D02*
X115175892Y-62652200D01*
X115175892Y-62652200D02*
X115318749Y-62699819D01*
X115318749Y-62699819D02*
X115556844Y-62699819D01*
X114033035Y-62699819D02*
X114604463Y-62699819D01*
X114318749Y-62699819D02*
X114318749Y-61699819D01*
X114318749Y-61699819D02*
X114413987Y-61842676D01*
X114413987Y-61842676D02*
X114509225Y-61937914D01*
X114509225Y-61937914D02*
X114604463Y-61985533D01*
X113175416Y-62584580D02*
X113223035Y-62632200D01*
X113223035Y-62632200D02*
X113365892Y-62679819D01*
X113365892Y-62679819D02*
X113461130Y-62679819D01*
X113461130Y-62679819D02*
X113603987Y-62632200D01*
X113603987Y-62632200D02*
X113699225Y-62536961D01*
X113699225Y-62536961D02*
X113746844Y-62441723D01*
X113746844Y-62441723D02*
X113794463Y-62251247D01*
X113794463Y-62251247D02*
X113794463Y-62108390D01*
X113794463Y-62108390D02*
X113746844Y-61917914D01*
X113746844Y-61917914D02*
X113699225Y-61822676D01*
X113699225Y-61822676D02*
X113603987Y-61727438D01*
X113603987Y-61727438D02*
X113461130Y-61679819D01*
X113461130Y-61679819D02*
X113365892Y-61679819D01*
X113365892Y-61679819D02*
X113223035Y-61727438D01*
X113223035Y-61727438D02*
X113175416Y-61775057D01*
X112746844Y-62679819D02*
X112746844Y-61679819D01*
X112746844Y-61679819D02*
X112508749Y-61679819D01*
X112508749Y-61679819D02*
X112365892Y-61727438D01*
X112365892Y-61727438D02*
X112270654Y-61822676D01*
X112270654Y-61822676D02*
X112223035Y-61917914D01*
X112223035Y-61917914D02*
X112175416Y-62108390D01*
X112175416Y-62108390D02*
X112175416Y-62251247D01*
X112175416Y-62251247D02*
X112223035Y-62441723D01*
X112223035Y-62441723D02*
X112270654Y-62536961D01*
X112270654Y-62536961D02*
X112365892Y-62632200D01*
X112365892Y-62632200D02*
X112508749Y-62679819D01*
X112508749Y-62679819D02*
X112746844Y-62679819D01*
X111318273Y-62013152D02*
X111318273Y-62679819D01*
X111556368Y-61632200D02*
X111794463Y-62346485D01*
X111794463Y-62346485D02*
X111175416Y-62346485D01*
X132552083Y-62436009D02*
X132885416Y-62436009D01*
X132885416Y-62959819D02*
X132885416Y-61959819D01*
X132885416Y-61959819D02*
X132409226Y-61959819D01*
X132028273Y-62959819D02*
X132028273Y-61959819D01*
X132028273Y-61959819D02*
X131790178Y-61959819D01*
X131790178Y-61959819D02*
X131647321Y-62007438D01*
X131647321Y-62007438D02*
X131552083Y-62102676D01*
X131552083Y-62102676D02*
X131504464Y-62197914D01*
X131504464Y-62197914D02*
X131456845Y-62388390D01*
X131456845Y-62388390D02*
X131456845Y-62531247D01*
X131456845Y-62531247D02*
X131504464Y-62721723D01*
X131504464Y-62721723D02*
X131552083Y-62816961D01*
X131552083Y-62816961D02*
X131647321Y-62912200D01*
X131647321Y-62912200D02*
X131790178Y-62959819D01*
X131790178Y-62959819D02*
X132028273Y-62959819D01*
X130504464Y-62959819D02*
X131075892Y-62959819D01*
X130790178Y-62959819D02*
X130790178Y-61959819D01*
X130790178Y-61959819D02*
X130885416Y-62102676D01*
X130885416Y-62102676D02*
X130980654Y-62197914D01*
X130980654Y-62197914D02*
X131075892Y-62245533D01*
X122948333Y-57399819D02*
X122948333Y-58114104D01*
X122948333Y-58114104D02*
X122995952Y-58256961D01*
X122995952Y-58256961D02*
X123091190Y-58352200D01*
X123091190Y-58352200D02*
X123234047Y-58399819D01*
X123234047Y-58399819D02*
X123329285Y-58399819D01*
X122472142Y-58399819D02*
X122472142Y-57399819D01*
X122472142Y-57399819D02*
X122234047Y-57399819D01*
X122234047Y-57399819D02*
X122091190Y-57447438D01*
X122091190Y-57447438D02*
X121995952Y-57542676D01*
X121995952Y-57542676D02*
X121948333Y-57637914D01*
X121948333Y-57637914D02*
X121900714Y-57828390D01*
X121900714Y-57828390D02*
X121900714Y-57971247D01*
X121900714Y-57971247D02*
X121948333Y-58161723D01*
X121948333Y-58161723D02*
X121995952Y-58256961D01*
X121995952Y-58256961D02*
X122091190Y-58352200D01*
X122091190Y-58352200D02*
X122234047Y-58399819D01*
X122234047Y-58399819D02*
X122472142Y-58399819D01*
X120948333Y-58399819D02*
X121519761Y-58399819D01*
X121234047Y-58399819D02*
X121234047Y-57399819D01*
X121234047Y-57399819D02*
X121329285Y-57542676D01*
X121329285Y-57542676D02*
X121424523Y-57637914D01*
X121424523Y-57637914D02*
X121519761Y-57685533D01*
D11*
X130176607Y-61902869D02*
X130176607Y-62828155D01*
X130176607Y-62828155D02*
X130122178Y-62937012D01*
X130122178Y-62937012D02*
X130067750Y-62991441D01*
X130067750Y-62991441D02*
X129958892Y-63045869D01*
X129958892Y-63045869D02*
X129741178Y-63045869D01*
X129741178Y-63045869D02*
X129632321Y-62991441D01*
X129632321Y-62991441D02*
X129577892Y-62937012D01*
X129577892Y-62937012D02*
X129523464Y-62828155D01*
X129523464Y-62828155D02*
X129523464Y-61902869D01*
X128979178Y-63045869D02*
X128979178Y-61902869D01*
X128979178Y-61902869D02*
X128707035Y-61902869D01*
X128707035Y-61902869D02*
X128543749Y-61957298D01*
X128543749Y-61957298D02*
X128434892Y-62066155D01*
X128434892Y-62066155D02*
X128380463Y-62175012D01*
X128380463Y-62175012D02*
X128326035Y-62392726D01*
X128326035Y-62392726D02*
X128326035Y-62556012D01*
X128326035Y-62556012D02*
X128380463Y-62773726D01*
X128380463Y-62773726D02*
X128434892Y-62882583D01*
X128434892Y-62882583D02*
X128543749Y-62991441D01*
X128543749Y-62991441D02*
X128707035Y-63045869D01*
X128707035Y-63045869D02*
X128979178Y-63045869D01*
X127237463Y-63045869D02*
X127890606Y-63045869D01*
X127564035Y-63045869D02*
X127564035Y-61902869D01*
X127564035Y-61902869D02*
X127672892Y-62066155D01*
X127672892Y-62066155D02*
X127781749Y-62175012D01*
X127781749Y-62175012D02*
X127890606Y-62229441D01*
D10*
X117834819Y-88568571D02*
X116834819Y-88568571D01*
X116834819Y-88568571D02*
X116834819Y-88806666D01*
X116834819Y-88806666D02*
X116882438Y-88949523D01*
X116882438Y-88949523D02*
X116977676Y-89044761D01*
X116977676Y-89044761D02*
X117072914Y-89092380D01*
X117072914Y-89092380D02*
X117263390Y-89139999D01*
X117263390Y-89139999D02*
X117406247Y-89139999D01*
X117406247Y-89139999D02*
X117596723Y-89092380D01*
X117596723Y-89092380D02*
X117691961Y-89044761D01*
X117691961Y-89044761D02*
X117787200Y-88949523D01*
X117787200Y-88949523D02*
X117834819Y-88806666D01*
X117834819Y-88806666D02*
X117834819Y-88568571D01*
X116834819Y-89759047D02*
X116834819Y-89854285D01*
X116834819Y-89854285D02*
X116882438Y-89949523D01*
X116882438Y-89949523D02*
X116930057Y-89997142D01*
X116930057Y-89997142D02*
X117025295Y-90044761D01*
X117025295Y-90044761D02*
X117215771Y-90092380D01*
X117215771Y-90092380D02*
X117453866Y-90092380D01*
X117453866Y-90092380D02*
X117644342Y-90044761D01*
X117644342Y-90044761D02*
X117739580Y-89997142D01*
X117739580Y-89997142D02*
X117787200Y-89949523D01*
X117787200Y-89949523D02*
X117834819Y-89854285D01*
X117834819Y-89854285D02*
X117834819Y-89759047D01*
X117834819Y-89759047D02*
X117787200Y-89663809D01*
X117787200Y-89663809D02*
X117739580Y-89616190D01*
X117739580Y-89616190D02*
X117644342Y-89568571D01*
X117644342Y-89568571D02*
X117453866Y-89520952D01*
X117453866Y-89520952D02*
X117215771Y-89520952D01*
X117215771Y-89520952D02*
X117025295Y-89568571D01*
X117025295Y-89568571D02*
X116930057Y-89616190D01*
X116930057Y-89616190D02*
X116882438Y-89663809D01*
X116882438Y-89663809D02*
X116834819Y-89759047D01*
X116930057Y-90473333D02*
X116882438Y-90520952D01*
X116882438Y-90520952D02*
X116834819Y-90616190D01*
X116834819Y-90616190D02*
X116834819Y-90854285D01*
X116834819Y-90854285D02*
X116882438Y-90949523D01*
X116882438Y-90949523D02*
X116930057Y-90997142D01*
X116930057Y-90997142D02*
X117025295Y-91044761D01*
X117025295Y-91044761D02*
X117120533Y-91044761D01*
X117120533Y-91044761D02*
X117263390Y-90997142D01*
X117263390Y-90997142D02*
X117834819Y-90425714D01*
X117834819Y-90425714D02*
X117834819Y-91044761D01*
X117930057Y-91235238D02*
X117930057Y-91997142D01*
X117834819Y-92759047D02*
X117834819Y-92187619D01*
X117834819Y-92473333D02*
X116834819Y-92473333D01*
X116834819Y-92473333D02*
X116977676Y-92378095D01*
X116977676Y-92378095D02*
X117072914Y-92282857D01*
X117072914Y-92282857D02*
X117120533Y-92187619D01*
X121634819Y-88628571D02*
X120634819Y-88628571D01*
X120634819Y-88628571D02*
X120634819Y-88866666D01*
X120634819Y-88866666D02*
X120682438Y-89009523D01*
X120682438Y-89009523D02*
X120777676Y-89104761D01*
X120777676Y-89104761D02*
X120872914Y-89152380D01*
X120872914Y-89152380D02*
X121063390Y-89199999D01*
X121063390Y-89199999D02*
X121206247Y-89199999D01*
X121206247Y-89199999D02*
X121396723Y-89152380D01*
X121396723Y-89152380D02*
X121491961Y-89104761D01*
X121491961Y-89104761D02*
X121587200Y-89009523D01*
X121587200Y-89009523D02*
X121634819Y-88866666D01*
X121634819Y-88866666D02*
X121634819Y-88628571D01*
X120634819Y-89819047D02*
X120634819Y-89914285D01*
X120634819Y-89914285D02*
X120682438Y-90009523D01*
X120682438Y-90009523D02*
X120730057Y-90057142D01*
X120730057Y-90057142D02*
X120825295Y-90104761D01*
X120825295Y-90104761D02*
X121015771Y-90152380D01*
X121015771Y-90152380D02*
X121253866Y-90152380D01*
X121253866Y-90152380D02*
X121444342Y-90104761D01*
X121444342Y-90104761D02*
X121539580Y-90057142D01*
X121539580Y-90057142D02*
X121587200Y-90009523D01*
X121587200Y-90009523D02*
X121634819Y-89914285D01*
X121634819Y-89914285D02*
X121634819Y-89819047D01*
X121634819Y-89819047D02*
X121587200Y-89723809D01*
X121587200Y-89723809D02*
X121539580Y-89676190D01*
X121539580Y-89676190D02*
X121444342Y-89628571D01*
X121444342Y-89628571D02*
X121253866Y-89580952D01*
X121253866Y-89580952D02*
X121015771Y-89580952D01*
X121015771Y-89580952D02*
X120825295Y-89628571D01*
X120825295Y-89628571D02*
X120730057Y-89676190D01*
X120730057Y-89676190D02*
X120682438Y-89723809D01*
X120682438Y-89723809D02*
X120634819Y-89819047D01*
X121634819Y-91104761D02*
X121634819Y-90533333D01*
X121634819Y-90819047D02*
X120634819Y-90819047D01*
X120634819Y-90819047D02*
X120777676Y-90723809D01*
X120777676Y-90723809D02*
X120872914Y-90628571D01*
X120872914Y-90628571D02*
X120920533Y-90533333D01*
X121730057Y-91295238D02*
X121730057Y-92057142D01*
X121634819Y-92819047D02*
X121634819Y-92247619D01*
X121634819Y-92533333D02*
X120634819Y-92533333D01*
X120634819Y-92533333D02*
X120777676Y-92438095D01*
X120777676Y-92438095D02*
X120872914Y-92342857D01*
X120872914Y-92342857D02*
X120920533Y-92247619D01*
X148664819Y-88578571D02*
X147664819Y-88578571D01*
X147664819Y-88578571D02*
X147664819Y-88816666D01*
X147664819Y-88816666D02*
X147712438Y-88959523D01*
X147712438Y-88959523D02*
X147807676Y-89054761D01*
X147807676Y-89054761D02*
X147902914Y-89102380D01*
X147902914Y-89102380D02*
X148093390Y-89149999D01*
X148093390Y-89149999D02*
X148236247Y-89149999D01*
X148236247Y-89149999D02*
X148426723Y-89102380D01*
X148426723Y-89102380D02*
X148521961Y-89054761D01*
X148521961Y-89054761D02*
X148617200Y-88959523D01*
X148617200Y-88959523D02*
X148664819Y-88816666D01*
X148664819Y-88816666D02*
X148664819Y-88578571D01*
X147664819Y-89769047D02*
X147664819Y-89864285D01*
X147664819Y-89864285D02*
X147712438Y-89959523D01*
X147712438Y-89959523D02*
X147760057Y-90007142D01*
X147760057Y-90007142D02*
X147855295Y-90054761D01*
X147855295Y-90054761D02*
X148045771Y-90102380D01*
X148045771Y-90102380D02*
X148283866Y-90102380D01*
X148283866Y-90102380D02*
X148474342Y-90054761D01*
X148474342Y-90054761D02*
X148569580Y-90007142D01*
X148569580Y-90007142D02*
X148617200Y-89959523D01*
X148617200Y-89959523D02*
X148664819Y-89864285D01*
X148664819Y-89864285D02*
X148664819Y-89769047D01*
X148664819Y-89769047D02*
X148617200Y-89673809D01*
X148617200Y-89673809D02*
X148569580Y-89626190D01*
X148569580Y-89626190D02*
X148474342Y-89578571D01*
X148474342Y-89578571D02*
X148283866Y-89530952D01*
X148283866Y-89530952D02*
X148045771Y-89530952D01*
X148045771Y-89530952D02*
X147855295Y-89578571D01*
X147855295Y-89578571D02*
X147760057Y-89626190D01*
X147760057Y-89626190D02*
X147712438Y-89673809D01*
X147712438Y-89673809D02*
X147664819Y-89769047D01*
X147760057Y-90483333D02*
X147712438Y-90530952D01*
X147712438Y-90530952D02*
X147664819Y-90626190D01*
X147664819Y-90626190D02*
X147664819Y-90864285D01*
X147664819Y-90864285D02*
X147712438Y-90959523D01*
X147712438Y-90959523D02*
X147760057Y-91007142D01*
X147760057Y-91007142D02*
X147855295Y-91054761D01*
X147855295Y-91054761D02*
X147950533Y-91054761D01*
X147950533Y-91054761D02*
X148093390Y-91007142D01*
X148093390Y-91007142D02*
X148664819Y-90435714D01*
X148664819Y-90435714D02*
X148664819Y-91054761D01*
X148760057Y-91245238D02*
X148760057Y-92007142D01*
X147664819Y-92150000D02*
X147664819Y-92769047D01*
X147664819Y-92769047D02*
X148045771Y-92435714D01*
X148045771Y-92435714D02*
X148045771Y-92578571D01*
X148045771Y-92578571D02*
X148093390Y-92673809D01*
X148093390Y-92673809D02*
X148141009Y-92721428D01*
X148141009Y-92721428D02*
X148236247Y-92769047D01*
X148236247Y-92769047D02*
X148474342Y-92769047D01*
X148474342Y-92769047D02*
X148569580Y-92721428D01*
X148569580Y-92721428D02*
X148617200Y-92673809D01*
X148617200Y-92673809D02*
X148664819Y-92578571D01*
X148664819Y-92578571D02*
X148664819Y-92292857D01*
X148664819Y-92292857D02*
X148617200Y-92197619D01*
X148617200Y-92197619D02*
X148569580Y-92150000D01*
X125594819Y-88628571D02*
X124594819Y-88628571D01*
X124594819Y-88628571D02*
X124594819Y-88866666D01*
X124594819Y-88866666D02*
X124642438Y-89009523D01*
X124642438Y-89009523D02*
X124737676Y-89104761D01*
X124737676Y-89104761D02*
X124832914Y-89152380D01*
X124832914Y-89152380D02*
X125023390Y-89199999D01*
X125023390Y-89199999D02*
X125166247Y-89199999D01*
X125166247Y-89199999D02*
X125356723Y-89152380D01*
X125356723Y-89152380D02*
X125451961Y-89104761D01*
X125451961Y-89104761D02*
X125547200Y-89009523D01*
X125547200Y-89009523D02*
X125594819Y-88866666D01*
X125594819Y-88866666D02*
X125594819Y-88628571D01*
X124594819Y-89819047D02*
X124594819Y-89914285D01*
X124594819Y-89914285D02*
X124642438Y-90009523D01*
X124642438Y-90009523D02*
X124690057Y-90057142D01*
X124690057Y-90057142D02*
X124785295Y-90104761D01*
X124785295Y-90104761D02*
X124975771Y-90152380D01*
X124975771Y-90152380D02*
X125213866Y-90152380D01*
X125213866Y-90152380D02*
X125404342Y-90104761D01*
X125404342Y-90104761D02*
X125499580Y-90057142D01*
X125499580Y-90057142D02*
X125547200Y-90009523D01*
X125547200Y-90009523D02*
X125594819Y-89914285D01*
X125594819Y-89914285D02*
X125594819Y-89819047D01*
X125594819Y-89819047D02*
X125547200Y-89723809D01*
X125547200Y-89723809D02*
X125499580Y-89676190D01*
X125499580Y-89676190D02*
X125404342Y-89628571D01*
X125404342Y-89628571D02*
X125213866Y-89580952D01*
X125213866Y-89580952D02*
X124975771Y-89580952D01*
X124975771Y-89580952D02*
X124785295Y-89628571D01*
X124785295Y-89628571D02*
X124690057Y-89676190D01*
X124690057Y-89676190D02*
X124642438Y-89723809D01*
X124642438Y-89723809D02*
X124594819Y-89819047D01*
X124594819Y-90771428D02*
X124594819Y-90866666D01*
X124594819Y-90866666D02*
X124642438Y-90961904D01*
X124642438Y-90961904D02*
X124690057Y-91009523D01*
X124690057Y-91009523D02*
X124785295Y-91057142D01*
X124785295Y-91057142D02*
X124975771Y-91104761D01*
X124975771Y-91104761D02*
X125213866Y-91104761D01*
X125213866Y-91104761D02*
X125404342Y-91057142D01*
X125404342Y-91057142D02*
X125499580Y-91009523D01*
X125499580Y-91009523D02*
X125547200Y-90961904D01*
X125547200Y-90961904D02*
X125594819Y-90866666D01*
X125594819Y-90866666D02*
X125594819Y-90771428D01*
X125594819Y-90771428D02*
X125547200Y-90676190D01*
X125547200Y-90676190D02*
X125499580Y-90628571D01*
X125499580Y-90628571D02*
X125404342Y-90580952D01*
X125404342Y-90580952D02*
X125213866Y-90533333D01*
X125213866Y-90533333D02*
X124975771Y-90533333D01*
X124975771Y-90533333D02*
X124785295Y-90580952D01*
X124785295Y-90580952D02*
X124690057Y-90628571D01*
X124690057Y-90628571D02*
X124642438Y-90676190D01*
X124642438Y-90676190D02*
X124594819Y-90771428D01*
X125690057Y-91295238D02*
X125690057Y-92057142D01*
X125594819Y-92819047D02*
X125594819Y-92247619D01*
X125594819Y-92533333D02*
X124594819Y-92533333D01*
X124594819Y-92533333D02*
X124737676Y-92438095D01*
X124737676Y-92438095D02*
X124832914Y-92342857D01*
X124832914Y-92342857D02*
X124880533Y-92247619D01*
X135494819Y-88598571D02*
X134494819Y-88598571D01*
X134494819Y-88598571D02*
X134494819Y-88836666D01*
X134494819Y-88836666D02*
X134542438Y-88979523D01*
X134542438Y-88979523D02*
X134637676Y-89074761D01*
X134637676Y-89074761D02*
X134732914Y-89122380D01*
X134732914Y-89122380D02*
X134923390Y-89169999D01*
X134923390Y-89169999D02*
X135066247Y-89169999D01*
X135066247Y-89169999D02*
X135256723Y-89122380D01*
X135256723Y-89122380D02*
X135351961Y-89074761D01*
X135351961Y-89074761D02*
X135447200Y-88979523D01*
X135447200Y-88979523D02*
X135494819Y-88836666D01*
X135494819Y-88836666D02*
X135494819Y-88598571D01*
X134494819Y-89789047D02*
X134494819Y-89884285D01*
X134494819Y-89884285D02*
X134542438Y-89979523D01*
X134542438Y-89979523D02*
X134590057Y-90027142D01*
X134590057Y-90027142D02*
X134685295Y-90074761D01*
X134685295Y-90074761D02*
X134875771Y-90122380D01*
X134875771Y-90122380D02*
X135113866Y-90122380D01*
X135113866Y-90122380D02*
X135304342Y-90074761D01*
X135304342Y-90074761D02*
X135399580Y-90027142D01*
X135399580Y-90027142D02*
X135447200Y-89979523D01*
X135447200Y-89979523D02*
X135494819Y-89884285D01*
X135494819Y-89884285D02*
X135494819Y-89789047D01*
X135494819Y-89789047D02*
X135447200Y-89693809D01*
X135447200Y-89693809D02*
X135399580Y-89646190D01*
X135399580Y-89646190D02*
X135304342Y-89598571D01*
X135304342Y-89598571D02*
X135113866Y-89550952D01*
X135113866Y-89550952D02*
X134875771Y-89550952D01*
X134875771Y-89550952D02*
X134685295Y-89598571D01*
X134685295Y-89598571D02*
X134590057Y-89646190D01*
X134590057Y-89646190D02*
X134542438Y-89693809D01*
X134542438Y-89693809D02*
X134494819Y-89789047D01*
X135494819Y-91074761D02*
X135494819Y-90503333D01*
X135494819Y-90789047D02*
X134494819Y-90789047D01*
X134494819Y-90789047D02*
X134637676Y-90693809D01*
X134637676Y-90693809D02*
X134732914Y-90598571D01*
X134732914Y-90598571D02*
X134780533Y-90503333D01*
X135590057Y-91265238D02*
X135590057Y-92027142D01*
X134590057Y-92217619D02*
X134542438Y-92265238D01*
X134542438Y-92265238D02*
X134494819Y-92360476D01*
X134494819Y-92360476D02*
X134494819Y-92598571D01*
X134494819Y-92598571D02*
X134542438Y-92693809D01*
X134542438Y-92693809D02*
X134590057Y-92741428D01*
X134590057Y-92741428D02*
X134685295Y-92789047D01*
X134685295Y-92789047D02*
X134780533Y-92789047D01*
X134780533Y-92789047D02*
X134923390Y-92741428D01*
X134923390Y-92741428D02*
X135494819Y-92170000D01*
X135494819Y-92170000D02*
X135494819Y-92789047D01*
X152474819Y-88538571D02*
X151474819Y-88538571D01*
X151474819Y-88538571D02*
X151474819Y-88776666D01*
X151474819Y-88776666D02*
X151522438Y-88919523D01*
X151522438Y-88919523D02*
X151617676Y-89014761D01*
X151617676Y-89014761D02*
X151712914Y-89062380D01*
X151712914Y-89062380D02*
X151903390Y-89109999D01*
X151903390Y-89109999D02*
X152046247Y-89109999D01*
X152046247Y-89109999D02*
X152236723Y-89062380D01*
X152236723Y-89062380D02*
X152331961Y-89014761D01*
X152331961Y-89014761D02*
X152427200Y-88919523D01*
X152427200Y-88919523D02*
X152474819Y-88776666D01*
X152474819Y-88776666D02*
X152474819Y-88538571D01*
X151474819Y-89729047D02*
X151474819Y-89824285D01*
X151474819Y-89824285D02*
X151522438Y-89919523D01*
X151522438Y-89919523D02*
X151570057Y-89967142D01*
X151570057Y-89967142D02*
X151665295Y-90014761D01*
X151665295Y-90014761D02*
X151855771Y-90062380D01*
X151855771Y-90062380D02*
X152093866Y-90062380D01*
X152093866Y-90062380D02*
X152284342Y-90014761D01*
X152284342Y-90014761D02*
X152379580Y-89967142D01*
X152379580Y-89967142D02*
X152427200Y-89919523D01*
X152427200Y-89919523D02*
X152474819Y-89824285D01*
X152474819Y-89824285D02*
X152474819Y-89729047D01*
X152474819Y-89729047D02*
X152427200Y-89633809D01*
X152427200Y-89633809D02*
X152379580Y-89586190D01*
X152379580Y-89586190D02*
X152284342Y-89538571D01*
X152284342Y-89538571D02*
X152093866Y-89490952D01*
X152093866Y-89490952D02*
X151855771Y-89490952D01*
X151855771Y-89490952D02*
X151665295Y-89538571D01*
X151665295Y-89538571D02*
X151570057Y-89586190D01*
X151570057Y-89586190D02*
X151522438Y-89633809D01*
X151522438Y-89633809D02*
X151474819Y-89729047D01*
X152474819Y-91014761D02*
X152474819Y-90443333D01*
X152474819Y-90729047D02*
X151474819Y-90729047D01*
X151474819Y-90729047D02*
X151617676Y-90633809D01*
X151617676Y-90633809D02*
X151712914Y-90538571D01*
X151712914Y-90538571D02*
X151760533Y-90443333D01*
X152570057Y-91205238D02*
X152570057Y-91967142D01*
X151474819Y-92110000D02*
X151474819Y-92729047D01*
X151474819Y-92729047D02*
X151855771Y-92395714D01*
X151855771Y-92395714D02*
X151855771Y-92538571D01*
X151855771Y-92538571D02*
X151903390Y-92633809D01*
X151903390Y-92633809D02*
X151951009Y-92681428D01*
X151951009Y-92681428D02*
X152046247Y-92729047D01*
X152046247Y-92729047D02*
X152284342Y-92729047D01*
X152284342Y-92729047D02*
X152379580Y-92681428D01*
X152379580Y-92681428D02*
X152427200Y-92633809D01*
X152427200Y-92633809D02*
X152474819Y-92538571D01*
X152474819Y-92538571D02*
X152474819Y-92252857D01*
X152474819Y-92252857D02*
X152427200Y-92157619D01*
X152427200Y-92157619D02*
X152379580Y-92110000D01*
X156384819Y-88588571D02*
X155384819Y-88588571D01*
X155384819Y-88588571D02*
X155384819Y-88826666D01*
X155384819Y-88826666D02*
X155432438Y-88969523D01*
X155432438Y-88969523D02*
X155527676Y-89064761D01*
X155527676Y-89064761D02*
X155622914Y-89112380D01*
X155622914Y-89112380D02*
X155813390Y-89159999D01*
X155813390Y-89159999D02*
X155956247Y-89159999D01*
X155956247Y-89159999D02*
X156146723Y-89112380D01*
X156146723Y-89112380D02*
X156241961Y-89064761D01*
X156241961Y-89064761D02*
X156337200Y-88969523D01*
X156337200Y-88969523D02*
X156384819Y-88826666D01*
X156384819Y-88826666D02*
X156384819Y-88588571D01*
X155384819Y-89779047D02*
X155384819Y-89874285D01*
X155384819Y-89874285D02*
X155432438Y-89969523D01*
X155432438Y-89969523D02*
X155480057Y-90017142D01*
X155480057Y-90017142D02*
X155575295Y-90064761D01*
X155575295Y-90064761D02*
X155765771Y-90112380D01*
X155765771Y-90112380D02*
X156003866Y-90112380D01*
X156003866Y-90112380D02*
X156194342Y-90064761D01*
X156194342Y-90064761D02*
X156289580Y-90017142D01*
X156289580Y-90017142D02*
X156337200Y-89969523D01*
X156337200Y-89969523D02*
X156384819Y-89874285D01*
X156384819Y-89874285D02*
X156384819Y-89779047D01*
X156384819Y-89779047D02*
X156337200Y-89683809D01*
X156337200Y-89683809D02*
X156289580Y-89636190D01*
X156289580Y-89636190D02*
X156194342Y-89588571D01*
X156194342Y-89588571D02*
X156003866Y-89540952D01*
X156003866Y-89540952D02*
X155765771Y-89540952D01*
X155765771Y-89540952D02*
X155575295Y-89588571D01*
X155575295Y-89588571D02*
X155480057Y-89636190D01*
X155480057Y-89636190D02*
X155432438Y-89683809D01*
X155432438Y-89683809D02*
X155384819Y-89779047D01*
X155384819Y-90731428D02*
X155384819Y-90826666D01*
X155384819Y-90826666D02*
X155432438Y-90921904D01*
X155432438Y-90921904D02*
X155480057Y-90969523D01*
X155480057Y-90969523D02*
X155575295Y-91017142D01*
X155575295Y-91017142D02*
X155765771Y-91064761D01*
X155765771Y-91064761D02*
X156003866Y-91064761D01*
X156003866Y-91064761D02*
X156194342Y-91017142D01*
X156194342Y-91017142D02*
X156289580Y-90969523D01*
X156289580Y-90969523D02*
X156337200Y-90921904D01*
X156337200Y-90921904D02*
X156384819Y-90826666D01*
X156384819Y-90826666D02*
X156384819Y-90731428D01*
X156384819Y-90731428D02*
X156337200Y-90636190D01*
X156337200Y-90636190D02*
X156289580Y-90588571D01*
X156289580Y-90588571D02*
X156194342Y-90540952D01*
X156194342Y-90540952D02*
X156003866Y-90493333D01*
X156003866Y-90493333D02*
X155765771Y-90493333D01*
X155765771Y-90493333D02*
X155575295Y-90540952D01*
X155575295Y-90540952D02*
X155480057Y-90588571D01*
X155480057Y-90588571D02*
X155432438Y-90636190D01*
X155432438Y-90636190D02*
X155384819Y-90731428D01*
X156480057Y-91255238D02*
X156480057Y-92017142D01*
X155384819Y-92160000D02*
X155384819Y-92779047D01*
X155384819Y-92779047D02*
X155765771Y-92445714D01*
X155765771Y-92445714D02*
X155765771Y-92588571D01*
X155765771Y-92588571D02*
X155813390Y-92683809D01*
X155813390Y-92683809D02*
X155861009Y-92731428D01*
X155861009Y-92731428D02*
X155956247Y-92779047D01*
X155956247Y-92779047D02*
X156194342Y-92779047D01*
X156194342Y-92779047D02*
X156289580Y-92731428D01*
X156289580Y-92731428D02*
X156337200Y-92683809D01*
X156337200Y-92683809D02*
X156384819Y-92588571D01*
X156384819Y-92588571D02*
X156384819Y-92302857D01*
X156384819Y-92302857D02*
X156337200Y-92207619D01*
X156337200Y-92207619D02*
X156289580Y-92160000D01*
X139534819Y-88518571D02*
X138534819Y-88518571D01*
X138534819Y-88518571D02*
X138534819Y-88756666D01*
X138534819Y-88756666D02*
X138582438Y-88899523D01*
X138582438Y-88899523D02*
X138677676Y-88994761D01*
X138677676Y-88994761D02*
X138772914Y-89042380D01*
X138772914Y-89042380D02*
X138963390Y-89089999D01*
X138963390Y-89089999D02*
X139106247Y-89089999D01*
X139106247Y-89089999D02*
X139296723Y-89042380D01*
X139296723Y-89042380D02*
X139391961Y-88994761D01*
X139391961Y-88994761D02*
X139487200Y-88899523D01*
X139487200Y-88899523D02*
X139534819Y-88756666D01*
X139534819Y-88756666D02*
X139534819Y-88518571D01*
X138534819Y-89709047D02*
X138534819Y-89804285D01*
X138534819Y-89804285D02*
X138582438Y-89899523D01*
X138582438Y-89899523D02*
X138630057Y-89947142D01*
X138630057Y-89947142D02*
X138725295Y-89994761D01*
X138725295Y-89994761D02*
X138915771Y-90042380D01*
X138915771Y-90042380D02*
X139153866Y-90042380D01*
X139153866Y-90042380D02*
X139344342Y-89994761D01*
X139344342Y-89994761D02*
X139439580Y-89947142D01*
X139439580Y-89947142D02*
X139487200Y-89899523D01*
X139487200Y-89899523D02*
X139534819Y-89804285D01*
X139534819Y-89804285D02*
X139534819Y-89709047D01*
X139534819Y-89709047D02*
X139487200Y-89613809D01*
X139487200Y-89613809D02*
X139439580Y-89566190D01*
X139439580Y-89566190D02*
X139344342Y-89518571D01*
X139344342Y-89518571D02*
X139153866Y-89470952D01*
X139153866Y-89470952D02*
X138915771Y-89470952D01*
X138915771Y-89470952D02*
X138725295Y-89518571D01*
X138725295Y-89518571D02*
X138630057Y-89566190D01*
X138630057Y-89566190D02*
X138582438Y-89613809D01*
X138582438Y-89613809D02*
X138534819Y-89709047D01*
X138534819Y-90661428D02*
X138534819Y-90756666D01*
X138534819Y-90756666D02*
X138582438Y-90851904D01*
X138582438Y-90851904D02*
X138630057Y-90899523D01*
X138630057Y-90899523D02*
X138725295Y-90947142D01*
X138725295Y-90947142D02*
X138915771Y-90994761D01*
X138915771Y-90994761D02*
X139153866Y-90994761D01*
X139153866Y-90994761D02*
X139344342Y-90947142D01*
X139344342Y-90947142D02*
X139439580Y-90899523D01*
X139439580Y-90899523D02*
X139487200Y-90851904D01*
X139487200Y-90851904D02*
X139534819Y-90756666D01*
X139534819Y-90756666D02*
X139534819Y-90661428D01*
X139534819Y-90661428D02*
X139487200Y-90566190D01*
X139487200Y-90566190D02*
X139439580Y-90518571D01*
X139439580Y-90518571D02*
X139344342Y-90470952D01*
X139344342Y-90470952D02*
X139153866Y-90423333D01*
X139153866Y-90423333D02*
X138915771Y-90423333D01*
X138915771Y-90423333D02*
X138725295Y-90470952D01*
X138725295Y-90470952D02*
X138630057Y-90518571D01*
X138630057Y-90518571D02*
X138582438Y-90566190D01*
X138582438Y-90566190D02*
X138534819Y-90661428D01*
X139630057Y-91185238D02*
X139630057Y-91947142D01*
X138630057Y-92137619D02*
X138582438Y-92185238D01*
X138582438Y-92185238D02*
X138534819Y-92280476D01*
X138534819Y-92280476D02*
X138534819Y-92518571D01*
X138534819Y-92518571D02*
X138582438Y-92613809D01*
X138582438Y-92613809D02*
X138630057Y-92661428D01*
X138630057Y-92661428D02*
X138725295Y-92709047D01*
X138725295Y-92709047D02*
X138820533Y-92709047D01*
X138820533Y-92709047D02*
X138963390Y-92661428D01*
X138963390Y-92661428D02*
X139534819Y-92090000D01*
X139534819Y-92090000D02*
X139534819Y-92709047D01*
X131374819Y-88598571D02*
X130374819Y-88598571D01*
X130374819Y-88598571D02*
X130374819Y-88836666D01*
X130374819Y-88836666D02*
X130422438Y-88979523D01*
X130422438Y-88979523D02*
X130517676Y-89074761D01*
X130517676Y-89074761D02*
X130612914Y-89122380D01*
X130612914Y-89122380D02*
X130803390Y-89169999D01*
X130803390Y-89169999D02*
X130946247Y-89169999D01*
X130946247Y-89169999D02*
X131136723Y-89122380D01*
X131136723Y-89122380D02*
X131231961Y-89074761D01*
X131231961Y-89074761D02*
X131327200Y-88979523D01*
X131327200Y-88979523D02*
X131374819Y-88836666D01*
X131374819Y-88836666D02*
X131374819Y-88598571D01*
X130374819Y-89789047D02*
X130374819Y-89884285D01*
X130374819Y-89884285D02*
X130422438Y-89979523D01*
X130422438Y-89979523D02*
X130470057Y-90027142D01*
X130470057Y-90027142D02*
X130565295Y-90074761D01*
X130565295Y-90074761D02*
X130755771Y-90122380D01*
X130755771Y-90122380D02*
X130993866Y-90122380D01*
X130993866Y-90122380D02*
X131184342Y-90074761D01*
X131184342Y-90074761D02*
X131279580Y-90027142D01*
X131279580Y-90027142D02*
X131327200Y-89979523D01*
X131327200Y-89979523D02*
X131374819Y-89884285D01*
X131374819Y-89884285D02*
X131374819Y-89789047D01*
X131374819Y-89789047D02*
X131327200Y-89693809D01*
X131327200Y-89693809D02*
X131279580Y-89646190D01*
X131279580Y-89646190D02*
X131184342Y-89598571D01*
X131184342Y-89598571D02*
X130993866Y-89550952D01*
X130993866Y-89550952D02*
X130755771Y-89550952D01*
X130755771Y-89550952D02*
X130565295Y-89598571D01*
X130565295Y-89598571D02*
X130470057Y-89646190D01*
X130470057Y-89646190D02*
X130422438Y-89693809D01*
X130422438Y-89693809D02*
X130374819Y-89789047D01*
X130470057Y-90503333D02*
X130422438Y-90550952D01*
X130422438Y-90550952D02*
X130374819Y-90646190D01*
X130374819Y-90646190D02*
X130374819Y-90884285D01*
X130374819Y-90884285D02*
X130422438Y-90979523D01*
X130422438Y-90979523D02*
X130470057Y-91027142D01*
X130470057Y-91027142D02*
X130565295Y-91074761D01*
X130565295Y-91074761D02*
X130660533Y-91074761D01*
X130660533Y-91074761D02*
X130803390Y-91027142D01*
X130803390Y-91027142D02*
X131374819Y-90455714D01*
X131374819Y-90455714D02*
X131374819Y-91074761D01*
X131470057Y-91265238D02*
X131470057Y-92027142D01*
X130470057Y-92217619D02*
X130422438Y-92265238D01*
X130422438Y-92265238D02*
X130374819Y-92360476D01*
X130374819Y-92360476D02*
X130374819Y-92598571D01*
X130374819Y-92598571D02*
X130422438Y-92693809D01*
X130422438Y-92693809D02*
X130470057Y-92741428D01*
X130470057Y-92741428D02*
X130565295Y-92789047D01*
X130565295Y-92789047D02*
X130660533Y-92789047D01*
X130660533Y-92789047D02*
X130803390Y-92741428D01*
X130803390Y-92741428D02*
X131374819Y-92170000D01*
X131374819Y-92170000D02*
X131374819Y-92789047D01*
X114096666Y-109189580D02*
X114144285Y-109237200D01*
X114144285Y-109237200D02*
X114287142Y-109284819D01*
X114287142Y-109284819D02*
X114382380Y-109284819D01*
X114382380Y-109284819D02*
X114525237Y-109237200D01*
X114525237Y-109237200D02*
X114620475Y-109141961D01*
X114620475Y-109141961D02*
X114668094Y-109046723D01*
X114668094Y-109046723D02*
X114715713Y-108856247D01*
X114715713Y-108856247D02*
X114715713Y-108713390D01*
X114715713Y-108713390D02*
X114668094Y-108522914D01*
X114668094Y-108522914D02*
X114620475Y-108427676D01*
X114620475Y-108427676D02*
X114525237Y-108332438D01*
X114525237Y-108332438D02*
X114382380Y-108284819D01*
X114382380Y-108284819D02*
X114287142Y-108284819D01*
X114287142Y-108284819D02*
X114144285Y-108332438D01*
X114144285Y-108332438D02*
X114096666Y-108380057D01*
X113144285Y-109284819D02*
X113715713Y-109284819D01*
X113429999Y-109284819D02*
X113429999Y-108284819D01*
X113429999Y-108284819D02*
X113525237Y-108427676D01*
X113525237Y-108427676D02*
X113620475Y-108522914D01*
X113620475Y-108522914D02*
X113715713Y-108570533D01*
X114096666Y-111649580D02*
X114144285Y-111697200D01*
X114144285Y-111697200D02*
X114287142Y-111744819D01*
X114287142Y-111744819D02*
X114382380Y-111744819D01*
X114382380Y-111744819D02*
X114525237Y-111697200D01*
X114525237Y-111697200D02*
X114620475Y-111601961D01*
X114620475Y-111601961D02*
X114668094Y-111506723D01*
X114668094Y-111506723D02*
X114715713Y-111316247D01*
X114715713Y-111316247D02*
X114715713Y-111173390D01*
X114715713Y-111173390D02*
X114668094Y-110982914D01*
X114668094Y-110982914D02*
X114620475Y-110887676D01*
X114620475Y-110887676D02*
X114525237Y-110792438D01*
X114525237Y-110792438D02*
X114382380Y-110744819D01*
X114382380Y-110744819D02*
X114287142Y-110744819D01*
X114287142Y-110744819D02*
X114144285Y-110792438D01*
X114144285Y-110792438D02*
X114096666Y-110840057D01*
X113715713Y-110840057D02*
X113668094Y-110792438D01*
X113668094Y-110792438D02*
X113572856Y-110744819D01*
X113572856Y-110744819D02*
X113334761Y-110744819D01*
X113334761Y-110744819D02*
X113239523Y-110792438D01*
X113239523Y-110792438D02*
X113191904Y-110840057D01*
X113191904Y-110840057D02*
X113144285Y-110935295D01*
X113144285Y-110935295D02*
X113144285Y-111030533D01*
X113144285Y-111030533D02*
X113191904Y-111173390D01*
X113191904Y-111173390D02*
X113763332Y-111744819D01*
X113763332Y-111744819D02*
X113144285Y-111744819D01*
X114086666Y-114129580D02*
X114134285Y-114177200D01*
X114134285Y-114177200D02*
X114277142Y-114224819D01*
X114277142Y-114224819D02*
X114372380Y-114224819D01*
X114372380Y-114224819D02*
X114515237Y-114177200D01*
X114515237Y-114177200D02*
X114610475Y-114081961D01*
X114610475Y-114081961D02*
X114658094Y-113986723D01*
X114658094Y-113986723D02*
X114705713Y-113796247D01*
X114705713Y-113796247D02*
X114705713Y-113653390D01*
X114705713Y-113653390D02*
X114658094Y-113462914D01*
X114658094Y-113462914D02*
X114610475Y-113367676D01*
X114610475Y-113367676D02*
X114515237Y-113272438D01*
X114515237Y-113272438D02*
X114372380Y-113224819D01*
X114372380Y-113224819D02*
X114277142Y-113224819D01*
X114277142Y-113224819D02*
X114134285Y-113272438D01*
X114134285Y-113272438D02*
X114086666Y-113320057D01*
X113753332Y-113224819D02*
X113134285Y-113224819D01*
X113134285Y-113224819D02*
X113467618Y-113605771D01*
X113467618Y-113605771D02*
X113324761Y-113605771D01*
X113324761Y-113605771D02*
X113229523Y-113653390D01*
X113229523Y-113653390D02*
X113181904Y-113701009D01*
X113181904Y-113701009D02*
X113134285Y-113796247D01*
X113134285Y-113796247D02*
X113134285Y-114034342D01*
X113134285Y-114034342D02*
X113181904Y-114129580D01*
X113181904Y-114129580D02*
X113229523Y-114177200D01*
X113229523Y-114177200D02*
X113324761Y-114224819D01*
X113324761Y-114224819D02*
X113610475Y-114224819D01*
X113610475Y-114224819D02*
X113705713Y-114177200D01*
X113705713Y-114177200D02*
X113753332Y-114129580D01*
X131679580Y-116443333D02*
X131727200Y-116395714D01*
X131727200Y-116395714D02*
X131774819Y-116252857D01*
X131774819Y-116252857D02*
X131774819Y-116157619D01*
X131774819Y-116157619D02*
X131727200Y-116014762D01*
X131727200Y-116014762D02*
X131631961Y-115919524D01*
X131631961Y-115919524D02*
X131536723Y-115871905D01*
X131536723Y-115871905D02*
X131346247Y-115824286D01*
X131346247Y-115824286D02*
X131203390Y-115824286D01*
X131203390Y-115824286D02*
X131012914Y-115871905D01*
X131012914Y-115871905D02*
X130917676Y-115919524D01*
X130917676Y-115919524D02*
X130822438Y-116014762D01*
X130822438Y-116014762D02*
X130774819Y-116157619D01*
X130774819Y-116157619D02*
X130774819Y-116252857D01*
X130774819Y-116252857D02*
X130822438Y-116395714D01*
X130822438Y-116395714D02*
X130870057Y-116443333D01*
X130774819Y-117348095D02*
X130774819Y-116871905D01*
X130774819Y-116871905D02*
X131251009Y-116824286D01*
X131251009Y-116824286D02*
X131203390Y-116871905D01*
X131203390Y-116871905D02*
X131155771Y-116967143D01*
X131155771Y-116967143D02*
X131155771Y-117205238D01*
X131155771Y-117205238D02*
X131203390Y-117300476D01*
X131203390Y-117300476D02*
X131251009Y-117348095D01*
X131251009Y-117348095D02*
X131346247Y-117395714D01*
X131346247Y-117395714D02*
X131584342Y-117395714D01*
X131584342Y-117395714D02*
X131679580Y-117348095D01*
X131679580Y-117348095D02*
X131727200Y-117300476D01*
X131727200Y-117300476D02*
X131774819Y-117205238D01*
X131774819Y-117205238D02*
X131774819Y-116967143D01*
X131774819Y-116967143D02*
X131727200Y-116871905D01*
X131727200Y-116871905D02*
X131679580Y-116824286D01*
X129279580Y-116438333D02*
X129327200Y-116390714D01*
X129327200Y-116390714D02*
X129374819Y-116247857D01*
X129374819Y-116247857D02*
X129374819Y-116152619D01*
X129374819Y-116152619D02*
X129327200Y-116009762D01*
X129327200Y-116009762D02*
X129231961Y-115914524D01*
X129231961Y-115914524D02*
X129136723Y-115866905D01*
X129136723Y-115866905D02*
X128946247Y-115819286D01*
X128946247Y-115819286D02*
X128803390Y-115819286D01*
X128803390Y-115819286D02*
X128612914Y-115866905D01*
X128612914Y-115866905D02*
X128517676Y-115914524D01*
X128517676Y-115914524D02*
X128422438Y-116009762D01*
X128422438Y-116009762D02*
X128374819Y-116152619D01*
X128374819Y-116152619D02*
X128374819Y-116247857D01*
X128374819Y-116247857D02*
X128422438Y-116390714D01*
X128422438Y-116390714D02*
X128470057Y-116438333D01*
X128374819Y-117295476D02*
X128374819Y-117105000D01*
X128374819Y-117105000D02*
X128422438Y-117009762D01*
X128422438Y-117009762D02*
X128470057Y-116962143D01*
X128470057Y-116962143D02*
X128612914Y-116866905D01*
X128612914Y-116866905D02*
X128803390Y-116819286D01*
X128803390Y-116819286D02*
X129184342Y-116819286D01*
X129184342Y-116819286D02*
X129279580Y-116866905D01*
X129279580Y-116866905D02*
X129327200Y-116914524D01*
X129327200Y-116914524D02*
X129374819Y-117009762D01*
X129374819Y-117009762D02*
X129374819Y-117200238D01*
X129374819Y-117200238D02*
X129327200Y-117295476D01*
X129327200Y-117295476D02*
X129279580Y-117343095D01*
X129279580Y-117343095D02*
X129184342Y-117390714D01*
X129184342Y-117390714D02*
X128946247Y-117390714D01*
X128946247Y-117390714D02*
X128851009Y-117343095D01*
X128851009Y-117343095D02*
X128803390Y-117295476D01*
X128803390Y-117295476D02*
X128755771Y-117200238D01*
X128755771Y-117200238D02*
X128755771Y-117009762D01*
X128755771Y-117009762D02*
X128803390Y-116914524D01*
X128803390Y-116914524D02*
X128851009Y-116866905D01*
X128851009Y-116866905D02*
X128946247Y-116819286D01*
X126849580Y-116438333D02*
X126897200Y-116390714D01*
X126897200Y-116390714D02*
X126944819Y-116247857D01*
X126944819Y-116247857D02*
X126944819Y-116152619D01*
X126944819Y-116152619D02*
X126897200Y-116009762D01*
X126897200Y-116009762D02*
X126801961Y-115914524D01*
X126801961Y-115914524D02*
X126706723Y-115866905D01*
X126706723Y-115866905D02*
X126516247Y-115819286D01*
X126516247Y-115819286D02*
X126373390Y-115819286D01*
X126373390Y-115819286D02*
X126182914Y-115866905D01*
X126182914Y-115866905D02*
X126087676Y-115914524D01*
X126087676Y-115914524D02*
X125992438Y-116009762D01*
X125992438Y-116009762D02*
X125944819Y-116152619D01*
X125944819Y-116152619D02*
X125944819Y-116247857D01*
X125944819Y-116247857D02*
X125992438Y-116390714D01*
X125992438Y-116390714D02*
X126040057Y-116438333D01*
X125944819Y-116771667D02*
X125944819Y-117438333D01*
X125944819Y-117438333D02*
X126944819Y-117009762D01*
X124419580Y-116468333D02*
X124467200Y-116420714D01*
X124467200Y-116420714D02*
X124514819Y-116277857D01*
X124514819Y-116277857D02*
X124514819Y-116182619D01*
X124514819Y-116182619D02*
X124467200Y-116039762D01*
X124467200Y-116039762D02*
X124371961Y-115944524D01*
X124371961Y-115944524D02*
X124276723Y-115896905D01*
X124276723Y-115896905D02*
X124086247Y-115849286D01*
X124086247Y-115849286D02*
X123943390Y-115849286D01*
X123943390Y-115849286D02*
X123752914Y-115896905D01*
X123752914Y-115896905D02*
X123657676Y-115944524D01*
X123657676Y-115944524D02*
X123562438Y-116039762D01*
X123562438Y-116039762D02*
X123514819Y-116182619D01*
X123514819Y-116182619D02*
X123514819Y-116277857D01*
X123514819Y-116277857D02*
X123562438Y-116420714D01*
X123562438Y-116420714D02*
X123610057Y-116468333D01*
X123943390Y-117039762D02*
X123895771Y-116944524D01*
X123895771Y-116944524D02*
X123848152Y-116896905D01*
X123848152Y-116896905D02*
X123752914Y-116849286D01*
X123752914Y-116849286D02*
X123705295Y-116849286D01*
X123705295Y-116849286D02*
X123610057Y-116896905D01*
X123610057Y-116896905D02*
X123562438Y-116944524D01*
X123562438Y-116944524D02*
X123514819Y-117039762D01*
X123514819Y-117039762D02*
X123514819Y-117230238D01*
X123514819Y-117230238D02*
X123562438Y-117325476D01*
X123562438Y-117325476D02*
X123610057Y-117373095D01*
X123610057Y-117373095D02*
X123705295Y-117420714D01*
X123705295Y-117420714D02*
X123752914Y-117420714D01*
X123752914Y-117420714D02*
X123848152Y-117373095D01*
X123848152Y-117373095D02*
X123895771Y-117325476D01*
X123895771Y-117325476D02*
X123943390Y-117230238D01*
X123943390Y-117230238D02*
X123943390Y-117039762D01*
X123943390Y-117039762D02*
X123991009Y-116944524D01*
X123991009Y-116944524D02*
X124038628Y-116896905D01*
X124038628Y-116896905D02*
X124133866Y-116849286D01*
X124133866Y-116849286D02*
X124324342Y-116849286D01*
X124324342Y-116849286D02*
X124419580Y-116896905D01*
X124419580Y-116896905D02*
X124467200Y-116944524D01*
X124467200Y-116944524D02*
X124514819Y-117039762D01*
X124514819Y-117039762D02*
X124514819Y-117230238D01*
X124514819Y-117230238D02*
X124467200Y-117325476D01*
X124467200Y-117325476D02*
X124419580Y-117373095D01*
X124419580Y-117373095D02*
X124324342Y-117420714D01*
X124324342Y-117420714D02*
X124133866Y-117420714D01*
X124133866Y-117420714D02*
X124038628Y-117373095D01*
X124038628Y-117373095D02*
X123991009Y-117325476D01*
X123991009Y-117325476D02*
X123943390Y-117230238D01*
X139873333Y-108974819D02*
X139873333Y-109689104D01*
X139873333Y-109689104D02*
X139920952Y-109831961D01*
X139920952Y-109831961D02*
X140016190Y-109927200D01*
X140016190Y-109927200D02*
X140159047Y-109974819D01*
X140159047Y-109974819D02*
X140254285Y-109974819D01*
X138873333Y-109974819D02*
X139444761Y-109974819D01*
X139159047Y-109974819D02*
X139159047Y-108974819D01*
X139159047Y-108974819D02*
X139254285Y-109117676D01*
X139254285Y-109117676D02*
X139349523Y-109212914D01*
X139349523Y-109212914D02*
X139444761Y-109260533D01*
X149716666Y-107574819D02*
X150049999Y-107098628D01*
X150288094Y-107574819D02*
X150288094Y-106574819D01*
X150288094Y-106574819D02*
X149907142Y-106574819D01*
X149907142Y-106574819D02*
X149811904Y-106622438D01*
X149811904Y-106622438D02*
X149764285Y-106670057D01*
X149764285Y-106670057D02*
X149716666Y-106765295D01*
X149716666Y-106765295D02*
X149716666Y-106908152D01*
X149716666Y-106908152D02*
X149764285Y-107003390D01*
X149764285Y-107003390D02*
X149811904Y-107051009D01*
X149811904Y-107051009D02*
X149907142Y-107098628D01*
X149907142Y-107098628D02*
X150288094Y-107098628D01*
X149335713Y-106670057D02*
X149288094Y-106622438D01*
X149288094Y-106622438D02*
X149192856Y-106574819D01*
X149192856Y-106574819D02*
X148954761Y-106574819D01*
X148954761Y-106574819D02*
X148859523Y-106622438D01*
X148859523Y-106622438D02*
X148811904Y-106670057D01*
X148811904Y-106670057D02*
X148764285Y-106765295D01*
X148764285Y-106765295D02*
X148764285Y-106860533D01*
X148764285Y-106860533D02*
X148811904Y-107003390D01*
X148811904Y-107003390D02*
X149383332Y-107574819D01*
X149383332Y-107574819D02*
X148764285Y-107574819D01*
X149706666Y-109974819D02*
X150039999Y-109498628D01*
X150278094Y-109974819D02*
X150278094Y-108974819D01*
X150278094Y-108974819D02*
X149897142Y-108974819D01*
X149897142Y-108974819D02*
X149801904Y-109022438D01*
X149801904Y-109022438D02*
X149754285Y-109070057D01*
X149754285Y-109070057D02*
X149706666Y-109165295D01*
X149706666Y-109165295D02*
X149706666Y-109308152D01*
X149706666Y-109308152D02*
X149754285Y-109403390D01*
X149754285Y-109403390D02*
X149801904Y-109451009D01*
X149801904Y-109451009D02*
X149897142Y-109498628D01*
X149897142Y-109498628D02*
X150278094Y-109498628D01*
X149373332Y-108974819D02*
X148754285Y-108974819D01*
X148754285Y-108974819D02*
X149087618Y-109355771D01*
X149087618Y-109355771D02*
X148944761Y-109355771D01*
X148944761Y-109355771D02*
X148849523Y-109403390D01*
X148849523Y-109403390D02*
X148801904Y-109451009D01*
X148801904Y-109451009D02*
X148754285Y-109546247D01*
X148754285Y-109546247D02*
X148754285Y-109784342D01*
X148754285Y-109784342D02*
X148801904Y-109879580D01*
X148801904Y-109879580D02*
X148849523Y-109927200D01*
X148849523Y-109927200D02*
X148944761Y-109974819D01*
X148944761Y-109974819D02*
X149230475Y-109974819D01*
X149230475Y-109974819D02*
X149325713Y-109927200D01*
X149325713Y-109927200D02*
X149373332Y-109879580D01*
X149724166Y-105164819D02*
X150057499Y-104688628D01*
X150295594Y-105164819D02*
X150295594Y-104164819D01*
X150295594Y-104164819D02*
X149914642Y-104164819D01*
X149914642Y-104164819D02*
X149819404Y-104212438D01*
X149819404Y-104212438D02*
X149771785Y-104260057D01*
X149771785Y-104260057D02*
X149724166Y-104355295D01*
X149724166Y-104355295D02*
X149724166Y-104498152D01*
X149724166Y-104498152D02*
X149771785Y-104593390D01*
X149771785Y-104593390D02*
X149819404Y-104641009D01*
X149819404Y-104641009D02*
X149914642Y-104688628D01*
X149914642Y-104688628D02*
X150295594Y-104688628D01*
X148867023Y-104498152D02*
X148867023Y-105164819D01*
X149105118Y-104117200D02*
X149343213Y-104831485D01*
X149343213Y-104831485D02*
X148724166Y-104831485D01*
X149696666Y-112444819D02*
X150029999Y-111968628D01*
X150268094Y-112444819D02*
X150268094Y-111444819D01*
X150268094Y-111444819D02*
X149887142Y-111444819D01*
X149887142Y-111444819D02*
X149791904Y-111492438D01*
X149791904Y-111492438D02*
X149744285Y-111540057D01*
X149744285Y-111540057D02*
X149696666Y-111635295D01*
X149696666Y-111635295D02*
X149696666Y-111778152D01*
X149696666Y-111778152D02*
X149744285Y-111873390D01*
X149744285Y-111873390D02*
X149791904Y-111921009D01*
X149791904Y-111921009D02*
X149887142Y-111968628D01*
X149887142Y-111968628D02*
X150268094Y-111968628D01*
X148791904Y-111444819D02*
X149268094Y-111444819D01*
X149268094Y-111444819D02*
X149315713Y-111921009D01*
X149315713Y-111921009D02*
X149268094Y-111873390D01*
X149268094Y-111873390D02*
X149172856Y-111825771D01*
X149172856Y-111825771D02*
X148934761Y-111825771D01*
X148934761Y-111825771D02*
X148839523Y-111873390D01*
X148839523Y-111873390D02*
X148791904Y-111921009D01*
X148791904Y-111921009D02*
X148744285Y-112016247D01*
X148744285Y-112016247D02*
X148744285Y-112254342D01*
X148744285Y-112254342D02*
X148791904Y-112349580D01*
X148791904Y-112349580D02*
X148839523Y-112397200D01*
X148839523Y-112397200D02*
X148934761Y-112444819D01*
X148934761Y-112444819D02*
X149172856Y-112444819D01*
X149172856Y-112444819D02*
X149268094Y-112397200D01*
X149268094Y-112397200D02*
X149315713Y-112349580D01*
X161864643Y-114034819D02*
X162197976Y-113558628D01*
X162436071Y-114034819D02*
X162436071Y-113034819D01*
X162436071Y-113034819D02*
X162055119Y-113034819D01*
X162055119Y-113034819D02*
X161959881Y-113082438D01*
X161959881Y-113082438D02*
X161912262Y-113130057D01*
X161912262Y-113130057D02*
X161864643Y-113225295D01*
X161864643Y-113225295D02*
X161864643Y-113368152D01*
X161864643Y-113368152D02*
X161912262Y-113463390D01*
X161912262Y-113463390D02*
X161959881Y-113511009D01*
X161959881Y-113511009D02*
X162055119Y-113558628D01*
X162055119Y-113558628D02*
X162436071Y-113558628D01*
X161436071Y-113511009D02*
X161102738Y-113511009D01*
X160959881Y-114034819D02*
X161436071Y-114034819D01*
X161436071Y-114034819D02*
X161436071Y-113034819D01*
X161436071Y-113034819D02*
X160959881Y-113034819D01*
X160578928Y-113987200D02*
X160436071Y-114034819D01*
X160436071Y-114034819D02*
X160197976Y-114034819D01*
X160197976Y-114034819D02*
X160102738Y-113987200D01*
X160102738Y-113987200D02*
X160055119Y-113939580D01*
X160055119Y-113939580D02*
X160007500Y-113844342D01*
X160007500Y-113844342D02*
X160007500Y-113749104D01*
X160007500Y-113749104D02*
X160055119Y-113653866D01*
X160055119Y-113653866D02*
X160102738Y-113606247D01*
X160102738Y-113606247D02*
X160197976Y-113558628D01*
X160197976Y-113558628D02*
X160388452Y-113511009D01*
X160388452Y-113511009D02*
X160483690Y-113463390D01*
X160483690Y-113463390D02*
X160531309Y-113415771D01*
X160531309Y-113415771D02*
X160578928Y-113320533D01*
X160578928Y-113320533D02*
X160578928Y-113225295D01*
X160578928Y-113225295D02*
X160531309Y-113130057D01*
X160531309Y-113130057D02*
X160483690Y-113082438D01*
X160483690Y-113082438D02*
X160388452Y-113034819D01*
X160388452Y-113034819D02*
X160150357Y-113034819D01*
X160150357Y-113034819D02*
X160007500Y-113082438D01*
X159578928Y-113511009D02*
X159245595Y-113511009D01*
X159102738Y-114034819D02*
X159578928Y-114034819D01*
X159578928Y-114034819D02*
X159578928Y-113034819D01*
X159578928Y-113034819D02*
X159102738Y-113034819D01*
X158817023Y-113034819D02*
X158245595Y-113034819D01*
X158531309Y-114034819D02*
X158531309Y-113034819D01*
X158150357Y-114130057D02*
X157388452Y-114130057D01*
X157197975Y-113987200D02*
X157055118Y-114034819D01*
X157055118Y-114034819D02*
X156817023Y-114034819D01*
X156817023Y-114034819D02*
X156721785Y-113987200D01*
X156721785Y-113987200D02*
X156674166Y-113939580D01*
X156674166Y-113939580D02*
X156626547Y-113844342D01*
X156626547Y-113844342D02*
X156626547Y-113749104D01*
X156626547Y-113749104D02*
X156674166Y-113653866D01*
X156674166Y-113653866D02*
X156721785Y-113606247D01*
X156721785Y-113606247D02*
X156817023Y-113558628D01*
X156817023Y-113558628D02*
X157007499Y-113511009D01*
X157007499Y-113511009D02*
X157102737Y-113463390D01*
X157102737Y-113463390D02*
X157150356Y-113415771D01*
X157150356Y-113415771D02*
X157197975Y-113320533D01*
X157197975Y-113320533D02*
X157197975Y-113225295D01*
X157197975Y-113225295D02*
X157150356Y-113130057D01*
X157150356Y-113130057D02*
X157102737Y-113082438D01*
X157102737Y-113082438D02*
X157007499Y-113034819D01*
X157007499Y-113034819D02*
X156769404Y-113034819D01*
X156769404Y-113034819D02*
X156626547Y-113082438D01*
X156293213Y-113034819D02*
X156055118Y-114034819D01*
X156055118Y-114034819D02*
X155864642Y-113320533D01*
X155864642Y-113320533D02*
X155674166Y-114034819D01*
X155674166Y-114034819D02*
X155436071Y-113034819D01*
X154531309Y-114034819D02*
X155102737Y-114034819D01*
X154817023Y-114034819D02*
X154817023Y-113034819D01*
X154817023Y-113034819D02*
X154912261Y-113177676D01*
X154912261Y-113177676D02*
X155007499Y-113272914D01*
X155007499Y-113272914D02*
X155102737Y-113320533D01*
X127821904Y-103884819D02*
X127821904Y-104694342D01*
X127821904Y-104694342D02*
X127774285Y-104789580D01*
X127774285Y-104789580D02*
X127726666Y-104837200D01*
X127726666Y-104837200D02*
X127631428Y-104884819D01*
X127631428Y-104884819D02*
X127440952Y-104884819D01*
X127440952Y-104884819D02*
X127345714Y-104837200D01*
X127345714Y-104837200D02*
X127298095Y-104789580D01*
X127298095Y-104789580D02*
X127250476Y-104694342D01*
X127250476Y-104694342D02*
X127250476Y-103884819D01*
X126250476Y-104884819D02*
X126821904Y-104884819D01*
X126536190Y-104884819D02*
X126536190Y-103884819D01*
X126536190Y-103884819D02*
X126631428Y-104027676D01*
X126631428Y-104027676D02*
X126726666Y-104122914D01*
X126726666Y-104122914D02*
X126821904Y-104170533D01*
D11*
X117086583Y-109439857D02*
X117630869Y-109439857D01*
X116487869Y-109058857D02*
X117086583Y-109439857D01*
X117086583Y-109439857D02*
X116487869Y-109820857D01*
X117630869Y-110800571D02*
X117630869Y-110147428D01*
X117630869Y-110473999D02*
X116487869Y-110473999D01*
X116487869Y-110473999D02*
X116651155Y-110365142D01*
X116651155Y-110365142D02*
X116760012Y-110256285D01*
X116760012Y-110256285D02*
X116814441Y-110147428D01*
D12*
%TO.C,DD1*%
X115548750Y-69045000D02*
X113588750Y-69045000D01*
X115548750Y-67845000D02*
X113588750Y-67845000D01*
X115548750Y-69045000D02*
X115548750Y-67845000D01*
%TO.C,JD2*%
X128155000Y-71425000D02*
X128155000Y-63605000D01*
X127235000Y-65205000D02*
X128155000Y-65205000D01*
X116035000Y-71425000D02*
X128155000Y-71425000D01*
X127395000Y-69165000D02*
X127395000Y-67565000D01*
X126395000Y-69165000D02*
X127395000Y-69165000D01*
X128155000Y-63605000D02*
X127235000Y-63605000D01*
X127235000Y-63605000D02*
X127235000Y-65205000D01*
X127235000Y-65205000D02*
X126955000Y-65205000D01*
X126955000Y-63990000D02*
X126955000Y-65205000D01*
X126895000Y-71425000D02*
X126895000Y-69165000D01*
X127395000Y-67565000D02*
X126395000Y-67565000D01*
X126395000Y-67565000D02*
X126395000Y-69165000D01*
X126395000Y-71425000D02*
X126395000Y-69165000D01*
X118595000Y-67065000D02*
X125595000Y-67065000D01*
X125595000Y-67065000D02*
X125595000Y-71425000D01*
X118595000Y-71425000D02*
X118595000Y-67065000D01*
X116795000Y-67565000D02*
X117795000Y-67565000D01*
X117795000Y-67565000D02*
X117795000Y-69165000D01*
X116955000Y-65205000D02*
X116955000Y-63605000D01*
X117235000Y-65205000D02*
X116955000Y-65205000D01*
X116795000Y-69165000D02*
X116795000Y-67565000D01*
X117795000Y-69165000D02*
X116795000Y-69165000D01*
X116955000Y-63605000D02*
X116035000Y-63605000D01*
X116955000Y-65205000D02*
X116035000Y-65205000D01*
X116035000Y-63605000D02*
X116035000Y-71425000D01*
%TO.C,R6*%
X113975814Y-69405000D02*
X112521686Y-69405000D01*
X113975814Y-71225000D02*
X112521686Y-71225000D01*
%TO.C,R7*%
X130635000Y-69452064D02*
X130635000Y-67997936D01*
X128815000Y-69452064D02*
X128815000Y-67997936D01*
%TO.C,RD1*%
X113548750Y-64547936D02*
X113548750Y-66002064D01*
X115368750Y-64547936D02*
X115368750Y-66002064D01*
%TO.C,CD4*%
X111218750Y-64573748D02*
X111218750Y-65996252D01*
X113038750Y-64573748D02*
X113038750Y-65996252D01*
%TO.C,FD1*%
X131135000Y-66397064D02*
X131135000Y-65192936D01*
X132955000Y-66397064D02*
X132955000Y-65192936D01*
%TO.C,JD1*%
X126815000Y-54045000D02*
X126815000Y-55945000D01*
X126815000Y-57845000D02*
X126815000Y-59845000D01*
X126815000Y-54045000D02*
X117415000Y-54045000D01*
X117415000Y-54045000D02*
X117415000Y-55945000D01*
X117415000Y-57845000D02*
X117415000Y-59845000D01*
D13*
%TO.C,UD1*%
X130619000Y-63885000D02*
G75*
G02*
X130419000Y-63885000I-100000J0D01*
G01*
X130419000Y-63885000D02*
G75*
G02*
X130619000Y-63885000I100000J0D01*
G01*
D11*
X128924000Y-63559000D02*
X130076000Y-63559000D01*
X130076000Y-66211000D02*
X128924000Y-66211000D01*
D12*
%TO.C,D02_1*%
X118380000Y-92290000D02*
X118380000Y-88390000D01*
X120380000Y-88390000D02*
X118380000Y-88390000D01*
X120380000Y-92290000D02*
X120380000Y-88390000D01*
%TO.C,D01_1*%
X124180000Y-92350000D02*
X124180000Y-88450000D01*
X124180000Y-88450000D02*
X122180000Y-88450000D01*
X122180000Y-92350000D02*
X122180000Y-88450000D01*
%TO.C,D02_3*%
X151210000Y-92300000D02*
X151210000Y-88400000D01*
X151210000Y-88400000D02*
X149210000Y-88400000D01*
X149210000Y-92300000D02*
X149210000Y-88400000D01*
%TO.C,D00_1*%
X128140000Y-92350000D02*
X128140000Y-88450000D01*
X128140000Y-88450000D02*
X126140000Y-88450000D01*
X126140000Y-92350000D02*
X126140000Y-88450000D01*
%TO.C,D01_2*%
X138040000Y-92320000D02*
X138040000Y-88420000D01*
X138040000Y-88420000D02*
X136040000Y-88420000D01*
X136040000Y-92320000D02*
X136040000Y-88420000D01*
%TO.C,D01_3*%
X155020000Y-92260000D02*
X155020000Y-88360000D01*
X155020000Y-88360000D02*
X153020000Y-88360000D01*
X153020000Y-92260000D02*
X153020000Y-88360000D01*
%TO.C,D00_3*%
X158930000Y-92310000D02*
X158930000Y-88410000D01*
X158930000Y-88410000D02*
X156930000Y-88410000D01*
X156930000Y-92310000D02*
X156930000Y-88410000D01*
%TO.C,D00_2*%
X142080000Y-92240000D02*
X142080000Y-88340000D01*
X142080000Y-88340000D02*
X140080000Y-88340000D01*
X140080000Y-92240000D02*
X140080000Y-88340000D01*
%TO.C,D02_2*%
X131920000Y-92320000D02*
X131920000Y-88420000D01*
X133920000Y-88420000D02*
X131920000Y-88420000D01*
X133920000Y-92320000D02*
X133920000Y-88420000D01*
%TO.C,C1*%
X113218748Y-107920000D02*
X114641252Y-107920000D01*
X113218748Y-109740000D02*
X114641252Y-109740000D01*
%TO.C,C2*%
X114641252Y-112200000D02*
X113218748Y-112200000D01*
X114641252Y-110380000D02*
X113218748Y-110380000D01*
%TO.C,C3*%
X114631252Y-114680000D02*
X113208748Y-114680000D01*
X114631252Y-112860000D02*
X113208748Y-112860000D01*
%TO.C,C5*%
X130410000Y-117321252D02*
X130410000Y-115898748D01*
X132230000Y-117321252D02*
X132230000Y-115898748D01*
%TO.C,C6*%
X128010000Y-117316252D02*
X128010000Y-115893748D01*
X129830000Y-117316252D02*
X129830000Y-115893748D01*
%TO.C,C7*%
X125580000Y-117316252D02*
X125580000Y-115893748D01*
X127400000Y-117316252D02*
X127400000Y-115893748D01*
%TO.C,C8*%
X123150000Y-117346252D02*
X123150000Y-115923748D01*
X124970000Y-117346252D02*
X124970000Y-115923748D01*
%TO.C,J1*%
X145600000Y-112990000D02*
X145600000Y-105170000D01*
X144680000Y-106770000D02*
X145600000Y-106770000D01*
X133480000Y-112990000D02*
X145600000Y-112990000D01*
X144840000Y-110730000D02*
X144840000Y-109130000D01*
X143840000Y-110730000D02*
X144840000Y-110730000D01*
X145600000Y-105170000D02*
X144680000Y-105170000D01*
X144680000Y-105170000D02*
X144680000Y-106770000D01*
X144680000Y-106770000D02*
X144400000Y-106770000D01*
X144400000Y-105555000D02*
X144400000Y-106770000D01*
X144340000Y-112990000D02*
X144340000Y-110730000D01*
X144840000Y-109130000D02*
X143840000Y-109130000D01*
X143840000Y-109130000D02*
X143840000Y-110730000D01*
X143840000Y-112990000D02*
X143840000Y-110730000D01*
X136040000Y-108630000D02*
X143040000Y-108630000D01*
X143040000Y-108630000D02*
X143040000Y-112990000D01*
X136040000Y-112990000D02*
X136040000Y-108630000D01*
X134240000Y-109130000D02*
X135240000Y-109130000D01*
X135240000Y-109130000D02*
X135240000Y-110730000D01*
X134400000Y-106770000D02*
X134400000Y-105170000D01*
X134680000Y-106770000D02*
X134400000Y-106770000D01*
X134240000Y-110730000D02*
X134240000Y-109130000D01*
X135240000Y-110730000D02*
X134240000Y-110730000D01*
X134400000Y-105170000D02*
X133480000Y-105170000D01*
X134400000Y-106770000D02*
X133480000Y-106770000D01*
X133480000Y-105170000D02*
X133480000Y-112990000D01*
%TO.C,R2*%
X148822936Y-106210000D02*
X150277064Y-106210000D01*
X148822936Y-108030000D02*
X150277064Y-108030000D01*
%TO.C,R3*%
X150267064Y-110430000D02*
X148812936Y-110430000D01*
X150267064Y-108610000D02*
X148812936Y-108610000D01*
%TO.C,R4*%
X148830436Y-103800000D02*
X150284564Y-103800000D01*
X148830436Y-105620000D02*
X150284564Y-105620000D01*
%TO.C,R5*%
X150257064Y-112900000D02*
X148802936Y-112900000D01*
X150257064Y-111080000D02*
X148802936Y-111080000D01*
D14*
%TO.C,RESET_SW1*%
X156317500Y-107430000D02*
X160817500Y-107430000D01*
X156317500Y-112530000D02*
X160817500Y-112530000D01*
D13*
X154417500Y-111855000D02*
G75*
G02*
X154217500Y-111855000I-100000J0D01*
G01*
X154217500Y-111855000D02*
G75*
G02*
X154417500Y-111855000I100000J0D01*
G01*
D14*
X156017500Y-108800000D02*
X156017500Y-111160000D01*
X161117500Y-111160000D02*
X161117500Y-108800000D01*
D12*
%TO.C,U1*%
X130460000Y-112830000D02*
X129975000Y-112830000D01*
X124205000Y-112830000D02*
X123480000Y-112830000D01*
X130700000Y-112530000D02*
X130700000Y-112105000D01*
X123480000Y-112830000D02*
X123480000Y-112105000D01*
X130700000Y-105610000D02*
X130700000Y-106335000D01*
X123480000Y-105610000D02*
X123480000Y-106335000D01*
X129975000Y-105610000D02*
X130700000Y-105610000D01*
X124205000Y-105610000D02*
X123480000Y-105610000D01*
X131030000Y-113070000D02*
X130700000Y-112830000D01*
X131030000Y-112590000D01*
X131030000Y-113070000D01*
G36*
X131030000Y-113070000D02*
G01*
X130700000Y-112830000D01*
X131030000Y-112590000D01*
X131030000Y-113070000D01*
G37*
D11*
%TO.C,Y1*%
X121371000Y-111989000D02*
X118041000Y-111989000D01*
X117815000Y-112246000D02*
X118323000Y-112246000D01*
X118041000Y-111989000D02*
X118069000Y-107928000D01*
X118069000Y-107928000D02*
X119720000Y-107928000D01*
X118069000Y-107928000D02*
X118069000Y-107928000D01*
X117815000Y-111738000D02*
X117815000Y-112246000D01*
X119720000Y-107928000D02*
X121371000Y-107928000D01*
X121371000Y-107928000D02*
X121371000Y-111989000D01*
%TD*%
M02*
