M48
; DRILL file {KiCad 8.0.2} date 2024-10-13T22:55:24+0900
; FORMAT={-:-/ absolute / inch / decimal}
; #@! TF.CreationDate,2024-10-13T22:55:24+09:00
; #@! TF.GenerationSoftware,Kicad,Pcbnew,8.0.2
; #@! TF.FileFunction,Plated,1,2,PTH
FMAT,2
INCH
; #@! TA.AperFunction,Plated,PTH,ViaDrill
T1C0.0118
; #@! TA.AperFunction,Plated,PTH,ComponentDrill
T2C0.0236
; #@! TA.AperFunction,Plated,PTH,ComponentDrill
T3C0.0295
%
G90
G05
T1
X4.3925Y-4.0654
X4.4957Y-3.5043
X4.4992Y-4.6713
X4.5331Y-2.6083
X4.5441Y-4.5543
X4.5728Y-4.1106
X4.5797Y-2.6319
X4.5797Y-2.7404
X4.5839Y-4.5768
X4.5843Y-4.2862
X4.6004Y-2.5744
X4.6315Y-4.2858
X4.6346Y-4.1106
X4.6772Y-4.5492
X4.6835Y-4.6256
X4.7085Y-4.3322
X4.7427Y-2.4919
X4.7732Y-4.4146
X4.7732Y-3.5665
X4.7827Y-4.287
X4.7876Y-2.3246
X4.8067Y-4.539
X4.8175Y-2.3648
X4.8201Y-4.1898
X4.8201Y-4.2213
X4.8201Y-4.3508
X4.8205Y-4.2528
X4.8299Y-4.3183
X4.8317Y-4.2869
X4.8636Y-2.3474
X4.935Y-4.5626
X4.9573Y-4.118
X4.9612Y-2.4734
X4.964Y-2.6315
X4.9913Y-4.1173
X5.0018Y-2.6359
X5.0055Y-3.5646
X5.0075Y-4.4904
X5.0154Y-3.3299
X5.0331Y-4.472
X5.0374Y-4.0701
X5.049Y-2.6785
X5.0496Y-3.6516
X5.053Y-2.7648
X5.0587Y-4.4904
X5.0642Y-4.0213
X5.1017Y-4.1356
X5.1553Y-2.6785
X5.1667Y-4.0573
X5.1705Y-4.0157
X5.1728Y-3.3557
X5.1913Y-4.3591
X5.1986Y-2.6898
X5.1998Y-2.5907
X5.2059Y-4.3988
X5.2154Y-3.7165
X5.2224Y-4.65
X5.2272Y-4.2186
X5.2626Y-4.4965
X5.2626Y-4.6098
X5.263Y-4.2169
X5.263Y-4.2679
X5.3015Y-3.4029
X5.3718Y-3.4029
X5.611Y-3.561
X5.6331Y-3.2421
X5.6748Y-4.2776
X5.6949Y-4.1461
X5.7299Y-4.2224
X5.7732Y-3.4029
X5.7925Y-4.3602
X5.8768Y-4.4335
X5.8768Y-4.528
X5.902Y-4.4925
X5.9026Y-4.4154
X5.9268Y-4.6354
X5.9327Y-4.0354
X5.9665Y-3.4031
X5.9689Y-3.3701
X5.9949Y-4.2976
X5.9961Y-3.5591
X6.0354Y-4.287
T3
X4.6494Y-2.5616
X4.7281Y-2.5616
X4.8069Y-2.5616
X4.8856Y-2.5616
X4.9644Y-2.5616
X5.3362Y-4.198
X5.415Y-4.198
X5.4937Y-4.198
X5.5724Y-4.198
X5.6512Y-4.198
T2
G00X4.6376Y-2.2281
M15
G01X4.6376Y-2.2518
M16
G05
G00X4.6376Y-2.3829
M15
G01X4.6376Y-2.4262
M16
G05
G00X4.9778Y-2.2281
M15
G01X4.9778Y-2.2518
M16
G05
G00X4.9778Y-2.3829
M15
G01X4.9778Y-2.4262
M16
G05
M30
