%TF.GenerationSoftware,KiCad,Pcbnew,8.0.2*%
%TF.CreationDate,2024-10-13T22:55:22+09:00*%
%TF.ProjectId,typing-check-board,74797069-6e67-42d6-9368-65636b2d626f,rev?*%
%TF.SameCoordinates,Original*%
%TF.FileFunction,Soldermask,Bot*%
%TF.FilePolarity,Negative*%
%FSLAX46Y46*%
G04 Gerber Fmt 4.6, Leading zero omitted, Abs format (unit mm)*
G04 Created by KiCad (PCBNEW 8.0.2) date 2024-10-13 22:55:22*
%MOMM*%
%LPD*%
G01*
G04 APERTURE LIST*
G04 Aperture macros list*
%AMRoundRect*
0 Rectangle with rounded corners*
0 $1 Rounding radius*
0 $2 $3 $4 $5 $6 $7 $8 $9 X,Y pos of 4 corners*
0 Add a 4 corners polygon primitive as box body*
4,1,4,$2,$3,$4,$5,$6,$7,$8,$9,$2,$3,0*
0 Add four circle primitives for the rounded corners*
1,1,$1+$1,$2,$3*
1,1,$1+$1,$4,$5*
1,1,$1+$1,$6,$7*
1,1,$1+$1,$8,$9*
0 Add four rect primitives between the rounded corners*
20,1,$1+$1,$2,$3,$4,$5,0*
20,1,$1+$1,$4,$5,$6,$7,0*
20,1,$1+$1,$6,$7,$8,$9,0*
20,1,$1+$1,$8,$9,$2,$3,0*%
G04 Aperture macros list end*
%ADD10C,0.600000*%
%ADD11RoundRect,0.150000X-0.150000X-0.200000X0.150000X-0.200000X0.150000X0.200000X-0.150000X0.200000X0*%
%ADD12RoundRect,0.250000X0.350000X0.625000X-0.350000X0.625000X-0.350000X-0.625000X0.350000X-0.625000X0*%
%ADD13O,1.200000X1.750000*%
%ADD14RoundRect,0.250000X-0.312500X-0.625000X0.312500X-0.625000X0.312500X0.625000X-0.312500X0.625000X0*%
%ADD15RoundRect,0.250000X-0.625000X0.312500X-0.625000X-0.312500X0.625000X-0.312500X0.625000X0.312500X0*%
%ADD16RoundRect,0.250000X0.625000X-0.312500X0.625000X0.312500X-0.625000X0.312500X-0.625000X-0.312500X0*%
%ADD17RoundRect,0.250000X0.650000X-0.325000X0.650000X0.325000X-0.650000X0.325000X-0.650000X-0.325000X0*%
%ADD18RoundRect,0.250000X-0.625000X0.375000X-0.625000X-0.375000X0.625000X-0.375000X0.625000X0.375000X0*%
%ADD19O,1.000000X1.600000*%
%ADD20O,1.000000X2.100000*%
%ADD21R,0.600000X1.450000*%
%ADD22R,0.300000X1.450000*%
%ADD23C,0.650000*%
%ADD24R,0.609000X0.250000*%
%ADD25R,0.609000X0.380000*%
%ADD26R,1.200000X0.900000*%
%ADD27C,1.750000*%
%ADD28C,3.000000*%
%ADD29C,3.987800*%
%ADD30R,2.550000X2.500000*%
%ADD31RoundRect,0.250000X0.325000X0.650000X-0.325000X0.650000X-0.325000X-0.650000X0.325000X-0.650000X0*%
%ADD32RoundRect,0.250000X-0.325000X-0.650000X0.325000X-0.650000X0.325000X0.650000X-0.325000X0.650000X0*%
%ADD33RoundRect,0.250000X-0.650000X0.325000X-0.650000X-0.325000X0.650000X-0.325000X0.650000X0.325000X0*%
%ADD34RoundRect,0.250000X0.312500X0.625000X-0.312500X0.625000X-0.312500X-0.625000X0.312500X-0.625000X0*%
%ADD35R,1.000000X0.750000*%
%ADD36RoundRect,0.062500X0.062500X-0.475000X0.062500X0.475000X-0.062500X0.475000X-0.062500X-0.475000X0*%
%ADD37RoundRect,0.062500X0.475000X-0.062500X0.475000X0.062500X-0.475000X0.062500X-0.475000X-0.062500X0*%
%ADD38R,5.200000X5.200000*%
%ADD39R,1.200000X1.400000*%
G04 APERTURE END LIST*
D10*
%TO.C,bite02*%
X126240000Y-71830000D03*
X125440000Y-71830000D03*
X124640000Y-71830000D03*
X123840000Y-71830000D03*
X123040000Y-71830000D03*
X122240000Y-71830000D03*
X121440000Y-71830000D03*
X120640000Y-71830000D03*
X119840000Y-71830000D03*
X119040000Y-71830000D03*
X118240000Y-71830000D03*
%TD*%
%TO.C,bite01*%
X118230000Y-73560000D03*
X119030000Y-73560000D03*
X119830000Y-73560000D03*
X120630000Y-73560000D03*
X121430000Y-73560000D03*
X122230000Y-73560000D03*
X123030000Y-73560000D03*
X123830000Y-73560000D03*
X124630000Y-73560000D03*
X125430000Y-73560000D03*
X126230000Y-73560000D03*
%TD*%
D11*
%TO.C,DD1*%
X113588750Y-68445000D03*
X114988750Y-68445000D03*
%TD*%
D12*
%TO.C,JD2*%
X126095000Y-65065000D03*
D13*
X124095000Y-65065000D03*
X122095000Y-65065000D03*
X120095000Y-65065000D03*
X118095000Y-65065000D03*
%TD*%
D14*
%TO.C,R6*%
X114711250Y-70315000D03*
X111786250Y-70315000D03*
%TD*%
D15*
%TO.C,R7*%
X129725000Y-70187500D03*
X129725000Y-67262500D03*
%TD*%
D16*
%TO.C,RD1*%
X114458750Y-63812500D03*
X114458750Y-66737500D03*
%TD*%
D17*
%TO.C,CD4*%
X112128750Y-63810000D03*
X112128750Y-66760000D03*
%TD*%
D18*
%TO.C,FD1*%
X132045000Y-64395000D03*
X132045000Y-67195000D03*
%TD*%
D19*
%TO.C,JD1*%
X126435000Y-56895000D03*
D20*
X126435000Y-61075000D03*
D19*
X117795000Y-56895000D03*
D20*
X117795000Y-61075000D03*
D21*
X118865000Y-61990000D03*
X119665000Y-61990000D03*
D22*
X120365000Y-61990000D03*
X121365000Y-61990000D03*
X122865000Y-61990000D03*
X123865000Y-61990000D03*
D21*
X124565000Y-61990000D03*
X125365000Y-61990000D03*
X125365000Y-61990000D03*
X124565000Y-61990000D03*
D22*
X123365000Y-61990000D03*
X122365000Y-61990000D03*
X121865000Y-61990000D03*
X120865000Y-61990000D03*
D21*
X119665000Y-61990000D03*
X118865000Y-61990000D03*
D23*
X125005000Y-60545000D03*
X119225000Y-60545000D03*
%TD*%
D24*
%TO.C,UD1*%
X129085000Y-63885000D03*
X129085000Y-64385000D03*
D25*
X129085000Y-64885000D03*
D24*
X129085000Y-65385000D03*
X129085000Y-65885000D03*
X129915000Y-65885000D03*
X129915000Y-65385000D03*
D25*
X129915000Y-64885000D03*
D24*
X129915000Y-64385000D03*
X129915000Y-63885000D03*
%TD*%
D26*
%TO.C,D02_1*%
X119380000Y-92290000D03*
X119380000Y-88990000D03*
%TD*%
%TO.C,D01_1*%
X123180000Y-89050000D03*
X123180000Y-92350000D03*
%TD*%
%TO.C,D02_3*%
X150210000Y-89000000D03*
X150210000Y-92300000D03*
%TD*%
%TO.C,D00_1*%
X127140000Y-89050000D03*
X127140000Y-92350000D03*
%TD*%
%TO.C,D01_2*%
X137040000Y-89020000D03*
X137040000Y-92320000D03*
%TD*%
%TO.C,D01_3*%
X154020000Y-88960000D03*
X154020000Y-92260000D03*
%TD*%
%TO.C,D00_3*%
X157930000Y-89010000D03*
X157930000Y-92310000D03*
%TD*%
%TO.C,D00_2*%
X141080000Y-88940000D03*
X141080000Y-92240000D03*
%TD*%
%TO.C,D02_2*%
X132920000Y-92320000D03*
X132920000Y-89020000D03*
%TD*%
D27*
%TO.C,SW02_2*%
X144635000Y-121595200D03*
D28*
X143365000Y-124135200D03*
D29*
X139555000Y-121595200D03*
D28*
X137015000Y-126675200D03*
D27*
X134475000Y-121595200D03*
D30*
X146640000Y-124135200D03*
X133713000Y-126675200D03*
%TD*%
D27*
%TO.C,SW01_3*%
X153510000Y-102540000D03*
D28*
X154780000Y-100000000D03*
D29*
X158590000Y-102540000D03*
D28*
X161130000Y-97460000D03*
D27*
X163670000Y-102540000D03*
D30*
X151505000Y-100000000D03*
X164432000Y-97460000D03*
%TD*%
D27*
%TO.C,SW00_3*%
X153520000Y-83500000D03*
D28*
X154790000Y-80960000D03*
D29*
X158600000Y-83500000D03*
D28*
X161140000Y-78420000D03*
D27*
X163680000Y-83500000D03*
D30*
X151515000Y-80960000D03*
X164442000Y-78420000D03*
%TD*%
D27*
%TO.C,SW02_3*%
X163675000Y-121605200D03*
D28*
X162405000Y-124145200D03*
D29*
X158595000Y-121605200D03*
D28*
X156055000Y-126685200D03*
D27*
X153515000Y-121605200D03*
D30*
X165680000Y-124145200D03*
X152753000Y-126685200D03*
%TD*%
D27*
%TO.C,SW01_1*%
X115420000Y-102550000D03*
D28*
X116690000Y-100010000D03*
D29*
X120500000Y-102550000D03*
D28*
X123040000Y-97470000D03*
D27*
X125580000Y-102550000D03*
D30*
X113415000Y-100010000D03*
X126342000Y-97470000D03*
%TD*%
D27*
%TO.C,SW01_2*%
X134470000Y-102540000D03*
D28*
X135740000Y-100000000D03*
D29*
X139550000Y-102540000D03*
D28*
X142090000Y-97460000D03*
D27*
X144630000Y-102540000D03*
D30*
X132465000Y-100000000D03*
X145392000Y-97460000D03*
%TD*%
D27*
%TO.C,SW00_1*%
X115420000Y-83490000D03*
D28*
X116690000Y-80950000D03*
D29*
X120500000Y-83490000D03*
D28*
X123040000Y-78410000D03*
D27*
X125580000Y-83490000D03*
D30*
X113415000Y-80950000D03*
X126342000Y-78410000D03*
%TD*%
D27*
%TO.C,SW00_2*%
X134470000Y-83490000D03*
D28*
X135740000Y-80950000D03*
D29*
X139550000Y-83490000D03*
D28*
X142090000Y-78410000D03*
D27*
X144630000Y-83490000D03*
D30*
X132465000Y-80950000D03*
X145392000Y-78410000D03*
%TD*%
D27*
%TO.C,SW02_1*%
X125575000Y-121590000D03*
D28*
X124305000Y-124130000D03*
D29*
X120495000Y-121590000D03*
D28*
X117955000Y-126670000D03*
D27*
X115415000Y-121590000D03*
D30*
X127580000Y-124130000D03*
X114653000Y-126670000D03*
%TD*%
D31*
%TO.C,C1*%
X115405000Y-108830000D03*
X112455000Y-108830000D03*
%TD*%
D32*
%TO.C,C2*%
X112455000Y-111290000D03*
X115405000Y-111290000D03*
%TD*%
%TO.C,C3*%
X112445000Y-113770000D03*
X115395000Y-113770000D03*
%TD*%
D33*
%TO.C,C5*%
X131320000Y-115135000D03*
X131320000Y-118085000D03*
%TD*%
%TO.C,C6*%
X128920000Y-115130000D03*
X128920000Y-118080000D03*
%TD*%
%TO.C,C7*%
X126490000Y-115130000D03*
X126490000Y-118080000D03*
%TD*%
%TO.C,C8*%
X124060000Y-115160000D03*
X124060000Y-118110000D03*
%TD*%
D12*
%TO.C,J1*%
X143540000Y-106630000D03*
D13*
X141540000Y-106630000D03*
X139540000Y-106630000D03*
X137540000Y-106630000D03*
X135540000Y-106630000D03*
%TD*%
D34*
%TO.C,R2*%
X151012500Y-107120000D03*
X148087500Y-107120000D03*
%TD*%
D14*
%TO.C,R3*%
X148077500Y-109520000D03*
X151002500Y-109520000D03*
%TD*%
D34*
%TO.C,R4*%
X151020000Y-104710000D03*
X148095000Y-104710000D03*
%TD*%
D14*
%TO.C,R5*%
X148067500Y-111990000D03*
X150992500Y-111990000D03*
%TD*%
D35*
%TO.C,RESET_SW1*%
X155567500Y-111855000D03*
X161567500Y-111855000D03*
X155567500Y-108105000D03*
X161567500Y-108105000D03*
%TD*%
D36*
%TO.C,U1*%
X129590000Y-112557500D03*
X129090000Y-112557500D03*
X128590000Y-112557500D03*
X128090000Y-112557500D03*
X127590000Y-112557500D03*
X127090000Y-112557500D03*
X126590000Y-112557500D03*
X126090000Y-112557500D03*
X125590000Y-112557500D03*
X125090000Y-112557500D03*
X124590000Y-112557500D03*
D37*
X123752500Y-111720000D03*
X123752500Y-111220000D03*
X123752500Y-110720000D03*
X123752500Y-110220000D03*
X123752500Y-109720000D03*
X123752500Y-109220000D03*
X123752500Y-108720000D03*
X123752500Y-108220000D03*
X123752500Y-107720000D03*
X123752500Y-107220000D03*
X123752500Y-106720000D03*
D36*
X124590000Y-105882500D03*
X125090000Y-105882500D03*
X125590000Y-105882500D03*
X126090000Y-105882500D03*
X126590000Y-105882500D03*
X127090000Y-105882500D03*
X127590000Y-105882500D03*
X128090000Y-105882500D03*
X128590000Y-105882500D03*
X129090000Y-105882500D03*
X129590000Y-105882500D03*
D37*
X130427500Y-106720000D03*
X130427500Y-107220000D03*
X130427500Y-107720000D03*
X130427500Y-108220000D03*
X130427500Y-108720000D03*
X130427500Y-109220000D03*
X130427500Y-109720000D03*
X130427500Y-110220000D03*
X130427500Y-110720000D03*
X130427500Y-111220000D03*
X130427500Y-111720000D03*
D38*
X127090000Y-109220000D03*
%TD*%
D39*
%TO.C,Y1*%
X118845000Y-111060000D03*
X118845000Y-108860000D03*
X120595000Y-108860000D03*
X120595000Y-111060000D03*
%TD*%
M02*
