%TF.GenerationSoftware,KiCad,Pcbnew,8.0.2*%
%TF.CreationDate,2024-10-13T22:55:22+09:00*%
%TF.ProjectId,typing-check-board,74797069-6e67-42d6-9368-65636b2d626f,rev?*%
%TF.SameCoordinates,Original*%
%TF.FileFunction,Profile,NP*%
%FSLAX46Y46*%
G04 Gerber Fmt 4.6, Leading zero omitted, Abs format (unit mm)*
G04 Created by KiCad (PCBNEW 8.0.2) date 2024-10-13 22:55:22*
%MOMM*%
%LPD*%
G01*
G04 APERTURE LIST*
%TA.AperFunction,Profile*%
%ADD10C,0.100000*%
%TD*%
G04 APERTURE END LIST*
D10*
X119545117Y-73962609D02*
X119545117Y-71470000D01*
X111981878Y-73962609D02*
X119545117Y-73962609D01*
X111786678Y-73981909D02*
X111981878Y-73962609D01*
X111600578Y-74038209D02*
X111786678Y-73981909D01*
X111427078Y-74130609D02*
X111600578Y-74038209D01*
X111274778Y-74255509D02*
X111427078Y-74130609D01*
X111150278Y-74407209D02*
X111274778Y-74255509D01*
X111058578Y-74578509D02*
X111150278Y-74407209D01*
X111001278Y-74766609D02*
X111058578Y-74578509D01*
X110981878Y-74962609D02*
X111001278Y-74766609D01*
X110981878Y-130128309D02*
X110981878Y-74962609D01*
X111001078Y-130323309D02*
X110981878Y-130128309D01*
X111057378Y-130509309D02*
X111001078Y-130323309D01*
X111149878Y-130682309D02*
X111057378Y-130509309D01*
X111274778Y-130835309D02*
X111149878Y-130682309D01*
X111426478Y-130959309D02*
X111274778Y-130835309D01*
X111597778Y-131051309D02*
X111426478Y-130959309D01*
X111785878Y-131108309D02*
X111597778Y-131051309D01*
X111981878Y-131128309D02*
X111785878Y-131108309D01*
X167126878Y-131128309D02*
X111981878Y-131128309D01*
X167322178Y-131108309D02*
X167126878Y-131128309D01*
X167507778Y-131052309D02*
X167322178Y-131108309D01*
X167681778Y-130960309D02*
X167507778Y-131052309D01*
X167833778Y-130835309D02*
X167681778Y-130960309D01*
X167958778Y-130683309D02*
X167833778Y-130835309D01*
X168049778Y-130512309D02*
X167958778Y-130683309D01*
X168107778Y-130324309D02*
X168049778Y-130512309D01*
X168126778Y-130128309D02*
X168107778Y-130324309D01*
X168126778Y-74962609D02*
X168126778Y-130128309D01*
X168107778Y-74767409D02*
X168126778Y-74962609D01*
X168051778Y-74581409D02*
X168107778Y-74767409D01*
X167958778Y-74407809D02*
X168051778Y-74581409D01*
X167833778Y-74255509D02*
X167958778Y-74407809D01*
X167682778Y-74131109D02*
X167833778Y-74255509D01*
X167510778Y-74039309D02*
X167682778Y-74131109D01*
X167322878Y-73982009D02*
X167510778Y-74039309D01*
X167126878Y-73962609D02*
X167322878Y-73982009D01*
X124916234Y-73962609D02*
X167126878Y-73962609D01*
X124916234Y-71470000D02*
X124916234Y-73962609D01*
X132171700Y-71470000D02*
X124916234Y-71470000D01*
X132366900Y-71450800D02*
X132171700Y-71470000D01*
X132553000Y-71394400D02*
X132366900Y-71450800D01*
X132726500Y-71302000D02*
X132553000Y-71394400D01*
X132878800Y-71177100D02*
X132726500Y-71302000D01*
X133003300Y-71025400D02*
X132878800Y-71177100D01*
X133095000Y-70854100D02*
X133003300Y-71025400D01*
X133152300Y-70666000D02*
X133095000Y-70854100D01*
X133171700Y-70470000D02*
X133152300Y-70666000D01*
X133171700Y-56601200D02*
X133171700Y-70470000D01*
X133152500Y-56406000D02*
X133171700Y-56601200D01*
X133096200Y-56219900D02*
X133152500Y-56406000D01*
X133003700Y-56046400D02*
X133096200Y-56219900D01*
X132878800Y-55894100D02*
X133003700Y-56046400D01*
X132727100Y-55769700D02*
X132878800Y-55894100D01*
X132555800Y-55677900D02*
X132727100Y-55769700D01*
X132367700Y-55620600D02*
X132555800Y-55677900D01*
X132171700Y-55601200D02*
X132367700Y-55620600D01*
X111980000Y-55601200D02*
X132171700Y-55601200D01*
X111784800Y-55620400D02*
X111980000Y-55601200D01*
X111598700Y-55676800D02*
X111784800Y-55620400D01*
X111425200Y-55769200D02*
X111598700Y-55676800D01*
X111272900Y-55894100D02*
X111425200Y-55769200D01*
X111148500Y-56045800D02*
X111272900Y-55894100D01*
X111056700Y-56217100D02*
X111148500Y-56045800D01*
X110999400Y-56405200D02*
X111056700Y-56217100D01*
X110980000Y-56601200D02*
X110999400Y-56405200D01*
X110980000Y-70470000D02*
X110980000Y-56601200D01*
X110999200Y-70665200D02*
X110980000Y-70470000D01*
X111055600Y-70851200D02*
X110999200Y-70665200D01*
X111148000Y-71024800D02*
X111055600Y-70851200D01*
X111272900Y-71177100D02*
X111148000Y-71024800D01*
X111424600Y-71301500D02*
X111272900Y-71177100D01*
X111595900Y-71393300D02*
X111424600Y-71301500D01*
X111784000Y-71450600D02*
X111595900Y-71393300D01*
X111980000Y-71470000D02*
X111784000Y-71450600D01*
X119545117Y-71470000D02*
X111980000Y-71470000D01*
X114939100Y-58880400D02*
X114952400Y-59052000D01*
X114898900Y-58712100D02*
X114939100Y-58880400D01*
X114832900Y-58552900D02*
X114898900Y-58712100D01*
X114742700Y-58405800D02*
X114832900Y-58552900D01*
X114630200Y-58274100D02*
X114742700Y-58405800D01*
X114499900Y-58162600D02*
X114630200Y-58274100D01*
X114353200Y-58072300D02*
X114499900Y-58162600D01*
X114193400Y-58005900D02*
X114353200Y-58072300D01*
X114025000Y-57965500D02*
X114193400Y-58005900D01*
X113852400Y-57952000D02*
X114025000Y-57965500D01*
X113680800Y-57965300D02*
X113852400Y-57952000D01*
X113512500Y-58005500D02*
X113680800Y-57965300D01*
X113353300Y-58071500D02*
X113512500Y-58005500D01*
X113206200Y-58161700D02*
X113353300Y-58071500D01*
X113074600Y-58274100D02*
X113206200Y-58161700D01*
X112963100Y-58404400D02*
X113074600Y-58274100D01*
X112872700Y-58551100D02*
X112963100Y-58404400D01*
X112806300Y-58711000D02*
X112872700Y-58551100D01*
X112765900Y-58879300D02*
X112806300Y-58711000D01*
X112752400Y-59052000D02*
X112765900Y-58879300D01*
X112765700Y-59223600D02*
X112752400Y-59052000D01*
X112805900Y-59391900D02*
X112765700Y-59223600D01*
X112871900Y-59551100D02*
X112805900Y-59391900D01*
X112962100Y-59698200D02*
X112871900Y-59551100D01*
X113074600Y-59829800D02*
X112962100Y-59698200D01*
X113204900Y-59941300D02*
X113074600Y-59829800D01*
X113351600Y-60031700D02*
X113204900Y-59941300D01*
X113511400Y-60098100D02*
X113351600Y-60031700D01*
X113679800Y-60138500D02*
X113511400Y-60098100D01*
X113852400Y-60152000D02*
X113679800Y-60138500D01*
X114024000Y-60138700D02*
X113852400Y-60152000D01*
X114192200Y-60098500D02*
X114024000Y-60138700D01*
X114351400Y-60032500D02*
X114192200Y-60098500D01*
X114498500Y-59942300D02*
X114351400Y-60032500D01*
X114630200Y-59829800D02*
X114498500Y-59942300D01*
X114741700Y-59699500D02*
X114630200Y-59829800D01*
X114832100Y-59552800D02*
X114741700Y-59699500D01*
X114898500Y-59393000D02*
X114832100Y-59552800D01*
X114938900Y-59224700D02*
X114898500Y-59393000D01*
X114952400Y-59052000D02*
X114938900Y-59224700D01*
X131387200Y-58880400D02*
X131400500Y-59052000D01*
X131347000Y-58712100D02*
X131387200Y-58880400D01*
X131281000Y-58552900D02*
X131347000Y-58712100D01*
X131190800Y-58405800D02*
X131281000Y-58552900D01*
X131078300Y-58274100D02*
X131190800Y-58405800D01*
X130948000Y-58162600D02*
X131078300Y-58274100D01*
X130801300Y-58072300D02*
X130948000Y-58162600D01*
X130641500Y-58005900D02*
X130801300Y-58072300D01*
X130473100Y-57965500D02*
X130641500Y-58005900D01*
X130300500Y-57952000D02*
X130473100Y-57965500D01*
X130128900Y-57965300D02*
X130300500Y-57952000D01*
X129960700Y-58005500D02*
X130128900Y-57965300D01*
X129801500Y-58071500D02*
X129960700Y-58005500D01*
X129654400Y-58161700D02*
X129801500Y-58071500D01*
X129522700Y-58274100D02*
X129654400Y-58161700D01*
X129411200Y-58404400D02*
X129522700Y-58274100D01*
X129320800Y-58551100D02*
X129411200Y-58404400D01*
X129254400Y-58711000D02*
X129320800Y-58551100D01*
X129214000Y-58879300D02*
X129254400Y-58711000D01*
X129200500Y-59052000D02*
X129214000Y-58879300D01*
X129213800Y-59223600D02*
X129200500Y-59052000D01*
X129254000Y-59391900D02*
X129213800Y-59223600D01*
X129320000Y-59551100D02*
X129254000Y-59391900D01*
X129410200Y-59698200D02*
X129320000Y-59551100D01*
X129522700Y-59829800D02*
X129410200Y-59698200D01*
X129653000Y-59941300D02*
X129522700Y-59829800D01*
X129799700Y-60031700D02*
X129653000Y-59941300D01*
X129959500Y-60098100D02*
X129799700Y-60031700D01*
X130127900Y-60138500D02*
X129959500Y-60098100D01*
X130300500Y-60152000D02*
X130127900Y-60138500D01*
X130472100Y-60138700D02*
X130300500Y-60152000D01*
X130640400Y-60098500D02*
X130472100Y-60138700D01*
X130799600Y-60032500D02*
X130640400Y-60098500D01*
X130946700Y-59942300D02*
X130799600Y-60032500D01*
X131078300Y-59829800D02*
X130946700Y-59942300D01*
X131189800Y-59699500D02*
X131078300Y-59829800D01*
X131280200Y-59552800D02*
X131189800Y-59699500D01*
X131346600Y-59393000D02*
X131280200Y-59552800D01*
X131387000Y-59224700D02*
X131346600Y-59393000D01*
X131400500Y-59052000D02*
X131387000Y-59224700D01*
M02*
