M48
; DRILL file {KiCad 8.0.2} date 2024-10-13T22:55:24+0900
; FORMAT={-:-/ absolute / inch / decimal}
; #@! TF.CreationDate,2024-10-13T22:55:24+09:00
; #@! TF.GenerationSoftware,Kicad,Pcbnew,8.0.2
; #@! TF.FileFunction,NonPlated,1,2,NPTH
FMAT,2
INCH
; #@! TA.AperFunction,NonPlated,NPTH,ComponentDrill
T1C0.0236
; #@! TA.AperFunction,NonPlated,NPTH,ComponentDrill
T2C0.0256
; #@! TA.AperFunction,NonPlated,NPTH,ComponentDrill
T3C0.0689
; #@! TA.AperFunction,NonPlated,NPTH,ComponentDrill
T4C0.1181
; #@! TA.AperFunction,NonPlated,NPTH,ComponentDrill
T5C0.1570
%
G90
G05
T1
X4.6547Y-2.8961
X4.6551Y-2.828
X4.6862Y-2.8961
X4.6866Y-2.828
X4.7177Y-2.8961
X4.7181Y-2.828
X4.7492Y-2.8961
X4.7496Y-2.828
X4.7807Y-2.8961
X4.7811Y-2.828
X4.8122Y-2.8961
X4.8126Y-2.828
X4.8437Y-2.8961
X4.8441Y-2.828
X4.8752Y-2.8961
X4.8756Y-2.828
X4.9067Y-2.8961
X4.9071Y-2.828
X4.9382Y-2.8961
X4.9386Y-2.828
X4.9697Y-2.8961
X4.9701Y-2.828
T2
X4.6939Y-2.3837
X4.9215Y-2.3837
T3
X4.5439Y-4.787
X4.5441Y-3.287
X4.5441Y-4.0374
X4.9439Y-4.787
X4.9441Y-3.287
X4.9441Y-4.0374
X5.2941Y-3.287
X5.2941Y-4.037
X5.2943Y-4.7872
X5.6941Y-3.287
X5.6941Y-4.037
X5.6943Y-4.7872
X6.0437Y-4.037
X6.0439Y-4.7876
X6.0441Y-3.2874
X6.4437Y-4.037
X6.4439Y-4.7876
X6.4441Y-3.2874
T4
X4.5941Y-3.187
X4.5941Y-3.9374
X4.6439Y-4.987
X4.8441Y-3.087
X4.8441Y-3.8374
X4.8939Y-4.887
X5.3441Y-3.187
X5.3441Y-3.937
X5.3943Y-4.9872
X5.5941Y-3.087
X5.5941Y-3.837
X5.6443Y-4.8872
X6.0937Y-3.937
X6.0941Y-3.1874
X6.1439Y-4.9876
X6.3437Y-3.837
X6.3441Y-3.0874
X6.3939Y-4.8876
T5
X4.7439Y-4.787
X4.7441Y-3.287
X4.7441Y-4.0374
X5.4941Y-3.287
X5.4941Y-4.037
X5.4943Y-4.7872
X6.2437Y-4.037
X6.2439Y-4.7876
X6.2441Y-3.2874
M30
